<svg xmlns="http://www.w3.org/2000/svg" width="24" height="24" fill="none" viewBox="0 0 24 24">
  <path fill="currentColor" d="M21.75 10.5a2.25 2.25 0 0 0-2.25-2.25h-6.75v-.844A3.006 3.006 0 0 0 15 4.5C15 1.875 12.521.196 12.416.126a.75.75 0 0 0-.832 0C11.479.196 9 1.875 9 4.5a3.006 3.006 0 0 0 2.25 2.906v.844H4.5a2.25 2.25 0 0 0-2.25 2.25v2.187c0 .818.264 1.615.75 2.273v3.79A2.25 2.25 0 0 0 5.25 21h13.5A2.25 2.25 0 0 0 21 18.75v-3.79c.486-.658.75-1.455.75-2.273V10.5Zm-11.25-6c0-1.272.938-2.293 1.5-2.793.563.5 1.5 1.52 1.5 2.793a1.5 1.5 0 1 1-3 0Zm-6.75 6a.75.75 0 0 1 .75-.75h15a.75.75 0 0 1 .75.75v2.187c0 1.242-.98 2.28-2.186 2.312a2.25 2.25 0 0 1-2.314-2.249.75.75 0 1 0-1.5 0 2.25 2.25 0 0 1-4.5 0 .75.75 0 1 0-1.5 0A2.25 2.25 0 0 1 5.936 15c-1.205-.034-2.186-1.07-2.186-2.313V10.5Zm15 9H5.25a.75.75 0 0 1-.75-.75v-2.573c.439.2.913.31 1.395.323A3.72 3.72 0 0 0 9 15a3.751 3.751 0 0 0 6 0c.118.156.247.302.387.438A3.72 3.72 0 0 0 18 16.5h.107a3.635 3.635 0 0 0 1.393-.323v2.573a.75.75 0 0 1-.75.75Z"/>
</svg>
