<svg xmlns="http://www.w3.org/2000/svg" width="24" height="24" fill="none" viewBox="0 0 24 24">
  <path fill="currentColor" d="M6.75 9.75a.75.75 0 0 0-.75.75V12a.75.75 0 0 0 1.5 0v-1.5a.75.75 0 0 0-.75-.75Zm0 5.25a.75.75 0 0 0-.75.75v1.5a.75.75 0 0 0 1.5 0v-1.5a.75.75 0 0 0-.75-.75ZM9 10.5a.75.75 0 0 1 1.5 0V12A.75.75 0 0 1 9 12v-1.5Zm.75 4.5a.75.75 0 0 0-.75.75v1.5a.75.75 0 0 0 1.5 0v-1.5a.75.75 0 0 0-.75-.75Z"/>
  <path fill="currentColor" d="M19.5 7.5A1.5 1.5 0 0 1 21 9v10.5h1.5a.75.75 0 0 1 0 1.5h-21a.75.75 0 0 1 0-1.5H3V8.002c-.001-.502.249-.97.668-1.25l7.5-5c.246-.163.532-.25.829-.251h.002c.827 0 1.5.672 1.501 1.498V7.5h6ZM12 3 4.5 8.001V19.5H12V3Zm7.5 16.5V9h-6v10.5h6Z"/>
</svg>
