<svg xmlns="http://www.w3.org/2000/svg" width="24" height="24" fill="none" viewBox="0 0 24 24">
  <path fill="currentColor" d="M20.192 7.961a.752.752 0 0 0-.162-.241l-5.25-5.25a.752.752 0 0 0-.53-.22h-9c-.827 0-1.5.673-1.5 1.5v6.75a.75.75 0 0 0 1.5 0V3.75h8.25v4.5c0 .414.336.75.75.75h4.5v1.5a.75.75 0 0 0 1.5 0V8.25a.75.75 0 0 0-.058-.289ZM15 4.811 17.69 7.5H15V4.81Zm-3.75 9.439a.75.75 0 0 1 1.5 0v5.25a.75.75 0 0 1-1.5 0v-5.25Zm3.75 0a.75.75 0 0 1 .75-.75h1.5a2.628 2.628 0 0 1 2.625 2.625 2.628 2.628 0 0 1-2.625 2.625h-.75v.75a.75.75 0 0 1-1.5 0v-5.25Zm3.375 1.875c0-.62-.505-1.125-1.125-1.125h-.75v2.25h.75c.62 0 1.125-.505 1.125-1.125Zm-9.474-1.503L6.542 18.75H8.25a.75.75 0 0 1 0 1.5h-3a.749.749 0 0 1-.651-1.122L6.958 15H5.25a.75.75 0 0 1 0-1.5h3a.749.749 0 0 1 .651 1.122Z"/>
</svg>
