<svg xmlns="http://www.w3.org/2000/svg" width="24" height="24" fill="none" viewBox="0 0 24 24">
  <path fill="currentColor" d="M12 7.5a4.5 4.5 0 1 0 0 9 4.5 4.5 0 0 0 0-9ZM9 12a3 3 0 1 1 6 0 3 3 0 0 1-6 0Z"/>
  <path fill="currentColor" d="M12 4.5c-4 0-6.805 1.807-8.593 3.595a14.19 14.19 0 0 0-1.956 2.45A11.968 11.968 0 0 0 .86 11.6c-.014.028-.025.05-.032.067l-.01.02-.002.006-.001.003a.752.752 0 0 0 0 .61v.001l.001.002.003.007.009.02.032.066a11.968 11.968 0 0 0 .591 1.053 14.1 14.1 0 0 0 1.956 2.451C5.195 17.693 8 19.5 12 19.5s6.805-1.807 8.593-3.595a14.19 14.19 0 0 0 1.956-2.45 11.994 11.994 0 0 0 .591-1.054l.032-.067.009-.02.002-.006.002-.003a.752.752 0 0 0 0-.61v-.001l-.002-.002-.002-.007-.01-.02a5.921 5.921 0 0 0-.15-.303c-.105-.2-.262-.481-.472-.816a14.193 14.193 0 0 0-1.956-2.451C18.805 6.307 15.999 4.5 12 4.5Zm-9.28 8.155c-.167-.265-.293-.49-.382-.655.089-.165.215-.39.382-.655a12.69 12.69 0 0 1 1.748-2.19C6.055 7.568 8.499 6 12 6c3.5 0 5.945 1.568 7.532 3.155a12.688 12.688 0 0 1 1.747 2.19c.167.265.294.49.382.655-.088.165-.215.39-.382.655a12.69 12.69 0 0 1-1.747 2.19C17.945 16.432 15.5 18 12 18s-5.945-1.568-7.532-3.155a12.693 12.693 0 0 1-1.748-2.19Z"/>
</svg>
