<svg xmlns="http://www.w3.org/2000/svg" width="24" height="24" fill="none" viewBox="0 0 24 24">
  <path fill="currentColor" d="M12 7.5a4.5 4.5 0 1 0 0 9 4.5 4.5 0 0 0 0-9ZM9 12a3 3 0 1 1 6 0 3 3 0 0 1-6 0Z"/>
  <path fill="currentColor" d="M10.05 2.354a.75.75 0 0 0-.66-.14c-.86.228-1.687.568-2.458 1.013a.75.75 0 0 0-.37.566l-.25 2.224a8.343 8.343 0 0 0-.287.287l-2.226.25a.75.75 0 0 0-.565.37c-.447.771-.79 1.599-1.018 2.461a.75.75 0 0 0 .139.66l1.397 1.75c-.003.135-.003.27 0 .406l-1.398 1.75a.75.75 0 0 0-.139.66c.23.862.573 1.69 1.02 2.462a.75.75 0 0 0 .562.368l2.229.26c.093.1.19.195.287.289l.25 2.226a.75.75 0 0 0 .371.566c.772.445 1.6.785 2.462 1.012a.75.75 0 0 0 .659-.139l1.75-1.397c.135.003.27.003.405 0l1.75 1.398a.75.75 0 0 0 .66.14c.863-.23 1.69-.573 2.462-1.021a.75.75 0 0 0 .369-.565l.25-2.225a8.57 8.57 0 0 0 .286-.286l2.226-.25a.75.75 0 0 0 .566-.371c.445-.772.785-1.6 1.013-2.461a.75.75 0 0 0-.14-.66l-1.397-1.75a8.31 8.31 0 0 0 0-.405l1.398-1.75a.75.75 0 0 0 .14-.66c-.23-.863-.573-1.69-1.02-2.462a.75.75 0 0 0-.566-.368l-2.224-.25a8.38 8.38 0 0 0-.287-.287l-.25-2.226a.75.75 0 0 0-.37-.565 10.03 10.03 0 0 0-2.461-1.018.75.75 0 0 0-.66.139l-1.75 1.397a8.408 8.408 0 0 0-.406 0l-1.75-1.398Zm-2.28 4.11.239-2.117c.45-.235.921-.429 1.407-.58L11.082 5.1a.75.75 0 0 0 .512.163c.272-.016.544-.016.816 0a.75.75 0 0 0 .512-.163l1.665-1.33c.487.152.96.348 1.412.584l.238 2.118a.75.75 0 0 0 .247.477c.203.18.395.372.575.575a.75.75 0 0 0 .478.248l2.117.238c.237.452.433.924.585 1.41l-1.33 1.666a.75.75 0 0 0-.163.512c.016.271.016.544 0 .815a.75.75 0 0 0 .162.512l1.331 1.667a8.576 8.576 0 0 1-.58 1.41l-2.118.238a.75.75 0 0 0-.477.248c-.18.203-.372.395-.575.575a.75.75 0 0 0-.248.477l-.238 2.118a8.541 8.541 0 0 1-1.41.585l-1.665-1.33a.75.75 0 0 0-.513-.164 6.885 6.885 0 0 1-.815 0 .75.75 0 0 0-.512.163l-1.667 1.33a8.576 8.576 0 0 1-1.41-.58l-.238-2.117a.75.75 0 0 0-.248-.477 6.847 6.847 0 0 1-.575-.576.75.75 0 0 0-.474-.247l-2.122-.248a8.545 8.545 0 0 1-.586-1.412L5.1 12.918a.75.75 0 0 0 .163-.512 6.897 6.897 0 0 1 0-.816.75.75 0 0 0-.163-.512L3.77 9.413a8.57 8.57 0 0 1 .584-1.412l2.118-.238a.75.75 0 0 0 .477-.247c.18-.203.372-.395.575-.575a.75.75 0 0 0 .248-.478Z"/>
</svg>
