<svg xmlns="http://www.w3.org/2000/svg" width="24" height="24" fill="none" viewBox="0 0 24 24">
  <path fill="currentColor" d="M21.196 15.21A9.687 9.687 0 0 0 21.75 12a9.687 9.687 0 0 0-.554-3.21.726.726 0 0 0-.046-.126c-1.36-3.715-4.908-6.381-9.081-6.41l-.011-.002h-.01L12 2.25c-4.203 0-7.784 2.68-9.15 6.416-.02.039-.032.08-.045.122A9.686 9.686 0 0 0 2.25 12c0 1.127.202 2.205.555 3.213.013.042.025.083.045.121C4.216 19.071 7.797 21.75 12 21.75s7.783-2.678 9.15-6.414a.726.726 0 0 0 .046-.127Zm-4.864-5.46h3.598c.204.716.32 1.47.32 2.25s-.116 1.534-.32 2.25h-3.598a15.045 15.045 0 0 0 0-4.5Zm3.007-1.5h-3.313a13.342 13.342 0 0 0-1.901-4.212 8.274 8.274 0 0 1 5.214 4.212Zm-7.329 12c-1.133-1.223-1.98-2.775-2.483-4.5h4.948c-.5 1.724-1.34 3.277-2.457 4.5h-.008Zm-2.824-6a13.699 13.699 0 0 1 0-4.5h5.629a13.711 13.711 0 0 1 0 4.5h-5.63Zm2.805-10.5c1.132 1.223 1.98 2.776 2.482 4.5H9.526c.5-1.724 1.339-3.277 2.456-4.5h.009Zm-2.116.288A13.34 13.34 0 0 0 7.974 8.25H4.66a8.274 8.274 0 0 1 5.214-4.212ZM7.667 14.25H4.07A8.211 8.211 0 0 1 3.75 12c0-.78.116-1.534.32-2.25h3.598a15.125 15.125 0 0 0 0 4.5Zm-3.006 1.5h3.312a13.37 13.37 0 0 0 1.902 4.212 8.274 8.274 0 0 1-5.214-4.212Zm9.464 4.212a13.338 13.338 0 0 0 1.901-4.212h3.313a8.275 8.275 0 0 1-5.214 4.212Z"/>
</svg>
