<svg xmlns="http://www.w3.org/2000/svg" width="24" height="24" fill="none" viewBox="0 0 24 24">
  <path fill="currentColor" d="M13.5 10.5a.75.75 0 0 1 .75-.75H18a.75.75 0 0 1 0 1.5h-3.75a.75.75 0 0 1-.75-.75Zm0 3a.75.75 0 0 1 .75-.75H18a.75.75 0 0 1 0 1.5h-3.75a.75.75 0 0 1-.75-.75Zm-2.384-.123a3 3 0 1 0-4.231 0c-.78.501-1.376 1.27-1.611 2.186a.75.75 0 0 0 1.452.374C6.97 14.993 7.925 14.25 9 14.25c1.076 0 2.032.743 2.273 1.686a.75.75 0 1 0 1.453-.372c-.235-.917-.83-1.686-1.61-2.187ZM9 9.75a1.5 1.5 0 1 1 0 3 1.5 1.5 0 0 1 0-3Z"/>
  <path fill="currentColor" d="M3.75 3.75a1.5 1.5 0 0 0-1.5 1.5v13.5a1.5 1.5 0 0 0 1.5 1.5h16.5a1.5 1.5 0 0 0 1.5-1.5V5.25a1.5 1.5 0 0 0-1.5-1.5H3.75Zm0 1.5h16.5v13.5H3.75V5.25Z"/>
</svg>
