<svg xmlns="http://www.w3.org/2000/svg" width="24" height="24" fill="none" viewBox="0 0 24 24">
  <path fill="currentColor" d="M15.75 9.375a1.125 1.125 0 1 1-2.25 0 1.125 1.125 0 0 1 2.25 0Z"/>
  <path fill="currentColor" d="M3.75 3.75a1.5 1.5 0 0 0-1.5 1.5v13.5a1.5 1.5 0 0 0 1.5 1.5h16.5a1.5 1.5 0 0 0 1.5-1.5V5.25a1.5 1.5 0 0 0-1.5-1.5H3.75Zm11.121 11.625L16.75 13.5l3.501 3.504v1.746h-2.004l-3.375-3.375Zm-1.607.514.016.016.007.007.009.009 2.829 2.829H3.75v-2.625l4.875-4.875 4.64 4.64Zm.547-1.575L9.686 10.19a1.5 1.5 0 0 0-2.122 0L3.75 14.004V5.25h16.5v9.632l-2.44-2.443a1.5 1.5 0 0 0-2.121 0l-1.878 1.875Z"/>
</svg>
