<svg xmlns="http://www.w3.org/2000/svg" width="24" height="24" fill="none" viewBox="0 0 24 24">
  <path fill="currentColor" d="m13.846 4.856-2.816 2.81a.75.75 0 1 1-1.06-1.062l2.822-2.816a5.25 5.25 0 0 1 7.425 7.425l-.005.004-2.818 2.814a.75.75 0 0 1-1.06-1.062l2.816-2.81a3.75 3.75 0 0 0-5.304-5.303Z"/>
  <path fill="currentColor" d="M15.53 8.47a.75.75 0 0 1 0 1.06l-6 6a.75.75 0 1 1-1.06-1.06l6-6a.75.75 0 0 1 1.06 0Z"/>
  <path fill="currentColor" d="M7.666 11.03a.75.75 0 1 0-1.061-1.06l-2.813 2.818-.004.004a5.25 5.25 0 0 0 7.425 7.425l2.818-2.823a.75.75 0 1 0-1.062-1.06l-2.81 2.815a3.75 3.75 0 0 1-5.303-5.303l2.81-2.816Z"/>
</svg>
