<svg xmlns="http://www.w3.org/2000/svg" width="24" height="24" fill="none" viewBox="0 0 24 24">
  <path fill="currentColor" d="M21.73 5.148c-.009-.058-.013-.114-.035-.17-.02-.05-.053-.092-.083-.137-.021-.032-.032-.069-.059-.098l-.014-.01c-.038-.04-.087-.067-.134-.098-.035-.023-.066-.054-.105-.07-.033-.015-.07-.016-.106-.026-.06-.016-.118-.035-.179-.036L21 4.5H3l-.015.003c-.062.001-.12.02-.18.036-.035.01-.073.011-.105.026-.039.017-.07.047-.106.07-.046.032-.095.058-.133.098l-.014.01c-.026.029-.037.065-.058.097-.031.045-.064.088-.084.14-.02.052-.025.107-.033.162-.006.037-.022.07-.022.108V18c0 .386.15.734.389 1 .015.02.021.043.039.062.026.027.06.04.088.062.264.231.606.376.984.376h16.5a1.5 1.5 0 0 0 1.5-1.5V5.25c0-.036-.016-.067-.02-.102ZM3.75 6.954 9.254 12 3.75 17.045V6.955ZM4.928 6h14.144l-5.924 5.431a.783.783 0 0 0-.036.032L12 12.483l-1.113-1.02-.03-.028-.005-.004L4.928 6Zm5.435 7.018 1.13 1.035a.75.75 0 0 0 1.013 0l1.13-1.035L19.072 18H4.928l5.435-4.982ZM14.746 12l5.504-5.045v10.09L14.746 12Z"/>
</svg>
