<svg xmlns="http://www.w3.org/2000/svg" width="24" height="24" fill="none" viewBox="0 0 24 24">
  <path fill="currentColor" d="M7.875 13.125a1.125 1.125 0 1 0 0-2.25 1.125 1.125 0 0 0 0 2.25Zm4.125 0a1.125 1.125 0 1 0 0-2.25 1.125 1.125 0 0 0 0 2.25Zm4.125 0a1.125 1.125 0 1 0 0-2.25 1.125 1.125 0 0 0 0 2.25Z"/>
  <path fill="currentColor" d="M6.062 4.27a9.75 9.75 0 1 1 1.356 16.337l-3.192 1.065a1.5 1.5 0 0 1-1.898-1.898l1.068-3.189A9.75 9.75 0 0 1 6.062 4.27Zm6.477-.5a8.25 8.25 0 0 0-7.678 12.364.75.75 0 0 1 .062.614L3.751 20.25l3.505-1.169a.75.75 0 0 1 .613.062A8.25 8.25 0 1 0 12.54 3.77Z"/>
</svg>
