<svg xmlns="http://www.w3.org/2000/svg" width="24" height="24" fill="none" viewBox="0 0 24 24">
  <path fill="currentColor" d="M9 10.5A.75.75 0 0 0 9 12h6a.75.75 0 0 0 0-1.5H9Zm0 3A.75.75 0 0 0 9 15h6a.75.75 0 0 0 0-1.5H9Z"/>
  <path fill="currentColor" d="M8.646 3A4.503 4.503 0 0 1 12 1.5 4.5 4.5 0 0 1 15.354 3h3.396a1.5 1.5 0 0 1 1.5 1.5v15.75a1.5 1.5 0 0 1-1.5 1.5H5.25a1.5 1.5 0 0 1-1.5-1.5V4.5A1.5 1.5 0 0 1 5.25 3h3.396Zm1.233.879c-.1.099-.19.204-.274.314l-.01.013A3 3 0 0 0 9 6h6a3 3 0 0 0-.595-1.794l-.01-.013a3.002 3.002 0 0 0-4.516-.314ZM7.5 6c0-.516.089-1.023.257-1.5H5.25v15.75h13.5V4.5h-2.507c.168.477.257.984.257 1.5v.75a.75.75 0 0 1-.75.75h-7.5a.75.75 0 0 1-.75-.75V6Z"/>
</svg>
