<svg xmlns="http://www.w3.org/2000/svg" width="24" height="24" fill="none" viewBox="0 0 24 24">
  <path fill="currentColor" d="M13.505 14.781a6.375 6.375 0 1 0-6.76 0c-2.003.656-3.723 1.885-5.07 3.486a.75.75 0 0 0 1.15.966c1.798-2.141 4.315-3.483 7.3-3.483 2.985 0 5.502 1.342 7.3 3.483a.75.75 0 0 0 1.15-.966c-1.347-1.601-3.067-2.83-5.07-3.486ZM10.125 4.5a4.875 4.875 0 1 1 0 9.75 4.875 4.875 0 0 1 0-9.75Z"/>
  <path fill="currentColor" d="M21.75 10.5a.75.75 0 0 0-1.5 0V12h-1.5a.75.75 0 0 0 0 1.5h1.5V15a.75.75 0 0 0 1.5 0v-1.5h1.5a.75.75 0 0 0 0-1.5h-1.5v-1.5Z"/>
</svg>
