<svg xmlns="http://www.w3.org/2000/svg" width="24" height="24" fill="none" viewBox="0 0 24 24">
  <path fill="currentColor" d="M18.779 6.14a2.25 2.25 0 0 0-2.959 1.548.75.75 0 0 1-1.452-.375 3.75 3.75 0 1 1 6.158 3.708 6.36 6.36 0 0 1 2.574 2.03.75.75 0 1 1-1.2.899A4.866 4.866 0 0 0 18 12a.75.75 0 0 1 0-1.5 2.25 2.25 0 0 0 .779-4.36Zm-4.041 10.932a4.5 4.5 0 1 0-5.476 0 6.844 6.844 0 0 0-3.158 2.797.75.75 0 0 0 1.292.762 5.344 5.344 0 0 1 9.208 0 .75.75 0 0 0 1.292-.762 6.844 6.844 0 0 0-3.158-2.797ZM12 10.5a3 3 0 1 1 0 6 3 3 0 0 1 0-6Zm-8.18 2.014A4.867 4.867 0 0 1 6 12a.75.75 0 1 0 0-1.5 2.25 2.25 0 1 1 2.18-2.813.75.75 0 0 0 1.452-.375 3.75 3.75 0 1 0-6.158 3.709A6.367 6.367 0 0 0 .9 13.05a.75.75 0 1 0 1.201.899 4.866 4.866 0 0 1 1.72-1.436Z"/>
</svg>
