<svg xmlns="http://www.w3.org/2000/svg" width="24" height="24" fill="none" viewBox="0 0 24 24">
  <path fill="currentColor" d="M11.25 4.06 8.78 6.53a.75.75 0 0 1-1.06-1.06l3.749-3.748a.75.75 0 0 1 .246-.164c.057-.024.118-.03.178-.038l.02-.002a.246.246 0 0 0 .036-.009c.017-.004.033-.009.051-.009.018 0 .034.005.05.01a.244.244 0 0 0 .038.008l.019.002c.06.007.121.014.178.038a.75.75 0 0 1 .247.164L16.28 5.47a.75.75 0 0 1-1.06 1.06l-2.47-2.47v8.69a.75.75 0 0 1-1.5 0V4.06Z"/>
  <path fill="currentColor" d="M15.75 9.75A.75.75 0 0 1 16.5 9h2.25a1.5 1.5 0 0 1 1.5 1.5v9a1.5 1.5 0 0 1-1.5 1.5H5.25a1.5 1.5 0 0 1-1.5-1.5v-9A1.5 1.5 0 0 1 5.25 9H7.5a.75.75 0 0 1 0 1.5H5.25v9h13.5v-9H16.5a.75.75 0 0 1-.75-.75Z"/>
</svg>
