<svg xmlns="http://www.w3.org/2000/svg" width="24" height="24" fill="none" viewBox="0 0 24 24">
  <path fill="currentColor" d="M9.348 20.652a3.75 3.75 0 0 1-1.022-1.902h-3.83a1.501 1.501 0 0 1-1.29-2.25c.53-.918 1.294-3.475 1.294-6.75a7.5 7.5 0 1 1 15 0c0 3.276.765 5.831 1.296 6.75a1.503 1.503 0 0 1-.545 2.047 1.5 1.5 0 0 1-.748.203h-3.829a3.75 3.75 0 0 1-6.326 1.902ZM7.758 5.507A6 6 0 0 0 6 9.75c0 3.439-.79 6.28-1.495 7.5h14.992C18.793 16.03 18 13.19 18 9.75A6 6 0 0 0 7.757 5.507Zm2.12 13.243a2.251 2.251 0 0 0 4.243 0H9.88Z"/>
</svg>
