<svg xmlns="http://www.w3.org/2000/svg" width="24" height="24" fill="none" viewBox="0 0 24 24">
  <path fill="currentColor" d="M6.202 14.638A2.106 2.106 0 0 1 4.1 16.74a2.106 2.106 0 0 1-2.1-2.1c0-1.157.945-2.101 2.101-2.101h2.1v2.1Zm1.058 0c0-1.156.945-2.1 2.102-2.1 1.156 0 2.1.944 2.1 2.1V19.9A2.106 2.106 0 0 1 9.363 22a2.106 2.106 0 0 1-2.101-2.101v-5.26Zm2.102-8.436A2.106 2.106 0 0 1 7.26 4.101C7.26 2.945 8.205 2 9.36 2c1.157 0 2.101.945 2.101 2.101v2.101h-2.1Zm0 1.058c1.156 0 2.1.945 2.1 2.102a2.106 2.106 0 0 1-2.1 2.1H4.1A2.106 2.106 0 0 1 2 9.363c0-1.157.945-2.101 2.101-2.101h5.26Zm8.436 2.102c0-1.157.945-2.101 2.101-2.101 1.156 0 2.101.944 2.101 2.1a2.106 2.106 0 0 1-2.101 2.102h-2.1V9.362Zm-1.058 0a2.106 2.106 0 0 1-2.102 2.1 2.106 2.106 0 0 1-2.1-2.1V4.1c0-1.156.944-2.101 2.1-2.101 1.157 0 2.101.945 2.101 2.101v5.26Zm-2.101 8.436c1.156 0 2.1.945 2.1 2.101A2.106 2.106 0 0 1 14.64 22a2.106 2.106 0 0 1-2.101-2.101v-2.101h2.1Zm-.001-1.058a2.106 2.106 0 0 1-2.1-2.102c0-1.156.944-2.1 2.1-2.1h5.26c1.157 0 2.102.944 2.102 2.1a2.106 2.106 0 0 1-2.101 2.101h-5.26Z"/>
</svg>
