<svg xmlns="http://www.w3.org/2000/svg" width="24" height="24" fill="none" viewBox="0 0 24 24">
    <path fill="currentColor" d="M11.97 2C6.457 2 2 6.49 2 12.044c0 4.44 2.856 8.199 6.817 9.529.496.1.677-.216.677-.482 0-.233-.016-1.031-.016-1.863-2.774.599-3.351-1.197-3.351-1.197-.446-1.164-1.106-1.463-1.106-1.463-.908-.616.066-.616.066-.616 1.007.067 1.535 1.031 1.535 1.031.891 1.53 2.327 1.098 2.905.832.083-.649.347-1.098.628-1.347-2.213-.233-4.54-1.098-4.54-4.956 0-1.098.396-1.995 1.023-2.694-.099-.25-.445-1.28.1-2.66 0 0 .841-.267 2.74 1.03a9.586 9.586 0 0 1 2.492-.332 9.6 9.6 0 0 1 2.493.332c1.898-1.297 2.74-1.03 2.74-1.03.545 1.38.198 2.41.099 2.66.644.699 1.023 1.597 1.023 2.694 0 3.858-2.327 4.706-4.556 4.956.364.316.677.914.677 1.862 0 1.347-.016 2.428-.016 2.76 0 .267.181.583.677.483a10.037 10.037 0 0 0 6.817-9.529C21.94 6.49 17.467 2 11.97 2Z"/>
</svg>
