<svg xmlns="http://www.w3.org/2000/svg" width="24" height="24" fill="none" viewBox="0 0 24 24"> 
    <path fill="currentColor" d="m3.876 3.86.606 15.993a.98.98 0 0 0 .94.937l13.137.584.044.001a.98.98 0 0 0 .984-.974V2.974c0-.02 0-.04-.002-.06a.98.98 0 0 0-1.043-.912l-1.083.067.08 2.236a.146.146 0 0 1-.14.15.148.148 0 0 1-.097-.031l-.727-.568-.862.647a.148.148 0 0 1-.206-.028.145.145 0 0 1-.03-.094l.094-2.195-10.773.666a.978.978 0 0 0-.922 1.009Zm9.187 5.443c.055-1.446-.6-1.51-.963-1.51-.345 0-.926.103-.926.878 0 .79.85 1.235 1.847 1.759 1.417.743 3.131 1.642 3.131 3.905 0 2.17-1.78 3.368-4.052 3.368-2.344 0-4.392-.939-4.16-4.193.09-.382 3.07-.291 3.07 0-.036 1.343.273 1.738 1.054 1.738.6 0 .872-.327.872-.878 0-.834-.885-1.326-1.904-1.892C9.653 11.712 8.03 10.81 8.03 8.74c0-2.066 1.436-3.443 3.998-3.443 2.562 0 3.961 1.356 3.961 3.937-.346.266-2.926.448-2.926.069Z"/>
</svg>
