<svg xmlns="http://www.w3.org/2000/svg" width="24" height="24" fill="none" viewBox="0 0 24 24">
    <path fill="currentColor" d="M5.074 5.765a3.728 3.728 0 0 1 3.728-3.728h6.396a3.728 3.728 0 0 1 2.046 6.846 3.728 3.728 0 0 1-2.045 6.845h-.081a3.714 3.714 0 0 1-2.507-.969v3.435c0 2.087-1.713 3.769-3.79 3.769-2.053 0-3.747-1.664-3.747-3.728 0-1.304.669-2.451 1.682-3.117A3.725 3.725 0 0 1 5.074 12c0-1.304.669-2.451 1.683-3.117a3.725 3.725 0 0 1-1.683-3.118Zm3.712 8.742h2.604V9.493H8.802a2.507 2.507 0 0 0-.016 5.014ZM12.61 12a2.507 2.507 0 0 0 2.506 2.507h.081a2.507 2.507 0 1 0 0-5.014h-.08A2.507 2.507 0 0 0 12.61 12ZM8.8 15.728h-.015a2.507 2.507 0 0 0-2.491 2.507c0 1.38 1.137 2.507 2.527 2.507 1.412 0 2.568-1.146 2.568-2.548v-2.466H8.802ZM6.296 5.765a2.507 2.507 0 0 0 2.507 2.507h2.588V3.258H8.802a2.507 2.507 0 0 0-2.507 2.507Zm11.41 0A2.507 2.507 0 0 0 15.2 3.258h-2.59v5.014h2.587a2.507 2.507 0 0 0 2.507-2.507Z"/>
</svg>