<svg xmlns="http://www.w3.org/2000/svg" width="24" height="24" fill="none" viewBox="0 0 24 24">
  <path fill="currentColor" d="M5.25 10.5a.75.75 0 0 1-1.5 0V3.75c0-.827.673-1.5 1.5-1.5h9a.749.749 0 0 1 .53.22l5.25 5.25a.752.752 0 0 1 .22.53v2.25a.75.75 0 0 1-1.5 0V9h-4.5a.75.75 0 0 1-.75-.75v-4.5H5.25v6.75Zm12.44-3L15 4.81V7.5h2.69Zm-9.065 8.625A2.628 2.628 0 0 0 6 13.5H4.5a.75.75 0 0 0-.75.75v5.25a.75.75 0 0 0 1.5 0v-.75H6a2.628 2.628 0 0 0 2.625-2.625Zm-1.5 0c0 .62-.505 1.125-1.125 1.125h-.75V15H6c.62 0 1.125.505 1.125 1.125ZM9.75 14.25a.75.75 0 0 1 .75-.75H12a3.378 3.378 0 0 1 3.375 3.375A3.378 3.378 0 0 1 12 20.25h-1.5a.75.75 0 0 1-.75-.75v-5.25Zm4.125 2.625c0-1.034-.84-1.875-1.875-1.875h-.75v3.75H12c1.034 0 1.875-.84 1.875-1.875ZM16.5 14.25a.75.75 0 0 1 .75-.75h3a.75.75 0 0 1 0 1.5H18v1.5h1.5a.75.75 0 0 1 0 1.5H18v1.5a.75.75 0 0 1-1.5 0v-5.25Z"/>
</svg>
