<svg xmlns="http://www.w3.org/2000/svg" width="24" height="24" fill="none" viewBox="0 0 24 24">
  <path fill="currentColor" d="M20.193 4.213a.748.748 0 0 0-.693-.463H15a.75.75 0 0 0 0 1.5h2.69l-3.97 3.97a.75.75 0 1 0 1.06 1.06l3.97-3.97V9a.75.75 0 0 0 1.5 0V4.5a.747.747 0 0 0-.057-.287ZM4.5 14.25a.75.75 0 0 1 .75.75v2.69l3.97-3.97a.75.75 0 1 1 1.06 1.06l-3.97 3.97H9a.75.75 0 0 1 0 1.5H4.5a.747.747 0 0 1-.75-.75V15a.75.75 0 0 1 .75-.75Zm14.25.75a.75.75 0 0 1 1.5 0v4.5a.747.747 0 0 1-.75.75H15a.75.75 0 0 1 0-1.5h2.69l-3.97-3.97a.75.75 0 1 1 1.06-1.06l3.97 3.97V15ZM4.213 3.807A.748.748 0 0 1 4.5 3.75H9a.75.75 0 0 1 0 1.5H6.31l3.97 3.97a.75.75 0 1 1-1.06 1.06L5.25 6.31V9a.75.75 0 0 1-1.5 0V4.5a.748.748 0 0 1 .463-.693Z"/>
</svg>
