<svg xmlns="http://www.w3.org/2000/svg" width="24" height="24" fill="none" viewBox="0 0 24 24">
  <path fill="currentColor" d="M16.688 3c-1.935 0-3.631.833-4.688 2.24C10.943 3.833 9.248 3 7.313 3A5.82 5.82 0 0 0 1.5 8.812c0 6.56 9.73 11.876 10.145 12.098a.752.752 0 0 0 .71 0C12.77 20.687 22.5 15.372 22.5 8.812A5.819 5.819 0 0 0 16.688 3ZM12 19.388c-1.711-.997-9-5.542-9-10.576A4.318 4.318 0 0 1 7.313 4.5c1.823 0 3.353.971 3.993 2.534.23.564 1.157.564 1.388 0 .64-1.563 2.17-2.534 3.994-2.534A4.317 4.317 0 0 1 21 8.813c0 5.026-7.29 9.577-9 10.575Z"/>
</svg>
