<svg xmlns="http://www.w3.org/2000/svg" width="24" height="24" fill="none" viewBox="0 0 24 24">
  <path fill="currentColor" d="M8.25 9.75a3.75 3.75 0 1 1 7.5 0 3.75 3.75 0 0 1-7.5 0ZM12 7.5a2.25 2.25 0 1 0 0 4.5 2.25 2.25 0 0 0 0-4.5Z"/>
  <path fill="currentColor" d="M12.431 22.364a.75.75 0 0 1-.861 0l-.003-.002-.005-.003-.02-.014-.058-.042-.01-.008a21.987 21.987 0 0 1-1.131-.9 25.146 25.146 0 0 1-2.659-2.622C5.766 16.568 3.75 13.395 3.75 9.75a8.25 8.25 0 1 1 16.5 0c0 3.645-2.016 6.818-3.934 9.023a25.156 25.156 0 0 1-3.538 3.334c-.107.082-.192.145-.252.188l-.01.008-.059.042-.019.014-.005.003-.002.002ZM12 3a6.75 6.75 0 0 0-6.75 6.75c0 3.105 1.734 5.932 3.566 8.04A23.64 23.64 0 0 0 12 20.812a23.633 23.633 0 0 0 3.184-3.023c1.832-2.108 3.566-4.935 3.566-8.04A6.75 6.75 0 0 0 12 3Z"/>
</svg>
