<svg xmlns="http://www.w3.org/2000/svg" width="24" height="24" fill="none" viewBox="0 0 24 24">
  <path fill="currentColor" d="M20.99 9.054a.263.263 0 0 0-.009.039.73.73 0 0 1-.03.149.723.723 0 0 1-.064.13.725.725 0 0 1-.077.114.732.732 0 0 1-.12.105.248.248 0 0 0-.028.026c-.012.012-.024.024-.04.033a.046.046 0 0 1-.016.005.05.05 0 0 0-.017.004.732.732 0 0 1-.34.091h-4.5a.75.75 0 0 1 0-1.5h3.053C17.646 6.81 15.282 4.5 12 4.5c-3.371 0-5.45 2.012-5.472 2.032A.749.749 0 0 1 5.47 5.47C5.57 5.37 7.986 3 12 3c3.507 0 6.05 2.1 7.5 3.736V4.5a.75.75 0 0 1 1.5 0V9c0 .02-.004.037-.009.054ZM12 19.5c3.371 0 5.451-2.012 5.472-2.032a.75.75 0 0 1 1.058 1.062c-.1.1-2.515 2.47-6.53 2.47-3.506 0-6.05-2.1-7.5-3.736V19.5a.75.75 0 0 1-1.5 0V15c0-.019.005-.036.01-.054a.266.266 0 0 0 .009-.038.728.728 0 0 1 .03-.15.724.724 0 0 1 .064-.13.717.717 0 0 1 .077-.114.727.727 0 0 1 .12-.105.26.26 0 0 0 .027-.026.185.185 0 0 1 .04-.033.078.078 0 0 1 .022-.008l.019-.006a.698.698 0 0 1 .14-.047l.028-.007c.04-.01.078-.02.118-.023a.078.078 0 0 0 .022-.004.083.083 0 0 1 .024-.005h4.5a.75.75 0 0 1 0 1.5H5.198C6.353 17.189 8.718 19.5 12 19.5Z"/>
</svg>
