<svg xmlns="http://www.w3.org/2000/svg" width="24" height="24" fill="none" viewBox="0 0 24 24">
  <path fill="currentColor" d="M9.75 9a.75.75 0 0 1 .75.75v6a.75.75 0 0 1-1.5 0v-6A.75.75 0 0 1 9.75 9Zm3.75 6.75a.75.75 0 0 0 1.5 0v-6a.75.75 0 0 0-1.5 0v6Z"/>
  <path fill="currentColor" d="M8.159 2.159A2.25 2.25 0 0 1 9.75 1.5h4.5a2.25 2.25 0 0 1 2.25 2.25v.75h3.75a.75.75 0 0 1 0 1.5h-.75v13.5A1.5 1.5 0 0 1 18 21H6a1.5 1.5 0 0 1-1.5-1.5V6h-.75a.75.75 0 0 1 0-1.5H7.5v-.75c0-.597.237-1.169.659-1.591ZM9 3.75v.75h6v-.75a.75.75 0 0 0-.75-.75h-4.5a.75.75 0 0 0-.75.75ZM6 19.5h12V6H6v13.5Z"/>
</svg>
