<svg xmlns="http://www.w3.org/2000/svg" width="24" height="24" fill="none" viewBox="0 0 24 24">
  <path fill="currentColor" d="M13.5 3.75c0 .414.336.75.75.75h1.5V6a.75.75 0 0 0 1.5 0V4.5h1.5a.75.75 0 0 0 0-1.5h-1.5V1.5a.75.75 0 0 0-1.5 0V3h-1.5a.75.75 0 0 0-.75.75Zm9.75 4.5a.75.75 0 0 0-.75-.75h-.75v-.75a.75.75 0 0 0-1.5 0v.75h-.75a.75.75 0 0 0 0 1.5h.75v.75a.75.75 0 0 0 1.5 0V9h.75a.75.75 0 0 0 .75-.75Zm-9.572 2.077 4.838 1.776c.376.14.674.416.84.779a1.49 1.49 0 0 1-.838 2.021l-4.845 1.784-1.775 4.835a1.496 1.496 0 0 1-1.917.886 1.498 1.498 0 0 1-.885-.885l-1.779-4.838-4.84-1.78a1.497 1.497 0 0 1-.882-1.921 1.49 1.49 0 0 1 .88-.88l4.846-1.782 1.774-4.838a1.495 1.495 0 0 1 1.912-.888c.416.152.74.476.891.89l1.78 4.841Zm-1.408 5.836c.151-.412.475-.735.888-.886l4.84-1.78-4.843-1.767a1.485 1.485 0 0 1-.885-.886l-1.78-4.842-1.766 4.843c-.15.411-.473.734-.886.885l-4.842 1.78 4.84 1.767c.414.15.737.472.888.886l1.781 4.842 1.766-4.842Z"/>
</svg>
