<svg xmlns="http://www.w3.org/2000/svg" width="40" height="40" fill="none" viewBox="0 0 40 40">
  <path class="display-icon__fill-2" fill="#B6E5FF" d="M11.82 39.61c-4-.09-7.34-1.28-9.66-4.53C.48 32.74-.07 30.05 0 27.22c.08-2.97.85-5.72 2.91-7.96 2.77-3.02 6.32-3.87 10.24-3.51 3.65.34 6.7 1.88 8.51 5.16 2.45 4.44 2.44 9.04 0 13.48-1.76 3.19-4.74 4.71-8.3 5.13-.56.07-1.12.08-1.53.11l-.01-.02Z"/>
  <path class="display-icon__fill-1" fill="#52B0FF" d="M39.49 17.34 24.83 24.8s-2.36-6.52-4.67-8.04c-2.31-1.52-3.13-2.3-6.78-1.37l6.57-12.65s7.4-.06 12.3 4.24 7.24 10.36 7.24 10.36Z"/>
  <path class="display-icon__ink" fill="#1C1D1F" d="M14.17 27.924a.881.881 0 0 0 .037-.124c.055-.199.112-.398.169-.596.295-1.032.59-2.068.764-3.124.2-1.2.41-2.69-.29-3.78-.7-1.09-2.35-1.57-3.21-.36a2.087 2.087 0 0 0-.333.758c-.523-.154-1.08-.188-1.556-.018-1.14.41-1.53 1.63-1.11 2.71.317.817.974 1.425 1.613 2.017.127.117.254.235.377.353.74.71 1.5 1.45 2.1 2.3.25.35.7.52 1.09.29a.733.733 0 0 0 .176-.143.755.755 0 0 0 .173-.283Zm-1.19-5.884a8.604 8.604 0 0 0-.034-.141c-.085-.342-.196-.79.014-1.069.012-.018.06-.025.079-.028h.002a.712.712 0 0 1 .249.108c.29.22.39.61.42.95.08.87-.08 1.78-.27 2.62a30.5 30.5 0 0 1-.373 1.48c-.23-.253-.466-.5-.706-.74a33.246 33.246 0 0 0-.689-.652c-.387-.36-.775-.72-1.131-1.108-.22-.24-.4-.5-.46-.81a.615.615 0 0 1 .006-.295c.013-.058.016-.072.114-.125.094-.055.114-.055.211-.052l.099.002h.022c.01.005.029.011.058.02l.04.01c.07.017.143.035.21.06.202.063.39.14.577.25.134.505.325.992.502 1.41.17.4.53.68.98.56.38-.1.73-.58.56-.98l.01-.01c-.2-.47-.36-.96-.49-1.46Zm12.84 8.48a4.3 4.3 0 0 1-3.54.3l.02-.02c-.42-.15-.66-.53-.56-.98.09-.4.59-.7.98-.56a2.654 2.654 0 0 0 .464.14c.005 0 .008.002.013.003l.082.017a.408.408 0 0 0 .084.019l.116.01h.15c.08.007.155.005.232.003l.118-.002a.912.912 0 0 0 .088-.007l.022-.005a.394.394 0 0 1 .1-.018c.12-.02.23-.05.34-.08l.18-.06a1.12 1.12 0 0 0 .058-.016 2.46 2.46 0 0 0 .252-.124c.09-.05.18-.1.26-.16l.08-.06c-.08.06.08-.07.08-.07.15-.14.29-.29.42-.44.04-.05.07-.09.1-.14.06-.08.11-.17.16-.26l.06-.12.035-.08.016-.038a.139.139 0 0 0 .01-.032.748.748 0 0 0 .024-.08c.008-.028.015-.055.025-.08.13-.43.55-.66.98-.56.41.09.68.58.56.98-.33 1.05-1.04 1.98-2.01 2.52Zm.386-2.689Z M15.25 33.67c3.57.82 7.98.32 11.34-1.11 1.9-.81 3.44-2.11 4.91-3.53l.218-.21c.727-.701 1.453-1.402 2.262-2.02.21-.158.44-.308.673-.46.682-.444 1.394-.908 1.707-1.66.387-.93.028-1.935-.296-2.845l-.011-.03a40.862 40.862 0 0 1-.073-.205c-.43-1.27-.91-2.52-1.43-3.76-.95-2.26-2.05-4.46-3.37-6.53-1.24-1.94-2.67-3.7-4.79-4.7-1.69-.79-4.19-1.58-6.07-1.2-2.05.41-2.97 3.27-2.35 5.09.3.88 1.15 1.41 2.05 1.48.138.008.27.007.4-.004a.996.996 0 0 0 .01.334c.05.25.31.51.56.56.87.17 1.84.3 2.63-.21.187-.12.336-.28.466-.417.343-.364.544-.579.914.467.17.489.165 1.038.16 1.574-.003.254-.006.505.01.746.04.71.14 1.42.28 2.12.192.972.497 1.913.885 2.82-1.855-.071-3.657.405-5.106 1.366a9.194 9.194 0 0 0-2.53-3.5.845.845 0 0 0-.14-.136c-4.2-3.29-10.29-2.55-13.4 1.84-2.86 4.04-1.82 9.77 2.11 12.68 2.281 1.687 5.24 2.17 7.956 1.434l.01.002.015.004v.01Zm2.188-14.834a.908.908 0 0 0 .072.051c.284.235.552.495.81.763.14.15.27.31.4.469l.01.021c.016.015.028.033.04.05l.005.007c.011.015.023.03.036.043.03.045.062.09.095.135.032.045.065.09.095.135.23.33.43.68.6 1.05l.12.27c.03.07.05.12 0 .02.01.02.017.04.025.06a11.625 11.625 0 0 1 .188.516c-.985 1.052-1.663 2.422-1.864 4.074-.12 1.02 1.48 1.01 1.6 0 .46-3.78 4.39-5.5 7.8-4.8.69.14 1.24-.54.9-1.18-.87-1.65-1.43-3.43-1.58-5.29-.024-.315-.03-.64-.035-.967-.02-1.15-.042-2.333-.875-3.213-.53-.556-1.375-.915-2.099-.641a.679.679 0 0 0 .03-.26c-.03-.32-.22-.71-.59-.77-.452-.074-1.05.188-1.64.447-.978.43-1.932.848-2.15-.306-.2-1.09.46-2.53 1.62-2.57.88-.03 1.82.19 2.67.4 3.9.97 5.88 4.1 7.66 7.46.91 1.72 1.7 3.5 2.38 5.31.088.238.186.48.284.725.265.661.54 1.344.685 2.015.16.76.08 1.41-.58 1.87-.126.09-.254.178-.382.265-.255.176-.511.351-.758.545-.84.644-1.61 1.37-2.377 2.094-1.542 1.454-3.072 2.898-5.143 3.646-3.032 1.096-6.544 1.54-9.607.885-.173-.169-.425-.251-.733-.155h.01c-4.06 1.27-8.51-.89-9.74-5.04-1.12-3.8.95-7.98 4.7-9.32a7.721 7.721 0 0 1 7.222 1.112.598.598 0 0 0 .089.088l.007-.014Zm4.876-8.989-.012.011a.088.088 0 0 1 .012-.01Z"/>
</svg>