<svg xmlns="http://www.w3.org/2000/svg" width="40" height="40" fill="none" viewBox="0 0 40 40">
  <path class="display-icon__fill-2" fill="#B6E5FF" d="M28.79 22.41c-3.69-.08-6.77-1.18-8.92-4.18-1.55-2.17-2.06-4.65-1.99-7.26.07-2.74.78-5.28 2.69-7.35C23.12.82 26.4.03 30.02.36c3.37.31 6.19 1.74 7.86 4.76 2.26 4.1 2.25 8.35 0 12.44-1.62 2.94-4.38 4.35-7.66 4.74-.52.06-1.04.08-1.41.11h-.02Z"/>
  <path class="display-icon__fill-1" fill="#52B0FF" d="m.49 23.49 15.09-10.68s2.99 7.56 5.76 9.26c2.76 1.7 5.42 2.2 8.44 2.98L22.07 38.5s-8.68.33-14.58-4.55c-5.9-4.86-7-10.46-7-10.46Z"/>
  <path class="display-icon__ink" fill="#1C1D1F" d="M21.535 13.157c-2.343.653-4.77 1.133-7.095.953-2.58-.2-5.7-1.33-6.87-3.82-.14-.31-.15-.72.13-.97 2.154-1.949 4.49-3.696 6.822-5.44l.148-.11c.22-.16.59-.14.81 0 2.52 1.62 5.37 2.64 8.36 2.89 1.41.12 2.84.08 4.24-.14.21-.035.414-.078.61-.12.83-.177 1.548-.33 2.3.3 1.05.88 2.01 1.98 2.87 3.04l.14.173c.597.735 1.076 1.325 1.02 2.337-.05.944-.173 1.876-.296 2.806-.218 1.652-.436 3.298-.244 4.994.144 1.272.607 2.37 1.094 3.522l.066.158c.049.112.111.238.178.372.209.418.457.917.442 1.318-.025.548-.581 1.152-.998 1.604a12.61 12.61 0 0 0-.232.256c-.635.725-1.36 1.393-2.07 2.048l-.22.202c-.72.67-1.45 1.34-2.21 1.96-.42.34-.88.68-1.43.38-.352-.2-.622-.677-.843-1.07a9.666 9.666 0 0 0-.157-.27 17.6 17.6 0 0 1-1.16-2.24c-1.123-2.633-.97-5.769-.024-8.566-1.904 1.792-3.746 3.66-5.575 5.515l-.69.7c-3.4 3.44-6.95 6.76-10.6 9.95-.27.24-.65.33-.97.13a17.947 17.947 0 0 1-5.24-4.92c-.21-.3-.08-.71.13-.97 2.805-3.377 6.062-6.325 9.31-9.266a153.679 153.679 0 0 0 4.686-4.363c1.176-1.129 2.353-2.26 3.568-3.343Zm4.03-1.275-.035.028c-2.372 1.753-4.522 3.832-6.664 5.902A138.96 138.96 0 0 1 15.71 20.8l-1.266 1.145c-3.096 2.797-6.2 5.6-8.913 8.778a15.945 15.945 0 0 0 3.874 3.604A195.036 195.036 0 0 0 19.51 24.81l.89-.902c2.777-2.82 5.583-5.67 8.61-8.208.65-.54 1.83.19 1.26.97-2.61 3.61-3.35 8.5-1.14 12.46.026.045.112.171.222.33.118.173.264.385.388.576l.016-.012c.048-.034.093-.066.124-.094.22-.2.44-.4.67-.59.729-.62 1.416-1.28 2.107-1.945l.203-.195c.252-.247.49-.539.727-.83.302-.37.603-.74.933-1.02l.019-.025c-.083-.126-.143-.32-.198-.5-.034-.11-.066-.216-.1-.295-.11-.27-.228-.533-.345-.795-.235-.529-.469-1.054-.636-1.615-.61-2.07-.52-4.28-.29-6.4.044-.402.12-.821.197-1.247.136-.75.275-1.518.243-2.233-.033-.864-.825-1.665-1.476-2.325-.133-.134-.26-.263-.374-.385-.112-.12-.224-.245-.339-.373-.344-.384-.703-.784-1.1-1.077-.374-.28-.61-.23-.996-.146l-.225.046c-.94.18-1.89.28-2.84.32-3.846.153-7.674-.884-10.958-2.874-1.985 1.487-3.963 2.982-5.827 4.62 1.34 1.945 4.286 2.575 6.485 2.484 2.926-.114 5.915-1.058 8.71-1.941.102-.032.203-.065.305-.096.26-.166.515-.14.713-.007.47.254.585 1.052.077 1.396Z"/>
</svg>
