<svg xmlns="http://www.w3.org/2000/svg" width="40" height="40" fill="none" viewBox="0 0 40 40">
  <path class="display-icon__fill-2" fill="#B6E5FF" d="M32.26 39.39H9.49c-.03-.16-.07-.29-.07-.42 0-3.6-.08-7.2.07-10.79.06-1.55.41-3.15.95-4.61 1.19-3.21 3.73-4.79 7.06-5.12 4.22-.42 8.11.3 11.1 3.64 1.72 1.92 2.57 4.27 3.09 6.74.74 3.46.59 6.97.57 10.56Z"/>
  <path class="display-icon__fill-1" fill="#52B0FF" d="M34.44 4.81 29.6 20.55s-3.69-3.86-9.43-3.73c-5.75.14-7.47 1.48-10.16 4.16L6.17 5.03S12.62-.1 20.2.43c7.58.53 14.24 4.39 14.24 4.39v-.01Z"/>
  <path class="display-icon__ink" fill="#1C1D1F" d="M18.46 3.67h-.02.02ZM6.248 6.689c-.02.088-.038.184-.038.271 0 .05.008.101.016.155l.014.095v.03a.9.9 0 0 0 .046.117c.013.029.025.057.034.083v.02c0 .01.01.02.02.03.04.06.11.16.17.21.06.05.12.1.19.14.004 0 .008.004.013.008.007.005.015.012.027.012l.013.006.038.017c.07.032.138.063.219.087.03 0 .06.01.09.02l.096.012c.069.009.14.018.214.018l.21-.03c.1-.02.19-.07.27-.14.06-.04.11-.08.14-.14.07-.08.12-.17.14-.27a3.254 3.254 0 0 1 .03-.14c.02-.11.04-.23.04-.34a1.4 1.4 0 0 0-.023-.218 2.358 2.358 0 0 1-.007-.052c0-.02 0-.04-.01-.06a.612.612 0 0 0-.05-.12.509.509 0 0 1-.025-.06.61.61 0 0 0-.025-.06.837.837 0 0 0-.124-.168l-.01-.01a.747.747 0 0 0-.147-.135.726.726 0 0 1-.069-.057s-.01 0-.02-.01a1.667 1.667 0 0 0-.22-.085c-.008-.002-.015-.005-.02-.005a2.466 2.466 0 0 1-.078-.011 1.04 1.04 0 0 0-.172-.019c-.055 0-.115.01-.172.019a2.466 2.466 0 0 1-.078.011c-.02 0-.03 0-.05.01-.19.07-.27.11-.42.24a.91.91 0 0 0-.272.519Zm4.048-.987.014-.002h-.02c-.05 0-.11.01-.166.02l-.01.002a.494.494 0 0 0-.06.008.083.083 0 0 0-.044.01c-.18.06-.27.12-.42.24-.006 0-.013.01-.02.018a.117.117 0 0 1-.01.012c-.05.06-.1.13-.15.2a.404.404 0 0 0-.027.05.364.364 0 0 1-.023.04l-.021.048c-.035.077-.072.158-.089.232a2.56 2.56 0 0 0-.026.16c-.007.05-.014.103-.024.15-.02.14 0 .27.03.41 0 .03 0 .06.02.09a.874.874 0 0 0 .063.16l.027.06c0 .01.01.02.02.03.02.03.05.07.07.09 0 0 .05.07.07.09.01.01.045.038.08.065l.014.01c.03.024.058.046.066.055h.01l.19.08c.01 0 .03 0 .04.01l.11.015.015.002.095.013h.06c.06 0 .123-.01.18-.02l.016-.003.044-.007h.03l.11-.045.014-.005.096-.04a.21.21 0 0 0 .06-.04c.06-.04.16-.11.22-.18.06-.07.11-.14.16-.21.05-.08.08-.17.11-.26.02-.04.03-.09.03-.13.02-.11.04-.23.04-.34 0-.06-.008-.12-.017-.18a2.526 2.526 0 0 1-.013-.09c0-.02 0-.04-.02-.06l-.024-.061a.82.82 0 0 0-.086-.179c-.04-.06-.09-.13-.14-.18 0-.006-.008-.013-.017-.02a.217.217 0 0 1-.013-.01c-.16-.14-.29-.21-.49-.28a.717.717 0 0 0-.174-.028Zm2.997.088c.053-.01.11-.02.167-.02h.03c.14 0 .28.04.4.11l.16.13c.079.08.14.165.18.267.028.056.05.114.072.17l.018.043c.02.04.04.08.04.12.02.1.04.2.04.31 0 .025-.005.05-.01.075a.386.386 0 0 0-.01.075c0 .05-.01.1-.02.15 0 .005-.003.013-.005.02l-.002.006a.052.052 0 0 0-.003.014l-.03.072c-.02.05-.04.098-.06.138v.02c0 .012-.007.02-.013.027-.004.005-.008.009-.008.013l-.018.026a.87.87 0 0 1-.241.254.536.536 0 0 0-.038.029.447.447 0 0 1-.072.051c-.01.01-.03.02-.04.02-.03.011-.059.024-.087.036A.89.89 0 0 1 13.6 8c-.02.01-.03.01-.05.01l-.078.011c-.058.01-.118.019-.172.019h-.12c-.09-.01-.18-.02-.27-.04a.683.683 0 0 1-.22-.09l-.16-.13-.06-.08a.388.388 0 0 1-.06-.075l-.01-.015-.09-.21v-.02c-.01-.02-.01-.03-.01-.05l-.013-.091c-.009-.056-.018-.11-.018-.169v-.05c0-.059.009-.113.018-.169.004-.03.009-.06.012-.091a.09.09 0 0 0 .01-.05l.008-.014a.066.066 0 0 0 .012-.036c.03-.08.06-.16.1-.23a1.06 1.06 0 0 1 .168-.236l.013-.014a.27.27 0 0 1 .07-.08c.06-.05.13-.1.2-.15.01-.01.03-.03.04-.03.09-.05.18-.1.28-.12h.03l.063-.01Zm-6.285 8.666c-.016.944-.038 1.89-.061 2.835-.08 3.373-.161 6.75.063 10.119l.006.06a.766.766 0 0 0 .158.408c.14.201.361.338.636.332 7.912-.237 15.853-.025 23.765.222.456.123 1.041-.124 1.065-.742.07-2.03.08-4.05-.03-6.08-.05-.966-.032-1.936-.013-2.905.027-1.42.054-2.839-.135-4.246a.787.787 0 0 0-.054-.361c-.058-.334-.452-.578-.768-.578-3.576.059-7.155.016-10.733-.027-4.366-.053-8.733-.105-13.097.027a.804.804 0 0 0-.4.112.742.742 0 0 0-.41.678l.008.008a.726.726 0 0 0 0 .138ZM24.07 26.64c-4.627-.085-9.26-.17-13.89-.094.779-.638 1.544-1.291 2.31-1.945 1.456-1.243 2.911-2.486 4.455-3.618l.207.132c.758.486 1.628 1.045 2.448 1.155.782.097 1.486-.418 2.123-.883.153-.111.302-.22.447-.317l.235-.157a258.05 258.05 0 0 0 4.305 3.437 364.96 364.96 0 0 1 3.05 2.416c-1.897-.052-3.794-.09-5.69-.126Zm7.01-.85a344.675 344.675 0 0 0-3.24-2.57 274.598 274.598 0 0 1-4.051-3.229c.496-.328.994-.656 1.491-.981 1.864-1.212 3.756-2.387 5.714-3.442.092 1.124.06 2.267.029 3.409-.027.983-.054 1.965-.003 2.933.067 1.298.08 2.587.06 3.88Zm-19.418-2.548c-1.037.886-2.074 1.772-3.144 2.618-.117-2.858-.05-5.72.019-8.578v-.002l.038-1.646c1.744.977 3.4 2.093 5.055 3.216.62.416 1.241.832 1.87 1.235-1.32 1.004-2.579 2.08-3.838 3.157Zm16.812-8.094a90.288 90.288 0 0 0-3.264 2.002c-.99.64-1.97 1.29-2.95 1.94-.161.108-.345.25-.542.401-.698.538-1.572 1.21-2.258 1.039-.706-.173-1.47-.696-2.149-1.162a20.43 20.43 0 0 0-.641-.428c-.92-.58-1.82-1.19-2.73-1.81a75.447 75.447 0 0 0-3.182-2.073c3.382-.045 6.765-.005 10.149.036 2.522.03 5.045.06 7.567.055Z M18.44 3.67h-.019a.94.94 0 0 0-.025 0c-1.39.013-2.78.016-4.17.02-1.974.005-3.948.01-5.926.04-.216.003-.452-.002-.699-.008-1.349-.032-3.025-.07-3.65 1.248-.248.525-.228 1.152-.21 1.74.005.15.01.297.01.44v2.58c0 3.95-.01 7.91-.02 11.86v5.96c0 .564-.016 1.136-.032 1.71-.03 1.157-.062 2.324.031 3.46.04.51.459.797.86.781.527.118 1.108.074 1.676.032.287-.022.572-.043.844-.043.826 0 1.653.002 2.478.005.822.003 1.643.005 2.462.005 3.13 0 6.26-.01 9.39-.03 3.13-.02 6.43-.02 9.64-.01 1.035 0 2.07.017 3.105.034l1.035.016c.47 0 .1-.06.01-.05.07-.007.133-.004.194 0 .106.005.206.01.326-.04.34-.14.44-.41.5-.74.115-.614.066-1.328.019-2.014a16.82 16.82 0 0 1-.049-.956l-.09-11.23c-.02-2.49-.04-4.92-.07-7.38l-.005-1.037c-.004-1.038-.007-2.078-.045-3.113-.03-.94-.16-2.01-.93-2.65-.7-.581-1.671-.585-2.548-.588l-.262-.002h-.03c-1.64-.02-3.27-.04-4.91-.04-.986 0-1.973.003-2.961.007-1.974.006-3.949.013-5.92-.007h-.009Zm-.02 1.6h.02c2.04.022 4.078.014 6.117.005a504.84 504.84 0 0 1 4.893-.005c1.03 0 2.06.02 3.09.04 1.03.02 1.75.04 1.86 1.3.06.702.083 1.41.09 2.122-4.893.02-9.786.036-14.678.053-4.834.017-9.667.033-14.497.052 0-.566-.001-1.132-.005-1.697 0-.088-.005-.182-.01-.28-.012-.203-.024-.418.01-.6.13-.84.74-.91 1.45-.92.83-.02 1.65-.03 2.48-.03a705.68 705.68 0 0 1 5.246-.025c1.311-.003 2.623-.006 3.934-.015Zm1.347 5.115c4.909-.017 9.816-.034 14.72-.053l-.003.319a82.922 82.922 0 0 0-.004 2.079l.09 10.04c.005.85.013 1.7.02 2.55.008.85.015 1.7.02 2.55 0 .84.01 1.67.02 2.51v1.04c0 .08-.013.192-.026.307l-.008.069c-1.067-.068-2.294-.028-3.487.01-.698.022-1.384.044-2.019.044-2.88 0-5.77 0-8.65.02-2.88.02-5.6.02-8.409.02h-4.2c-.265 0-.529-.003-.793-.006-.396-.005-.792-.01-1.188-.004-.096 0-.218.012-.345.025-.088.009-.18.018-.266.023-.104-1.91-.051-3.857.001-5.79.029-1.05.057-2.094.06-3.128 0-3.69 0-7.37.01-11.06l.002-1.513c4.819-.019 9.638-.035 14.455-.052Z"/>
</svg>
