<svg xmlns="http://www.w3.org/2000/svg" width="40" height="40" fill="none" viewBox="0 0 40 40">
  <path class="display-icon__fill-2" fill="#B6E5FF" d="M32.26 39.998H9.49c-.03-.16-.07-.29-.07-.42 0-3.6-.08-7.2.07-10.79.06-1.55.41-3.15.95-4.61 1.19-3.21 3.73-4.79 7.06-5.12 4.22-.42 8.11.3 11.1 3.64 1.72 1.92 2.57 4.27 3.09 6.74.74 3.46.59 6.97.57 10.56Z"/>
  <path class="display-icon__fill-1" fill="#52B0FF" d="m34.44 5.418-4.84 15.74s-3.69-3.86-9.43-3.73c-5.75.14-7.47 1.48-10.16 4.16L6.17 5.638s6.45-5.13 14.03-4.6c7.58.53 14.24 4.39 14.24 4.39v-.01Z"/>
  <path class="display-icon__ink" fill="#1C1D1F" d="M21.27 23.85c-1.39-.23-3.11.16-3.91 1.42-.37.59-.41 1.39-.38 2.07.03.68.21 1.39.66 1.95.82 1.01 2.34 1.28 3.52.87 1.18-.41 2.08-1.38 2.28-2.62.12-.76.01-1.5-.32-2.19-.31-.65-.93-1.33-1.67-1.43a1.152 1.152 0 0 0-.19-.012l.01-.058Zm-.43 1.6c.074.013.15.017.226.013a.549.549 0 0 1 .076.02l.008.003c.017.006.034.01.05.014h.006a.703.703 0 0 0 .084.06l.01.006a.83.83 0 0 0 .037.035l.01.009a.863.863 0 0 1 .1.104c.018.02.035.039.053.056l.05.073c.046.067.093.134.13.207a.796.796 0 0 1 .052.108.41.41 0 0 0 .018.072 10.368 10.368 0 0 0 .09.29c.01.05.02.11.03.17v-.01c0 .048.003.097.006.147.005.075.01.15.004.223v.16c-.02.1-.04.2-.07.3a1.33 1.33 0 0 1-.038.113c-.028.078-.053.148-.002.047-.05.11-.11.22-.18.33l-.045.07-.026.038-.02.022a4.385 4.385 0 0 0-.067.07 2.098 2.098 0 0 1-.142.14c-.011.011-.035.03-.052.045-.031.026-.047.038.042-.025a.476.476 0 0 1-.066.05 1.923 1.923 0 0 1-.398.23l-.014.006-.022.01c-.02.007-.04.014-.06.024a1.812 1.812 0 0 1-.42.11c-.049 0-.096.003-.144.007-.072.004-.144.01-.216.003-.022 0-.072-.005-.117-.01-.079-.008-.145-.015-.023.01-.11-.02-.21-.04-.32-.07a1.672 1.672 0 0 0-.164-.06 1.954 1.954 0 0 1-.346-.21c.063.046.023.009-.028-.038a1.196 1.196 0 0 1-.092-.092l-.021-.02-.018-.017-.001-.003a2.29 2.29 0 0 1-.051-.09 1.827 1.827 0 0 0-.04-.07 1.495 1.495 0 0 0-.03-.058l-.01-.027-.03-.085c-.01-.03-.017-.06-.024-.09-.008-.03-.015-.06-.025-.09 0-.04-.04-.25-.02-.08-.03-.22-.03-.45-.02-.67 0-.11.01-.23.02-.34 0-.07 0-.14.02-.2-.013.086-.002.037.01-.02l.003-.015a1.135 1.135 0 0 1 .057-.2c-.023.063.06-.096.06-.105l.006-.011.01-.017a1.063 1.063 0 0 0 .164-.161l.007-.01.033-.02c.06-.04.12-.08.19-.12.11-.07.23-.13.36-.18-.09.036-.024.013.028-.006l.02-.007.022-.008c.08-.03.15-.05.23-.07.03-.01.062-.017.095-.025a.944.944 0 0 0 .095-.025c.03 0 .25-.04.1-.02.13-.02.27-.02.4-.02h.32c-.08-.01-.07-.01.03 0Zm-.035 3.195-.003.002a.784.784 0 0 0-.036.016l.026-.012.013-.006Zm0 0a.432.432 0 0 0 .035-.015l-.023.01-.012.005Zm1.075-1.425v-.01c-.03.16 0 .05 0 .01Zm-1.53-3.85-1.517.029c-.388.114-.831-.029-.933-.54l-.056-.29c-.452-2.325-.908-4.668-1.014-7.04-.04-.92.02-1.92.54-2.72.5-.76 1.27-1.29 2.19-1.42.92-.13 1.83.14 2.54.77s1.02 1.52 1.14 2.46c.1.784.096 1.582.092 2.375l-.002.476a20.213 20.213 0 0 1-.289 3.383c-.128.818-.323 2.072-1.13 2.397-.358.137-.784.129-1.188.122-.127-.002-.252-.005-.373-.002Zm-1.034-1.573c.305-.008.612-.019.914-.037h.69l.057-.003.019-.001.124-.007c.023-.077.057-.16.09-.24a2.24 2.24 0 0 0 .08-.22c.06-.21.11-.43.16-.65.1-.47.16-.94.2-1.41.07-.81.07-1.62.07-2.43-.002-.155-.002-.312-.002-.47-.001-.552-.002-1.113-.088-1.65-.1-.64-.36-1.28-.98-1.57-.53-.25-1.14-.17-1.6.19-.52.41-.64 1.08-.64 1.71-.01.79.08 1.6.17 2.39.175 1.477.45 2.939.736 4.398Zm2.004-.037c-.003-.006-.018-.01-.04-.011.015-.01.028-.01.04.01Z M17.91 5.27c.05-.088.11-.16.175-.217.71-.836 1.778-1.224 2.855-.773.792.336 1.199 1.065 1.597 1.778.064.115.128.23.193.342l2.24 3.87 6.66 11.54c.53.922 1.069 1.84 1.607 2.757.986 1.678 1.972 3.356 2.903 5.063.84 1.53.33 3.55-1.62 3.83-.497.071-1.02.056-1.534.042-.21-.006-.42-.012-.626-.012H8.56c-.296 0-.594.005-.893.009-.6.009-1.203.018-1.797-.009-1.93-.09-3.03-1.94-2.14-3.66.814-1.573 1.733-3.109 2.649-4.64.435-.727.87-1.452 1.291-2.18 1.705-2.955 3.412-5.91 5.12-8.865l.001-.002 5.038-8.722a.877.877 0 0 1 .081-.14v-.01Zm1.238 1.058-.088.152c-2.22 3.966-4.512 7.897-6.804 11.828A1466.903 1466.903 0 0 0 8.67 24.48L6.29 28.6c-.127.223-.271.448-.417.676-.28.436-.566.88-.743 1.334-.51 1.28.7 1.28 1.5 1.28h25.8c.183 0 .378.01.575.022.406.022.825.045 1.195-.022 1.343-.233.65-1.363.203-2.092a11.23 11.23 0 0 1-.143-.238L21.32 7.16a14.15 14.15 0 0 1-.1-.181c-.4-.728-1.123-2.044-1.93-.889l-.02.028a9.33 9.33 0 0 1-.122.21Z"/>
</svg>
