<svg xmlns="http://www.w3.org/2000/svg" width="40" height="40" fill="none" viewBox="0 0 40 40">
  <path class="display-icon__fill-2" fill="#B6E5FF" d="M1.13 35.37V13.9c.15-.03.27-.07.4-.07 3.39 0 6.79-.07 10.17.06 1.46.06 2.97.39 4.35.9 3.02 1.12 4.52 3.51 4.83 6.66.39 3.98-.29 7.65-3.44 10.46-1.81 1.62-4.03 2.42-6.36 2.92-3.26.7-6.57.56-9.96.53l.01.01Z"/>
  <path class="display-icon__fill-1" fill="#52B0FF" d="m38.74 27.04-17.1.11s.84-7.15-.6-9.64-1.84-3.59-5.66-4.43l11.99-8.7s6.91 3.38 9.46 9.66c2.55 6.28 1.91 12.99 1.91 12.99v.01Z"/>
  <path class="display-icon__ink" fill="#1C1D1F" d="M12.778 4.162A.863.863 0 0 0 12.59 4c-.86-.56-1.91-.36-2.47.48-.67 1.01-.28 2.24.36 3.16a6.485 6.485 0 0 0 1.566 1.575c-.11.608-.223 1.215-.335 1.822-.301 1.624-.602 3.246-.861 4.873-.28 1.74-.39 3.72.9 5.11.506.545 1.216.956 1.991 1.197a89.173 89.173 0 0 0-1.041 5.644 80.784 80.784 0 0 1-3.71 1.757 2.343 2.343 0 0 0-.76-.238 1.254 1.254 0 0 0-.156-.012A4.316 4.316 0 0 0 4.84 30c-.27.18-.5.57-.37.9l.75 1.91.043.113c.196.509.404 1.048.897 1.327.89.51 2.45-.02 3.21-.6.934-.71 1.11-1.873.726-2.81l.122-.055c.315-.14.627-.279.942-.425.426-.199.85-.4 1.272-.606-.067.506-.13 1.013-.188 1.52-1.142.526-1.959 1.626-2.055 2.916-.06.78.29 1.3 1.07 1.46.64.133 1.289.249 1.938.365.324.057.649.115.972.175.37.07.69-.05.9-.37 1.016-1.532.316-3.578-1.234-4.382.096-.853.205-1.703.327-2.552a81.034 81.034 0 0 0 3.064-1.666c.419.46.93.837 1.503 1.09 2.01.89 4.19.27 6.07-.65 2.184-1.077 4.226-2.447 6.128-3.962.153.054.307.105.462.152 1.02.31 2.24.68 3.22.22 1.18-.56 1.17-2.05.35-2.92-.387-.413-.869-.722-1.354-1.033-.443-.284-.889-.57-1.266-.937-.9-.88-1.13-1.89-1.26-3.11-.13-1.22-.29-2.41-1.15-3.36a.821.821 0 0 0-.207-.168c-.654-.574-1.588-.623-2.383-.152-1.03.61-1.25 1.9-1.15 3 .019.21.042.42.07.629a.915.915 0 0 0-.15.061l-.01-.03-6.54 3.39c-.146.076-.291.154-.433.234.276-.724.44-1.501.594-2.224a40.9 40.9 0 0 0 .894-7.48c.879-.268 1.81-.64 2.396-1.27.77-.83.86-2.13-.07-2.86-.91-.728-1.977-.446-2.99-.179-.1.027-.2.054-.3.079-2.369.587-4.995-.024-6.873-1.578Zm3.592 21.724c-.63.361-1.265.713-1.906 1.057.25-1.5.54-2.993.869-4.48.365 0 .725-.04 1.067-.124a4.497 4.497 0 0 0-.37 1.461 4.34 4.34 0 0 0 .34 2.086Zm-8.444 5.05c.106.028.21.062.315.104l.035.014.099.04a.718.718 0 0 1 .306.446c.1.38-.05.71-.38.91-.215.131-.466.2-.702.267l-.048.013a2.934 2.934 0 0 0-.065.02c-.13.043-.352.115-.435.09a1.943 1.943 0 0 0-.05-.009c-.027-.005-.038-.007-.045-.014-.005-.004-.007-.011-.011-.023a.597.597 0 0 0-.054-.114c-.25-.46-.432-.985-.61-1.5l-.044-.126a2.75 2.75 0 0 1 1.432-.17.531.531 0 0 0 .142.036l.115.016Zm4.244 2.354c.193-.252.441-.438.724-.563.06.045.128.083.206.113.668.26.934 1.018.795 1.67l-1.075-.2c-.125-.025-.252-.047-.38-.07a17.093 17.093 0 0 1-.38-.07l-.219-.038a1.64 1.64 0 0 0 .012-.101c.013-.111.025-.219.047-.27.07-.16.16-.33.27-.47Zm16.4-10.91c.237.207.489.393.753.559a34.226 34.226 0 0 1-2.08 1.477 3384.82 3384.82 0 0 0-3.34-5.405l1.139-.585 1.507-.775c.114.537.241 1.071.368 1.602l.023.097c.28 1.16.71 2.23 1.63 3.03Zm-6.095-2.634 3.409 5.513a30.03 30.03 0 0 1-1.894 1.021c-1.83.9-4.48 1.53-5.85-.46-.55-.8-.67-1.81-.33-2.72.39-1.05 1.3-1.6 2.24-2.09a368.51 368.51 0 0 1 2.425-1.264ZM11.73 5.35c1.236 1.002 2.677 1.709 4.24 2.01.82.16 1.66.22 2.49.16.698-.048 1.345-.208 2.006-.372.174-.043.348-.087.525-.128.25-.06.76-.18.96.06.23.26-.17.59-.38.73-.74.49-1.76.75-2.62.96-1.67.4-3.5.43-5.07-.32-.78-.37-1.51-.9-2.02-1.62-.24-.33-.59-.85-.49-1.28.064-.258.171-.304.359-.2Zm7.272 5.05a39.313 39.313 0 0 1-.218 2.938 38.932 38.932 0 0 0-5.756-.673l.156-.802v-.002c.12-.611.24-1.22.353-1.83.786.322 1.63.518 2.484.589.993.086 2.004-.011 2.98-.22Zm-6.661 6.37c.104-.84.24-1.678.389-2.515a36.604 36.604 0 0 1 5.843.662 37.422 37.422 0 0 1-.412 2.223c-.38 1.76-.9 3.96-3.17 3.68-.97-.12-2.04-.53-2.46-1.48-.35-.79-.29-1.74-.19-2.57Zm16.487-2.898c.466.538.563 1.292.632 1.978l.037.364c.073.713.145 1.431.393 2.106.606 1.637 1.964 2.558 3.33 3.483l.23.157.024.017.022.016c.17.123.58.417.454.607-.084.126-.436.082-.623.06a9.052 9.052 0 0 1-2.307-.63c-.69-.29-1.38-.71-1.84-1.33-.484-.654-.658-1.501-.822-2.299a34.308 34.308 0 0 0-.088-.421l-.071-.305c-.222-.95-.456-1.95-.43-2.925.01-.34.08-.78.38-.98.08-.05.42-.2.5-.09.052.072.113.137.18.192Z"/>
</svg>
