<svg xmlns="http://www.w3.org/2000/svg" width="40" height="40" fill="none" viewBox="0 0 40 40">
  <path class="display-icon__fill-2" fill="#B6E5FF" d="m7.97 37.97 3.78-15.81s5.64 1.33 8.34.92c2.85-.44 4.58-1.23 6.07-3.51l5.31 13.05s-4.69 5.61-11.07 6.54c-6.38.93-12.43-1.19-12.43-1.19Z"/>
  <path class="display-icon__fill-1" fill="#52B0FF" d="M18.51 21.29c-3.49-.08-6.4-1.12-8.43-3.95-1.47-2.05-1.95-4.4-1.88-6.87.07-2.59.74-4.99 2.54-6.95C13.16.89 16.26.14 19.68.46c3.19.29 5.85 1.64 7.43 4.5 2.13 3.87 2.13 7.89 0 11.76-1.53 2.78-4.14 4.11-7.24 4.48-.49.06-.98.07-1.34.1l-.02-.01Z"/>
  <path class="display-icon__ink" fill="#1C1D1F" d="M15.477 27.35c.773.088 1.567.085 2.355.083.382 0 .762-.002 1.138.007.85.02 1.69 0 2.54-.04.38-.01.65-.24.77-.59.38-1.04.75-2.08 1.04-3.14.345-1.252.475-2.587.604-3.908.06-.63.122-1.258.206-1.872.6-4.55 1.47-9.04 2.85-13.42.16-.51-.27-1-.77-1.01-1.885-.06-3.773-.117-5.66-.175-1.888-.057-3.775-.115-5.66-.175-.34-.01-.7.25-.77.59-.796 3.558-.821 7.154-.846 10.767a326.419 326.419 0 0 1-.021 2.184c-.05 3.42-.103 6.945 1.413 10.09a.595.595 0 0 0 .43.547.67.67 0 0 0 .381.062Zm-.625-10.329c.007-.417.014-.83.018-1.24.005-.498.008-.996.01-1.493.019-3.205.037-6.403.661-9.558 1.672.053 3.346.104 5.02.155 1.53.047 3.061.093 4.591.141-1.19 4.02-1.968 8.121-2.532 12.274-.085.63-.147 1.275-.209 1.923-.127 1.328-.255 2.67-.591 3.927-.238.904-.55 1.794-.865 2.67a39.9 39.9 0 0 1-1.765.02c-.27 0-.525-.026-.785-.052a15.153 15.153 0 0 0-.415-.038 7.2 7.2 0 0 0-1.075.024c-.305.022-.61.044-.917.033-1.252-2.716-1.198-5.818-1.146-8.786Zm6.874 19.035a.738.738 0 0 0 .235-.566v-6.38c0-.43-.37-.8-.8-.8h-6.38c-.43 0-.8.37-.8.8v6.38c0 .43.37.8.8.8h6.38a.738.738 0 0 0 .565-.234ZM20.36 34.69h-4.78v-4.78h4.78v4.78Z"/>
</svg>
