<svg xmlns="http://www.w3.org/2000/svg" width="40" height="40" fill="none" viewBox="0 0 40 40">
  <path class="display-icon__fill-2" fill="#B6E5FF" d="M20.32 39.36c-3.94.07-7.89.05-11.73-.99-1.52-.41-2.96-1-4.17-2.04-1.83-1.57-2.29-3.68-2.28-5.96.02-3.56 1.8-5.85 5.08-7.08 2.64-.99 5.41-1.35 8.19-1.53 4.53-.29 9.06-.32 13.56.32 2.06.29 4.07.75 5.91 1.79 2.11 1.19 3.26 3.02 3.42 5.4.08 1.16.03 2.37-.19 3.51-.49 2.46-2.2 3.9-4.42 4.82-2.83 1.19-5.83 1.5-8.85 1.71-1.5.1-3.02.04-4.53.05h.01Z"/>
  <path class="display-icon__fill-1" fill="#52B0FF" d="M19.16 20.35c-3.33-.08-6.11-1.07-8.05-3.77-1.4-1.96-1.86-4.2-1.79-6.56.07-2.47.71-4.77 2.42-6.64C14.04.87 17 .15 20.27.45c3.04.28 5.59 1.57 7.09 4.3 2.04 3.7 2.03 7.54 0 11.23-1.47 2.66-3.95 3.92-6.92 4.27-.47.06-.94.07-1.28.09v.01Z"/>
  <path class="display-icon__ink" fill="#1C1D1F" d="m21.177 14.42-.367-.18c-.39-.18-.49-.74-.29-1.09.23-.4.7-.48 1.09-.29.146.07.291.142.436.214l.049.024c.31.152.623.306.917.434l-.016-.84-.006-.002c-.5-.17-1.01-.36-1.35-.78-.39-.47-.5-1.06-.37-1.65.12-.55.51-1 .96-1.31.22-.149.46-.266.712-.347l-.002-.153c-.01-1.026 1.59-1.03 1.6-.01.332.024.663.068.99.13l-.01.01c.43.07.67.59.56.98-.12.44-.56.64-.98.56a6.338 6.338 0 0 0-.538-.075l.022 1.463.066.022.082.027h.003c.482.162.968.324 1.355.663.46.4.63.99.52 1.58-.173.956-1.052 1.505-1.955 1.629l.005.271c.02 1.03-1.58 1.03-1.6 0l-.01-.454c-.593-.186-1.162-.47-1.72-.75l-.153-.076Zm3.626-1.14c.067.03-.034-.02-.053-.02a.804.804 0 0 1-.137-.045l.011.601v.001c.052-.013.105-.027.152-.043a1.627 1.627 0 0 1 .091-.046l.008-.004a.233.233 0 0 1 .032-.014.57.57 0 0 0 .073-.08c-.098.098.058-.129.044-.067a.796.796 0 0 0 .027-.103v-.03a.729.729 0 0 0-.021-.012l-.003-.002.003.004.02.014v.002c-.016-.011-.043-.03-.025-.02v-.001c-.032-.027-.026-.025-.01-.015l.005.004.03.016a1.393 1.393 0 0 0-.247-.14Zm-1.899-2.364.006.004.058.033-.007-.551a.894.894 0 0 0-.06.068c.08-.09 0 .01-.01.02-.03.08-.05.09-.03.04l.003-.017.002-.014-.006.016-.02.055-.008.021a.402.402 0 0 0-.029.086v.004l-.001.012v-.008l-.001.016v-.004l.001-.004-.002.057.014.053c0-.02.036.052.026.054l.017.018.023.025.005.005.006.003.013.008Z M34.79 12.11c.64.35 1.11.9 1.49 1.51.44.71.84 1.53.46 2.35-.197.426-.564.678-.934.934l-.003.002a8.847 8.847 0 0 0-.32.227c.067-.05-.114.122-.15.148l-.01.018a.592.592 0 0 0-.053.101c.05-.12-.03.12-.03.12l-.02.08c-.01.09-.01.17-.01.26 0 .078.004.157.01.235v.002c.005.077.01.154.01.233l-.006.004.088.225c.431 1.1.885 2.259-.242 3.061-.174.116-.356.22-.545.312l-.002.001c-.51.262-.983.504-1.013 1.217-.01.24-.007.462-.003.676.01.544.017 1.035-.227 1.624-.24.577-.688 1.021-1.12 1.449l-.003.003c-.735.73-1.422 1.413-.957 2.628.161.42.378.826.595 1.232l.002.003c.537 1.007 1.074 2.012.753 3.215-.3 1.11-1.58 2.02-2.62 1.21-.434-.34-.709-.95-.948-1.482l-.003-.006-.015-.034-.005-.01a12.048 12.048 0 0 0-.099-.218 7.739 7.739 0 0 1-.326-.921v-.002c-.188-.605-.386-1.244-.734-1.597-.51-.52-1.87-.66-2.33-.12l-.084.103c-.297.363-.534.652-1.056.707-.356.038-.693-.053-1.032-.143l-.002-.001c-.38-.103-.763-.206-1.176-.126-1.29.25-1.81 1.39-1.69 2.58.04.43-.4.8-.8.8-1.19-.01-2.39-.25-3.09-1.31-.236-.362-.35-.792-.464-1.221v-.003a6.614 6.614 0 0 0-.23-.76 1.416 1.416 0 0 1-.865-.116c-.36-.167-.525-.44-.71-.747l-.11-.183c-.48-.77-.86-.92-1.7-1.19-.465-.148-.934-.29-1.405-.43l-.065-.02c-1.093-.325-2.19-.653-3.23-1.08-.99-.4-1.51-1.06-1.7-2.11a10.486 10.486 0 0 1-.108-.709l-.002-.011c-.06-.47-.12-.932-.3-1.39-.186-.488-.447-.943-.707-1.397-.093-.16-.185-.321-.274-.483l-.112-.206c-.454-.83-.99-1.814-.798-2.764.083-.412.311-.748.543-1.09.107-.157.213-.314.307-.48.3-.53.49-1.11.64-1.7.32-1.21.44-2.47.33-3.72-.05-.5.55-.94 1.01-.77.884.313 1.752.698 2.624 1.083l.055.025c1.68.747 3.368 1.496 5.18 1.753l.001-.577V11.86c0-1-.02-2.01-.04-3.01a12.858 12.858 0 0 0-.04-.697V8.14c-.042-.595-.085-1.2.05-1.77.24-1.03 1.15-1.15 2.07-1.15h4.19c2.806-.02 5.603-.039 8.408-.003a.872.872 0 0 1 .182-.007v-.02c.079 0 .157.01.232.032.52.024 1.04.019 1.558.014h.004a28.44 28.44 0 0 1 1.546.014c.44.02.8.35.8.8.013 1.729.002 3.46-.01 5.19l-.002.388a471.036 471.036 0 0 0-.013 3.146l.007-.007a.89.89 0 0 0 .048-.087l.004-.007.016-.063v-.28a10.29 10.29 0 0 0-.017-.353c-.033-.548-.064-1.083.257-1.577a.81.81 0 0 1 1.09-.29ZM15.964 6.789a.27.27 0 0 1-.014.13c-.021.13-.024.263-.008.394v.012c.005.06.008.119.008.174.037 1.891.052 3.78.067 5.668l.003.368c.01 1.264.02 2.527.038 3.79 2.627-.014 5.255-.03 7.882-.046h.041c2.607-.016 5.21-.032 7.817-.046a319.26 319.26 0 0 1 .002-5.993c.013-1.47.018-2.939.015-4.408-.253-.001-.505 0-.757.003h-.003a24.72 24.72 0 0 1-1.785-.026.906.906 0 0 1-.152-.022 411.21 411.21 0 0 0-7.698.002c-1.28.02-2.56.02-3.84.02h-1.44a.429.429 0 0 1-.176-.02Zm9.411 13.646a3.604 3.604 0 0 1-.075-.294c-.08-.39-.06-.77.09-1.14l.057-.13-.947.006a.16.16 0 0 1 .01.053l.06.3c.055.303.066.612.031.918l.002-.008a.616.616 0 0 1-.006.04l-.003.028.002-.016-.003.02-.002.023v.006c.043.027.087.053.132.078l.03.016.027.015.056.024.024.01.011.004c.1.041.206.085.01.012l.24.09c.038.02.082.03.128.042l.006.002.027.006h.122l-.029-.105Zm8.355.115.153-.083.012-.007a4.72 4.72 0 0 0 .365-.21l-.1-.09c.065-.25-.208-.848-.413-1.296a6.079 6.079 0 0 1-.187-.434.704.704 0 0 1 .026-.576c.006-.503.09-1.011.374-1.424.047-.068.097-.132.15-.192a2.03 2.03 0 0 1-.719.266c.004.509.011 1.017.02 1.526.01.44-.37.8-.8.8l-.43.002a1.898 1.898 0 0 0-.29.178l-.009.005a.164.164 0 0 1-.022.015l-.02.011.005-.004.075-.057c-.003-.006-.037.023-.086.065a6.403 6.403 0 0 0-.784.855.575.575 0 0 1-.038.054L31 19.97a.701.701 0 0 0-.05.07c-.07.09-.13.17-.19.26l-.233.322-.01.015c-.206.287-.41.573-.627.853l-.013.016c-.347.436-.735.924-1.347.914-.46-.01-.76-.36-.8-.8a98.377 98.377 0 0 1-.07-.88l-.016-.209a97.022 97.022 0 0 0-.054-.671l-.03-.36-.002-.038-.028-.172-.009-.04a1.059 1.059 0 0 0-.055-.198.732.732 0 0 1-.046-.072l-.01-.02-.01-.01a1.08 1.08 0 0 1-.069-.09h-.127a6.703 6.703 0 0 1-.174.38l-.1.2-.02.04c-.01.03-.03.08-.03.08l.05-.12a.478.478 0 0 1-.024.068l-.002.005a.637.637 0 0 0-.014.037l-.005.013-.004.01-.001.004a.34.34 0 0 0-.016.049l-.004-.026v.06a.172.172 0 0 0-.004.016l.004.014v-.03a.15.15 0 0 1 .004-.034.306.306 0 0 1 .002.086l.022.07c.03.092.057.184.082.278.03.13.057.262.078.395l.042.225c.04.2.07.38.02.58-.1.36-.39.58-.73.69-.46.15-.97.22-1.45.13-.29-.05-.57-.18-.84-.31s-.55-.3-.75-.52c-.21-.24-.3-.51-.33-.83a1.348 1.348 0 0 1-.003-.19l.001-.033.002-.067.002-.022a1.88 1.88 0 0 1 .038-.248.985.985 0 0 0-.005-.181v-.005l-.006-.024a.7.7 0 0 0-.01-.037l-.001-.005a.337.337 0 0 1-.018-.088l-.033-.14a3.128 3.128 0 0 1-.084-.494c-2.275.014-4.549.028-6.823.039.005.346.015.692.025 1.038l.002.077c.016.591.033 1.181.023 1.77-.01.45-.37.78-.8.8-.43.02-.8-.38-.8-.8.01-.589-.007-1.18-.023-1.772l-.002-.063a40.285 40.285 0 0 1-.025-1.835v-.012c-.014-.962-.019-1.924-.02-2.886-1.992-.275-3.8-1.054-5.619-1.837a74.666 74.666 0 0 0-1.619-.683 11.959 11.959 0 0 1-.852 4.249c-.109.265-.256.52-.4.77-.374.642-.734 1.263-.41 2.02.212.494.476.963.74 1.43.25.44.497.88.7 1.34.22.51.4 1.01.49 1.56.027.179.042.36.045.54v.012c.015.325.03.66.155.917.375.765 1.821 1.115 2.92 1.38.336.08.64.155.87.23.266.087.544.167.825.247.755.216 1.537.44 2.185.834.3.19.59.45.78.74.1.15.24.38.27.56l.03.06c.315-.233.812-.255 1.07.06.488.592.683 1.23.9 1.94l.03.099c.252.824.615 1.196 1.272 1.333.134-1.227.824-2.34 1.968-2.933.56-.29 1.22-.43 1.85-.41.178.015.354.05.524.107.201.057.401.113.576.103.322-.021.365-.096.46-.26.052-.095.113-.186.18-.27.78-.97 2.63-.52 3.66-.21 1.119.344 1.446 1.355 1.776 2.374v.002l.005.015c.12.37.241.74.4 1.079.04.11.48 1.21.63 1.21.58.02-.23-1.91-.31-2.07a16.005 16.005 0 0 0-.346-.642c-.266-.475-.533-.953-.685-1.478-.45-1.53.16-2.62 1.27-3.62.93-.84 1.19-1.48 1.13-2.7-.03-.66-.02-1.17.39-1.72.363-.481.88-.77 1.39-1.053l.03-.017Z"/>
</svg>
