<svg xmlns="http://www.w3.org/2000/svg" width="40" height="40" fill="none" viewBox="0 0 40 40">
  <path class="display-icon__fill-2" fill="#B6E5FF" d="m32.91 8.18 3.61 20.31s-8.68.45-11.34 2.67c-2.66 2.22-3.9 2.92-4.11 7.64L8.28 26.3s2.62-8.9 9.57-13.21c6.95-4.31 15.06-4.91 15.06-4.91Z"/>
  <path class="display-icon__fill-1" fill="#52B0FF" d="M36.69 3.8c-11.6 4.73-23.2 9.46-34.81 14.19-.46-1.14-.92-2.26-1.39-3.41C12.09 9.85 23.69 5.13 35.3.39c.46 1.12.92 2.25 1.39 3.41Z"/>
  <path class="display-icon__ink" fill="#1C1D1F" d="M20.33 20.78c-.02-.41-.35-.82-.8-.8-1.28.07-2.56.14-3.83.2-.42.02-.82.35-.8.8.002.053.01.106.022.16a.737.737 0 0 0-.032.23c.05 1.95.03 3.9-.04 5.85-.02.43.38.8.8.8.45 0 .78-.37.8-.8.03-.822.05-1.645.058-2.467l2.703-.213c.42-.03.82-.34.8-.8-.02-.41-.35-.83-.8-.8l-2.698.212c-.002-.47-.008-.943-.016-1.415l.045-.002c1-.054 1.996-.108 2.987-.155.42-.02.82-.35.8-.8Zm4.16 2.46c-.32-.1-.63-.17-.96-.21-.142-.017-.287-.027-.43-.037l-.035-.002a5.378 5.378 0 0 1-.515-.051c-.06-.01-.12-.02-.18-.04 0 0-.11-.04-.14-.047a.677.677 0 0 1-.11-.063.604.604 0 0 0-.135-.089l-.048-.052-.002-.003a.177.177 0 0 1-.025-.052l.003.03v.006c.003.078-.044-.141-.008-.015l-.001-.006a.14.14 0 0 1-.007-.053.14.14 0 0 1 .02-.043l.004-.008.008-.015a.876.876 0 0 1 .164-.194l.027-.016.055-.032c.032-.02.064-.038.098-.056l.009-.003a.303.303 0 0 1 .068-.019 2.76 2.76 0 0 1 .47-.12.965.965 0 0 0 .073-.017l.037-.003c.77-.06 1.54-.03 2.31.03.43.04.8-.39.8-.8 0-.46-.37-.76-.8-.8l-.01-.03-.053-.004c-1.21-.1-2.643-.217-3.747.374-.63.33-1.13.99-1.14 1.72-.01.73.43 1.32 1.04 1.65.495.271 1.02.32 1.558.37.157.015.314.03.472.05.248.039.492.099.73.18.039.017.078.032.118.046l.022.014c.11.06.21.12.31.19l.04.029.046.031c.033.028.064.058.094.09-.065-.059-.04-.028-.006.014.02.023.04.049.056.076 0 .009.04.109.025.059l.02.066a.829.829 0 0 0 .025.085l.014.048a.412.412 0 0 0-.004.072v.07a.443.443 0 0 1-.034.148l-.006.016a.585.585 0 0 0-.017.054l-.003.002a.331.331 0 0 0-.052.076l-.011.014a.156.156 0 0 1-.017.02c-.015.014-.028.029-.042.045l-.011.012-.007.008c-.037.041-.076.08-.117.117l-.008.008-.009.008a1.21 1.21 0 0 0-.056.052l-.15.09a.554.554 0 0 1-.047.025l-.026.013c-.041.02-.078.039-.07.039a2.185 2.185 0 0 1-.287.093c-.06.02-.12.03-.18.04a1.477 1.477 0 0 0-.174.023c-.27.024-.541.021-.81-.01h-.013a4.891 4.891 0 0 1-.603-.133l-.075-.023a4.773 4.773 0 0 1-.326-.107h-.002a1.19 1.19 0 0 0-.138-.05l-.07-.03a.332.332 0 0 0 .039.023l.012.007-.07-.03-.07-.03c-.39-.19-.86-.11-1.09.29-.2.35-.11.91.29 1.09 1.05.5 2.2.74 3.36.56 1.04-.16 2.19-.85 2.44-1.94.16-.71.01-1.53-.49-2.08-.37-.41-.9-.7-1.42-.86Zm-2.177-1.067.007-.003-.028.013.02-.01Zm9.217 1.307a59.052 59.052 0 0 1-.695-2.094c-.182-.616-.412-1.392-1.215-1.276-.63.09-1.05.82-1.34 1.33-.29.51-.51 1.11-.68 1.69-.137.47-.244.95-.35 1.432v.003c-.165.742-.33 1.485-.61 2.195-.16.4.18.88.56.98.46.13.82-.16.98-.56h.01c.172-.433.302-.877.415-1.328.09.038.19.058.295.058h1.87c.272.656.56 1.306.86 1.95.18.39.75.49 1.09.29.4-.23.47-.7.29-1.09-.55-1.17-1.04-2.36-1.48-3.58Zm-2.572.83.082-.34c.12-.47.261-.982.474-1.45l.106.33c.164.492.336.976.515 1.46h-1.177Z M36.22 27.219c-.018-.453-.034-.9-.03-1.33V23.4l-.01-.605v-.008c-.016-.998-.03-2.001-.08-2.997a18.74 18.74 0 0 1-.02-.566v-.074c-.02-1.142-.045-2.373-1.11-3.02-.78-.472-1.9-.393-2.887-.323a17.99 17.99 0 0 1-1.374.057c-.29-1.018-.601-2.028-.913-3.037l-.036-.117c-.31-1.004-.619-2.01-.91-3.02-.41-1.44-1.08-2.79-2.66-3.21-1.179-.313-2.537.142-3.769.555l-.016.005c-.412.138-.812.272-1.184.37l-.035.01c-2.058.536-4.117 1.073-6.175 1.62-.59.158-1.18.313-1.77.466l-.015.004c-2.445.637-4.923 1.284-7.246 2.24-1.3.54-2.22 1.18-2.35 2.7-.063.71.154 1.445.36 2.145l.002.005c.056.186.11.37.158.55.145.545.288 1.09.43 1.635l.109.413c.106.408.213.815.321 1.222.175.66.348 1.323.52 1.985l.093.356c.142.544.283 1.087.427 1.629.046.176.088.356.13.538v.002c.183.784.376 1.608.87 2.24.96 1.212 2.566 1.188 3.96.854v1.036c0 1.25.19 2.53 1.53 3.02.87.312 1.982.25 3.012.193h.003c.39-.022.766-.043 1.114-.043h13.7c.285 0 .599.014.928.028l.05.002c1.92.087 4.357.196 4.772-2.04.173-.947.136-1.989.1-3.001ZM29.057 15.91l-.52.016a.947.947 0 0 0-.119-.007l-.03-.01c-2.301.015-4.602.047-6.907.079h-.131c2.37-.687 4.73-1.409 7.08-2.165.212.695.424 1.39.627 2.087ZM5.27 15.16c-.092-.587-.032-1.151.46-1.529.437-.334 1.057-.53 1.619-.706l.004-.001c.144-.045.285-.09.417-.134 1.27-.43 2.57-.8 3.87-1.16 1.753-.496 3.516-.952 5.28-1.407l.188-.049c1.906-.493 3.812-.987 5.702-1.534.201-.059.42-.135.649-.215l.014-.005.006-.002c.753-.264 1.615-.566 2.291-.398.557.138.897.5 1.131.945-5.57 1.466-11.083 3.091-16.6 4.718l-.024.007c-1.668.491-3.337.983-5.007 1.47Zm5.74 11.222c-.753.234-1.78.505-2.45.047-.62-.429-.829-1.512-1.001-2.405l-.002-.007a11.882 11.882 0 0 0-.157-.738v-.006l-.824-3.146c1.471-.44 2.95-.88 4.423-1.313v.015a44.641 44.641 0 0 1 .015 1.872c-.003.259-.005.518-.005.778v4.903Zm.181-9.286c-1.67.498-3.349.997-5.018 1.486L5.69 16.73l-.006-.025c1.537-.449 3.075-.903 4.612-1.357l.38-.112h.002c5.562-1.643 11.124-3.285 16.74-4.754.176.606.358 1.21.543 1.814-4.32 1.367-8.662 2.71-13.08 3.734a.88.88 0 0 0-.123.037l-.459.003-.33-.003c-1.033-.014-2.28-.03-2.778 1.03ZM33.54 30.63c-.628.054-1.274.036-1.914.018h-.013c-.314-.01-.625-.018-.933-.018H14.23c-1.04 0-1.51-.02-1.61-1.17-.08-.896-.053-1.828-.026-2.748V26.7c.013-.452.026-.9.026-1.34 0-.772.006-1.544.013-2.316.01-1.158.02-2.316.007-3.474 0-.143-.014-.301-.029-.465v-.013c-.056-.614-.115-1.28.53-1.422.415-.094.913-.061 1.39-.03h.019c.225.016.446.03.65.03 1.53-.01 3.06-.03 4.59-.05h.06l.445-.006c2.66-.037 5.31-.074 7.967-.093.053.007.105.01.158.01l1.12-.032h.024c1.094-.032 2.188-.064 3.286-.08h.112l.052-.002c.741-.014 1.37-.026 1.416.943l.026.51.01.16a99.93 99.93 0 0 1 .124 3.63v.02c.03 1.63.02 3.26 0 4.88 0 .177.011.373.022.579l.002.034c.06 1.063.13 2.35-1.074 2.457Z"/>
</svg>
