<svg xmlns="http://www.w3.org/2000/svg" width="40" height="40" fill="none" viewBox="0 0 40 40">
  <path class="display-icon__fill-2" fill="#B6E5FF" d="m20.88.28 5.44 16.67s-7.25 1.41-9.23 3.6c-1.98 2.19-2.93 2.92-2.56 6.92L2.29 18.46S3.44 10.65 8.78 6.2 20.88.28 20.88.28Z"/>
  <path class="display-icon__fill-1" fill="#52B0FF" d="M36.31 25.92c.91 3.39.74 6.49-1.42 9.25-1.56 1.99-3.69 3.12-6.08 3.76-2.51.67-5.02.7-7.42-.47-3.22-1.58-4.82-4.35-5.49-7.74-.62-3.16-.08-6.11 2.23-8.43 3.13-3.16 7-4.29 11.34-3.33 3.12.69 5.13 2.82 6.37 5.71.19.45.35.93.48 1.26l-.01-.01Z"/>
  <path class="display-icon__ink" fill="#1C1D1F" d="M19.155 9.207a394.88 394.88 0 0 0-.595-.467l.02-.01a.623.623 0 0 1-.228-.443c-.078-.216-.072-.46.068-.647.37-.5.75-1 1.16-1.48.05-.06.102-.125.155-.192.306-.383.664-.83 1.115-.958.532-.157.919.164 1.3.481l.17.139.76.61.76.61c.9.72 1.802 1.44 2.705 2.16.902.72 1.805 1.44 2.705 2.16.114.09.238.183.367.278.721.533 1.564 1.156 1.233 2.132-.28.84-1.21 1.64-1.88 2.18-.45.36-.92.58-1.48.32a2.386 2.386 0 0 1-.589-.411l-.657.686c-.45.468-.902.937-1.343 1.414a163.959 163.959 0 0 0 6.518 5.771c.446.372.896.738 1.345 1.103.529.43 1.057.86 1.575 1.297.8.67 1.57 1.51 1.8 2.56.46 2.13-1.35 3.9-3.46 3.07-.928-.361-1.628-1.108-2.302-1.83-.146-.155-.292-.31-.438-.46-.9-.92-1.81-1.82-2.74-2.7a106.423 106.423 0 0 0-5.516-4.87 45.186 45.186 0 0 1-1.545 1.913c.513.44.906.968.662 1.687-.28.84-1.21 1.64-1.88 2.18-.45.36-.92.58-1.48.32-.314-.15-.613-.407-.897-.651a10.52 10.52 0 0 0-.333-.279c-.9-.7-1.79-1.41-2.67-2.13-1.71-1.39-3.39-2.82-5.04-4.28l.03-.01a.69.69 0 0 1-.257-.539.658.658 0 0 1 .097-.55c.37-.5.75-1 1.16-1.48l.156-.193c.306-.383.663-.83 1.114-.958.532-.157.919.165 1.3.481l.17.14.078.061c.347-.477.738-.917 1.142-1.37v-.001l.32-.361c.65-.74 1.29-1.5 1.93-2.26 1.166-1.383 2.3-2.79 3.415-4.223Zm1.25.99A166.3 166.3 0 0 1 17.1 14.3c-.66.78-1.32 1.56-1.99 2.33-.135.156-.273.31-.411.465-.385.43-.77.861-1.102 1.33l.193.155c.9.72 1.803 1.44 2.705 2.16l.005.004 2.378 1.898c.749-.854 1.44-1.755 2.132-2.657.442-.575.883-1.15 1.34-1.715.865-1.072 1.812-2.056 2.763-3.045.203-.21.405-.421.607-.633-.624-.546-1.26-1.087-1.9-1.622a198.658 198.658 0 0 0-3.415-2.773ZM23.48 19.4c-.282.35-.56.703-.834 1.058a100.18 100.18 0 0 1 5.483 4.822c.78.73 1.57 1.51 2.31 2.25.238.238.47.493.705.75.495.544.998 1.096 1.575 1.51.63.46 1.68.66 1.86-.33.16-.83-.43-1.52-.99-2.05-.94-.88-1.935-1.68-2.94-2.49a75.104 75.104 0 0 1-2.09-1.72 174.428 174.428 0 0 1-4.719-4.236c-.121.144-.241.29-.36.436ZM20.165 7.955a186.892 186.892 0 0 1 4.485 3.615 129.905 129.905 0 0 1 2.52 2.16c.103.09.205.18.31.27.058.055.134.113.214.174.126.097.262.201.35.31l.016-.014c.06-.103.19-.206.314-.304a2.05 2.05 0 0 0 .216-.186l.645-.785-.005-.005a9.597 9.597 0 0 0-.17-.135c-.057-.045-.115-.09-.17-.135l-.339-.27h-.001c-.112-.09-.225-.18-.34-.27l-2.37-1.89-1.26-1.008-.014-.01L23.3 8.46c-.195-.16-.392-.318-.59-.475a54.462 54.462 0 0 1-.59-.475c-.115-.09-.227-.18-.34-.27-.112-.09-.225-.18-.34-.27a4.656 4.656 0 0 1-.1-.096 4.801 4.801 0 0 0-.142-.137c-.053.056-.105.114-.158.173l-.39.45c-.167.195-.328.393-.485.595ZM10.093 19.714a151.192 151.192 0 0 0 4.277 3.636 210.493 210.493 0 0 0 2.867 2.304l.123.096c.062.049.14.1.224.154.147.096.307.2.407.312l.02-.016c.06-.102.19-.205.313-.303a2.05 2.05 0 0 0 .216-.187c.037-.043.431-.524.645-.784l-.005-.006a8.42 8.42 0 0 0-.17-.135c-.057-.045-.115-.09-.17-.135-.115-.09-.227-.18-.34-.27-.112-.09-.225-.18-.34-.27l-2.37-1.89-1.27-1.015-1.27-1.015c-.195-.16-.392-.317-.59-.475a53.256 53.256 0 0 1-.59-.475c-.115-.09-.227-.18-.34-.27-.112-.09-.225-.18-.34-.27l-.1-.096a7.335 7.335 0 0 0-.142-.137 14.28 14.28 0 0 0-.158.173l-.39.45a17.49 17.49 0 0 0-.507.624ZM5.85 31.75l.352-.031c.15-1.296 1.43-2.147 2.688-2.299 1.62-.19 3.34-.24 4.94-.21 1.6.03 3.26.13 4.84.38 1.236.19 2.293 1.098 2.33 2.316.596.09 1.148.287 1.57.804.62.76.64 1.76.58 2.69-.03.43-.35.8-.8.8-2.975-.015-5.95-.002-8.925.01-2.976.013-5.95.025-8.925.01h.01a.735.735 0 0 1-.658-.364.79.79 0 0 1-.142-.446c-.005-.21-.024-.428-.043-.648-.06-.709-.124-1.444.273-2.062.42-.64 1.18-.88 1.91-.95Zm7.03-.12c2.176 0 4.352.04 6.528.158-.139-.666-1.464-.73-2.196-.767a7.197 7.197 0 0 1-.342-.02c-1.08-.12-2.18-.19-3.27-.2-.979-.018-1.943.044-2.911.105h-.002l-.537.034-.278.013c-.706.028-1.684.067-1.986.675a82.904 82.904 0 0 1 3.269-.01c.57.006 1.144.012 1.725.012Zm.555 2.98c2.717-.011 5.434-.023 8.152-.013-.028-.62-.243-1.075-1.087-1.147-.823-.07-1.645-.1-2.458-.13h-.022c-1.71-.07-3.43-.1-5.14-.1-1.71 0-3.43.02-5.14.06a9.389 9.389 0 0 1-.579-.017c-.537-.025-1.13-.054-1.571.127-.422.173-.427.714-.37 1.233 2.738.01 5.476-.001 8.215-.013Z"/>
</svg>
