<svg xmlns="http://www.w3.org/2000/svg" width="40" height="40" fill="none" viewBox="0 0 40 40">
  <path class="display-icon__fill-2" fill="#B6E5FF" d="m24.19.53 3.71 15.86s-7.62.8-9.86 2.88c-2.25 2.08-3.37 4.36-4.85 6.9L2.94 15.77s1.9-7.96 7.82-12.07S24.19.53 24.19.53Z"/>
  <path class="display-icon__fill-1" fill="#52B0FF" d="M25.7 39.39c-3.48-.08-6.38-1.11-8.4-3.94-1.46-2.04-1.94-4.38-1.87-6.84.07-2.58.74-4.97 2.53-6.93 2.41-2.62 5.5-3.37 8.91-3.06 3.18.29 5.83 1.64 7.4 4.48 2.13 3.86 2.12 7.87 0 11.72-1.53 2.77-4.12 4.09-7.22 4.46-.49.06-.98.07-1.33.1l-.02.01Z"/>
  <path class="display-icon__ink" fill="#1C1D1F" d="M30.22 4.6c-1.03-.27-2.08-.31-3.14-.27-1.03.04-1.03-1.56 0-1.6 2.32-.08 5.06.3 6.76 2.05.75.77 1.47 1.68 1.79 2.71.42 1.34.48 2.86.39 4.26-.03.43-.34.8-.8.8-.41 0-.83-.37-.8-.8.08-1.23.04-2.52-.3-3.71-.23-.82-.82-1.53-1.41-2.13-.17-.18-.23-.24-.36-.32-.23-.15-.46-.3-.7-.43a7.32 7.32 0 0 0-1.43-.56Zm-1.639 15.151c.177-2.256.391-4.715 2.8-5.551 2.78-.97 4.06 2.09 3.98 4.33-.1 2.88-.6 5.91-1.11 8.75-.46 2.54-1.21 5.33-3.17 7.16-3.24 3.03-7.79 3.35-11.46.95-4.73-3.1-6.81-8.05-8.89-13.09l-.144-.352c-.546-1.337-1.101-2.7-1.497-4.088-.22-.79-.38-1.73.09-2.47.582-.91 1.405-1.224 2.24-1.146a9.39 9.39 0 0 1-.31-.794c-.31-.93-.31-1.95.05-2.87.25-.65.89-1.02 1.52-1.25.285-.104.553-.158.803-.166-.282-1.6-.124-3.37 1.787-3.714 1.397-.255 2.594.637 3.393 1.799.645-.75 1.649-.979 2.607-.749 1 .24 1.76 1 2.29 1.85.569.893.97 1.9 1.362 2.889l.168.421c.52 1.28 1.05 2.54 1.64 3.79a63.54 63.54 0 0 1 1.5 3.39c.07.176.138.353.205.53l.146.381Zm-7.806 1.707c.174.405.348.81.525 1.212l-.01-.01c.42.94-.96 1.75-1.38.81l-.538-1.217c-.678-1.545-1.354-3.084-2.162-4.573l-.438-.808c-.98-1.803-1.975-3.635-2.681-5.562-.15-.388-.277-.597-.67-.53-.3.05-.64.22-.79.5-.576 1.056.24 2.535.877 3.687.126.229.245.444.344.641a.775.775 0 0 1 .086.175l.012.027.11.241c.675 1.47 1.353 2.951 1.95 4.45.52 1.3 1.07 2.56 1.64 3.84l-.01-.03c.41.94-.97 1.75-1.38.81-.15-.331-.307-.658-.464-.983a29.257 29.257 0 0 1-.696-1.518c-.184-.44-.354-.884-.523-1.328a33.67 33.67 0 0 0-.677-1.682l-.294-.666a177.51 177.51 0 0 0-1.095-2.45c-.42-.442-.883-.859-1.49-.564-.45.22-.58.51-.5 1.02.133.812.454 1.625.765 2.413.084.21.166.42.244.627.83 2.19 1.77 4.36 2.76 6.48 1.63 3.48 4.05 6.8 7.69 8.39 2.97 1.3 6.8.24 8.72-2.42 1.936-2.69 2.298-6.343 2.63-9.712.079-.79.155-1.565.25-2.308.022-.165.045-.332.07-.501.135-.953.28-1.97 0-2.93-.33-1.13-1.34-1.78-2.35-.89-1.102.976-1.166 2.664-1.225 4.22-.02.548-.04 1.079-.105 1.556a1.8 1.8 0 0 1-.09.605c-.17.55-.92.81-1.34.35-.816-.895-1.236-1.973-1.668-3.083l-.022-.057c-.48-1.25-1.03-2.44-1.62-3.68a63.555 63.555 0 0 1-1.841-4.339c-.406-1.063-.852-2.233-1.609-3.041-.37-.38-.92-.74-1.48-.59-.66.18-.75.94-.66 1.51.15.981.626 1.981 1.071 2.916.118.246.233.488.34.724 1.1 2.46 2.36 4.84 3.63 7.21v-.02c.49.91-.89 1.72-1.38.81-1.31-2.44-2.61-4.9-3.74-7.44-.107-.24-.226-.493-.35-.757-.481-1.018-1.036-2.196-1.175-3.328-.212-.79-.66-1.597-1.266-2.155-.72-.65-1.8-.7-1.84.48-.025.764.158 1.56.437 2.344.106.182.2.382.283.596a.828.828 0 0 1 .057.26c.25.576.53 1.135.793 1.658.082.164.163.325.24.482a75.41 75.41 0 0 0 1.34 2.56 75.41 75.41 0 0 1 1.34 2.56c.486.986.92 1.997 1.355 3.008ZM6.65 26.17c-.09 1.55.23 3.18 1.26 4.39 1.08 1.27 2.86 1.65 4.45 1.55.42-.03.82-.35.8-.8-.02-.41-.35-.83-.8-.8a8.848 8.848 0 0 1-1.133-.009c-.07-.007-.137-.013-.057-.001-.04-.005-.08-.013-.12-.02a4.209 4.209 0 0 1-.6-.14c-.56-.17-1.01-.43-1.42-.9-.01-.015-.023-.03-.035-.045l-.01-.012-.006-.008-.01-.015-.046-.067a3.685 3.685 0 0 1-.235-.392L8.6 28.74a.914.914 0 0 0-.023-.038.936.936 0 0 0-.017-.052 1.607 1.607 0 0 1-.042-.112l-.006-.017c-.01-.03-.02-.06-.032-.091-.05-.15-.09-.3-.13-.45a3.43 3.43 0 0 1-.061-.3c-.01-.054-.019-.108-.03-.16a2.141 2.141 0 0 0-.007-.047c0-.01 0-.027-.002-.053a.987.987 0 0 0-.01-.123.86.86 0 0 1-.01-.107c-.02-.34-.02-.68 0-1.02.03-.42-.39-.82-.8-.8-.46.02-.77.35-.8.8h.02Zm2.332 3.209-.003-.005-.007-.008-.012-.016a.39.39 0 0 0 .022.029Zm.009.013-.004-.005-.005-.008.003.003.006.01Z M6.13 32.59c-1.56-1.66-2.19-3.87-2.64-6.04v-.01c-.09-.42.12-.86.56-.98.39-.11.89.14.98.56.38 1.84.84 3.81 2.14 5.24.58.64 1.27 1.12 2.1 1.36.98.29 2.01.38 3.04.43 1.03.05 1.03 1.65 0 1.6-2.26-.11-4.62-.5-6.18-2.16ZM27.31 7.35c.105-.035.205-.06.307-.086l.133-.034a.822.822 0 0 0 .076-.018l.024-.002c.04 0 .08-.003.12-.005a3.24 3.24 0 0 1 .56.015h-.02c.04 0 .08.01.12.02.06.01.13.03.19.05l.027.01c.059.02.17.06.063.01.035.015.07.032.105.05.035.017.07.035.105.05a3.336 3.336 0 0 1 .49.32c.025.02.05.042.075.065.025.022.05.045.075.065a5.452 5.452 0 0 1 .47.49c0 .01.15.19.07.09.09.13.18.26.26.39.17.29.22.41.3.77.005.035.013.07.02.105.008.035.015.07.02.105-.02-.13 0 .11.01.13.02.17.03.34.04.52v.004l.06 1.096c.02.42.35.82.8.8.41-.02.82-.35.8-.8-.012-.202-.02-.407-.028-.612-.025-.638-.05-1.285-.202-1.898-.2-.81-.66-1.47-1.2-2.04-.54-.57-1.2-1.04-1.94-1.26-.74-.22-1.62-.19-2.36.06-.4.13-.7.56-.56.98.13.4.56.7.98.56h.01Z"/>
</svg>
