<svg xmlns="http://www.w3.org/2000/svg" width="41" height="40" fill="none" viewBox="0 0 41 40">
  <path class="display-icon__fill-2" fill="#B6E5FF" d="M20.61 31.01c-.93-2.7-.96-5.23.64-7.58 1.16-1.7 2.82-2.74 4.73-3.39 2-.68 4.04-.85 6.05-.02 2.7 1.11 4.16 3.27 4.88 5.98.68 2.53.4 4.95-1.35 6.97-2.37 2.73-5.45 3.87-9.02 3.33-2.57-.39-4.32-2.01-5.48-4.29-.18-.36-.33-.73-.45-1Z"/>
  <path class="display-icon__fill-1" fill="#52B0FF" d="m16.95.8 11.62 15.44s-7.06 4.05-8.34 7.04c-1.29 2.98-2.02 4.09-.2 8.12L4.06 26.37s-1.58-8.55 2.4-15.09C10.43 4.74 16.95.8 16.95.8Z"/>
  <path class="display-icon__ink" fill="#1C1D1F" d="M29.77 23.92c.05.599.087 1.197.113 1.797.553.179 1.143.418 1.567.823.52.5.77 1.27.6 1.97-.15.63-.48 1.3-1.12 1.54-.355.13-.72.204-1.085.244-.014.216-.029.431-.046.646-.08 1.02-1.68 1.03-1.6 0 .018-.228.033-.455.046-.683a18.135 18.135 0 0 1-.448-.073l-.027-.004c-.61-.1-1.25-.28-1.66-.78-.27-.33-.33-.8 0-1.13.28-.28.86-.33 1.13 0 .17.21.3.24.63.31.146.032.293.059.44.082.013-.583.015-1.166.005-1.749a5.513 5.513 0 0 1-.265-.084c-.56-.19-1.12-.45-1.51-.93-.39-.48-.44-1.17-.31-1.77.13-.6.53-1.15 1.01-1.52.228-.177.485-.312.76-.4l-.05-.409c-.05-.43.41-.8.8-.8.47 0 .75.37.8.8l.046.383c.578.134 1.144.397 1.644.697v.01c.88.53.08 1.91-.81 1.38a6.949 6.949 0 0 0-.66-.35Zm-1.59 1.279.02.01.056.02a46.98 46.98 0 0 0-.087-1.299 1.76 1.76 0 0 0-.189.2c-.1.12-.2.31-.21.47v.21l.018.094c.129.101.26.2.392.295Zm2.124 3.384-.024.017a.924.924 0 0 1 .036-.014h-.005a.01.01 0 0 1-.007-.003Zm.051-.033c.044-.03.09-.056.085-.04-.003.011-.04.025-.085.04Zm-.047.013.002-.003c.1-.18.19-.38.19-.57 0-.088-.108-.244-.208-.343l-.048-.03a1.167 1.167 0 0 1-.09-.057l-.229-.132c.002.414 0 .828-.01 1.242a2 2 0 0 0 .235-.06.68.68 0 0 1 .086-.027l.018-.005.031-.008.023-.007Z M34.92 17.09a33.278 33.278 0 0 1-2.29 2.168 6.557 6.557 0 0 1 1.5 1.012c1.43 1.28 2 3.08 2.05 4.96.08 3.37-1.01 6.8-4.29 8.27-1.51.68-3.15.78-4.75.37-1.6-.41-3.26-1.14-4.3-2.46a6.441 6.441 0 0 1-.866-1.482c-1.814 2.265-3.827 4.329-6.194 6.022-.22.15-.59.15-.81 0a53.595 53.595 0 0 1-6.46-5.07 39.27 39.27 0 0 1-2.26-2.21l-.08-.085c-.578-.614-1.188-1.264-1.36-2.114-.214-1.061.56-1.822 1.27-2.52.12-.118.238-.235.35-.351a94.36 94.36 0 0 1 3.15-3.18 33.6 33.6 0 0 1 1.315-1.181.734.734 0 0 1 .27-.232c1.54-1.327 3.117-2.687 3.945-4.527l.03-.03.003-.007c0-.31.03-.625.059-.931l.01-.113c.015-.15.03-.297.038-.44l.064-1.046.02-.353c.028-.468.056-.935.086-1.4.055-.955.112-1.908.17-2.86l.045-.76.125-2.1c.02-.42.35-.82.8-.8 1.34.06 2.87.27 3.63 1.53.355.58.463 1.312.565 2.003.023.162.048.325.075.487l.107.646v.002l.07.427.322-.39c.484-.593.98-1.175 1.49-1.745.82-.9 1.75-1.84 3-2.08 1.07-.21 2.29.08 2.88 1.07.103.169.184.35.242.539 1.169-.472 2.457-.45 3.409.66.653.762.67 1.546.367 2.266.62.06 1.183.339 1.553.965.415.707.306 1.523-.044 2.268 1.207.103 2.246.788 2.144 2.292-.07 1.02-.78 1.81-1.45 2.51Zm-7.67-9.91c.53-.5-.13-1.09-.66-1.14-.622-.054-1.18.282-1.644.68a.915.915 0 0 1 .043.13c1.108 4.305 4.443 7.862 8.658 9.235.158-.165.313-.334.463-.505l.009-.01.001-.002c.305-.336.984-1.084.51-1.558-.48-.48-1.52-.11-1.99.16-.77.44-1.69-.68-.97-1.26.44-.35 1.45-1.33 1.24-1.99-.218-.697-1.354-.174-1.937.154-.081.06-.163.12-.243.176l-.014-.024-.006.004c-.88.56-1.65-.8-.81-1.38.57-.39 1.86-1.3 1.17-2.09-.707-.808-1.853-.15-2.523.406a2.137 2.137 0 0 1-.147.154l-.015-.015-.005.005c-.76.69-1.88-.42-1.13-1.13Zm-10.501 7.252-.001.012c-.014.118-.03.253.012.336.094.203.344.206.584.208.042 0 .084 0 .126.002 1.49.08 2.99-.32 3.56-1.84.238-.64.277-1.331.314-2.01l.006-.101.004-.082.008-.178c-.1.114-.2.228-.302.34-.213.239-.468.295-.7.235-.29-.018-.555-.194-.63-.574a47.622 47.622 0 0 1-.272-1.656V9.12c-.137-.891-.273-1.783-.488-2.652-.211-.851-.917-1.095-1.68-1.18l-.31 5.2c-.05.97-.11 1.94-.17 2.91-.005.15-.015.3-.025.45v.006c-.01.148-.02.297-.025.445 0 .037-.006.082-.011.132Zm-6.87 15.507a52.74 52.74 0 0 0 5.49 4.335c.446-.334.88-.684 1.3-1.048-1.887-1.062-3.284-2.791-4.17-4.786-.59-1.35-.99-2.77-1.3-4.22l-.075-.35c-.164-.757-.333-1.54-.418-2.321a83.49 83.49 0 0 0-1.496 1.48c-.46.47-.91.93-1.36 1.4-.103.106-.231.22-.365.34l-.043.038H7.44c-.354.315-.751.67-.911 1.012-.298.622.535 1.418 1.092 1.95.087.082.173.165.258.25.64.66 1.31 1.3 2 1.92Zm11.55-1.855a13.024 13.024 0 0 1-.15-.985c-.192-1.614-.236-3.201.568-4.627-1.226.024-2.436-.263-3.597-.813-1.268-.601-2.478-1.35-3.68-2.093l-.076-.047c-.311-.192-.621-.383-.931-.572-.25.227-.503.45-.756.675l-.127.113-.002.001-.405.36c-.075 1.125.165 2.246.4 3.343l.076.36c.26 1.22.57 2.44 1.04 3.6.79 1.942 2.152 3.817 4.122 4.687a35.503 35.503 0 0 0 3.369-3.847.894.894 0 0 1 .15-.155Zm-6.028-9.88c1.069.65 2.144 1.303 3.179 1.845 1.49.78 3.07 1.07 4.71.6l.009-.002.02-.006a7.583 7.583 0 0 1 2.21-1.442c1.24-.52 2.58-.56 3.91-.56h.01a5.918 5.918 0 0 1 1.35.046.902.902 0 0 1 .09-.086c.5-.412 1-.835 1.484-1.275-4.096-1.61-7.38-5.08-8.715-9.283-.25.282-.493.57-.733.86.08.77.06 1.548.014 2.318v.02c-.05.784-.101 1.596-.37 2.34-.52 1.46-1.66 2.51-3.18 2.86-.944.212-2.48.383-3.413-.185a10.595 10.595 0 0 1-1.234 1.55l.659.4ZM28.28 32.489c1.22.18 2.46-.1 3.52-.73 2.5-1.5 3.06-4.67 2.72-7.37-.312-2.473-2.397-4.264-4.87-4.163a.88.88 0 0 1-.2.023h-.067c-1.15 0-2.324 0-3.393.5a6.331 6.331 0 0 0-2.95 2.9c-.53 1.12-.28 2.8-.07 3.96.21 1.16.61 2.34 1.47 3.19.95.94 2.53 1.5 3.84 1.69Z"/>
</svg>
