<svg xmlns="http://www.w3.org/2000/svg" width="40" height="40" fill="none" viewBox="0 0 40 40">
  <path class="display-icon__fill-2" fill="#B6E5FF" d="M13.38 9.5 8.82 2.26l-.01-.01S5.16 4.53 2.88 8.27C.61 12.01 1.4 16.84 1.4 16.84l6.82 1.26c.05-2.34.63-3.36 1.65-5.15 1.22-2.14 3.51-3.45 3.51-3.45Zm10.47 20.06 3.36 7.92s3.95-1.67 6.76-5.01c2.81-3.35 2.78-8.27 2.78-8.27l-6.76-2.44c-.4 2.32-.96 3.27-2.16 4.94-1.29 1.8-3.98 2.86-3.98 2.86Z"/>
  <path class="display-icon__fill-1" fill="#52B0FF" d="M28.68 24.03c-1.74 3.17-4.06 5.37-7.54 5.92-2.52.4-4.83-.25-6.98-1.45-2.26-1.26-4.06-2.99-4.94-5.54-1.17-3.44-.35-6.63 1.57-9.63 1.79-2.79 4.26-4.62 7.55-4.75 4.45-.17 8.01 1.69 10.41 5.44 1.73 2.7 1.65 5.7.49 8.73-.18.48-.41.94-.55 1.27l-.01.01Z"/>
  <path class="display-icon__ink" fill="#1C1D1F" d="M17.26 5.16c4.13-.59 8.63.62 12.17 2.76h-.01a.89.89 0 0 1 .138.102c1.08.726 2.105 1.532 2.862 2.568.79 1.08 1.57 2.19 2.11 3.41 1.39 3.13 1.4 6.61.41 9.86h-.01a.858.858 0 0 1-.106.227.726.726 0 0 1-.653.353.745.745 0 0 1-.535-.203c-.224-.17-.353-.452-.245-.807.88-2.89.95-6.06-.35-8.85-1-2.15-2.46-3.95-4.43-5.27a.924.924 0 0 1-.07-.052C25.39 7.373 21.433 6.253 17.74 6.7c-3.163.382-5.95 2.066-7.949 4.467l.23-.067c.73-.23 1.46-.46 2.2-.65.42-.1.87.15.98.56.11.41-.14.87-.56.98-.546.138-1.078.302-1.612.466-.278.086-.557.171-.839.254-.39.12-.78.22-1.18.3l-.174.039c-.442.1-.97.22-1.366-.01-.436-.252-.507-.765-.571-1.23-.01-.068-.018-.134-.029-.2a38.134 38.134 0 0 1-.47-4.25h.02c-.02-.45.39-.78.8-.8.45-.02.78.38.8.8.05.81.11 1.62.21 2.43l.013.1.074.568c2.22-2.797 5.325-4.78 8.943-5.297Z M20.435 15.097c-.76-1.07-1.983-1.854-3.216-2.247a6.468 6.468 0 0 0-3.15-.18c-1.1.22-1.88.99-2.59 1.81-3.26 3.82-.29 9.36 2.64 12.4a15.886 15.886 0 0 0 6.075 3.935c.128.08.279.12.44.103a.636.636 0 0 0 .428-.174c2.444-1.5 4.661-3.372 6.498-5.574 1.86-2.23 3.29-4.48 2.9-7.48-.16-1.25-.55-2.65-1.44-3.6-.95-1-2.43-1.42-3.78-1.44-1.95-.022-3.776.907-4.805 2.447Zm.774 2.333v-.029c.428-2.143 2.404-3.384 4.572-3.101 1.23.16 2.19.73 2.66 1.9.42 1.05.58 2.26.44 3.38-.28 2.17-2.02 4.06-3.46 5.59a25.318 25.318 0 0 1-4.941 4.052c-3.886-1.45-7.47-4.946-8.57-8.992-.31-1.13-.35-2.73.17-3.81.43-.89 1.42-2.01 2.42-2.2 1.96-.37 5.11.88 5.11 3.21 0 1.03 1.6 1.03 1.6 0Z M5.03 16.3c-1 3.32-.9 6.74.62 9.88 1.52 3.14 4.4 6.27 7.61 7.83 5.903 2.871 13.127 1.21 17.641-3.323.118 1.007.364 2.002.628 2.993.11.42.57.67.98.56a.82.82 0 0 0 .56-.98l-.05-.192c-.367-1.378-.751-2.82-.583-4.213a.609.609 0 0 0-.01-.531c-.088-.33-.342-.591-.747-.584l-4.74.03c-.42 0-.82.37-.8.8.02.43.35.8.8.8v-.01l3.073-.02c-4.037 4.295-10.997 5.933-16.313 3.1-2.78-1.49-5.21-4.12-6.61-6.94-1.4-2.82-1.4-5.84-.52-8.77.3-.99-1.25-1.41-1.54-.43Z"/>
</svg>
