<svg xmlns="http://www.w3.org/2000/svg" width="40" height="40" fill="none" viewBox="0 0 40 40">
  <path class="display-icon__fill-2" fill="#B6E5FF" d="M20.28 27.56c-4.34-.1-7.96-1.39-10.49-4.92-1.82-2.55-2.42-5.47-2.34-8.54.09-3.22.92-6.21 3.16-8.65 3-3.27 6.86-4.21 11.11-3.81 3.96.37 7.28 2.04 9.24 5.6 2.65 4.82 2.65 9.82 0 14.63-1.91 3.46-5.14 5.11-9.01 5.57-.61.07-1.22.09-1.66.12h-.01Z"/>
  <path class="display-icon__fill-1" fill="#52B0FF" d="M39.24 31.3.68 31.24v-3.78l38.57.06v3.78h-.01Z"/>
  <path class="display-icon__ink" fill="#1C1D1F" d="m21.047 6.789-.015.003a.091.091 0 0 0-.027.005l.027-.005h.01l.003-.002.002-.001ZM9.72 20.69c.32-2.24 2.21-3.74 3.95-4.95l-.01-.01c.36-.25.87-.05 1.09.29.24.38.05.85-.29 1.09-.078.056-.156.11-.233.163a13.39 13.39 0 0 0-.388.277l-.145.105-.145.105a5.87 5.87 0 0 0-.07.057 2.389 2.389 0 0 0-.15.113c-.37.3-.72.62-1.04.98-.08.09-.16.18-.24.28a.71.71 0 0 1 .035-.033l-.008.012a.694.694 0 0 0-.027.041c-.04.05-.08.1-.11.15-.12.18-.24.37-.34.57-.03.06-.06.12-.08.17-.02.05-.03.09 0 .01a14.02 14.02 0 0 1-.12.35c-.06.22-.11.43-.14.65-.06.44-.6.65-.98.56-.46-.1-.62-.57-.56-.98Z m13.49 17.81-.011.007c-.045.037.107-.08.01-.007Z M18.03 6.3c.13.958.767 1.76 1.624 2.133-.035.475-.072.95-.109 1.425l-.092 1.203c-3.846.15-7.657 1.57-10.373 4.299-2.742 2.76-4.876 8.52-1.73 11.698-.882.615-1.763 1.468-1.711 2.578-.018.236-.04.479-.063.726-.107 1.186-.223 2.47.024 3.558.311 1.372 1.862 1.518 3.127 1.638.238.022.465.044.673.072 3.81.52 7.65.89 11.5.89 3.59 0 7.17-.36 10.7-1.04.09-.017.183-.034.278-.05l.041-.008c1.12-.2 2.5-.447 2.79-1.722.203-.892.045-1.96-.102-2.961a18.133 18.133 0 0 1-.157-1.249 1.013 1.013 0 0 0-.004-.04l-.003-.019c-.02-.945-.782-1.754-1.573-2.329 1.067-1.103 1.551-2.61 1.58-4.282a.88.88 0 0 0-.015-.182c-.18-5.349-4.41-9.355-9.335-10.858a16.883 16.883 0 0 0-4.047-.708l.207-2.723c.217-.03.43-.097.62-.189.54-.26.92-.77 1.12-1.32.33-.91.03-2.02-.64-2.7-.78-.8-1.95-.87-2.92-.41s-1.55 1.51-1.41 2.57Zm1.95.5-.002.002a1.366 1.366 0 0 1-.138-.142.451.451 0 0 0-.055-.07.089.089 0 0 1-.005-.01l-.12-.21a.295.295 0 0 0-.02-.045c-.007-.015-.015-.03-.02-.045a.629.629 0 0 1-.014-.077l-.002-.012a.537.537 0 0 0-.034-.143V5.89a.889.889 0 0 1 .03-.09.434.434 0 0 0 .041-.162l.03-.058a.194.194 0 0 1 .032-.055.854.854 0 0 0 .013-.018l.002-.002c.063-.055.072-.071.06-.065l.013-.013.007-.01c.018-.02.035-.04.053-.057.02-.02.04-.04.07-.06.01-.01.022-.02.035-.03.055-.037.11-.073.175-.11a.2.2 0 0 0 .04-.02.2.2 0 0 1 .04-.02l.006-.003c.06-.005.08-.013.075-.016-.003-.002-.013-.001-.028.002a.996.996 0 0 0 .064-.027l.009-.004a.629.629 0 0 1 .053-.022c.02 0 .038-.005.055-.01.018-.005.035-.01.055-.01h.26l.187.053c.038.02.075.038.104.057l.06.04.13.13c.064.125.062.091.033.043l.006.007c.037.052.069.109.099.163l.025.045c.022.126.038.108.023.056l.003.006.06.21v.006c-.009-.028-.015-.02.01.085v.22c0 .04 0 .09-.01.13v-.052a.259.259 0 0 0 .009-.084c-.002-.012-.007.004-.008.084v.001c-.008.032-.02.064-.03.096a1.069 1.069 0 0 0-.033.102c-.017.026-.03.055-.043.081l-.006.014-.009.017-.02.04a.268.268 0 0 1-.035.04.268.268 0 0 0-.035.04l-.017.017a1.988 1.988 0 0 0-.033.023l-.09.06-.023.013a.639.639 0 0 0-.025.007c-.277-.299-.847-.273-1.111.02Zm1.52-.874.01.044-.003-.013a2.447 2.447 0 0 1-.007-.026v-.005Zm0 0V5.89a.278.278 0 0 0-.01-.044.602.602 0 0 0 .01.08Zm-.096-.358a.39.39 0 0 0 .023.056.243.243 0 0 0-.017-.044l-.006-.012Zm-.16-.254a.312.312 0 0 0 .03.039.267.267 0 0 0-.024-.033l-.006-.006Zm0 0a.274.274 0 0 1-.013-.022l.01.018.003.004Zm-1.02-.2Zm0 0a.225.225 0 0 1-.022.005l.015-.002.006-.002Zm-.445.326a.84.84 0 0 1-.06.065l-.003.002.005-.007a.251.251 0 0 1 .058-.06Zm1.662.97a.305.305 0 0 0-.01.013c.033-.13.046-.067.01-.013Zm-.24.32.038-.03a.158.158 0 0 1-.038.03Zm-.15.058c-.084-.037-.052-.015-.004.001h.004Zm-.004.001c-.068-.002-.065.003-.042.008l.012.001-.004.001a.484.484 0 0 0 .042.006c.017.001.03.001.03-.002l-.068-.005a.185.185 0 0 0 .02-.005l.005-.002h.011l.012.004-.008-.004h-.007l-.003-.002h.007-.007Zm.07.004h-.013.013ZM32.84 22.839v.001c-.03 1.86-.74 3.34-2.51 4.09-1.823.768-3.932.808-5.884.845l-.246.005c-2.47.05-4.94.03-7.41 0l-.109-.001c-2.037-.02-4.156-.04-6.121-.649-4.39-1.36-3.48-6.76-1.19-9.69 3.03-3.88 8.46-5.35 13.19-4.61 5.08.8 10.18 4.44 10.28 9.99v.019Zm-1.331 5.276a.92.92 0 0 0 .052.035l.05.03.043.027c.546.33 1.353.819.947 1.423-.251.38-.718.44-1.163.496a7.054 7.054 0 0 0-.307.044l-.44.074c-1.224.207-2.45.413-3.69.556-2.72.32-5.45.41-8.19.36-2.34-.04-4.67-.17-6.99-.53-.55-.086-1.097-.186-1.643-.285a74.421 74.421 0 0 0-1.577-.275 4.139 4.139 0 0 0-.248-.028c-.354-.035-.912-.09-1.042-.252a.47.47 0 0 1-.075-.128 12.598 12.598 0 0 0 .025-.37c.194-.43.869-.853 1.143-1.025l.027-.017a.848.848 0 0 0 .222-.206c1.616.909 3.613 1.116 5.427 1.236 1.746.11 3.503.13 5.26.122v.498c0 .11.02.21.07.31.03.1.09.19.17.26.07.08.16.13.26.17.1.05.2.07.31.07l.21-.03c.14-.04.25-.11.35-.21.14-.16.23-.35.23-.57v-.51l.564-.005 1.646-.015.447-.003c2.553-.015 5.35-.032 7.683-1.137.078-.037.154-.075.229-.115ZM21.055 6.805a.056.056 0 0 1-.014.005l.014-.005ZM7.14 33.07c-.11-.509-.109-1.09-.07-1.68.37.115.774.178 1.166.238l.325.052c3.5.59 6.91 1.04 10.46 1.09 4.13.06 8.16-.31 12.23-1.01l.2-.034c.529-.09 1.097-.187 1.596-.386.059.518.102 1.037.093 1.55-.018.687-.37.753-.928.859L32 33.79c-.75.16-1.5.3-2.25.42-2.92.49-5.88.72-8.84.72s-6-.22-8.98-.57c-.94-.11-1.88-.23-2.82-.37a8.829 8.829 0 0 0-.416-.045c-.688-.063-1.397-.128-1.554-.875Z"/>
</svg>
