<svg xmlns="http://www.w3.org/2000/svg" width="40" height="40" fill="none" viewBox="0 0 40 40">
  <path class="display-icon__fill-2" fill="#B6E5FF" d="M36.31 25.92c.91 3.39.74 6.49-1.42 9.25-1.56 1.99-3.69 3.12-6.08 3.76-2.51.67-5.02.7-7.42-.47-3.22-1.58-4.82-4.35-5.49-7.74-.62-3.16-.08-6.11 2.23-8.43 3.13-3.16 7-4.29 11.34-3.33 3.12.69 5.13 2.82 6.37 5.71.19.45.35.93.48 1.26l-.01-.01Z"/>
  <path class="display-icon__fill-1" fill="#52B0FF" d="m20.88.28 5.44 16.67s-7.25 1.41-9.23 3.6c-1.98 2.19-2.93 2.92-2.56 6.92L2.29 18.46S3.44 10.65 8.78 6.2 20.88.28 20.88.28Z"/>
  <path class="display-icon__ink" fill="#1C1D1F" d="m18.99 15.77-.03-2.67v-.38c-.01-.41-.37-.83-.8-.8-.5.03-1 .09-1.49.19-.32.07-.61.24-.87.44l-.043.033c-.165.128-.326.253-.437.437-.09.16-.15.34-.19.52-.09.41-.14.94.11 1.31a.87.87 0 0 0 .11.134l.01.016c.29.37.7.66 1.11.89.48.27 1 .47 1.51.65.51.18 1.02-.28 1.01-.77Zm-1.709-1.27c-.09-.05-.18-.1-.26-.16l-.05-.034-.007-.005-.009-.006-.065-.045v-.001a.372.372 0 0 1-.068-.059c-.004-.006-.002-.006.01.004l-.065-.058-.026-.024-.08-.075v-.081c.01-.036.022-.072.036-.107.076-.056.155-.107.237-.154a.325.325 0 0 0 .065-.03l.071-.015c.033-.008.067-.015.1-.02a2.17 2.17 0 0 1 .102-.02l.033-.005.066-.011.01.958-.1-.052Zm8.359 8.75c-.17-.21-.39-.38-.61-.54-.12-.09-.25-.18-.39-.24-.47-.21-.97-.37-1.47-.52-.5-.15-1.02.26-1.01.77l.03 2.58v.37a.823.823 0 0 0 .8.8c.31 0 .62 0 .92-.03.28-.03.56-.06.82-.16l.007-.003c.045-.019.087-.037.128-.057a1.99 1.99 0 0 0 1.175-1.24c.18-.61 0-1.25-.4-1.73Zm-1.136 1.277-.014.023-.04.06-.013.02h-.003l.005-.01-.003.005-.016.018a1.581 1.581 0 0 1-.11.067c-.09.04-.18.06-.27.08l-.102.02a.318.318 0 0 0-.068.01l-.09.008-.01-1.02.115.047.01.003.025.012.058.03.002.002c.028.015.056.03.08.048l.065.049.025.02c.1.084.194.173.283.267a.771.771 0 0 0 .04.07.7.7 0 0 0 .037.134.328.328 0 0 1-.006.037Z M24.13 17.018c3.424 1.166 7.186 2.448 7.93 6.492a.913.913 0 0 1 .016.191l.002.013.001.007.001.01c.35 2.61-.12 4.65-2.26 6.33-1.779 1.396-3.803 1.78-5.96 2.016l.05 3.573c.01.44-.37.8-.8.8l-4.65.06c-.44.01-.8-.37-.8-.8l-.041-3.495c-3.678-.336-6.762-1.797-9.479-4.365-.32-.3-.29-.83 0-1.13 1.41-1.46 2.98-2.77 4.54-4.06.26-.22.66-.34.97-.13 1.225.846 2.483 1.264 3.867 1.572l-.029-2.087c-3.832-1.117-7.916-2.979-8.468-7.385-.619-4.922 4.177-6.812 8.281-7.416L17.26 4.03c-.01-.44.37-.8.8-.8l4.65-.06c.44-.01.8.37.8.8l.042 3.318c1.751.318 3.318.825 4.878 1.762l.083.05c.747.456 1.548.945 2.117 1.61.178.212.35.43.514.653.216.298.449.584.696.857.27.28.35.86 0 1.13a48.336 48.336 0 0 1-4.62 3.29c-.39.25-.84.05-1.09-.29-.629-.858-1.526-1.438-2.486-1.863l.029 2.375.456.156h.001Zm-.232 1.606h-.002a58.43 58.43 0 0 1-1.226-.414c-.34-.12-.59-.4-.59-.77l-.05-4.11c-.01-.49.52-.94 1.01-.77 1.495.51 2.86 1.214 3.924 2.347a47.745 47.745 0 0 0 3.168-2.235l-.295-.372-.157-.2c-.58-.73-1.27-1.19-2.06-1.67-1.62-.97-3.24-1.41-5.08-1.7-.35-.05-.59-.45-.59-.77l-.04-3.18-3.05.04.04 3.09c.01.47-.37.75-.8.8-1.92.22-3.82.67-5.49 1.67-1.87 1.12-2.39 2.8-1.87 4.88.83 3.32 4.8 4.57 7.74 5.38.34.09.59.42.59.77l.05 3.67c.01.55-.51.86-1.01.77-1.771-.336-3.311-.73-4.815-1.646-1.178.976-2.343 1.97-3.433 3.04 2.452 2.11 5.209 3.26 8.548 3.416.44.02.8.35.8.8l.04 3.43 3.049-.04-.049-3.5c-.01-.47.37-.76.8-.8l.036-.003c1.917-.189 3.794-.374 5.414-1.497 1.97-1.353 2.277-3.044 1.984-5.287-.696-3.2-3.78-4.216-6.587-5.14Z"/>
</svg>
