<svg xmlns="http://www.w3.org/2000/svg" width="40" height="40" fill="none" viewBox="0 0 40 40">
  <path class="display-icon__fill-2" fill="#B6E5FF" d="M11.92 13.67c2.46-2.65 5.24-4.22 8.76-3.91 2.54.22 4.62 1.41 6.42 3.1 1.89 1.77 3.22 3.89 3.44 6.58.3 3.62-1.27 6.52-3.86 8.96-2.41 2.27-5.25 3.44-8.47 2.77-4.36-.92-7.36-3.59-8.78-7.81-1.02-3.03-.22-5.93 1.65-8.58.29-.42.62-.81.85-1.1l-.01-.01Z"/>
  <path class="display-icon__fill-1" fill="#52B0FF" d="M17.18 9.68 15.23 1.3s-4.17.96-7.52 3.77c-3.35 2.8-4.17 7.66-4.17 7.66l6.24 3.57c.79-2.21 1.51-3.05 2.98-4.49 1.58-1.55 4.42-2.13 4.42-2.13Zm6.85 21.57 3.24 7.92s3.99-1.61 6.88-4.9c2.89-3.29 2.94-8.19 2.94-8.19l-6.75-2.51c-.45 2.3-1.03 3.24-2.26 4.89-1.32 1.77-4.05 2.79-4.05 2.79Z"/>
  <path class="display-icon__ink" fill="#1C1D1F" d="M34.623 18.774c.008.02.02.041.033.063-.006 0-.02-.018-.033-.063Zm-2.135.678.001-.022v-.001.03-.007Zm-.914 9.114.018.02.005.008a.358.358 0 0 1-.023-.028Zm.252.577.01.048v.005a.553.553 0 0 1-.01-.053Zm-.488 1.084Zm-1.016.131ZM18.64 33.46l.005.019c-.002-.011-.003-.02-.005-.02Zm.7-1.163-.015.007-.02.009-.008.003-.002.001.034-.017.005-.001.006-.002Zm.298-.075a.075.075 0 0 1-.025.013.048.048 0 0 0 .025-.013Zm0 0 .002-.002h-.001v.002ZM9.316 30.538a.07.07 0 0 1-.01.002H9.28l.036-.002Zm-1.074-.313Zm2.195-18.923-.004.003a.894.894 0 0 0-.033.02.241.241 0 0 0-.024.007c.013-.02.04-.028.061-.03Z M19.9 3.08a2.85 2.85 0 0 0-2.51 1.85c-.38 1.01-.07 2.23.68 2.99.251.255.562.461.903.609.16 1.617.245 3.235.255 4.86a6.56 6.56 0 0 0-3.763 1.898 46.34 46.34 0 0 1-3.34-3.673c.188-.421.283-.893.305-1.344.066-1.358-.715-2.697-1.923-3.317a.751.751 0 0 0-.357-.183l-.03.02a1.188 1.188 0 0 0-.36-.064C8.62 6.6 7.42 7.196 6.85 8.2c-.33.59-.43 1.26-.34 1.92.09.6.4 1.13.78 1.6.68.84 1.82 1.25 2.88 1.24.316 0 .603-.057.862-.173a45.887 45.887 0 0 0 3.469 3.79l-.002.003a7.13 7.13 0 0 0-.808 2.544c-1.576.017-3.151.033-4.727.043a2.431 2.431 0 0 0-.074-.247c-.202-.553-.55-1.044-.964-1.467a.779.779 0 0 0-.276-.253l-.06-.04c-.5-.3-1.08-.49-1.66-.42-.55.06-1.01.27-1.44.61-.78.62-1.16 1.58-1.04 2.58.15 1.22.91 2.42 2.17 2.7.63.14 1.3.05 1.85-.31.5-.33.91-.81 1.22-1.33.042-.073.081-.148.116-.223a978.51 978.51 0 0 1 4.843-.044 7.21 7.21 0 0 0 .477 2.113 66.668 66.668 0 0 0-3.42 4.028c-.637-.272-1.294-.339-1.986-.244a.876.876 0 0 0-.154.035c-.464.118-.905.321-1.256.655-.39.37-.67.88-.78 1.38-.12.53-.15 1.22 0 1.74.17.59.69 1.08 1.22 1.35 1.02.5 2.26.44 3.18-.24.92-.68 1.72-2.01 1.29-3.19a2.223 2.223 0 0 0-.263-.5l.076-.098c.049-.063.096-.125.147-.182l.45-.57c.31-.38.62-.75.93-1.12.458-.537.927-1.064 1.398-1.585.82 1.013 2.01 1.472 3.272 1.745.173.037.348.07.523.098.1 1.127.166 2.257.234 3.389l.07 1.169c-.915.237-1.7.98-1.938 1.904-.32 1.23.26 2.54 1.34 3.18 1.02.6 2.36.61 3.38 0a2.73 2.73 0 0 0 1.28-2.95c-.14-.63-.56-1.19-1.12-1.51-.28-.16-.59-.27-.9-.36a4.866 4.866 0 0 0-.214-.07c-.073-.023-.146-.045-.216-.07h-.002l-.05-.876v-.002c-.07-1.24-.141-2.48-.254-3.715a5.543 5.543 0 0 0 1.916-.447 5.856 5.856 0 0 0 1.747-1.187 87.419 87.419 0 0 1 3.21 3.078A2.58 2.58 0 0 0 26.89 29c.02 1.36 1.12 2.3 2.31 2.74 1.1.41 2.42.35 3.36-.4.99-.8 1.08-2.25.54-3.33-.6-1.21-2.1-1.89-3.4-1.9a.74.74 0 0 0-.093.006.782.782 0 0 0-.227.024l-.03-.01a3.69 3.69 0 0 0-.984.413 93.222 93.222 0 0 0-3.35-3.208 6.398 6.398 0 0 0 .866-2.547c1.731-.114 3.47-.127 5.21-.128.184.38.47.715.818.97.95.69 2.42.74 3.39.08.97-.66 1.38-1.88 1.07-2.98-.35-1.25-1.65-2.11-2.94-2.02a.946.946 0 0 0-.214.04 2.83 2.83 0 0 0-1.427.67c-.28.25-.48.58-.63.92-.11.242-.194.48-.245.72-1.687.002-3.374.018-5.053.13a7.847 7.847 0 0 0-.723-2.372 37.081 37.081 0 0 0 4.391-4.332c.59.246 1.198.384 1.84.244.6-.13 1.09-.52 1.43-1.01.78-1.144.382-2.658-.531-3.592a.76.76 0 0 0-.078-.088l.012.024a.783.783 0 0 0-.108-.078c-.7-.598-1.569-.69-2.465-.586-.61.07-1.2.27-1.6.76-.42.52-.52 1.16-.51 1.81 0 .56.21 1.2.58 1.63l.046.052a35.765 35.765 0 0 1-3.86 3.804c-.87-1.096-2.05-1.899-3.457-2.07a53.014 53.014 0 0 0-.232-4.624 2.59 2.59 0 0 0 .534-.132c.3-.11.58-.26.8-.49.25-.27.39-.61.5-.95.18-.55.25-1.14.17-1.71-.17-1.28-1.17-2.41-2.52-2.41a.745.745 0 0 0-.17.02l-.01-.01Zm.02 1.62a.881.881 0 0 0 .188-.03h.052c.024-.016.15.032.215.057.002 0 .003.002.005.003a.88.88 0 0 0 .05.03l.05.03c.03.02.06.04.1.06l.009.005.01.006.002.002h.001l.002.002.006.005c.04.033.074.07.111.11l.058.06a.48.48 0 0 1 .07.1 3.043 3.043 0 0 0 .101.193v.001l.001.002v.001l.001.002.01.026c.015.046.03.087.038.135.005.03.012.057.02.085a.845.845 0 0 1 .02.085c0 .045.002.092.005.14.002.047.004.095.004.14 0 .09 0 .19-.01.28-.005.035-.012.07-.02.105L21 6.44a4.972 4.972 0 0 1-.14.483.755.755 0 0 0-.059.114 2.868 2.868 0 0 1-.02.043l-.06.03c-.017.004-.034.01-.052.016a1.771 1.771 0 0 0-.125.038c-.063.02-.138.044-.194.036h-.12l-.062.001a.91.91 0 0 1-.218-.011c-.026 0-.053-.01-.08-.018a1.451 1.451 0 0 1-.227-.074.19.19 0 0 0-.023-.018c-.04-.03-.09-.05-.14-.07-.04-.02-.07-.04-.1-.06a.56.56 0 0 1-.047-.035c-.03-.023-.06-.046-.044-.027l-.018-.018a.647.647 0 0 0-.09-.08.415.415 0 0 1-.052-.042 1.41 1.41 0 0 0-.077-.126.784.784 0 0 1-.094-.168v-.001l-.007-.013-.007-.013-.014-.037a.423.423 0 0 1-.01-.03.977.977 0 0 1-.06-.23.594.594 0 0 0-.012-.077l-.001-.007a.114.114 0 0 0-.006-.036v-.25c0-.03.01-.06.02-.09 0-.014.022-.075.044-.137a3.55 3.55 0 0 0 .035-.096l.008-.013.003-.004c.01-.02.022-.043.035-.065l.035-.065c.018-.028.037-.057.056-.093a.348.348 0 0 1 .023-.027c.03-.035.06-.065.09-.095s.06-.06.09-.095c.05-.05.05-.05.034-.036-.016.013-.048.04-.063.046a.536.536 0 0 1 .09-.067l.05-.033a.581.581 0 0 1 .08-.037.72.72 0 0 0 .167-.089l.067-.02a1.11 1.11 0 0 0 .085-.024c.02 0 .11-.02.11-.02h.02Zm-1.08 1.31v.04c.007.114.009.045.006-.004a.412.412 0 0 1-.006-.036Zm.098.406Zm0 0c.01.029.021.054.021.054l-.016-.043a.414.414 0 0 0-.005-.01Zm2.013-1.082.002.005c.003.007.005.01.006.01l-.008-.015Zm0 0-.002-.004c-.047-.144-.019-.045 0 0l.002.004ZM19.08 6.682a.415.415 0 0 0 .031.05.139.139 0 0 1-.031-.05Zm-.13-1.292v.003-.003Zm.7-.64Zm-.057.028Zm1.186 10.202h.004c1.948.223 3.267 2.66 3.496 4.4.25 1.85-.57 3.73-2.18 4.7-.87.53-1.84.67-2.85.53s-2.14-.37-2.85-1.08c-1.37-1.38-1.48-3.97-.76-5.67.85-2.027 2.985-3.137 5.132-2.881h.008Zm10.189-5.892.041.037.02.017a.767.767 0 0 0 .07.078c.063.062.117.124.177.193l.019.022.005.01.01.015c.01.02.022.037.035.055a.411.411 0 0 1 .035.055c.027.039.049.08.071.124.017.034.035.068.056.102 0 .005 0 .013.002.024a.44.44 0 0 0 .026.075c.01.025.02.05.024.075l.018.066c.008.03.017.06.022.094l.002.006c0 .004 0 .007.002.01l-.002-.003-.001-.003a.073.073 0 0 1 .003.008l.002.009.001.002v.002l.001.001v.002l.001.002c.01.042.003.102-.003.155-.003.03-.006.057-.006.079v.08c-.01.05-.02.1-.04.14v.012l-.01.018a2.772 2.772 0 0 1-.093.166 4.902 4.902 0 0 0-.037.064l-.002.004-.003.004a2.911 2.911 0 0 1-.055.062l-.03.028a.274.274 0 0 0-.05.052.55.55 0 0 1-.05.03.88.88 0 0 0-.082.05c-.012.005-.027.01-.044.019l-.024.006a.748.748 0 0 0-.08.025h-.26a.428.428 0 0 1-.108-.017.853.853 0 0 0-.061-.013l-.026-.007-.033-.009a3.45 3.45 0 0 1-.354-.11l-.032-.014-.066-.03a3.15 3.15 0 0 1-.26-.13 3.055 3.055 0 0 0-.093-.05c-.107-.055-.273-.14-.366-.2a4.731 4.731 0 0 0-.03-.03l-.022-.021c-.008-.02-.022-.044-.035-.05a1.293 1.293 0 0 0-.03-.051l-.002-.003v-.003h-.001v-.002a1.013 1.013 0 0 1-.025-.07 1.216 1.216 0 0 0-.026-.07c-.015-.05-.027-.1-.04-.15l-.031-.122c.01-.024 0-.059-.008-.071V9.59a1.265 1.265 0 0 1 .008-.152l.002-.008a2.637 2.637 0 0 0 .03-.13c0-.02.008-.04.017-.06.005-.01.01-.02.013-.03v-.003l.002-.002a.515.515 0 0 1 .012-.023 1.07 1.07 0 0 0 .026-.022l.051-.053.004-.003a1.2 1.2 0 0 1 .046-.032c.018-.012.043-.03.067-.042l.032-.01c.03 0 .29-.06.29-.08 0 .01-.15.02-.06 0 .03 0 .07 0 .1-.01.06 0 .13-.01.19-.02.15-.01.31-.02.46-.01.012 0 .027 0 .04.002.025.002.05.004.074 0 .075.017.146.038.22.06l.056.018h.003v.001h.003l.003.001.002.001.005.001.033.016a.597.597 0 0 1 .08.04l.05.035.006.004.013.009Zm-1.873.366.002-.011v-.005a.778.778 0 0 0-.003.016Zm0 0-.008.044a.611.611 0 0 0 .007-.038v-.006Zm-.005.483c-.008-.011-.013-.004 0 .043v-.043Zm0 .043v.04a.04.04 0 0 0 .008-.012l-.008-.028Zm.18.53a.175.175 0 0 0-.017-.032c-.003-.002-.006-.002-.01-.001l.007.014.02.019Zm.006.013-.004-.008v-.002l-.002-.003.018.019.003.007a.268.268 0 0 0-.015-.013Zm.012.021a.28.28 0 0 1-.012-.02c-.004-.004-.006-.005-.006-.004-.002.005.005.013.018.024Zm.007.006-.007-.006c.005.008.007.01.007.006Zm0 0a.6.6 0 0 0 .042.028 1.965 1.965 0 0 0-.046-.042.063.063 0 0 1 .004.014Zm1.813.577h-.003l-.002.002h-.004.005l.002-.002h.002Zm0 0a.526.526 0 0 0 .052-.017c.04-.016.035-.02-.013 0a.278.278 0 0 1-.04.017Zm.308-.24-.002.001a.418.418 0 0 0 .002 0Zm0 0 .023-.027c-.003-.003-.012.009-.021.024l-.002.003ZM29.419 9.01l-.04.013a.102.102 0 0 1 .04-.013Zm-.21.13-.027.027c.01-.015.02-.027.027-.027Zm.034 1.337a.013.013 0 0 0-.003.003l.01.01-.002-.004-.002-.003-.003-.006Zm1.685.694Zm.63-.534-.029.063.007-.012a.205.205 0 0 0 .021-.05Zm2.159 7.673h.012a.554.554 0 0 1 .1.01c.045.01.09.022.136.035.044.012.09.025.134.035l.047.012.04.028c.015.011.03.022.044.03.035.02.07.042.105.065.035.022.07.045.105.065a.335.335 0 0 0 .006.006l.004.004c.03.03.05.05.08.07.014.015.03.032.044.05a.902.902 0 0 0 .05.054c.03.032.037.057.033.062h-.001c.016.026.035.052.054.078a.812.812 0 0 1 .096.153.361.361 0 0 1 .014.063c0 .02.04.23.05.23v.24l-.002.024a3.07 3.07 0 0 0-.015.067 1.108 1.108 0 0 1-.044.159.508.508 0 0 1-.015.062l-.005.008c-.02.04-.042.077-.065.115a1.801 1.801 0 0 0-.064.115.386.386 0 0 0-.023.023l-.004.005-.002.002-.004.004-.006.006a.475.475 0 0 1-.072.07.268.268 0 0 0-.04.035.27.27 0 0 1-.038.034 1.277 1.277 0 0 0-.021.01l-.056.03-.054.03-.037.02a.868.868 0 0 0-.113.05c-.04.01-.08.02-.12.04a.509.509 0 0 1-.135.04.129.129 0 0 1-.046 0h-.34c-.03 0-.09 0-.12-.01l.015.007a2.504 2.504 0 0 1-.359-.098c-.017-.006-.034-.01-.05-.017a.382.382 0 0 1-.045-.031.913.913 0 0 1-.13-.08c-.017.008-.145-.13-.193-.181h.002a.042.042 0 0 1-.005-.004l-.007-.008c-.017-.02-.036-.058-.052-.09a.53.53 0 0 0-.025-.047.21.21 0 0 0-.015-.038.876.876 0 0 0-.015-.042l-.02-.06c-.02-.06-.03-.11-.04-.17l-.002-.007a.734.734 0 0 1-.003-.01l-.005-.012a.13.13 0 0 0-.004-.011c0-.044.005-.098.008-.143a4.969 4.969 0 0 0 .005-.067v-.01.009a.74.74 0 0 1 .037-.127 1.697 1.697 0 0 0 .03-.093c-.006.022-.006.03.014-.01l.028-.06v-.001c.05-.112.104-.229.172-.338a.935.935 0 0 1 .063-.104l.02-.031a.971.971 0 0 0 .026-.03l.04-.045.064-.064.03-.017.007-.005.008-.004.01-.006.016-.01.002-.001.014-.008.11-.065c.05-.02.1-.04.16-.05.064-.021.128-.037.192-.05h.238-.053Zm-.678.17Zm-.065.051c-.045.035-.051.038-.014.009a.766.766 0 0 0 .014-.009Zm1.796 1.439.015-.032c-.006.018-.012.032-.015.032Zm.01-.97.003.003a.013.013 0 0 0-.002-.003Zm-.72-.63c.02 0 .042.008.063.019a.361.361 0 0 0-.063-.02Zm-4.385 9.34a1 1 0 0 0 .024 0c.11 0 .21 0 .32.02-.12-.014-.057-.005.015.006.037.005.076.01.096.014.11.02.22.05.33.09a.66.66 0 0 1 .064.02.931.931 0 0 0 .066.02c.01 0 .077.03.107.044l.014.007-.061-.031c.19.09.37.18.54.3l.052.04a.564.564 0 0 0 .098.08c.08.07.15.15.22.23l.006.006.004.006.004.004c-.008-.01-.015-.021-.015-.026a1.192 1.192 0 0 1 .038.053l.008.012.044.065c.012.018.033.065.052.107.03.07.056.126.018.013l.09.27.017.083c0-.002 0-.002 0 0a.287.287 0 0 1 .01.048l.004.019-.004-.014a.473.473 0 0 1 .004.054v.28l-.03.12a.563.563 0 0 1-.02.06.469.469 0 0 0-.02.06.61.61 0 0 0-.07.14.557.557 0 0 1-.046.065l-.154.155c-.02.01-.043.025-.066.04-.022.015-.044.03-.065.04a1.018 1.018 0 0 0-.031.017.235.235 0 0 1-.059.043c-.036.01-.073.02-.11.032a2.003 2.003 0 0 1-.22.058c-.04 0-.08 0-.13.01h-.32c-.081 0-.155-.008-.235-.017l-.02-.003h-.014a1.615 1.615 0 0 1-.095-.02 2.941 2.941 0 0 1-.435-.12.469.469 0 0 0-.06-.02s-.2-.09-.09-.03c.11.06-.09-.04-.09-.04l-.12-.06a1.7 1.7 0 0 1-.207-.13l-.073-.05a1.545 1.545 0 0 0-.026-.015l-.054-.05c-.02-.018-.04-.035-.06-.055a3.871 3.871 0 0 1-.1-.105 3.904 3.904 0 0 0-.097-.101l-.002-.004-.002-.004-.002-.003-.001-.002-.002-.004-.005-.007a.411.411 0 0 0-.035-.055.411.411 0 0 1-.034-.055c-.02-.04-.04-.08-.06-.11a.728.728 0 0 0-.015-.026.617.617 0 0 0-.01-.046.735.735 0 0 0-.035-.138v-.25a.577.577 0 0 0-.002-.035.516.516 0 0 0 .011-.035c.01-.05.02-.09.04-.14 0-.017.032-.08.047-.11l.007-.014c.05-.093.097-.18.166-.266-.073.096-.011.023.03-.026l.03-.034c.05-.05.1-.1.16-.15l.18-.12a.565.565 0 0 0 .047-.027.732.732 0 0 1 .084-.043c.029-.015.121-.06.12-.062.076-.032.155-.057.235-.079Zm-9.123 4.747c.122.04.245.08.367.123.02.005.04.012.06.02a.563.563 0 0 0 .067.022l.006.002.027.016.11.06c.038.02.076.04.11.06l.008.004.013.016c.013.02.03.035.049.051l.03.029c.02.02.038.055.047.072.008.018.008.018-.007-.032l.015.023c.009.013.02.028.026.047 0 .004.01.02.022.04l.005.01a2.504 2.504 0 0 1 .082.29l.001.002a.436.436 0 0 0 .01.108v.215a3.637 3.637 0 0 1-.056.225l-.015.05c-.027.041-.05.083-.075.127l-.035.063v.002l-.002.002a1.538 1.538 0 0 0-.077.08c-.02.023-.04.046-.06.066-.006 0-.023.017-.042.036a.316.316 0 0 1-.049.044c-.07.05-.15.1-.23.14-.015.008-.05.028-.075.044l-.027.008-.006.001-.014.004a4.073 4.073 0 0 0-.328.092.266.266 0 0 0-.075.016.266.266 0 0 1-.075.015h.03c-.033 0-.066 0-.1.002a1.483 1.483 0 0 1-.2-.002h-.15c-.11-.02-.21-.04-.32-.08a.88.88 0 0 0-.178-.054 2.731 2.731 0 0 1-.167-.095 3.904 3.904 0 0 0-.12-.073l-.016-.01c-.027-.02-.049-.036-.002.004a.862.862 0 0 1-.137-.117.62.62 0 0 0-.07-.065 2.368 2.368 0 0 1-.037-.052c-.034-.05-.063-.091.008.022l-.033-.051a1.383 1.383 0 0 1-.108-.19v-.01c-.007-.003-.013-.017-.018-.034l.018.035v-.02l-.025-.04a1.063 1.063 0 0 1-.005-.023l-.002-.007a.516.516 0 0 0-.008-.03c0-.009-.057-.217-.074-.281.004.038.002.112-.005.01v-.219l-.001-.01v-.01l-.002-.016-.001-.033a.27.27 0 0 0 .004-.011c0-.03.01-.06.02-.09a.26.26 0 0 1 .017-.08c.005-.014.01-.027.012-.04l.019-.067.002-.003.001-.004.002-.004.004-.007c.028-.062.127-.274.163-.265 0 0-.1.11-.01.02l.047-.05c.031-.034.063-.067.102-.1l.02-.02.027-.023.003-.002.01-.01a.066.066 0 0 0 .007-.005l-.018.013-.001.001h-.001l-.02.016-.026.02c.01-.03.12-.09.15-.1a.88.88 0 0 1 .05-.03.88.88 0 0 0 .05-.03l.029-.015c.027-.015.05-.028.08-.035l-.04.017h.005l.003-.001h.001l.008-.002c.003 0 .006 0 .01-.002l.015-.003h.004c.069-.014.177-.034.228-.054-.043.01-.101-.015-.014-.015h.293a7.3 7.3 0 0 0 .66.237Zm-1.827.412.005-.01a.367.367 0 0 0-.013.03l.008-.02Zm-.089.277.004-.016-.001.002v.001l-.001.003v.004a.06.06 0 0 0-.002.006Zm2.303 1.344a.134.134 0 0 1-.017.01l.017-.01Zm.65-1.23Zm-.05-.17-.016-.043c.012.021.02.039.017.043ZM9.18 28.168l.02-.002.1-.006a2.437 2.437 0 0 1 .289.01h.002l.065.015.065.015c.091.025.183.05.275.08a.63.63 0 0 0 .09.042c.036.016.071.031.084.038.08.04.16.09.23.15l.05.045a1.198 1.198 0 0 1 .105.105c.018.02.035.04.055.059a.673.673 0 0 0 .08.13l.002.003-.002.018c0 .007.006.034.012.06a1.466 1.466 0 0 0 .008.1c0 .018-.004.06-.006.088a.34.34 0 0 0 .007-.038c0 .033-.01.067-.018.1-.005.017-.01.033-.012.05a.832.832 0 0 1-.02.075 16.719 16.719 0 0 0-.042.164 1.418 1.418 0 0 1-.163.29l-.066.1v.003c-.012.018-.02.03-.025.04a.54.54 0 0 1-.035.038c-.07.08-.14.15-.21.22-.014.015-.03.027-.044.04a.539.539 0 0 0-.045.04c-.07.05-.14.09-.21.13a.266.266 0 0 0-.041.025l-.027.018-.052.017-.098.03a5.86 5.86 0 0 1-.202.06.214.214 0 0 0-.046.01l-.038.008c.048-.002.114-.005-.006.002h-.003c-.014.002-.024.003-.027 0h-.35a2.68 2.68 0 0 1-.27-.07l-.024-.01-.031-.012-.005-.002a2.98 2.98 0 0 1-.31-.176 1.465 1.465 0 0 0-.048-.045.336.336 0 0 0-.032-.025.357.357 0 0 1-.06-.058l-.03-.032a1.085 1.085 0 0 0-.03-.03.857.857 0 0 0-.02-.04c-.01-.09-.01-.19-.01-.29 0-.044-.004-.096-.008-.153-.01-.15-.023-.328.028-.437.01-.05.02-.1.04-.15a.563.563 0 0 1 .02-.06c.007-.02.015-.04.02-.06a.04.04 0 0 1 .004-.013.373.373 0 0 0 .026-.037 3.818 3.818 0 0 1 .172-.291l.008-.01c.025-.027.05-.054.05-.06l.07-.07.015-.01a1.9 1.9 0 0 1 .133-.085l.02-.007.022-.007a.855.855 0 0 1 .07-.025c.022-.008.045-.015.07-.025.11-.03.22-.06.34-.08l.004-.001.015-.001Zm1.23 1.682Zm-.73.59a.293.293 0 0 0 .055-.017.119.119 0 0 1-.054.017ZM8.32 28.6c0-.003.01-.014.022-.028-.012.017-.021.03-.021.028Zm.4-.32-.066.025c.03-.017.056-.029.067-.025ZM6.6 18.44c.038.016.074.035.109.054.12.118.231.237.348.361l.014.015c.01.02.022.037.035.055a5.762 5.762 0 0 1 .27.444.23.23 0 0 0 .015.06c0 .01.06.26.07.27v.15a.505.505 0 0 1-.023.092.528.528 0 0 0-.025.084l-.002.005a.91.91 0 0 0-.04.075c-.013.025-.025.05-.04.075-.05.09-.11.18-.17.26a.45.45 0 0 0-.048.083.528.528 0 0 1-.032.037c-.08.1-.17.19-.26.27-.03.03-.06.06-.09.08a3.743 3.743 0 0 0-.05.042l.002-.002.005-.004a.77.77 0 0 1 .063-.046 1.107 1.107 0 0 1-.217.144.232.232 0 0 1-.009.002l-.014.004c-.03.01-.06.017-.09.025-.025.006-.05.012-.075.02a.21.21 0 0 0-.033.005H6.18a.543.543 0 0 1-.05-.008c-.046-.008-.1-.017-.055 0l-.045-.012a.564.564 0 0 1-.12-.04c-.08-.04-.16-.09-.24-.14l-.042-.04a.84.84 0 0 1-.088-.09.577.577 0 0 0-.03-.026.49.49 0 0 1-.047-.045.174.174 0 0 0-.013-.02l-.006-.008a3.589 3.589 0 0 1-.17-.28.344.344 0 0 1-.034-.081c-.014-.05-.03-.096-.045-.144-.02-.06-.039-.12-.055-.186 0-.027-.01-.053-.018-.08a.203.203 0 0 1-.012-.04l-.001-.003v-.037c0-.045-.002-.088-.004-.13a2.175 2.175 0 0 1-.005-.13v-.19c0-.017 0-.03-.002-.038.012-.059.046-.147.069-.208l.023-.064.03-.055.03-.055a.215.215 0 0 1 .013-.023l.007-.007.012-.014c.075-.085.142-.16.228-.236a.806.806 0 0 1 .067-.059c-.023.026-.02.032.076-.064a.7.7 0 0 0 .032-.022.411.411 0 0 1 .055-.035.623.623 0 0 1 .099-.05c-.009.011.011.01.077-.034a.963.963 0 0 0 .144-.046c.015 0 .056 0 .083-.01h.137l.096.025c.074.019.146.037.224.065Zm-.69-.032.007-.002a.86.86 0 0 0-.007.002Zm0 0-.006.001H5.9a.13.13 0 0 0-.061.031.928.928 0 0 0 .07-.032Zm-.257.139.007-.006-.007.006Zm0 0a.275.275 0 0 1-.022.013.477.477 0 0 0-.053.051l.008-.006c.022-.018.045-.036.067-.058Zm-.209 2.123v.001l.001.001v-.002Zm.869.43c-.034.007-.06.018.018 0h-.018Zm.018 0h.03c0-.004-.007-.005-.015-.005a.296.296 0 0 0-.01.003l-.005.002Zm1.06-1.68Zm-.9 1.64.038-.011c-.019.008-.032.013-.038.01Zm3.3-12.737a1.435 1.435 0 0 0 .277.224l.002.003c.02.02.043.037.065.055a.687.687 0 0 1 .066.055c.08.08.16.16.23.25.014.025.03.047.045.07l.045.07.15.27.03.085.03.085c.04.13.07.26.1.4v.15c0 .12 0 .25-.01.37a.393.393 0 0 1-.018.1c-.005.017-.01.033-.012.05-.01.06-.03.12-.05.18 0 .016-.024.08-.041.124-.003 0-.068.144-.06.136l-.06.12c-.015.03-.036.06-.054.087l-.016.023c.08-.13 0-.01-.02.02-.008.012-.032.033-.05.05l-.002.002h.003a.116.116 0 0 0-.007.003c-.017.016-.023.022.016-.004.024 0 .033.01-.02.019a.46.46 0 0 0-.03.005.112.112 0 0 0-.03.024.042.042 0 0 1 .007-.017c-.029.01-.032.02-.02.021-.094.017-.22.002-.327-.01a1.45 1.45 0 0 0-.15-.013.394.394 0 0 1-.1-.018c-.016-.004-.033-.009-.05-.012l-.27-.06c-.1-.03-.19-.06-.28-.09-.04-.01-.13-.07.02 0a.639.639 0 0 0-.055-.025L9.09 11.1a1.275 1.275 0 0 1-.271-.163.598.598 0 0 1-.03-.02.778.778 0 0 0-.05-.057l-.18-.18c-.014-.02-.03-.038-.044-.055l-.008-.009-.017-.026a3.333 3.333 0 0 0-.08-.12 3.333 3.333 0 0 1-.08-.12 1.093 1.093 0 0 1-.116-.24c-.016-.042-.023-.063.006.03a1.915 1.915 0 0 1-.08-.26s-.011-.078-.018-.114l-.001-.045-.001-.031v-.27l-.001.014a.95.95 0 0 0 0-.034c.009-.057.023-.108.04-.162l.01-.038a.727.727 0 0 0 .02-.057.431.431 0 0 1 .04-.103c-.024.065-.024.065-.013.042a.607.607 0 0 1 .054-.092c.01-.02.022-.04.035-.06.012-.02.025-.04.035-.06l.013-.023a.977.977 0 0 0 .027-.027c.046-.053.097-.102.149-.152l.08-.078.004-.003a.944.944 0 0 0 .136-.082l.05-.035a.926.926 0 0 1 .076-.04c.025-.013.05-.025.075-.04a.95.95 0 0 0 .022-.012L9 8.37l.16-.045.16-.045h.28c.024 0 .048.007.074.015l.056.015c.02.005.04.01.06.013ZM8.75 10.88l.016.019a.108.108 0 0 1-.016-.02Zm-.28-.31Zm.917-2.303Z"/>
</svg>
