<svg xmlns="http://www.w3.org/2000/svg" width="40" height="40" fill="none" viewBox="0 0 40 40">
  <path class="display-icon__fill-2" fill="#B6E5FF" d="m39.42 27.04-17.1.11s.84-7.15-.6-9.64-1.84-3.59-5.66-4.43l11.99-8.7s6.91 3.38 9.46 9.66c2.55 6.28 1.91 12.99 1.91 12.99v.01Z"/>
  <path class="display-icon__fill-1" fill="#52B0FF" d="M.42 35.37V13.9c.15-.03.27-.07.4-.07 3.39 0 6.79-.07 10.17.06 1.46.06 2.97.39 4.35.9 3.02 1.12 4.52 3.51 4.83 6.66.39 3.98-.29 7.65-3.44 10.46-1.81 1.62-4.03 2.42-6.36 2.92-3.26.7-6.57.56-9.96.53l.01.01Z"/>
  <path class="display-icon__ink" fill="#1C1D1F" d="m22.03 24.098-.024-.019.013.011.01.008Zm.03.022Zm-1.742-1.753-.001-.002a2.38 2.38 0 0 0-.023-.07l-.001-.004c.006.015.015.04.025.076ZM14.924 10.29l-.005-.027a.898.898 0 0 1-.019-.153v-.06c0-.11.02-.21.07-.31a.4.4 0 0 1 .1-.18c.05-.09.13-.16.22-.21l.19-.08.064-.01c.053-.01.11-.02.166-.02h.06l.115.015.115.015h.02c.02.01.03.01.05.01h.02l.21.09c.01.01.03.02.04.02.012 0 .02.007.027.013a2.028 2.028 0 0 1 .193.137c.01.01.02.01.02.01.07.06.14.16.18.22.01.01.02.02.02.03v.02c.03.06.06.13.09.2.01.02.01.03.01.04v.02c.02.03.02.08.02.11l.003.03.001.008a.59.59 0 0 1 .006.072v.04c-.01.04-.02.08-.02.12a.43.43 0 0 0-.02.12v.03l-.027.07c-.018.047-.036.094-.063.14v.01c-.01.015-.037.048-.065.08-.027.033-.055.065-.065.08l-.03.03c-.04.04-.12.1-.16.13-.01.01-.02.01-.02.01a.509.509 0 0 1-.06.025.61.61 0 0 0-.06.025c-.04.02-.08.04-.12.05h-.04a1.875 1.875 0 0 0-.067.012.91.91 0 0 1-.153.018h-.06c-.09-.01-.17-.02-.26-.04a.866.866 0 0 1-.24-.1c0-.01-.02-.01-.02-.01a.458.458 0 0 1-.045-.035c-.015-.012-.03-.025-.045-.035a.705.705 0 0 0-.09-.07.7.7 0 0 1-.15-.19v-.01a.64.64 0 0 0-.04-.1.84.84 0 0 1-.04-.1v-.02a1.66 1.66 0 0 1-.03-.22v-.01c0-.02.002-.04.004-.06Zm1.294-.763-.018.063c.12.07.22.17.29.29l.009.02-.004-.026-.053-.127-.094-.115-.13-.105Zm.292.383-.01-.024.01.024Zm-.016-.044a.11.11 0 0 1-.004-.026l.004.026Z M25.77 26.75c.433-.099.858-.207 1.283-.326a1.562 1.562 0 0 0-.304-.274 1.495 1.495 0 0 0-.076-.042c-.078-.041-.173-.092-.084-.058-.08-.04-.17-.06-.26-.08-.15-.03-.41-.03-.62-.03a48.241 48.241 0 0 0-.35.03h-.05l-.18.03a14.086 14.086 0 0 0-1.155.262c-.249.063-.499.127-.752.183a.617.617 0 0 1-.312.055h-.007a.763.763 0 0 1-.185-.021c-.544-.067-1.125-.2-1.72-.336-1.748-.401-3.62-.83-5.037.309.397.387.744.847 1.029 1.388.48.91-.9 1.72-1.38.81-.51-.97-1.32-1.73-2.37-2.07-.852-.277-1.746-.326-2.637-.374a27.514 27.514 0 0 1-.993-.066c-2.29-.21-4.71-1.2-5.03-3.76v-.01c-.05-.43.41-.8.8-.8.47 0 .75.37.8.8.12.96 1.09 1.61 1.93 1.88.212.069.427.123.644.166-.38-1.473-.75-2.965-.595-4.496.13-1.34.64-2.86 2-3.4.438-.174.89-.207 1.338-.147a69.041 69.041 0 0 1-.068-2.086c-.45-.021-.9-.044-1.35-.067-.542-.027-1.085-.055-1.63-.08a5.774 5.774 0 0 0-.21-.002h-.032c-.23 0-.475 0-.688-.058-.4-.11-.64-.52-.64-.92-.009-.506.363-.928.69-1.3.048-.054.096-.108.14-.16.857-1.007 1.786-1.941 2.715-2.875.492-.495.984-.99 1.465-1.495 1.05-1.19 2.7-1.78 4.27-1.74 1.69.05 3.23.9 4.43 2.04 1.35 1.29 2.24 2.96 2.99 4.65a185.093 185.093 0 0 1 1.82 4.29v.001l.416 1.001c.42-.364.902-.653 1.465-.812 1.38-.39 2.97.06 3.8 1.25.73 1.03.85 2.39.86 3.65a19.71 19.71 0 0 1-.105 2.044c.314-.362.596-.762.844-1.204v-.01c.5-.9 1.88-.09 1.38.81-.93 1.66-2.31 2.89-4.02 3.71-.95.45-1.95.79-2.96 1.06-.51.14-1.05.26-1.55.37-.084.018-.168.04-.252.06-.416.105-.829.208-1.228 0-.82-.423-.244-1.584.542-1.468.246-.032.502-.103.752-.172.145-.04.288-.079.426-.11ZM16.51 7.21c-1.181-.148-2.422.215-3.283 1.035-.251 2.886-.26 5.806-.1 8.7.173.094.341.194.502.295.5.31 1 .65 1.44 1.04.58.52 1.04 1.18 1.45 1.84.784 1.242 1.506 2.569 1.68 4.03a9.18 9.18 0 0 1 1.588.124 5.468 5.468 0 0 1-.388-.434c-.29-.37-.58-.77-.68-1.24-.09-.44.13-.84.56-.98.39-.13.89.15.98.56.01.039.022.075.034.11-.02-.047-.022-.006.006.05a.478.478 0 0 1 .018.025.896.896 0 0 1 .01.04l.002.005a1.67 1.67 0 0 0-.011-.043c.02.03.036.062.051.093.04.08.09.15.14.22.015.015.028.03.04.045.013.015.025.03.04.045.27.33.59.63.92.91.085.07.17.137.255.205l.242.194-.037-.029c.01.01.023.02.035.03l.007.006a.39.39 0 0 1 .028.024.617.617 0 0 0 .074.06l.012.009c.017.013.036.026.054.041l.125.09.016.011a4.9 4.9 0 0 1 .11.079l.078.057c.161-.86.363-1.694.638-2.505a.977.977 0 0 1-.056-.012c-2.76-.73-5.22-2.49-6.49-5.09v-.01c-.19-.39-.11-.86.29-1.09.35-.2.9-.1 1.09.29 1.1 2.25 3.12 3.72 5.54 4.36a.846.846 0 0 1 .221.091c.167-.345.352-.686.559-1.02.125-.203.255-.406.392-.605a1.154 1.154 0 0 1-.172-.286l-.622-1.487-.001-.002c-.5-1.197-1.001-2.397-1.517-3.591-.63-1.46-1.32-2.96-2.37-4.16-.9-1.02-2.11-1.96-3.5-2.13Zm9.46 17.13c.62.01 1.22.14 1.72.51.39.297.693.65.983 1.032a9.837 9.837 0 0 0 1.397-.698c.14-1.186.28-2.38.27-3.574-.01-.58-.04-1.08-.15-1.58a4.626 4.626 0 0 0-.193-.674 1.093 1.093 0 0 1-.047-.106l-.045-.085a2.635 2.635 0 0 1-.045-.085c-.05-.09-.1-.18-.16-.26.043.061-.008.003-.065-.063-.037-.042-.076-.088-.095-.107-.03-.04-.07-.07-.11-.1.12.09-.01-.01-.04-.03a2.278 2.278 0 0 0-.063-.035l-.019-.01c-.083-.046-.183-.1-.098-.065-.12-.05-.25-.09-.38-.12-.53-.13-1.07-.08-1.48.15-.89.51-1.44 1.44-1.98 2.36-.675 1.167-1.022 2.466-1.266 3.782.614-.145 1.233-.259 1.865-.242ZM14.638 25.5l.031-.03a4.864 4.864 0 0 1 1.94-1.084c-.135-1.378-.924-2.622-1.67-3.756-.59-.91-1.33-1.54-2.25-2.1-.39-.23-.79-.43-1.23-.55-.33-.09-.67-.08-.96.15-.78.6-.83 2-.78 2.93.053 1.024.322 2.025.59 3.016l.14.524.2.01c.3.017.601.034.9.06 1.108.093 2.167.347 3.089.83Zm-3.136-15.474c-.299.3-.597.6-.894.904-.41.42-.82.84-1.21 1.28-.105.117-.21.237-.315.359l.635.031 1.703.085a59.05 59.05 0 0 1 .08-2.66Z M19.71 30.65c-.51-.91-.51-1.98-.48-2.99.01-.45.35-.78.8-.8.42-.02.81.38.8.8l-.005.18a8.847 8.847 0 0 0 .02 1.146c.001.037.002.076.014.094-.02-.04-.01-.12 0-.02.01.1.03.21.06.31.02.09.05.18.08.27a.283.283 0 0 1 .016.036.443.443 0 0 1 .034.074c.04.08.08.16.13.23a.145.145 0 0 0 .022.027.174.174 0 0 1 .037.053 1.62 1.62 0 0 0 .221.215l.02.02.01.005c.027.015.054.032.08.049.035.021.07.043.106.063a.438.438 0 0 1 .05.018.396.396 0 0 0 .054.02l.094.024a.799.799 0 0 1 .141.002h.012a.63.63 0 0 0 .073.004c.45-.04.78.39.8.8.02.46-.38.77-.8.8-.99.08-1.92-.59-2.39-1.43Zm2-.22a1.137 1.137 0 0 1-.034-.017c.047.012.121.061.033.017Zm-.691-.736v.006l.017.032v.002l-.013-.03-.004-.01Zm4.701 2.076c1.33-.22 2.63-.78 3.7-1.6.17-.13.31-.26.37-.48.05-.19.03-.45-.08-.62-.21-.33-.74-.56-1.09-.29-.51.39-1.06.7-1.63.97-.05.02-.04.02.05-.02a.978.978 0 0 1-.019.009l-.011.005-.025.011a.979.979 0 0 0-.055.025c-.07.03-.15.06-.23.09-.045.015-.09.03-.135.047a7.51 7.51 0 0 1-1.265.313c-.41.07-.68.6-.56.98.14.45.54.63.98.56ZM11.4 29.504a.774.774 0 0 0-.13-.014l.01.02c-.45-.04-.78-.33-.8-.8-.02-.4.38-.84.8-.8 2 .19 3.78 1.22 4.93 2.87.25.36.05.87-.29 1.09-.38.24-.85.05-1.09-.29-.03-.05-.07-.11-.11-.16l-.035-.04-.036-.042a3.273 3.273 0 0 0-.025-.028l-.024-.028a4.466 4.466 0 0 0-.573-.587c-.047-.042-.095-.086-.148-.125-.03-.02-.16-.12-.02-.02a.543.543 0 0 0-.076-.063l-.024-.017a5.682 5.682 0 0 0-1.04-.6.475.475 0 0 1-.059-.024.516.516 0 0 0-.08-.026c-.1-.04-.19-.07-.28-.1-.2-.06-.4-.12-.6-.16a2.792 2.792 0 0 0-.146-.025c-.047-.008-.095-.015-.145-.025-.048-.008-.035-.008-.01-.006Z M4.06 25.71c1.16 3.37 3.47 5.56 6.37 7.49 1.327.88 2.627 1.29 4.053 1.742.293.093.592.187.897.288 1.79.59 3.66.89 5.54.87 7-.05 13.14-4.41 15.79-10.83.39-.95-1.16-1.37-1.54-.43-2.37 5.75-8.02 9.61-14.25 9.65-1.59.01-3.18-.21-4.7-.68-.317-.098-.631-.19-.943-.281-1.273-.372-2.5-.73-3.657-1.469-2.69-1.71-4.95-3.69-6.01-6.78-.33-.97-1.88-.55-1.54.43h-.01Z"/>
</svg>
