<svg xmlns="http://www.w3.org/2000/svg" width="40" height="40" fill="none" viewBox="0 0 40 40">
  <path class="display-icon__fill-2" fill="#B6E5FF" d="M30.12 23.22c-3.21-.07-5.89-1.03-7.76-3.64-1.35-1.89-1.79-4.05-1.73-6.32.06-2.38.68-4.59 2.34-6.4 2.22-2.42 5.08-3.11 8.22-2.82 2.93.27 5.39 1.51 6.84 4.14 1.96 3.57 1.96 7.27 0 10.83-1.41 2.56-3.81 3.78-6.67 4.12-.45.05-.9.07-1.23.09h-.01Z"/>
  <path class="display-icon__fill-1" fill="#52B0FF" d="m.42 21.46 17.41-7.86s2.38 7.68 4.98 9.57c2.6 1.89 3.51 2.83 7.79 1.95l-8.31 14.32s-8.59-.32-14.04-5.58C2.81 28.6.42 21.46.42 21.46Z"/>
  <path class="display-icon__ink" fill="#1C1D1F" d="M26.26 5.42c1.479 1.68 1.394 4.14.464 6.22 1.634-.556 3.371-.676 5.165-.08 2.64.88 5.3 3.19 5.3 6.16 0 .47-.52.97-1.01.77l-.569-.233c-2.96-1.216-5.764-2.368-8.908-2.159 1.621 1.613 2.65 4.033 2.187 6.222-.66 3.14-3.91 5.14-6.84 5.71-.8.15-1.31-.72-.78-1.34 1.44-1.7 3.14-4.46 2.58-6.79-.235-.96-.676-1.876-1.197-2.714-.386.767-.778 1.535-1.17 2.304-2.682 5.256-5.405 10.594-6.762 16.32-.07.301-.259.472-.482.538a.829.829 0 0 1-.298.052H4.43c-.55 0-1.07-.7-.69-1.2 2.69-3.6 5.41-7.11 8.4-10.58 2.762-3.206 5.866-6.139 9.06-8.917-2.955-1.263-7.449-.076-9.68 2.077-.47.44-1.43.15-1.37-.57.24-2.74 1.96-5.1 4.48-6.22 2.675-1.202 5.044-.325 7.401.92l.007-.031c.26-1.225.541-2.555-.289-3.46-1.3-1.41-3.31-1.96-5.17-1.8-.87.07-.97-1.07-.4-1.49 2.82-2.04 7.52-2.61 10.08.29Zm-4.1 8.94v.02c.309.155.566.326.793.537.135.08.247.199.316.341.051.064.101.131.15.202.118.17.145.216.132.205.03.038.06.076.088.115.81 1.09 1.49 2.49 1.78 3.82.453 2.044-.35 4.242-1.495 6.101 1.53-.728 2.873-1.896 3.335-3.531.64-2.23-1.06-4.87-2.96-5.91-.59-.32-.48-1.31.19-1.46 1.99-.46 3.98-.54 5.98-.1 1.684.371 3.286 1.036 4.87 1.704-.7-1.797-2.755-3.121-4.53-3.504-2.341-.501-4.326.318-6.188 1.572a5.864 5.864 0 0 1-.542.398c-.738.478-1.384-.401-1.09-1.046a.77.77 0 0 1-.76-.014l-.278-.155c-2.02-1.125-4.08-2.272-6.432-1.325-1.35.544-2.498 1.568-3.164 2.842 2.925-1.654 6.901-2.164 9.804-.812Zm-8.205 10.61h.624c.22 0 .42.08.57.23.15.15.23.36.23.57 0 .11-.02.21-.07.31-.04.1-.09.19-.17.26-.15.14-.36.23-.57.23H13.5a.793.793 0 0 1-.653-.329c-.485.565-.965 1.135-1.44 1.71h1.674c.45 0 .78.37.8.8.02.43-.38.8-.8.8h-2.26a.77.77 0 0 1-.542-.22c-.538.665-1.07 1.335-1.598 2.009h2.14c.45 0 .78.37.8.8.02.43-.38.8-.8.8H7.44c-.472.615-.942 1.232-1.408 1.85h7.293c1.405-5.541 4.025-10.727 6.632-15.838-.481.44-.96.885-1.433 1.335.252.473.028 1.213-.672 1.213a.77.77 0 0 1-.449-.131c-.322.315-.641.634-.958.954.051.018.1.04.146.067l.16.13c.1.1.17.21.21.35l.03.21c0 .11-.02.21-.07.31-.04.1-.09.19-.17.26-.07.08-.16.14-.26.17-.1.05-.2.07-.31.07h-.54c-.14 0-.28-.04-.4-.11l-.112-.09c-.397.422-.788.849-1.173 1.28Zm9.474-11.85a.942.942 0 0 1-.071.29c2.083-1.435 3.55-5.486 1.321-7.32-1.488-1.225-3.428-1.335-5.19-.825a7.453 7.453 0 0 1 3.4 2.005c1.282 1.328 1.02 2.838.748 4.41a16.92 16.92 0 0 0-.208 1.44Z"/>
</svg>
