<svg xmlns="http://www.w3.org/2000/svg" width="40" height="40" fill="none" viewBox="0 0 40 40">
  <path class="display-icon__fill-2" fill="#B6E5FF" d="M38.23 24.91c-3.83 4.1-7.61 8.15-11.42 12.23-.1-.06-.19-.11-.26-.17-1.93-1.81-3.9-3.57-5.76-5.45-.8-.81-1.49-1.8-2-2.82-1.12-2.25-.7-4.4.79-6.36 1.89-2.48 4.23-4.2 7.52-4.13 1.89.04 3.58.76 5.17 1.72 2.23 1.34 4.04 3.18 5.96 4.99v-.01Z"/>
  <path class="display-icon__fill-1" fill="#52B0FF" d="M20.7.85 29 15.32s-5.41.06-9.28 4.41c-3.87 4.35-4.07 6.56-3.95 10.4L1.31 21.95s.66-8.33 6.29-13.58C13.24 3.11 20.7.85 20.7.85Z"/>
  <path class="display-icon__ink" fill="#1C1D1F" d="m14 15.934.167-.198c.927-1.103 1.787-2.125 2.003-3.656.25-1.77-.52-3.16-1.55-4.48-.95-1.21-2.17-2.56-3.68-3.06-1.42-.47-2.86.16-3.92 1.11-2.57 2.29-2.99 5.89-2.43 9.1.472 2.696 2.057 5.014 3.587 7.25l.463.68c.533.782 1.152 1.488 1.771 2.194.252.287.503.574.749.866.247.293.487.588.725.882.854 1.05 1.693 2.084 2.795 2.928 3.13 2.39 6.52 4.5 10.41 5.36 3.08.69 7.63 1.25 9.84-1.59 2.33-2.99-.87-6.37-3.06-8.35-1.28-1.16-2.75-1.7-4.4-.99-.385.167-.746.387-1.107.607-.483.294-.965.587-1.503.753-1.14.35-2.37.03-3.42-.46-3.57-1.674-6.668-5.024-7.44-8.946Zm-1.613-.34a.877.877 0 0 0-.007.306c.4 2.69 1.79 5.07 3.67 7 1.88 1.93 4.38 3.8 7.07 4.14 1.13.14 2.18-.06 3.19-.58a8.96 8.96 0 0 0 .75-.445c.401-.256.805-.513 1.25-.655 1.03-.33 1.83.19 2.57.88 1.06.98 2.16 2.15 2.88 3.4 1.12 1.96-.44 3.58-2.35 4.01-3.18.71-7.01-.27-9.89-1.63-2.88-1.36-5.87-3.23-7.79-5.63a66.445 66.445 0 0 0-1.461-1.753c-1.005-1.177-2.007-2.352-2.839-3.667-.18-.284-.362-.564-.543-.842-1.264-1.953-2.46-3.797-2.827-6.178-.26-1.71-.18-3.46.54-5.05.65-1.43 2.24-3.52 4.04-2.76 1.41.6 2.7 2.2 3.44 3.5 1.229 2.167-.032 3.697-1.365 5.316l-.135.164a.82.82 0 0 0-.193.474ZM23.67 8.46c-.64 1.45-1 3.12-1.05 4.71v.01c-.01.45-.36.78-.8.8-.42.02-.81-.38-.8-.8.07-1.92.5-3.77 1.27-5.52.17-.41.74-.47 1.09-.29.42.21.46.71.29 1.09Zm2.96 7.13c1.26-1.31 2.59-2.54 3.98-3.71.32-.27.3-.86 0-1.13-.34-.31-.79-.29-1.13 0-1.39 1.16-2.72 2.4-3.98 3.71-.29.3-.32.84 0 1.13.32.29.82.32 1.13 0Zm6.8 3.7c-2.04.32-4.1.44-6.16.33h.01c-.43-.02-.8-.35-.8-.8 0-.42.37-.82.8-.8 1.91.1 3.84.03 5.73-.27.42-.07.85.1.98.56.1.38-.13.91-.56.98Z"/>
</svg>
