<svg xmlns="http://www.w3.org/2000/svg" width="40" height="40" fill="none" viewBox="0 0 40 40">
  <path class="display-icon__fill-2" fill="#B6E5FF" d="M18.24.28 12.8 16.95s5.71 1.33 7.94 3.26c2.23 1.93 4.23 3.25 3.85 7.25l14.91-9.67s-3.82-7.14-9.16-11.6C24.99 1.75 18.24.28 18.24.28Z"/>
  <path class="display-icon__fill-1" fill="#52B0FF" d="M2.81 25.92c-.91 3.39-.74 6.49 1.42 9.25 1.56 1.99 3.69 3.12 6.08 3.76 2.51.67 5.02.7 7.42-.47 3.22-1.58 4.82-4.35 5.49-7.74.62-3.16.08-6.11-2.23-8.43-3.13-3.16-7-4.29-11.34-3.33-3.12.69-5.13 2.82-6.37 5.71-.19.45-.35.93-.48 1.26l.01-.01Z"/>
  <path class="display-icon__ink" fill="#1C1D1F" d="M19.3 10.1c.465.41.882.843 1.113 1.38l4.236-4.3.01-.01a.747.747 0 0 1 .459-.236c1.626-1.375 4.064-1.761 5.941-.624 1.89 1.14 2.85 3.62 2.15 5.72-.348 1.035-1.054 1.91-1.735 2.755l-.245.305c-.75.929-1.521 1.838-2.301 2.743.093.07.173.156.232.252.76.19 1.426.68 2.04 1.315l.121.126.639-.417.002-.001.008-.006.6-.392c.41-.26.89-.37 1.33-.11.221.13.418.31.61.487l.18.163.102.086c.26.22.52.44.609.784.14.53-.17.93-.51 1.29l-1.152 1.229a21.113 21.113 0 0 1 1.672 3.08c.44 1.02.72 2.18.09 3.19-.53.85-1.48 1.28-2.38 1.61-.57.21-1.12.27-1.65-.09-.36-.244-.66-.593-.951-.932-.09-.104-.18-.208-.27-.307-.575-.627-1.16-1.247-1.744-1.868-1.245-1.321-2.492-2.644-3.655-4.032a2.88 2.88 0 0 1-.297-.422l-.296.34c-.636.73-1.273 1.46-1.909 2.192-.326.375-.67.786-1.03 1.218a64.375 64.375 0 0 1-2.054 2.375c.34.697.75 1.35 1.162 2.006.172.275.345.551.514.83.11.188.22.373.332.559.222.37.444.742.658 1.122.19.35.17.69-.03 1.02-.22.37-.5.72-.84.99-.49.38-1.08.54-1.68.34-.452-.15-.858-.426-1.253-.694-.13-.087-.259-.175-.387-.256l-3.375-2.145c-1.424.564-2.948.65-4.557-.075-2-.9-3.28-2.97-3.17-5.17a5.205 5.205 0 0 1 .6-2.152 40.32 40.32 0 0 1-2.328-2.198 21.76 21.76 0 0 1-1.04-1.114c-.32-.362-.655-.74-.78-1.206-.16-.6.02-1.21.34-1.72.3-.48.66-1.03 1.27-1.12.51-.076.987.207 1.422.466.084.05.167.099.248.144l.538.3c.326.181.654.364.982.55l.787.444.001.001c.73.412 1.464.826 2.192 1.245v.006l4.603-4.672a51.947 51.947 0 0 1-4.544-4.554c-.15-.171-.31-.348-.473-.53-1.118-1.237-2.448-2.708-2.317-4.4.07-.86.47-1.7 1.24-2.13.82-.46 1.86-.39 2.74-.13 1.304.388 2.4 1.218 3.43 2.101a3.967 3.967 0 0 1 1.24-1.38c.29-.2.6-.35.96-.38.36-.03.7.13 1.01.31.48.27.99.61 1.25 1.12.33.65.27 1.39-.08 2.01-.266.48-.687.821-1.118 1.143l.488.426Zm-3.288 21.79c1.042.657 2.087 1.315 3.119 1.98.068.043.14.093.214.143.163.111.334.228.486.297a.55.55 0 0 0 .087.016l.012.002.03.005c.046-.038.184-.122.136-.077.088-.08.166-.168.245-.256l.006-.007.011-.016c-.26-.442-.52-.885-.787-1.327a58.94 58.94 0 0 0-.497-.805 29.082 29.082 0 0 1-.98-1.653 15.34 15.34 0 0 1-2.082 1.698Zm-6.33-9.545a485.623 485.623 0 0 0-2.891-1.635c-.265-.145-.528-.293-.79-.44a80.154 80.154 0 0 0-.79-.44 1.622 1.622 0 0 0-.106-.05 5.835 5.835 0 0 1-.122-.056c-.037.06-.082.118-.127.176a1.19 1.19 0 0 0-.195.31c-.098.284.135.523.344.736.048.05.095.097.136.144.33.37.67.72 1.01 1.07a37.07 37.07 0 0 0 1.974 1.867c.473-.593 1.015-1.147 1.557-1.682ZM4.781 19.59c.005.02.036.044.08.07-.041 0-.068-.024-.08-.07Zm28.027 1.712a91.804 91.804 0 0 0 .817-.874 1.589 1.589 0 0 1-.084-.078 3.462 3.462 0 0 0-.193-.174l-.032-.027-.04.026-.175.115-.713.466c.143.18.283.362.42.546Zm.783-1.322-.079.044a.585.585 0 0 1 .079-.044Zm-.446.023a.483.483 0 0 1-.024-.013l.005.003a.08.08 0 0 0 .024.011l.001.002-.006-.003Zm-5.096-.194c-.555.47-1.11.94-1.648 1.42a6.41 6.41 0 0 1-.089.074v.001c-.263.216-.577.475-.371.806.18.299.453.569.716.83.116.114.23.227.334.34.69.755 1.382 1.51 2.075 2.265.692.755 1.385 1.51 2.075 2.265.109.119.218.253.329.39.225.277.46.566.72.76a.68.68 0 0 1 .095.075c.011.01.019.018.028.022.017.01.04.008.107.004l.02-.001c.133-.008.289-.082.427-.147.04-.02.078-.038.114-.053.56-.23 1.24-.57 1.28-1.25.042-.697-.378-1.46-.732-2.102a21.875 21.875 0 0 1-.178-.328c-.42-.8-.89-1.57-1.41-2.32a20.49 20.49 0 0 0-1.7-2.12l-.025-.027c-.46-.501-1.159-1.26-1.905-1.123h.03a.88.88 0 0 1-.041.007l-.25.212ZM17.59 8.619c.059-.065.127-.122.202-.179.03-.02.06-.042.09-.065.03-.022.06-.045.09-.065l.004-.004a.395.395 0 0 1 .056-.046c.1-.08.2-.16.29-.25.025-.025.05-.052.075-.08l.009-.01.066-.07.04-.06c.015-.03.032-.06.05-.09.017-.03.035-.06.05-.09 0-.016.024-.13.04-.178V7.37a.945.945 0 0 0-.016-.055.653.653 0 0 1-.088-.146.253.253 0 0 0-.016-.019.474.474 0 0 0-.1-.1l-.022-.02c-.1-.07-.199-.14-.308-.2-.02-.013-.156-.1-.247-.149h-.002c.016.008.014.008-.003.003a.305.305 0 0 0-.028.016c-.06.03-.12.07-.18.11-.02.02-.05.04-.08.06a.268.268 0 0 0-.04.035c-.013.013-.025.025-.04.035-.11.1-.2.2-.29.3-.01 0-.12.16-.12.17-.069.094-.123.204-.175.308l-.025.052a.634.634 0 0 1-.097.15l.046.04.002.001c.255.22.512.438.767.657Zm.225-1.958c-.023-.01-.04-.015-.043-.01l.02.007.023.003Zm.59.364Zm.216.231-.001-.002Zm-.001-.002.002.003ZM16.78 29.11c-1.52-2.267-3.54-4.247-5.798-5.783l-.315.311c-.152.15-.305.3-.456.452 2.247 1.47 3.953 3.583 5.608 5.67.06.075.11.157.146.241.307-.243.608-.505.902-.78a.917.917 0 0 1-.087-.111Zm-2.105 1.762-.007-.009c-1.623-2.05-3.294-4.16-5.524-5.56-.109.148-.211.3-.306.457-1.19 1.97-.47 4.55 1.69 5.48 1.439.62 2.836.357 4.147-.368Zm-2.565-8.689c2.281 1.601 4.304 3.593 5.888 5.888.252-.275.498-.554.737-.833-.171-.25-.326-.51-.48-.77-.144-.242-.288-.484-.445-.718-.45-.68-1.03-1.27-1.62-1.84l-.157-.15c-.955-.915-1.902-1.821-3.07-2.442l-.853.865Zm7.53 3.487c.052.095.108.19.164.283l.189-.23c.215-.265.422-.519.62-.757a.934.934 0 0 1-.024-.036c-1.393-2.304-3.36-4.177-5.515-5.755l-.945.959c1.143.674 2.11 1.608 3.067 2.534l.044.042c.65.62 1.27 1.28 1.8 2.01.195.267.367.558.537.844l.063.106Zm2.067-1.971a623.33 623.33 0 0 1 1.89-2.14c2.318-2.614 4.64-5.235 6.791-7.98 1.29-1.64 2.17-3.66.46-5.41-1.51-1.53-3.92-1.01-5.21.5a.695.695 0 0 1-.475.266l-8.96 9.095c2.127 1.587 4.062 3.43 5.504 5.669Zm-8.298-11.42a49.658 49.658 0 0 0 3.185 3.076l2.554-2.592a.791.791 0 0 1-.16-.463c-.009-.33-.292-.588-.526-.8l-.043-.04a22.232 22.232 0 0 0-.6-.522 31.78 31.78 0 0 1-.46-.398c-.375-.32-.748-.643-1.12-.965-.373-.323-.745-.645-1.12-.965l-.334-.29c-.99-.865-2.043-1.785-3.346-2.09-.6-.15-1.38-.18-1.63.5-.23.63.08 1.29.42 1.82.76 1.18 1.75 2.222 2.748 3.273l.432.457Z"/>
</svg>
