<svg xmlns="http://www.w3.org/2000/svg" width="40" height="40" fill="none" viewBox="0 0 40 40">
  <path class="display-icon__fill-2" fill="#B6E5FF" d="M31.17 25.34c-2.85-.07-5.23-.91-6.89-3.23-1.2-1.67-1.59-3.6-1.54-5.61.06-2.12.61-4.08 2.08-5.68 1.97-2.15 4.51-2.76 7.3-2.51 2.61.24 4.78 1.34 6.07 3.68 1.74 3.17 1.74 6.45 0 9.61-1.25 2.27-3.38 3.36-5.92 3.66-.4.05-.8.06-1.09.08h-.01Z"/>
  <path class="display-icon__fill-1" fill="#52B0FF" d="m1.56 18.3 19.57-5.86s.3 8.34 2.65 10.58 3.14 3.31 7.55 3L21.08 39.26s-8.57-1.48-13.32-7.48c-4.77-6-6.2-13.48-6.2-13.48Z"/>
  <path class="display-icon__ink" fill="#1C1D1F" d="M30.849 14.77a1.179 1.179 0 0 0-.699.03c-.31.11-.56.31-.74.59-.35.55-.18 1.27.25 1.72.2.21.47.37.75.44.36.1.73.06 1.06-.11.23-.12.46-.35.57-.58.15-.31.2-.63.13-.97-.06-.29-.24-.6-.47-.79-.16-.13-.31-.23-.51-.29a1.058 1.058 0 0 0-.341-.04Zm-8.089 1.98c.665.02 1.333.01 2 0a44.45 44.45 0 0 1 2 0c.37.01.72-.33.7-.7a.73.73 0 0 0-.7-.7c-.665-.02-1.332-.01-2 0-.667.01-1.335.02-2 0-.37-.01-.72.33-.7.7.02.37.31.69.7.7Zm2.48 6.28c.9 0 .9 1.4 0 1.4H14.76c-.9 0-.9-1.4 0-1.4h10.48ZM14.91 27.9c3.49-.1 6.99-.13 10.48-.1.9 0 .9-1.4 0-1.4-3.5-.03-6.99 0-10.48.1-.9.02-.91 1.43 0 1.4Zm10.65 4.05c-3.6-.25-7.21-.36-10.82-.31-.91.02-.9-1.39 0-1.4 3.61-.04 7.22.06 10.82.31.9.06.9 1.46 0 1.4Z M10.167 10.536c-1.676-.088-3.54-.114-4.777.864-.71.56-1 1.35-1.13 2.23-.21 1.47-.26 2.99-.27 4.47-.01 1.68.06 3.36.15 5.04.02.33.028.676.036 1.027.026 1.074.053 2.206.414 3.163.866 2.291 3.459 2.622 5.612 2.6a148.5 148.5 0 0 0-.042 5.52c0 .38.32.7.7.7 2.39 0 4.784-.017 7.177-.034h.002c3.99-.028 7.983-.056 11.97-.006.39 0 .69-.33.7-.7.054-1.91.064-3.82.05-5.727 2.05.06 4.01-.05 4.991-2.163.802-1.726.67-3.868.55-5.84a39.347 39.347 0 0 1-.08-1.7l-.06-4.06c-.004-.238.002-.492.008-.752.022-.891.047-1.87-.348-2.628-.959-1.84-3.41-1.837-5.336-1.782a54.102 54.102 0 0 0-.102-2.138c-.036-.587-.072-1.174-.092-1.76a.709.709 0 0 0-.7-.7c-5.305-.206-10.618-.103-15.932 0L11 6.21c-.41 0-.66.32-.7.7-.132 1.203-.148 2.414-.133 3.626ZM5.73 25.76c-.22-2.21-.29-4.46-.32-6.68-.01-1.04 0-2.08.06-3.12.01-.164.014-.348.02-.544.026-1.042.062-2.42.87-2.976.66-.45 1.6-.45 2.36-.45 1.12 0 2.24.02 3.36.04l13.51.15c.79.008 1.58 0 2.37-.009 1.293-.013 2.585-.027 3.87.029 1.22.05 2.78.2 2.9 1.71.063.742.058 1.5.052 2.25-.002.322-.005.642-.002.96.01.595.022 1.19.033 1.784.034 1.772.067 3.541.067 5.316 0 1.2-.02 2.6-.94 3.5-.772.756-1.961.665-2.986.587l-.131-.01-.077-.005c-.023-1.83-.063-3.66-.103-5.492v-.003l-.042-1.962 1.319-.005c.9 0 .9-1.41 0-1.4l-23.31.09c-.9 0-.9 1.41 0 1.4l1.798-.007c-.013 2.038-.07 4.075-.128 6.111a975.2 975.2 0 0 0-.043 1.526c-2.09.028-4.255-.273-4.507-2.79Zm5.95 1.264c.057-2.038.115-4.076.127-6.116l17.394-.067.042 1.956v.003c.087 3.968.173 7.933.084 11.902-3.76-.039-7.525-.012-11.288.014-2.163.016-4.326.03-6.487.034-.018-2.577.055-5.151.128-7.726Zm-.113-16.42a32.125 32.125 0 0 1 .073-3.006l2.007-.038c5.087-.099 10.18-.197 15.272-.025.018.382.04.763.063 1.144.042.704.083 1.406.1 2.108-3.82.047-7.646-.02-11.47-.089a751.812 751.812 0 0 0-6.045-.093Z"/>
</svg>
