<svg xmlns="http://www.w3.org/2000/svg" width="40" height="40" fill="none" viewBox="0 0 40 40">
  <path class="display-icon__fill-2" fill="#B6E5FF" d="M30.66 20.49H9.49c-.03-.14-.07-.27-.07-.39 0-3.34-.07-6.69.06-10.03.06-1.44.38-2.93.88-4.29 1.11-2.98 3.46-4.46 6.56-4.76 3.93-.39 7.54.28 10.32 3.39 1.6 1.79 2.39 3.97 2.88 6.27.69 3.22.55 6.48.53 9.82l.01-.01Z"/>
  <path class="display-icon__fill-1" fill="#52B0FF" d="M19.92 39.36c-3.94.07-7.89.05-11.73-.99-1.52-.41-2.96-1-4.17-2.04-1.83-1.57-2.29-3.68-2.28-5.96.02-3.56 1.8-5.85 5.08-7.08 2.64-.99 5.41-1.35 8.19-1.53 4.53-.29 9.06-.32 13.56.32 2.06.29 4.07.75 5.91 1.79 2.11 1.19 3.26 3.02 3.42 5.4.08 1.16.03 2.37-.19 3.51-.49 2.46-2.2 3.9-4.42 4.82-2.83 1.19-5.83 1.5-8.85 1.71-1.5.1-3.02.04-4.53.05h.01Z"/>
  <path class="display-icon__ink" fill="#1C1D1F" d="M6.328 10.409c-.02.087-.038.184-.038.27 0 .051.008.102.016.155l.014.096v.03c.011.04.029.079.046.116.013.03.025.058.034.084v.02c0 .01.01.02.02.03.04.06.11.16.17.21a1.33 1.33 0 0 0 .203.147c.007.006.015.013.027.013l.038.017.006.003c.003 0 .005.002.007.003.07.032.138.063.219.087.03 0 .06.01.09.02l.096.011c.069.01.14.019.214.019l.21-.03c.1-.02.19-.07.27-.14.06-.04.11-.08.14-.14.07-.08.12-.17.14-.27l.015-.07.015-.07c.02-.11.04-.23.04-.34 0-.065-.01-.136-.02-.2a7.493 7.493 0 0 1-.01-.07c0-.02 0-.04-.01-.06a.612.612 0 0 0-.05-.12c-.01-.02-.017-.04-.025-.06a.509.509 0 0 0-.025-.06.838.838 0 0 0-.124-.168.747.747 0 0 0-.156-.146.607.607 0 0 1-.07-.056s-.01 0-.02-.01a1.667 1.667 0 0 0-.22-.085l-.006-.002a1.142 1.142 0 0 0-.264-.033c-.055 0-.114.01-.172.018l-.078.012c-.02 0-.03 0-.05.01-.19.07-.27.11-.42.24a.91.91 0 0 0-.272.519Zm4.038-.997.014-.002h-.02c-.05 0-.11.01-.166.02l-.01.002a.49.49 0 0 0-.06.008.083.083 0 0 0-.044.01c-.18.06-.27.12-.42.24-.007 0-.014.01-.02.018l-.004.005a3.471 3.471 0 0 0-.156.207.337.337 0 0 0-.025.045c-.008.015-.015.03-.025.045a8.015 8.015 0 0 1-.022.049 1.255 1.255 0 0 0-.088.231 2.56 2.56 0 0 0-.026.16 2.674 2.674 0 0 1-.024.15c-.02.14 0 .27.03.41 0 .03 0 .06.02.09a.873.873 0 0 0 .062.16l.005.01.023.05c0 .01.01.02.02.03.02.03.05.07.07.09 0 0 .05.07.07.09.01.01.045.038.08.065l.013.01c.03.024.058.046.067.055h.01l.19.08c.01 0 .03 0 .04.01l.11.015.015.002.095.013h.06c.059 0 .123-.01.18-.02l.016-.003.044-.007h.03a4.77 4.77 0 0 1 .11-.045l.014-.005.096-.04a.21.21 0 0 0 .06-.04c.06-.04.16-.11.22-.18.06-.07.11-.14.16-.21.05-.08.08-.17.11-.26.02-.04.03-.09.03-.13.02-.11.04-.23.04-.34 0-.06-.01-.12-.018-.18a2.313 2.313 0 0 1-.012-.09c0-.02 0-.04-.02-.06l-.025-.061a.818.818 0 0 0-.085-.179c-.04-.06-.09-.13-.14-.18 0-.007-.01-.013-.018-.02l-.005-.004a1.332 1.332 0 0 0-.497-.286.718.718 0 0 0-.174-.028Zm3.007.098a1.925 1.925 0 0 1-.063.01h-.03c-.1.02-.19.07-.28.12-.01 0-.03.02-.04.03-.07.05-.14.1-.2.15a.27.27 0 0 0-.07.08l-.012.014a1.06 1.06 0 0 0-.168.236c-.04.07-.07.15-.1.23a.065.065 0 0 1-.012.036.288.288 0 0 0-.008.014v.007a.082.082 0 0 1-.01.043l-.013.092c-.009.055-.017.11-.017.168v.05c0 .059.008.113.017.169.004.03.01.06.013.091 0 .02 0 .03.01.05v.02l.09.21.01.015a.385.385 0 0 0 .06.075l.06.08.16.13c.08.05.14.07.22.09.09.02.18.03.27.04h.12c.054 0 .114-.01.172-.018l.078-.012c.02 0 .03 0 .05-.01a.877.877 0 0 0 .144-.054c.028-.012.056-.025.086-.036.01 0 .03-.01.04-.02.025-.012.05-.033.073-.051a.422.422 0 0 1 .037-.029.87.87 0 0 0 .11-.09c.052-.052.09-.104.131-.164l.019-.026c0-.004.003-.008.007-.013.006-.007.013-.015.013-.027v-.02c.02-.04.04-.089.06-.138l.007-.018a3.69 3.69 0 0 1 .023-.054l.003-.014.002-.006.001-.005a.772.772 0 0 0 .023-.164c0-.026.006-.05.01-.076a.386.386 0 0 0 .01-.075c0-.11-.02-.21-.04-.31 0-.04-.02-.08-.04-.12l-.016-.043a2.778 2.778 0 0 0-.072-.17.797.797 0 0 0-.181-.267l-.16-.13a.802.802 0 0 0-.4-.11h-.03a.908.908 0 0 0-.167.02Zm-2.443 9.4c-1.17.89-1.15 2.5-.5 3.71.056.102.122.204.188.305.135.207.272.417.332.645.05.203.033.43.016.65-.01.128-.02.253-.016.37.02.38.05.85.23 1.19.18.34.54.53.89.64.78.25 1.51-.14 1.84-.86.16-.34.21-.72.24-1.1.01-.18.02-.37.01-.55v-.2c0-.03-.003-.062-.005-.095l-.002-.023c.371-.427.559-1.013.607-1.582.05-.59.09-1.22-.08-1.79-.21-.71-.85-1.39-1.54-1.66-.702-.272-1.466-.113-2.082.275a.437.437 0 0 0-.148.075h.02Zm3.18 4.73.007-.007a.146.146 0 0 1-.007.007Zm-2.56-3.65a.898.898 0 0 0 .034-.026.872.872 0 0 0 .106-.074c.69-.54 1.65-.01 1.81.77.058.277.041.553.025.83-.01.15-.018.3-.015.45l-.025.1c-.008.033-.015.065-.025.1l-.016.067c-.044.19-.088.38-.204.523-.18.22-.31.41-.34.7-.016.155-.01.31-.002.464.005.134.011.266.002.396 0 .23-.01.9-.33.98-.044.008-.131-.028-.198-.055-.024-.01-.046-.02-.062-.025a.144.144 0 0 1-.055-.036c-.08-.209-.078-.51-.076-.742v-.102c0-.09.004-.18.008-.27.006-.18.013-.36-.007-.54-.04-.33-.17-.63-.33-.92l-.121-.211c-.23-.397-.448-.773-.5-1.249-.04-.37 0-.88.32-1.13Zm.694 5.149s.003.002.009.013c-.007-.007-.01-.014-.01-.014Zm.024.046a.69.69 0 0 0 .002.005l-.002-.006Zm18.319-4.922c-.348-.708-.753-1.533-1.457-1.933v-.01c-.61-.35-.06-1.3.56-.95.91.52 1.46 1.53 1.9 2.44.5 1.03.85 2.15.76 3.31-.02.3-.23.55-.55.55-.28 0-.57-.25-.55-.55.08-.96-.19-1.89-.61-2.75l-.053-.107ZM28.55 16.66c-.76-.79-2.19-.95-3.23-1.05-1.2-.11-2.45.05-3.51.64-1.86 1.03-3.35 2.97-3.27 5.16.02.71 1.12.71 1.1 0-.03-.82.17-1.51.6-2.22.49-.8 1.2-1.45 2.01-1.93.85-.5 1.81-.63 2.78-.58.51.03 1.01.11 1.5.23l.117.027h.002c.402.091.85.193 1.141.493.49.51 1.27-.27.78-.78l-.02.01Z M20.959 26.527c-.07.102-.142.206-.209.313h.03c-.38.59-1.33.04-.95-.56.059-.091.125-.18.192-.27.116-.154.232-.309.308-.48.13-.295.057-.635-.01-.949l-.03-.14c-.18-.88-.25-1.8-.23-2.7.03-1.68.98-3.17 2.47-3.94.77-.41 1.68-.72 2.56-.72 1.02 0 2.05.38 2.95.84 1.55.79 2.49 2.64 2.77 4.31.133.77.093 1.58.055 2.366a101.957 101.957 0 0 1-.015.303c-.05.94-.16 1.91-.41 2.82-.19.69-1.25.39-1.06-.29.25-.92.35-1.9.38-2.83l.01-.295v-.001c.031-.83.062-1.65-.18-2.464-.21-.71-.53-1.42-.97-2.02-.51-.69-1.26-1.06-2.06-1.34-.89-.32-1.71-.37-2.62-.09-.76.24-1.5.63-2.03 1.24-.94 1.08-.83 2.59-.68 3.92.025.206.066.413.107.62.091.464.183.93.093 1.4-.067.372-.266.66-.471.957Z M21.84 25.64v.01c.13-.28.51-.33.75-.2.12.06.21.2.25.33.04.15 0 .28-.06.42a3.357 3.357 0 0 1-.315.529 7.645 7.645 0 0 0-.237.361c-.107.166-.212.33-.328.49-.11.16-.25.3-.4.43-.17.16-.34.29-.55.38-.13.05-.3.01-.42-.06a.59.59 0 0 1-.25-.33c-.04-.13-.01-.3.06-.42.08-.13.19-.19.33-.25l-.077.026-.017.013-.016.011a.204.204 0 0 1 .017-.014l.008-.006.002-.001c-.056.018-.04.01-.01-.006l.043-.023.005-.003c.024-.021.047-.044.07-.067.027-.027.055-.055.085-.08.06-.05.11-.1.16-.15l.058-.059a.198.198 0 0 0 .022-.03c.14-.21.28-.42.42-.64l.1-.156c.109-.166.216-.33.3-.505Zm-.861 1.357a.092.092 0 0 0 .002-.004l-.003.004Zm1.754-2.953c.04.166.081.332.117.496l-.01-.01c.15.69-.91.98-1.06.29-.04-.18-.084-.36-.129-.54-.167-.677-.334-1.357-.271-2.1.08-.94.48-1.79 1.22-2.38.69-.55 1.46-.83 2.33-.9.8-.06 1.68.06 2.3.61.22.2.2.58 0 .78-.22.22-.56.2-.78 0-.36-.32-1.07-.33-1.59-.28-.24.02-.59.1-.86.21-.27.11-.52.28-.74.47-.51.45-.78 1.06-.78 1.74-.008.541.124 1.082.253 1.614Zm4.877-2.854c.354.339.456.774.56 1.224.025.108.05.217.08.326.175.623.135 1.277.096 1.92l-.016.27c-.07 1.29-.19 2.7-1.13 3.67-.49.51.28 1.29.78.78 1.17-1.2 1.37-2.86 1.46-4.45l.002-.03c.049-.869.095-1.68-.142-2.52a28.937 28.937 0 0 1-.063-.235c-.17-.642-.33-1.243-.847-1.725-.52-.48-1.3.29-.78.78v-.01Z M24.51 26.03c-.14 1.21-.76 2.29-1.8 2.95l.02-.01c-.61.38-1.16-.57-.56-.95.63-.4 1.05-1.06 1.21-1.79.19-.86-.02-1.68-.3-2.5-.23-.67-.39-1.41-.03-2.08.32-.6.96-.95 1.62-1.03.7-.08 1.5.08 2.07.51.5.38.78.97.91 1.57.23 1.1.23 2.31.07 3.42-.18 1.28-.74 2.41-1.41 3.5-.37.6-1.32.04-.95-.56.65-1.07 1.19-2.15 1.31-3.41.09-.9.1-1.94-.13-2.83-.16-.6-.5-.94-1.12-1.07-.49-.11-1.18-.06-1.43.46-.193.417.012.944.192 1.406.061.158.12.308.158.444.17.64.25 1.31.17 1.97Z M24.53 27.25s-.018.096-.012.142a.395.395 0 0 1-.018.068c-.02.1-.05.2-.09.3 0 .01-.01.033-.015.044l-.003.007.018-.03c.04-.08-.01.03-.02.04-.01.024-.023.047-.035.07a2.606 2.606 0 0 1-.205.35.228.228 0 0 1-.043.052l-.007.007c0 .01-.06.08-.02.02l.017-.026-.005.006a.374.374 0 0 1-.032.04.188.188 0 0 0-.012.013l-.003.004a.903.903 0 0 0-.01.013c-.008.01-.015.02-.025.03-.03.035-.063.07-.096.105l-.014.015c-.038.04-.075.08-.11.12-.16.16-.32.3-.5.44-.1.08-.16.26-.16.39s.06.3.16.39c.1.09.24.17.39.16.15 0 .27-.07.39-.16.82-.66 1.5-1.53 1.56-2.62.02-.29-.26-.56-.55-.55-.31.01-.53.24-.55.55v.01Zm.45-3.6c-.06-.24-.14-.48-.24-.71l.01.02c-.12-.29.12-.6.38-.68.31-.1.57.12.68.38.43 1.04.5 2.2.27 3.29-.07.3-.4.44-.68.38-.3-.07-.44-.4-.38-.68.005-.035.012-.07.02-.105.007-.035.015-.07.02-.105l.012-.08a.225.225 0 0 0-.002.01l.011-.118c.01-.084.019-.17.019-.252.02-.24.01-.48-.01-.72l-.004-.026a1.142 1.142 0 0 1-.016-.164l.006.034-.001-.01a.935.935 0 0 1-.015-.094c-.02-.13-.05-.25-.08-.37Z M18.22 6.49h-.058c-1.037.006-2.073-.008-3.108-.023-1.86-.026-3.717-.053-5.574.043-.256.012-.526.02-.805.028-1.302.039-2.793.083-3.905.602-1.22.57-1.206 1.736-1.193 2.9l.003.37c0 4.39-.01 8.77-.02 13.16v.03c0 2.24 0 4.48-.01 6.72 0 .146-.003.296-.007.448-.026 1.134-.054 2.347 1.357 2.532 1.427.191 2.947.144 4.436.099.692-.021 1.378-.042 2.044-.04 2.1.01 4.29.03 6.43.05h.005c4.369.03 8.737.06 13.095.1.535 0 1.07.006 1.605.01.536.006 1.07.01 1.605.01.088 0 .178.003.27.006.525.014 1.091.029 1.44-.405.29-.357.268-.859.248-1.302a10.053 10.053 0 0 1-.008-.228c-.01-1.14-.02-2.27-.04-3.41-.02-2.14-.042-4.28-.065-6.42-.022-2.14-.045-4.28-.065-6.42-.006-.613.014-1.248.035-1.893.047-1.513.096-3.071-.185-4.487-.34-1.7-1.67-2.22-3.25-2.33-3.167-.207-6.351-.182-9.533-.158-1.535.012-3.07.024-4.601.01a.894.894 0 0 0-.156-.012l.01.01Zm-3.186 1.566c1.015.015 2.03.03 3.044.025.039.005.08.008.122.009a371 371 0 0 0 4.835.01c2.053-.005 4.106-.01 6.155.03.79.02 1.57.04 2.36.07.127.004.275.002.435-.001.596-.01 1.353-.023 1.755.3.57.449.537 1.408.51 2.165-.006.172-.011.333-.01.476 0 .586.008 1.17.016 1.753-4.803.019-9.606.035-14.407.052h-.01c-4.914.017-9.828.034-14.739.053-.057-1.232-.11-2.49.06-3.648.18-1.237 2.635-1.252 4.067-1.26.247-.002.464-.003.633-.01 1.728-.074 3.452-.05 5.174-.024Zm4.763 6.49c4.828-.018 9.655-.034 14.48-.053l.048 4.751c.018 1.765.035 3.53.055 5.296l.06 5.35v.092c-.002.322-.009 1.37.004 1.948h-.613c-.57-.01-1.13-.02-1.7-.02-3.666-.025-7.333-.053-11-.08-3.668-.028-7.336-.055-11-.08-.82 0-1.65-.01-2.47-.02-.49 0-.99 0-1.48-.01 0 0-1.122-.02-1.049.073-.16-.167-.067-1.424-.017-2.092.015-.192.025-.336.025-.391v-2.99c0-3.81.01-7.63.02-11.44 0-.094 0-.188-.002-.282 4.88-.019 9.76-.036 14.638-.053h.002Z"/>
</svg>
