<svg xmlns="http://www.w3.org/2000/svg" width="40" height="40" fill="none" viewBox="0 0 40 40">
  <path class="display-icon__fill-2" fill="#B6E5FF" d="M21.01 39.32c-3.59-.08-6.58-1.15-8.66-4.06-1.5-2.1-2-4.52-1.93-7.05.07-2.66.76-5.13 2.61-7.14 2.48-2.7 5.66-3.47 9.18-3.15 3.27.3 6.01 1.69 7.63 4.62 2.19 3.98 2.18 8.11 0 12.08-1.58 2.86-4.25 4.22-7.44 4.6-.5.06-1.01.08-1.37.1h-.02Z"/>
  <path class="display-icon__fill-1" fill="#52B0FF" d="M.93 10.58c4.36-4.22 9.85-7.04 16.13-7.76 3.85-.44 7.33.74 10.54 2.73 4.14 2.56 7.65 5.84 10.59 9.72.13.17.22.38.37.65-2.09.46-4.1.9-6.11 1.34-1.82.4-3.63.81-5.46 1.18-.29.06-.7 0-.93-.17-3.23-2.5-6.76-2.32-9.73-.78-1.77.92-1.49 1.32-3.28.26-3.85-2.27-7.71-4.53-11.56-6.79-.14-.08-.28-.19-.56-.39v.01Z"/>
  <path class="display-icon__ink" fill="#1C1D1F" d="M25.437 16.482c.645-.81 1.29-1.621 1.933-2.432.27-.34.33-.8 0-1.13-.28-.28-.86-.34-1.13 0l-1.919 2.415a6.966 6.966 0 0 0-5.62-1.435c-3.204.577-5.487 3.47-5.55 6.67a1.034 1.034 0 0 0 0 .103c.061 2.839 1.806 5.353 4.46 6.357 2.67 1.01 5.84.16 7.64-2.04 1.8-2.2 2.1-5.4.62-7.87a6.793 6.793 0 0 0-.434-.638ZM17.67 20.78l1.63 2c.25.31.88.31 1.13 0 1.155-1.455 2.312-2.91 3.47-4.365l.51-.642a5.246 5.246 0 0 1 .09 5.537c-1.11 1.86-3.32 2.88-5.45 2.47-2.49-.48-4.26-2.64-4.3-5.16h.01c.03-2.17 1.37-4.18 3.44-4.93 1.74-.63 3.712-.272 5.135.885l-.569.715-2.908 3.658L18.8 19.65c-.27-.34-.85-.28-1.13 0-.33.33-.27.8 0 1.13Z M19.203 3.967a.608.608 0 0 1 .233-.394c.349-.426.963-.264 1.24.132.049.062.09.133.124.215.68 1.71 2.06 3.13 3.67 3.91 1.346.652 2.698.668 4.11.685.278.003.558.007.84.015 1.49.04 3.04.36 4.18 1.39 1.26 1.14 1.34 2.66 1.1 4.25-.94 6.21-3.29 12.41-7.31 17.28-1.71 2.08-4.47 5.15-7.36 4.94-2.89-.21-5.59-2.96-7.3-5.07-1.92-2.37-3.39-5.05-4.76-7.77-1.57-3.11-2.9-6.45-2.82-9.99.04-1.4.17-3.21 1.15-4.31.874-.982 2.235-1.127 3.484-1.26l.446-.05c3.236-.38 7.157-.855 8.973-3.973ZM13.6 9.11c-.686.124-1.396.182-2.108.24-1.072.089-2.148.177-3.152.49-1.82.56-1.66 3.53-1.54 5.03.26 3.31 1.75 6.33 3.27 9.23 1.34 2.57 2.82 5.12 4.81 7.24.98 1.06 2.09 2.01 3.35 2.74 1.77 1.03 3.17.78 4.74-.46 2.24-1.77 4.04-4 5.54-6.5s2.63-5.2 3.45-7.99c.45-1.51.8-3.01 1.08-4.61.28-1.6.4-3.08-1.23-3.9-1.019-.51-2.138-.493-3.255-.476-.199.003-.397.006-.595.006-1.31 0-2.56-.19-3.77-.7-1.825-.762-3.278-2.077-4.26-3.736C18.39 7.578 15.907 8.7 13.6 9.11Z"/>
</svg>
