<svg xmlns="http://www.w3.org/2000/svg" width="40" height="40" fill="none" viewBox="0 0 40 40">
  <path class="display-icon__fill-2" fill="#B6E5FF" d="m18.22.72 7.93 17.04s-7.54 2.43-9.37 5.01c-1.83 2.58-2.75 3.48-1.84 7.69L.76 22.45S.99 14 6.1 8.57C11.22 3.15 18.22.72 18.22.72Z"/>
  <path class="display-icon__fill-1" fill="#52B0FF" d="M14.09 35.59c1.7-1.57 3.4-3.03 4.97-4.63.92-.93 1.82-1.4 3.1-.93.26.1.57.06.85.07 1.47.02 2.48-.54 2.92-1.6.58-1.4.4-2.81-.71-3.75-.93-.79-2.02-1.37-3.04-2.05-.12-.08-.26-.15-.47-.26.85-.78 1.65-1.52 2.45-2.26 1.75-1.6 3.52-3.18 5.26-4.8.43-.4.75-.49 1.3-.2 1.92 1 3.02 2.39 4.56 3.93 2.31 2.32 3.88 4.82 3.44 8.02-.5 3.61-1.84 6.78-4.89 8.99-2.36 1.71-5.07 2.27-7.91 2.24-3.99-.03-7.79-1.01-11.44-2.56-.1-.04-.19-.11-.38-.22l-.01.01Z"/>
  <path class="display-icon__ink" fill="#1C1D1F" d="M25.39 7.5c.82-.07 1.64-.09 2.46-.05.42.02.82-.38.8-.8a.816.816 0 0 0-.8-.8c-.82-.04-1.64-.03-2.46.05-.22.02-.41.08-.57.23a.81.81 0 0 0-.23.57c.02.4.35.84.8.8Zm-10.003 5.831.673-.01c.33-.01.57.27.59.59.02.32-.28.59-.59.59l-.567.01c.16.137.322.27.488.4.21.16.16.51 0 .68-.19.21-.48.15-.68 0a11.99 11.99 0 0 1-.6-.498l.03.977c.01.32-.27.59-.59.59-.32 0-.59-.27-.59-.59l-.02-.664a34.12 34.12 0 0 1-.46.464c-.19.19-.49.17-.68 0-.19-.17-.18-.5 0-.68.214-.208.424-.419.632-.634l-.783.014c-.33.01-.57-.27-.59-.59-.02-.32.28-.59.59-.59l.595-.01a10.21 10.21 0 0 0-.395-.32c-.21-.16-.16-.51 0-.68.19-.21.48-.15.68 0 .112.086.221.174.328.264l-.018-.624c-.01-.32.27-.59.59-.59.32 0 .59.27.59.59l.021.725c.111-.134.22-.269.33-.404.16-.21.51-.16.68 0 .21.19.16.48 0 .68l-.254.31Zm-5.04.211.673-.012c.33-.01.57.27.59.59.02.32-.28.59-.59.59l-.567.01c.16.138.322.271.488.4.21.16.16.51 0 .68-.19.21-.48.15-.68 0a12.027 12.027 0 0 1-.6-.497l.03.977c.01.32-.27.59-.59.59-.32 0-.59-.27-.59-.59l-.02-.664a50.42 50.42 0 0 1-.46.464c-.19.19-.49.17-.68 0-.19-.17-.18-.5 0-.68.213-.208.424-.419.632-.634l-.783.014c-.33.01-.57-.27-.59-.59-.02-.32.28-.59.59-.59l.593-.01a9.349 9.349 0 0 0-.393-.32c-.21-.16-.16-.51 0-.68.19-.21.48-.15.68 0 .111.086.22.174.328.264l-.018-.624c-.01-.32.27-.59.59-.59.32 0 .59.27.59.59l.021.725.33-.405c.16-.21.51-.16.68 0 .21.19.16.48 0 .68-.085.105-.169.21-.254.312ZM21.102 15.5c-.19.21-.48.15-.68 0-.206-.16-.406-.325-.6-.497l.028.977c.01.32-.27.59-.59.59-.32 0-.59-.27-.59-.59l-.02-.664c-.152.156-.305.31-.46.464-.19.19-.49.17-.68 0-.19-.17-.18-.5 0-.68.215-.207.426-.419.633-.634l-.783.014c-.33.01-.57-.27-.59-.59-.02-.32.28-.59.59-.59l.594-.01c-.128-.11-.26-.216-.393-.32-.21-.16-.16-.51 0-.68.19-.21.48-.15.68 0 .111.086.22.175.329.265l-.02-.625c-.01-.32.27-.59.59-.59.32 0 .59.27.59.59l.023.725.328-.405c.16-.21.51-.16.68 0 .21.19.16.48 0 .68-.082.103-.166.205-.25.307l-.003.006.672-.013c.33-.01.57.27.59.59.02.32-.28.59-.59.59l-.567.01c.16.138.322.271.489.4.21.16.16.51 0 .68Zm5.338 17.33c1.03 0 1.03-1.6 0-1.6s-1.03 1.6 0 1.6Z M34.97 14.46c.007 1.885.027 3.77.058 5.654.057 3.948.114 7.906-.048 11.836-.09 2.14-1.78 3.11-3.76 3.36-1.92.243-3.913.18-5.877.117h-.02A91.676 91.676 0 0 0 23 35.37l-.43.001-.139.001c-1.773.015-3.702.031-4.36-1.972-.304-.925-.315-1.978-.325-2.97l-.002-.145a32.16 32.16 0 0 0-.004-.315c-.02-1.449.04-2.898.1-4.347v-.003a.903.903 0 0 1 .027-.19l-2.857-2.56c-.083-.077-.168-.163-.256-.252l-.006-.006c-.23-.232-.476-.478-.728-.622-.284-.162-.58-.154-.895-.144-.558.01-1.117.018-1.675.025l-.09.001c-1.096.015-2.193.03-3.29.078-.17.007-.338.015-.506.024l-.025.001c-.965.046-1.896.09-2.869-.045-.24-.03-.52-.32-.56-.56-.267-1.704-.252-3.442-.237-5.17l.002-.246a105.134 105.134 0 0 0-.002-2.537v-.004c-.016-1.763-.03-3.544.207-5.273.04-.25.32-.51.56-.56 1.096-.204 2.212-.23 3.32-.255.308-.007.614-.015.92-.025l5.402-.18h.008c.988-.032 1.978-.074 2.968-.116l.311-.014c.228-2.222 2.454-3.106 4.491-3.22 1.122-.063 2.26-.067 3.394-.07l.4-.002c.34-.002.679-.004 1.016-.008.363-.005.73-.019 1.099-.033h.002c1.066-.04 2.15-.08 3.19.083 4.167.653 3.985 5.516 3.851 9.092a44.81 44.81 0 0 0-.042 1.628ZM23.728 5.318H23.7c-1.638-.02-4.158-.053-4.524 1.607a96.079 96.079 0 0 1 4.575-.085c.44.005.795.36.8.8.007.307.015.613.025.92 2.903-.12 5.81-.135 8.714-.047-.177-1.668-.832-3.079-2.76-3.243-1.398-.118-2.837-.062-4.26-.007h-.01c-.628.024-1.252.047-1.87.057-.192.004-.416.001-.66-.002ZM17.59 23.02c.833.74 1.66 1.484 2.49 2.229h.001l.22.197a49.522 49.522 0 0 0-.22-4.916c-.048-.482.278-.736.65-.766a.905.905 0 0 1 .16-.014h1.68c.085-.002.171-.007.257-.015h.01c.182-.014.379-.03.53.004l.022-.109c-.07-.466-.055-.968-.04-1.463.01-.28.017-.559.01-.827-.02-.696-.05-1.392-.08-2.088v-.012c-.037-.85-.079-1.698-.122-2.546-.07-1.42-.142-2.842-.186-4.265-1.865.01-3.729.087-5.59.165-.905.038-1.809.076-2.713.106l-5.21.18c-.39.013-.786.017-1.184.021h-.006c-.9.01-1.811.018-2.698.138-.15 1.423-.126 2.896-.1 4.343v.01c.01.54.02 1.078.02 1.608 0 .448-.008.9-.015 1.353v.015c-.02 1.353-.04 2.722.115 4.06.743.046 1.562-.007 2.368-.06h.012c.427-.028.853-.056 1.26-.068.9-.03 1.81-.05 2.71-.05a13 13 0 0 0 .606-.028h.016l.02-.002c.521-.03 1.059-.062 1.537.05.541.128.94.484 1.341.843l.11.097c.403.356.802.715 1.201 1.074l.818.736ZM32.1 33.47c1.272-.466 1.271-1.414 1.27-2.594v-.593a306.787 306.787 0 0 0-14.034-.047c-.009.816-.01 1.672.194 2.424.318 1.157 1.348 1.136 2.348 1.115l.098-.002.293-.003c1.22.01 2.44.02 3.66.02.494.007.987.023 1.48.05h.006c1.582.073 3.279.151 4.685-.37Zm1.27-20.033.003-.232c.02-1.03.02-2.06 0-3.089a121.266 121.266 0 0 0-8.737.041c.038.874.082 1.747.127 2.62v.005c.075 1.392.137 2.785.186 4.178.03.89.06 1.78.04 2.67v.063c-.009.54-.018 1.07-.499 1.417-.379.272-.88.258-1.342.245h-.01a8.895 8.895 0 0 0-.278-.006h-1.11c.152 1.95.189 3.906.11 5.86a.814.814 0 0 1-1.37.57l-1.094-.98a93.42 93.42 0 0 0-.05 1.837c4.674-.091 9.35-.076 14.024.047V27.56c-.01-4.199-.01-8.398-.01-12.598v-.002c0-.506.005-1.014.01-1.523Z"/>
</svg>
