<svg xmlns="http://www.w3.org/2000/svg" width="40" height="40" fill="none" viewBox="0 0 40 40">
  <path class="display-icon__fill-2" fill="#B6E5FF" d="M21.01 39.32c-3.59-.08-6.58-1.15-8.66-4.06-1.5-2.1-2-4.52-1.93-7.05.07-2.66.76-5.13 2.61-7.14 2.48-2.7 5.66-3.47 9.18-3.15 3.27.3 6.01 1.69 7.63 4.62 2.19 3.98 2.18 8.11 0 12.08-1.58 2.86-4.25 4.22-7.44 4.6-.5.06-1.01.08-1.37.1h-.02Z"/>
  <path class="display-icon__fill-1" fill="#52B0FF" d="M.93 10.58c4.36-4.22 9.85-7.04 16.13-7.76 3.85-.44 7.33.74 10.54 2.73 4.14 2.56 7.65 5.84 10.59 9.72.13.17.22.38.37.65-2.09.46-4.1.9-6.11 1.34-1.82.4-3.63.81-5.46 1.18-.29.06-.7 0-.93-.17-3.23-2.5-6.76-2.32-9.73-.78-1.77.92-1.49 1.32-3.28.26-3.85-2.27-7.71-4.53-11.56-6.79-.14-.08-.28-.19-.56-.39v.01Z"/>
  <path class="display-icon__ink" fill="#1C1D1F" d="m9.315 6.751-.023 1.06c-.929-.007-1.856-.013-2.782-.021-1.03 0-1.03 1.59 0 1.6.917.008 1.834.014 2.75.02-.017 1.01-.03 2.021-.03 3.03 0 1.03 1.6 1.03 1.6 0 0-1.005.014-2.012.033-3.02.927.006 1.853.012 2.777.02 1.03 0 1.03-1.59 0-1.6-.915-.008-1.83-.014-2.744-.02l.006-.252c.017-.81.035-1.62.049-2.428.02-1.03-1.58-1.03-1.6 0l-.036 1.611ZM28.22 13.47c.015 1.35.038 2.7.07 4.05.02 1.03 1.62 1.03 1.6 0a293.781 293.781 0 0 1-.069-4.037c1.36.008 2.72.011 4.079.007 1.03 0 1.03-1.6 0-1.6-1.363 0-2.727-.004-4.092-.011-.008-1.42-.006-2.84.002-4.259 0-1.03-1.59-1.03-1.6 0-.008 1.416-.01 2.832-.002 4.248a561.753 561.753 0 0 1-4.068-.048c-1.03-.02-1.03 1.58 0 1.6 1.359.02 2.72.038 4.08.05ZM14.477 26.63l.858-.012.06 1.462c.063 1.507.125 3.014.205 4.52.09 1.57.61 3.47 2.49 3.6 1.88.13 2.27-2.06 2.43-3.52.191-1.766.141-3.628.093-5.443l-.015-.579c.937.003 1.872-.015 2.802-.038.35-.006.706 0 1.063.008.743.015 1.49.03 2.207-.078 1.63-.26 3.49-1.13 3.27-3.07-.19-1.68-1.89-1.98-3.28-2.03a92.452 92.452 0 0 0-2.664-.045l-.666-.005c-.36-.003-.737.013-1.117.029-.584.024-1.174.049-1.727.005-.005-.297.022-.62.049-.933.02-.248.042-.49.045-.71.02-.88.03-1.75.01-2.63-.003-.202 0-.423.001-.659.014-1.48.032-3.516-1.081-4.422-1.29-1.05-3.42-.23-3.85 1.32-.251.901-.23 1.96-.21 2.963.008.356.015.705.01 1.037-.025 1.36-.022 2.72.003 4.075-.49-.006-.98-.016-1.471-.026-1.536-.03-3.077-.062-4.592.031-1.49.09-3.24.78-3.4 2.5-.17 1.87 1.71 2.57 3.24 2.63 1.733.069 3.489.044 5.232.02h.005Zm1.613-1.62c-.954.007-1.907.005-2.858.002h-.003l-1.419-.002c-.097 0-.247.006-.433.014-1.287.054-4.307.18-3.687-1.184.435-.96 2.185-.863 3.362-.797.256.014.486.027.669.027 1.52 0 3.04 0 4.559.01.42 0 .81-.37.8-.8-.06-2.37-.05-4.74.05-7.1.005-.116.004-.24.003-.367-.004-.688-.008-1.472.827-1.573.75-.092.849.717.923 1.33l.017.14c.15 1.174.129 2.395.108 3.587L19 18.77c-.003.358-.027.73-.051 1.105-.046.717-.093 1.45 0 2.136-.052.384.139.809.561.89.92.172 1.94.144 2.928.117.441-.012.876-.024 1.292-.018.82.01 1.63.02 2.45.04.094 0 .198-.002.307-.005.483-.013 1.078-.029 1.453.175 1.01.55-.02 1.34-.71 1.57-.74.24-1.45.24-2.22.23-.716 0-1.434.012-2.152.024-1.027.017-2.054.034-3.078.016-.43 0-.81.37-.8.8.02.936.01 1.868 0 2.798-.005.531-.01 1.062-.01 1.592a14.255 14.255 0 0 0 .001.167c.01.988.042 4.597-1.061 4.073-.878-.41-.835-2.218-.805-3.422.007-.29.013-.546.005-.738-.07-1.5-.14-3.01-.2-4.51a.773.773 0 0 0-.229-.54.725.725 0 0 0-.591-.26Z"/>
</svg>
