<svg xmlns="http://www.w3.org/2000/svg" width="40" height="40" fill="none" viewBox="0 0 40 40">
  <path class="display-icon__fill-2" fill="#B6E5FF" d="M19.74 38.79c-3.15.05-6.3.02-9.36-.83-1.21-.33-2.36-.81-3.32-1.64-1.46-1.26-1.82-2.94-1.8-4.76.03-2.84 1.46-4.66 4.08-5.64 2.11-.78 4.32-1.06 6.55-1.19 3.62-.22 7.23-.23 10.83.3 1.64.24 3.25.62 4.71 1.45 1.68.96 2.59 2.42 2.72 4.32.06.93.02 1.89-.17 2.8-.4 1.96-1.77 3.1-3.54 3.84-2.26.94-4.66 1.18-7.07 1.33-1.2.08-2.41.02-3.62.03l-.01-.01Z"/>
  <path class="display-icon__fill-1" fill="#52B0FF" d="m35.83 6.35-6.16 18.77s-7.81-1.81-11.48-1.5c-3.67.31-7.13.27-10.24 2.13L3.2 9.5s6.77-7.81 15.64-8.3c10.24-.57 17 5.15 17 5.15h-.01Z"/>
  <path class="display-icon__ink" fill="#1C1D1F" d="M18.603 9.624A3.42 3.42 0 0 0 17.34 8.9c-.52-.16-1.08-.18-1.61-.08-.53.1-.97.49-1.33.91-1.6 1.87-.32 4.52 1.15 6.04a7.382 7.382 0 0 0 2.744 1.79c.215.137.495.166.785-.01 1.11-.68 2.13-1.52 2.96-2.52.42-.5.86-1.03 1.12-1.63.28-.63.36-1.32.27-2.01-.08-.65-.29-1.35-.75-1.83-.5-.52-1.26-.75-1.97-.76a2.991 2.991 0 0 0-2.106.824Zm-.015 6.345c-1.487-.617-2.836-1.99-3.258-3.54-.11-.39-.13-.93.03-1.32.12-.29.46-.7.79-.75.56-.09 1.66.26 1.66.97 0 1.017 1.557 1.03 1.6.042.18-.686.798-1.082 1.54-.95.33.06.59.18.73.5.17.39.24.87.18 1.29-.11.83-.814 1.572-1.372 2.159l-.019.02a10.492 10.492 0 0 1-1.881 1.58Zm9.33 5.42A4.051 4.051 0 0 0 26.2 20.34c-.63-.2-1.32-.23-1.96-.1-.68.13-1.18.6-1.62 1.12-1.98 2.32-.31 5.63 1.49 7.5a9.27 9.27 0 0 0 3.72 2.353c.317.095.572-.01.734-.204A15.261 15.261 0 0 0 32.2 27.87c.53-.63 1.08-1.31 1.42-2.07.34-.76.43-1.62.32-2.45-.1-.79-.35-1.65-.91-2.23-.61-.63-1.53-.9-2.38-.91-1.047-.012-2.06.43-2.73 1.179Zm-.021 8.15c-2.027-.814-3.878-2.67-4.447-4.779-.15-.56-.18-1.34.06-1.89.19-.43.68-1 1.16-1.08.848-.143 2.305.35 2.44 1.332v.138c0 1.027 1.59 1.03 1.6.01h.01v-.042c.255-.992 1.176-1.558 2.23-1.398.53.08.96.31 1.17.82.23.54.32 1.19.24 1.77-.15 1.14-1.1 2.16-1.86 2.96a13.803 13.803 0 0 1-2.603 2.16Zm-15.424 1.796c1.213-.757 2.329-1.692 3.248-2.795.47-.56.97-1.17 1.26-1.84.29-.67.39-1.46.29-2.22-.09-.71-.32-1.49-.83-2.02-.55-.57-1.39-.82-2.17-.83a3.302 3.302 0 0 0-2.404.987 3.733 3.733 0 0 0-1.486-.887c-.57-.18-1.19-.21-1.78-.09-.59.12-1.07.55-1.47 1.01-1.79 2.09-.32 5.06 1.32 6.75a8.294 8.294 0 0 0 3.16 2.048.697.697 0 0 0 .29.083.646.646 0 0 0 .572-.196Zm-1.403-7.06-.01-.005v.13c0 1.008 1.533 1.03 1.599.064l.001-.006.011-.048h.01v-.038c.222-.823.985-1.282 1.87-1.142.43.07.76.24.94.65.2.46.28 1.03.21 1.53-.129.979-.94 1.84-1.597 2.535l-.023.025a12.2 12.2 0 0 1-2.23 1.863c-1.743-.712-3.34-2.32-3.83-4.143-.13-.47-.15-1.13.05-1.59.15-.36.57-.84.97-.91.682-.114 1.904.285 2.03 1.085Z M19.119 5.47h.021a.908.908 0 0 1 .131.003c3.168.095 5.81 2.422 6.47 5.447.447 2.052.144 4.1-.898 5.81a11.79 11.79 0 0 1 3.234-.66.882.882 0 0 1 .194-.02h.01a.921.921 0 0 1 .129.003c3.798.105 6.95 2.901 7.75 6.517.81 3.66-.4 7.33-3.56 9.63-3.16 2.3-7.89 1.9-10.8-.45-1.025-.828-1.798-1.908-2.305-3.112-.565 1.513-1.572 2.87-3.015 3.922-2.95 2.15-7.37 1.77-10.09-.43-2.72-2.2-3.53-6.29-2.14-9.55 1.39-3.26 4.77-4.96 8.19-5.12l-.01.01a.898.898 0 0 1 .128.003h.014l.063.002c-1.55-2.057-1.876-5.01-.835-7.435 1.24-2.887 4.212-4.406 7.247-4.566a.951.951 0 0 1 .072-.004Zm.02 1.6c-2.82.12-5.499 1.7-6.179 4.57-.53 2.22.35 4.99 2.39 6.15 2.39 1.36 5.34 1.19 7.29-.81 1.69-1.73 2.12-4.25 1.31-6.51a5.156 5.156 0 0 0-4.811-3.4Zm-.95 13.18a7.85 7.85 0 0 1 1.117 1.787 8.152 8.152 0 0 1 1.011-1.966 7.75 7.75 0 0 1-2.128.179Zm2.392 3.1c-.66 2.79.43 6.25 2.99 7.7 2.98 1.69 6.66 1.48 9.1-1.02 2.1-2.16 2.65-5.3 1.64-8.11-.92-2.558-3.326-4.237-6.032-4.27-3.51.16-6.849 2.13-7.698 5.7Zm-15.24.97c-.61 2.56.4 5.74 2.75 7.08 2.75 1.55 6.14 1.36 8.38-.94 1.94-1.99 2.44-4.88 1.51-7.47a5.945 5.945 0 0 0-5.55-3.92c-3.24.15-6.31 1.96-7.09 5.25Z"/>
</svg>
