<svg xmlns="http://www.w3.org/2000/svg" width="40" height="40" fill="none" viewBox="0 0 40 40">
  <path class="display-icon__fill-2" fill="#B6E5FF" d="M19.61 20.63c4.07-.08 8.15-.05 12.12 1.03 1.57.43 3.05 1.03 4.31 2.11 1.89 1.63 2.37 3.8 2.36 6.16-.02 3.68-1.86 6.04-5.25 7.31-2.73 1.02-5.59 1.39-8.46 1.58-4.68.3-9.36.33-14.01-.33-2.13-.3-4.21-.78-6.1-1.85-2.18-1.23-3.37-3.12-3.54-5.58-.08-1.2-.03-2.45.2-3.62.51-2.54 2.28-4.02 4.57-4.98 2.92-1.23 6.03-1.55 9.14-1.76 1.55-.1 3.12-.04 4.68-.05l-.02-.02Z"/>
  <path class="display-icon__fill-1" fill="#52B0FF" d="m32.09 4.27-4.1 16.08s-6.45-3.43-9.33-2.98c-2.88.45-4.99 1.65-7.51 2.87L8.59 6.55s5.74-5.27 12.62-5.36c6.87-.1 10.89 3.08 10.89 3.08h-.01Z"/>
  <path class="display-icon__ink" fill="#1C1D1F" d="M13.57 34.486c-.274.817-.836 1.458-1.87 1.664-.547.108-1.107.075-1.665.042-.27-.016-.538-.032-.805-.032-.45-.005-.903.01-1.355.026-.503.017-1.005.034-1.505.024-1.45-.04-2.56-.64-2.73-2.22-.149-1.435-.147-2.906-.146-4.37.001-.71.002-1.418-.014-2.12-.05-2.15-.09-4.3-.02-6.45.005-.209.004-.44.002-.684-.011-1.44-.026-3.333 1.488-3.786.66-.198 1.434-.165 2.17-.133.267.012.53.023.78.023l.78-.009c.78-.01 1.56-.019 2.34-.011 1.094.017 2.416.466 2.567 1.555a10.872 10.872 0 0 0 4.193-3.875c.712-1.136 1.044-2.375 1.378-3.62.225-.837.45-1.677.792-2.49l.143-.346.021-.052c.508-1.244 1.212-2.97 2.426-3.492 1.23-.52 2.66.29 3.38 1.29 1.81 2.53.8 5.89-.68 8.25-.24.39-.47.79-.67 1.21.05-.11-.35.69-.3.79.11.23.719.293 1.028.325a4.431 4.431 0 0 1 .132.015c.972.117 1.993.096 2.974.076h.062l.264-.006c.382-.006.777-.029 1.18-.052 1.526-.088 3.149-.181 4.47.602 1.22.72 2.07 2.19 1.57 3.63-.284.817-.922 1.326-1.666 1.66 1.117.84 1.845 1.968 1.216 3.54-.464 1.173-1.227 1.877-2.217 2.21.836 1.472.204 3.502-1.39 4.24.543 1.216.279 2.79-.973 3.54-.92.552-2.276.483-3.505.42-.506-.026-.991-.05-1.415-.03-.506.025-1.003.06-1.494.093-1.635.112-3.214.22-4.906-.003-2.023-.267-4.106-.72-6.03-1.444Zm.016-14.723c.06 2.219.084 4.44.107 6.663.021 2.1.043 4.202.097 6.304l.002.137c2.895 1.14 6.243 1.817 9.338 1.623.451-.028.9-.06 1.347-.092 1.141-.082 2.277-.164 3.433-.178.163-.003.355.007.56.017.51.024 1.097.053 1.49-.097.81-.32.75-1.64.1-2.05-.65-.41-.43-1.51.4-1.49 1.82.05 2.14-2.1.57-2.8-.74-.33-.35-1.52.4-1.49 1.02.04 1.81-.05 2.36-1 .904-1.569-.697-2.349-1.884-2.928l-.026-.012c-.61-.29-.47-1.33.19-1.46l.169-.031h.002c.79-.146 1.909-.352 2.17-1.189.36-1.17-1.06-1.88-1.99-2.02-1.206-.184-2.475-.121-3.739-.059-.864.043-1.725.086-2.562.05-.142-.007-.296-.01-.455-.013-1.163-.021-2.677-.05-2.985-1.368-.27-1.152.592-2.5 1.191-3.438l.06-.092c.79-1.23 1.28-2.31 1.31-3.82.02-.73-.06-1.52-.39-2.19-.27-.54-1.02-1.4-1.72-1.12-.422.164-.765.95-1.009 1.51-.068.158-.13.297-.182.4-.4.77-.74 1.55-.98 2.38-.117.402-.22.801-.322 1.198-.281 1.094-.557 2.164-1.108 3.192-1.313 2.445-3.44 4.33-5.944 5.462Zm-1.613-1.446c-.017-.317-1.693-.26-2.213-.241l-.14.004h-.03c-.86.01-1.71.02-2.57.02-.125 0-.256-.008-.39-.015-.277-.016-.565-.032-.82.015-.51.09-.62.31-.66.82-.07.89-.1 1.79-.12 2.68-.054 2.437.01 4.867.075 7.301.019.733.038 1.466.055 2.199.008.328.01.658.01.988.003.495.006.99.03 1.482.04.65.18.99.83 1.04.74.053 1.482.03 2.223.007a24.57 24.57 0 0 1 1.976-.007l.226.012c.498.03 1.119.068 1.464-.312.361-.394.305-1.164.262-1.753-.01-.13-.018-.25-.021-.357-.04-1.51-.07-3.01-.08-4.52-.007-.702-.013-1.405-.018-2.108a286.81 286.81 0 0 0-.106-6.817.77.77 0 0 1 .002-.36.771.771 0 0 1 .015-.078Z"/>
</svg>
