<svg xmlns="http://www.w3.org/2000/svg" width="40" height="40" fill="none" viewBox="0 0 40 40">
  <path class="display-icon__fill-2" fill="#B6E5FF" d="M20.22 20.18c-.08-4.07-.05-8.15 1.03-12.12.43-1.57 1.03-3.05 2.11-4.31 1.63-1.89 3.8-2.37 6.16-2.36 3.68.02 6.04 1.86 7.31 5.25 1.02 2.73 1.39 5.59 1.58 8.46.3 4.68.33 9.36-.33 14.01-.3 2.13-.78 4.21-1.85 6.1-1.23 2.18-3.12 3.37-5.58 3.54-1.2.08-2.45.03-3.62-.2-2.54-.51-4.02-2.28-4.98-4.57-1.23-2.92-1.55-6.03-1.76-9.14-.1-1.55-.04-3.12-.05-4.68l-.02.02Z"/>
  <path class="display-icon__fill-1" fill="#52B0FF" d="m3.86 7.7 16.08 4.1s-3.43 6.45-2.98 9.33c.45 2.88 1.65 4.99 2.87 7.51L6.14 31.2S.87 25.46.78 18.58C.68 11.71 3.86 7.69 3.86 7.69v.01Z"/>
  <path class="display-icon__ink" fill="#1C1D1F" d="M34.506 26.28c.818.273 1.459.836 1.664 1.87.108.546.075 1.106.042 1.665-.016.269-.032.538-.032.805-.004.45.011.902.027 1.354.017.503.034 1.006.023 1.506-.04 1.45-.64 2.56-2.22 2.73-1.434.148-2.905.147-4.37.145-.71 0-1.418-.001-2.12.015-2.15.05-4.3.09-6.45.02-.208-.006-.44-.004-.683-.002-1.44.011-3.333.026-3.787-1.488-.198-.66-.164-1.434-.133-2.17.012-.267.023-.53.023-.78l-.008-.78c-.01-.78-.02-1.56-.012-2.34.017-1.094.466-2.415 1.554-2.567a10.874 10.874 0 0 0-3.874-4.193c-1.136-.711-2.376-1.044-3.62-1.378-.838-.224-1.678-.45-2.49-.792a45.975 45.975 0 0 0-.398-.163c-1.244-.508-2.97-1.213-3.492-2.427-.52-1.23.29-2.66 1.29-3.38 2.53-1.81 5.89-.8 8.25.68.39.24.79.47 1.21.67-.11-.05.69.35.79.3.229-.11.292-.718.325-1.028l.002-.02.013-.112c.117-.972.096-1.992.076-2.974l-.006-.326a29.07 29.07 0 0 0-.053-1.179c-.088-1.527-.181-3.149.603-4.47.72-1.22 2.19-2.07 3.63-1.57.817.283 1.325.921 1.66 1.665.84-1.116 1.967-1.845 3.54-1.216 1.172.464 1.876 1.227 2.21 2.217 1.472-.835 3.502-.204 4.239 1.39 1.216-.543 2.79-.278 3.54.973.553.92.483 2.277.42 3.505-.025.507-.05.992-.03 1.415.026.507.06 1.003.094 1.495.111 1.635.22 3.214-.003 4.905-.267 2.023-.72 4.106-1.444 6.03Zm-14.724-.017c2.22-.06 4.441-.083 6.664-.106 2.1-.022 4.203-.044 6.304-.097l.137-.002c1.14-2.895 1.816-6.242 1.623-9.338-.029-.45-.06-.9-.093-1.347-.082-1.14-.163-2.277-.177-3.433a8.907 8.907 0 0 1 .016-.559c.025-.51.054-1.098-.096-1.49-.32-.81-1.64-.75-2.05-.1-.41.65-1.51.43-1.49-.4.05-1.82-2.1-2.14-2.8-.57-.33.74-1.52.35-1.49-.4.04-1.02-.05-1.81-1-2.36-1.57-.904-2.35.696-2.928 1.884l-.012.025c-.29.61-1.33.47-1.46-.19l-.032-.17c-.145-.791-.351-1.91-1.188-2.17-1.17-.36-1.88 1.06-2.02 1.99-.184 1.206-.122 2.475-.06 3.738.044.864.086 1.726.05 2.562-.006.143-.01.296-.012.456-.022 1.163-.05 2.677-1.368 2.984-1.152.271-2.5-.591-3.438-1.19l-.092-.06c-1.23-.79-2.31-1.28-3.82-1.31-.73-.02-1.52.06-2.19.39-.54.27-1.4 1.02-1.12 1.72.164.422.95.764 1.51 1.009.157.068.297.129.4.181.77.4 1.55.74 2.38.98.401.117.8.22 1.197.322 1.094.282 2.165.558 3.193 1.108 2.445 1.313 4.328 3.44 5.462 5.943Zm-1.444 1.613c-.318.018-.26 1.693-.242 2.214a8.48 8.48 0 0 0 .004.14v.03c.01.86.02 1.71.02 2.57 0 .124-.007.256-.015.39-.015.277-.032.564.015.82.09.51.31.62.82.66.89.07 1.79.1 2.68.12 2.437.054 4.868-.01 7.302-.075.732-.02 1.465-.039 2.198-.055.328-.008.658-.01.988-.011.495-.002.99-.005 1.482-.029.65-.04.99-.18 1.04-.83.053-.741.03-1.482.008-2.223-.02-.66-.04-1.318-.008-1.977l.012-.225c.03-.498.069-1.12-.312-1.465-.393-.36-1.163-.305-1.753-.262-.13.01-.25.019-.357.022-1.51.04-3.01.07-4.52.08-.702.007-1.405.012-2.108.018-2.272.017-4.547.034-6.816.106a.771.771 0 0 1-.361-.002.8.8 0 0 1-.077-.016Z"/>
</svg>
