<svg xmlns="http://www.w3.org/2000/svg" width="40" height="40" fill="none" viewBox="0 0 40 40">
  <path class="display-icon__fill-2" fill="#B6E5FF" d="M19.61 19.57c4.07.08 8.15.05 12.12-1.03 1.57-.43 3.05-1.03 4.31-2.11 1.89-1.63 2.37-3.8 2.36-6.16-.02-3.68-1.86-6.04-5.25-7.31-2.73-1.02-5.59-1.39-8.46-1.58-4.68-.3-9.36-.33-14.01.33-2.13.3-4.21.78-6.1 1.85C2.4 4.79 1.21 6.68 1.04 9.14c-.08 1.2-.03 2.45.2 3.62.51 2.54 2.28 4.02 4.57 4.98 2.92 1.23 6.03 1.55 9.14 1.76 1.55.1 3.12.04 4.68.05l-.02.02Z"/>
  <path class="display-icon__fill-1" fill="#52B0FF" d="m32.09 35.93-4.1-16.08s-6.45 3.43-9.33 2.98c-2.88-.45-4.99-1.65-7.51-2.87L8.59 33.65s5.74 5.28 12.61 5.37c6.87.1 10.89-3.08 10.89-3.08v-.01Z"/>
  <path class="display-icon__ink" fill="#1C1D1F" d="M13.717 22.182c-.076.474-.35.9-.787 1.178-.664.426-1.502.402-2.29.38-.173-.005-.344-.01-.51-.01-.58 0-1.157-.005-1.735-.01a200 200 0 0 0-1.735-.01h-.208c-.806.006-1.68.012-2.242-.66-.48-.586-.51-1.423-.537-2.166l-.013-.314c-.05-1.01-.08-2.03-.09-3.04-.02-2.15.04-4.3.1-6.45l.003-.085c.029-1.112.058-2.214.077-3.325.004-.16.004-.325.003-.492-.004-.656-.008-1.346.287-1.928.699-1.388 2.212-1.32 3.577-1.257l.413.017c.565.018 1.126 0 1.687-.016.394-.012.788-.024 1.183-.024.65 0 1.32.08 1.88.44.508.323.806.772.976 1.283 1.911-.712 3.988-1.159 5.974-1.423 1.643-.219 3.206-.113 4.81-.005.524.035 1.053.07 1.59.095.423.02.907-.004 1.413-.03 1.226-.063 2.58-.132 3.507.42 1.25.75 1.51 2.322.97 3.538 1.6.736 2.231 2.77 1.396 4.242.985.332 1.744 1.033 2.214 2.21.622 1.573-.105 2.707-1.221 3.547.902.41 1.643 1.07 1.79 2.173.24 1.79-1.3 3.21-2.92 3.59-1.314.307-2.727.23-4.12.153-.738-.04-1.47-.08-2.18-.063-.175.006-.362.004-.553.002-.448-.005-.92-.01-1.326.088-.9.216-.67.628-.357 1.182.048.086.098.175.147.268.209.399.453.777.697 1.155.129.2.258.4.383.605 1.35 2.23 1.69 6.35-.64 8.11-3.15 2.38-4.97-2.27-5.7-4.64-.133-.433-.25-.858-.366-1.276-.405-1.468-.787-2.851-1.744-4.174a10.83 10.83 0 0 0-3.803-3.278Zm-1.615-.456a.758.758 0 0 1 .003-.235c.076-2.244.093-4.491.11-6.737.01-1.149.019-2.297.035-3.444a41.78 41.78 0 0 1 .064-1.605c.052-.996.104-2.002.026-2.975-.106-1.31-1.257-1.22-2.296-1.138a9.447 9.447 0 0 1-.664.038c-.425.005-.847-.01-1.27-.024a30.857 30.857 0 0 0-1.09-.026 7.193 7.193 0 0 1-.226-.01c-.413-.024-.946-.054-1.214.23-.322.353-.28 1.134-.246 1.74.01.186.019.354.016.49-.01.761-.029 1.512-.048 2.273l-.002.057-.011.407c-.087 3.033-.173 6.059-.049 9.093.006.13.003.284 0 .448-.013.708-.03 1.623.61 1.802.436.125 1.011.086 1.543.05.236-.015.464-.03.667-.03.75.01 1.5.02 2.25.02l.11.004c.399.015 1.647.064 1.722-.222a.783.783 0 0 1-.04-.206Zm1.633-1.278c2.877 1.305 5.248 3.603 6.455 6.552.302.738.491 1.506.68 2.273.206.834.41 1.666.76 2.457.33.75.71 1.51 1.14 2.22.46.75 1.08.83 1.75.18 1.08-1.04.98-3.07.67-4.4-.196-.836-.632-1.527-1.074-2.225a15.423 15.423 0 0 1-.616-1.035c-.49-.94-1.17-2.34-.29-3.27.796-.846 2.598-.775 3.925-.722.29.011.556.022.785.022.488-.003 1.025.04 1.581.083 1.368.107 2.845.223 3.969-.303.9-.43 1.64-1.58.66-2.36-.455-.357-1.132-.483-1.713-.59l-.207-.04c-.66-.13-.79-1.17-.19-1.46l.025-.012c1.187-.579 2.788-1.36 1.885-2.928-.55-.95-1.35-1.04-2.36-1-.75.03-1.14-1.16-.4-1.49 1.57-.7 1.24-2.85-.57-2.8-.82.02-1.04-1.08-.4-1.49.7-.45.69-1.73-.13-2.05-.421-.163-1.072-.129-1.624-.1-.196.01-.38.02-.536.02-1.119-.014-2.222-.096-3.331-.177-.439-.032-.878-.065-1.32-.093-3.09-.193-6.411.477-9.296 1.607-.002.35-.021.702-.04 1.04-.014.243-.027.48-.033.703-.044 1.849-.059 3.7-.074 5.55a334.105 334.105 0 0 1-.08 5.838Z"/>
</svg>
