<svg xmlns="http://www.w3.org/2000/svg" width="40" height="40" fill="none" viewBox="0 0 40 40">
  <path class="display-icon__fill-2" fill="#B6E5FF" d="M34.44 4.81 29.6 20.55s-3.69-3.86-9.43-3.73c-5.75.14-7.47 1.48-10.16 4.16L6.17 5.03S12.62-.1 20.2.43c7.58.53 14.24 4.39 14.24 4.39v-.01Z"/>
  <path class="display-icon__fill-1" fill="#52B0FF" d="M32.26 39.39H9.49c-.03-.16-.07-.29-.07-.42 0-3.6-.08-7.2.07-10.79.06-1.55.41-3.15.95-4.61 1.19-3.21 3.73-4.79 7.06-5.12 4.22-.42 8.11.3 11.1 3.64 1.72 1.92 2.57 4.27 3.09 6.74.74 3.46.59 6.97.57 10.56Z"/>
  <path class="display-icon__ink" fill="#1C1D1F" d="M13.462 8.568c-.447-.002-.894-.004-1.343-.008-.44 0-.78.37-.8.8a61.064 61.064 0 0 0-.039 2.005l-.24.005a48.98 48.98 0 0 1-.78.01c-1.052.005-2.158.012-3.15.3-2.05.59-2.78 2.78-3.09 4.68-.353 2.204-.283 4.49-.214 6.75.025.805.05 1.606.055 2.4l.01 1.615c.015 2.692.03 5.383.08 8.075.004.211.075.38.184.504a.73.73 0 0 0 .616.296l-.01.01c5.13.015 10.262.027 15.395.04 5.132.012 10.265.025 15.395.04.42 0 .82-.37.8-.8-.12-3.403-.021-6.806.079-10.21.049-1.666.098-3.333.12-5 .006-.305.017-.62.028-.94.06-1.723.127-3.604-.767-5.08-.97-1.6-2.69-2.39-4.49-2.57-.712-.074-1.432-.049-2.15-.024l-.502.017-.028-2.003c0-.43-.36-.8-.8-.8-.46 0-.919-.001-1.377-.003l-.001-.353c0-.67-.001-1.343-.162-1.994-.19-.81-.64-1.34-1.33-1.78-.8-.51-1.64-.56-2.56-.61-.98-.05-1.97-.06-2.95 0-.98.06-1.96.14-2.93.28-.84.12-1.55.35-2.1 1.02-.806.986-.938 2.106-.95 3.328Zm1.579.007c0-.783.017-1.546.46-2.165.372-.53.907-.593 1.503-.664l.137-.016a29.056 29.056 0 0 1 4.59-.22c.139.004.287.004.441.003.555-.001 1.177-.003 1.639.217.59.28.86.59.97 1.21.081.468.075.955.07 1.439l-.004.288-.856-.007h-.08c-.343-.001-.682-.003-.97.22a.92.92 0 0 0-.36.74c0 .071.008.143.015.213.008.067.015.133.015.197.008.268-.009.534-.025.8-.01.144-.019.289-.024.433-1.862-.058-3.725-.026-5.588.01l.021-.156c.054-.402.109-.802.154-1.207.04-.37-.06-.74-.33-1s-.65-.33-1.02-.33l-.758-.005Zm11.991 1.705.017 1.2c-.76-.02-1.516-.065-2.275-.11l-.605-.034c.003-.177.012-.356.021-.536v-.01l.028-.51h2.814Zm-14.133 1.057c.001-.392.004-.785.012-1.177.8 0 1.596.002 2.398.01h.209c-.05.376-.1.752-.149 1.132l-.518.008-1.27.018-.681.009Zm21.817 23.14-14.57-.037c-4.87-.012-9.74-.024-14.608-.038-.03-2.095-.05-4.188-.067-6.28 1.581.059 3.163.102 4.745.123l.014.135c.24 2.25 2.28 4.26 4.45 2.58.837-.646 1.185-1.629 1.312-2.634 2.739.08 5.47.078 8.21-.005.063.877.212 1.753.698 2.479.59.87 1.61 1.35 2.64 1.07 1.15-.31 1.86-1.34 2.18-2.43a8.71 8.71 0 0 0 .213-.896c1.598.022 3.195.006 4.793-.045a124.003 124.003 0 0 0-.01 5.979Zm.05-7.58a95.131 95.131 0 0 1-4.662.052c.04-.951-.01-1.916-.067-2.877.258-.006.515-.013.773-.022 1.03-.03 1.03-1.63 0-1.6-.286.01-.573.018-.86.024a23.272 23.272 0 0 1-.02-1.184c.012-.733.038-1.462.065-2.192.02-.585.042-1.17.055-1.758l.008-.28c.019-.668.038-1.343.003-2.01-.01-.21-.026-.423-.041-.635-.033-.454-.067-.91-.047-1.364 1.531-.017 3.022.136 4.138 1.419 1.048 1.213.952 3.141.87 4.795-.018.35-.035.689-.04 1.005-.025 1.57-.072 3.141-.119 4.712v.001l-.056 1.915Zm-10.64-.173c-2.689.08-5.371.081-8.06.004.004-.69-.012-1.38-.028-2.072a197.84 197.84 0 0 1-.018-.802l.85.006c1.03 0 1.03-1.59 0-1.6l-.867-.007c-.026-3.12-.052-6.24-.17-9.36l.17-.004c1.77-.037 3.544-.073 5.318-.06.964.009 1.93.057 2.9.11a231.821 231.821 0 0 1-.082 4.864c-.034 1.475-.07 2.95-.078 4.427v.104a69.796 69.796 0 0 1-1.001-.074c-.43-.04-.8.39-.8.8 0 .46.37.76.8.8.335.027.67.052 1.004.075.006.931.021 1.861.063 2.789Zm-14.05-.08c-1.54-.024-3.079-.074-4.618-.125-.016-2.022-.032-4.045-.057-6.07a40.878 40.878 0 0 0-.01-.566c-.036-1.994-.091-4.926 1.4-6.253.695-.62 1.873-.627 2.843-.633l.162-.002c-.017 2.444-.021 4.88.044 7.325.01.374.02.752.028 1.132v.001l.019.748-1.407-.011c-1.03 0-1.03 1.59 0 1.6l1.453.011c.032.947.075 1.898.142 2.842Zm18.276-4.156c-.9-.003-1.8-.025-2.7-.065.006-1.607.043-3.217.079-4.826.034-1.525.068-3.05.078-4.573.862.042 1.726.071 2.59.063-.02.59.01 1.184.038 1.778.023.492.047.984.043 1.475-.013.897-.044 1.79-.075 2.685a272.1 272.1 0 0 0-.045 1.355 41.55 41.55 0 0 0-.008 2.108Zm-2.697 1.535c.918.04 1.837.063 2.756.065l.01.172.02.385c.079 1.44.162 2.968-.26 4.345-.2.66-.78 1.67-1.62 1.23-.639-.333-.704-1.29-.75-1.962a67.055 67.055 0 0 1-.156-4.235ZM14.397 22.24l-1.723-.015-1.167-.01c-.017-.422-.033-.844-.047-1.265-.085-2.657-.08-5.323-.064-7.99l1.242-.015c.417-.004.834-.008 1.253-.015l.343-.006c.113 3.108.144 6.208.164 9.316Zm-2.82 1.575 1.098.01 1.745.015.014.562c.027 1.051.054 2.107.016 3.158-.03.74-.12 1.67-.76 2.16-.58.44-1.16.3-1.53-.31-.489-.81-.488-2.017-.487-3.067 0-.325.001-.635-.013-.913a281.4 281.4 0 0 1-.082-1.615Z"/>
</svg>
