<svg xmlns="http://www.w3.org/2000/svg" width="40" height="40" fill="none" viewBox="0 0 40 40">
  <path class="display-icon__fill-2" fill="#B6E5FF" d="M20.32 39.36c-3.94.07-7.89.05-11.73-.99-1.52-.41-2.96-1-4.17-2.04-1.83-1.57-2.29-3.68-2.28-5.96.02-3.56 1.8-5.85 5.08-7.08 2.64-.99 5.41-1.35 8.19-1.53 4.53-.29 9.06-.32 13.56.32 2.06.29 4.07.75 5.91 1.79 2.11 1.19 3.26 3.02 3.42 5.4.08 1.16.03 2.37-.19 3.51-.49 2.46-2.2 3.9-4.42 4.82-2.83 1.19-5.83 1.5-8.85 1.71-1.5.1-3.02.04-4.53.05h.01Z"/>
  <path class="display-icon__fill-1" fill="#52B0FF" d="M19.16 20.35c-3.33-.08-6.11-1.07-8.05-3.77-1.4-1.96-1.86-4.2-1.79-6.56.07-2.47.71-4.77 2.42-6.64C14.04.87 17 .15 20.27.45c3.04.28 5.59 1.57 7.09 4.3 2.04 3.7 2.03 7.54 0 11.23-1.47 2.66-3.95 3.92-6.92 4.27-.47.06-.94.07-1.28.09v.01Z"/>
  <path class="display-icon__ink" fill="#1C1D1F" d="M17.42 19.32c-.58-1.28-.49-2.81.68-3.7l-.02.02a.55.55 0 0 1 .159-.084c.643-.386 1.398-.513 2.13-.246.77.28 1.4 1.06 1.59 1.85.15.6.17 1.33.03 1.95-.05.19-.11.38-.169.57a9.87 9.87 0 0 0-.052.163 4.64 4.64 0 0 1-.128.367c-.02.055-.045.108-.07.16-.025.053-.05.105-.07.16-.012.032-.017.04-.019.037l-.003.017-.008.036c-.018.068-.01.15-.002.243a3.5 3.5 0 0 1-.018.838c-.05.41-.13.82-.37 1.16-.52.74-1.5 1.01-2.24.4-.627-.51-.668-1.281-.707-2.026l-.013-.225c-.028-.45-.234-.82-.444-1.199a6.992 6.992 0 0 1-.256-.49ZM18.905 17a1.17 1.17 0 0 1-.025.02c-.07.05-.14.17-.19.34a.75.75 0 0 0-.04.16c.016-.06.015-.049.01-.023l-.002.012-.002.011a.37.37 0 0 0-.006.04v.35c.02.41.18.75.43 1.17.3.51.51 1.04.59 1.63.026.159.028.318.029.477 0 .14.002.282.02.423.01.095.029.208.056.305.058-.13.077-.312.085-.465.009-.142.002-.284-.005-.426a3.072 3.072 0 0 1 .005-.534c.025-.24.112-.447.204-.665l.056-.135c.078-.188.139-.409.199-.628.033-.12.065-.238.1-.35a1.48 1.48 0 0 1 .01-.092.876.876 0 0 0 .01-.11l.005-.105c.01-.23.02-.47-.014-.695-.05-.31-.27-.72-.57-.88.09.04-.05-.03-.08-.03-.014-.003-.027-.008-.04-.012a.26.26 0 0 0-.08-.018c.079.015.024.008-.017.004l-.025-.003h-.198c.03-.01-.16.03-.21.05l-.043.018c-.033.015-.07.03-.097.051a1.189 1.189 0 0 1-.165.11Zm.962 5.08c-.005.009-.026.005-.047-.037.041.006.052.028.047.037ZM6.21 7.6c0-.087.019-.184.038-.271a.91.91 0 0 1 .272-.519c.15-.13.23-.17.42-.24a.09.09 0 0 1 .05-.01l.078-.012c.057-.009.117-.018.172-.018.055 0 .114.01.172.018a2.432 2.432 0 0 0 .098.017c.007.002.015.005.02.005.06.02.14.05.2.08.01.01.02.01.02.01a.726.726 0 0 0 .07.056.747.747 0 0 1 .156.146.83.83 0 0 1 .124.168c.01.02.017.04.025.06a.61.61 0 0 0 .025.06c.02.04.04.08.05.12.01.02.01.04.01.06l.01.07c.01.064.02.135.02.2 0 .11-.02.23-.04.34l-.015.07-.015.07c-.02.1-.07.19-.14.27-.03.06-.08.1-.14.14-.08.07-.17.12-.27.14l-.21.03c-.075 0-.145-.01-.214-.019A3.053 3.053 0 0 0 7.1 8.63a.292.292 0 0 0-.09-.02 1.665 1.665 0 0 1-.219-.087 6.775 6.775 0 0 0-.078-.036 1.33 1.33 0 0 1-.203-.147c-.06-.05-.13-.15-.17-.21-.01-.01-.02-.02-.02-.03v-.02a1.06 1.06 0 0 0-.034-.084.9.9 0 0 1-.046-.116v-.03a2.058 2.058 0 0 0-.014-.096.994.994 0 0 1-.016-.154Zm3.928-1.211a.9.9 0 0 1 .152-.019h.02l-.021.013a.582.582 0 0 1 .201.027c.19.07.32.13.47.27l.012.01c.01.007.018.013.018.02l.02.025c.036.045.077.095.11.145.028.049.05.107.072.161l.028.07c.02.02.02.04.02.06l.01.073c.01.06.02.123.02.186 0 .11-.02.22-.04.33 0 .04-.01.09-.03.13-.03.09-.06.18-.11.25s-.1.14-.16.2-.15.13-.21.17c-.02.02-.04.03-.06.04l-.07.032a.83.83 0 0 1-.14.058h-.03l-.063.01a.919.919 0 0 1-.167.02h-.03a.908.908 0 0 1-.146-.017 1.963 1.963 0 0 0-.084-.013c-.01-.01-.03-.01-.04-.01 0-.01-.18-.08-.18-.08H9.7a.955.955 0 0 1-.16-.12.761.761 0 0 1-.07-.09.705.705 0 0 1-.07-.09c-.01-.01-.02-.02-.02-.03a1.954 1.954 0 0 0-.032-.07c-.022-.047-.045-.093-.058-.14-.02-.03-.02-.06-.02-.09a1.352 1.352 0 0 1-.024-.478.936.936 0 0 1 .034-.222c.03-.09.07-.18.11-.27a.337.337 0 0 0 .025-.045.404.404 0 0 1 .025-.045 3.152 3.152 0 0 1 .16-.202l.003-.003a1.228 1.228 0 0 1 .418-.244.082.082 0 0 1 .042-.01h.007a1.95 1.95 0 0 0 .068-.012Zm3.752.131a.802.802 0 0 0-.4-.11h-.03a.908.908 0 0 0-.167.02 1.951 1.951 0 0 1-.063.01h-.03c-.1.02-.19.07-.28.12-.01 0-.03.02-.04.03-.07.05-.14.1-.2.15-.03.02-.05.05-.07.08l-.012.014a1.06 1.06 0 0 0-.168.236c-.04.07-.07.15-.1.23a.066.066 0 0 1-.013.036.264.264 0 0 0-.008.014c0 .02 0 .03-.01.05-.003.032-.008.062-.012.092-.009.055-.018.11-.018.168v.05c0 .059.009.113.018.169.004.03.009.06.012.091 0 .02 0 .03.01.05v.02l.09.21.01.015a.388.388 0 0 0 .06.075l.06.08.16.13c.08.05.14.07.22.09.09.02.18.03.27.04h.12c.055 0 .115-.01.173-.018l.078-.012c.02 0 .03 0 .05-.01a.89.89 0 0 0 .143-.054c.028-.012.057-.025.086-.036.01 0 .03-.01.04-.02.026-.012.05-.033.073-.051l.008-.006a.87.87 0 0 0 .14-.113c.052-.052.089-.105.13-.164l.02-.026c0-.004.003-.008.007-.013.006-.007.012-.015.012-.027v-.02c.018-.035.035-.077.053-.12l.008-.018a17.215 17.215 0 0 1 .03-.072c0-.005.002-.012.005-.02l.001-.005a.772.772 0 0 0 .023-.164c0-.026.005-.05.01-.076a.386.386 0 0 0 .01-.075c0-.11-.02-.21-.04-.31 0-.04-.02-.08-.04-.12l-.017-.043a2.044 2.044 0 0 0-.071-.17.796.796 0 0 0-.181-.267l-.16-.13Z M18.388 3.41h.012l-.01-.01c.055 0 .107.004.155.012 1.532.014 3.066.002 4.601-.01 3.182-.024 6.367-.048 9.534.158 1.58.11 2.91.63 3.25 2.33.28 1.416.231 2.975.184 4.487-.02.644-.04 1.28-.034 1.893.02 2.14.043 4.28.065 6.42.022 2.14.045 4.28.065 6.42.02 1.14.03 2.27.04 3.41l.008.229c.02.443.041.944-.248 1.301-.35.434-.916.42-1.44.405-.092-.002-.182-.005-.27-.005-.535 0-1.07-.005-1.605-.01-.535-.005-1.07-.01-1.605-.01a4772.57 4772.57 0 0 0-10.742-.084c.545.558 1.096 1.109 1.652 1.654.32.31.29.81 0 1.13-.29.32-.83.29-1.13 0a143.442 143.442 0 0 1-2.45-2.473l-.651.692 1.101 1.131c.15.16.22.35.23.57.01.22-.09.43-.23.57-.14.14-.36.23-.57.23-.21 0-.43-.08-.57-.23l-1.079-1.107-.32.327c-.148.15-.296.3-.44.45-.12.13-.24.26-.37.38-.06.05-.12.11-.18.17-.1.09-.08.08.05-.01.07-.1.14-.1.19 0 .08.08.16.15.24.22.05.045.102.088.154.13.053.043.105.085.155.13.28.23.55.46.8.72.73.73-.4 1.86-1.13 1.13-.178-.18-.388-.364-.603-.552-.976-.854-2.061-1.803-.857-3.008.748-.753 1.488-1.514 2.218-2.283a1175.43 1175.43 0 0 0-4.998-.037 58.52 58.52 0 0 0-2.044.04c-1.49.045-3.01.091-4.436-.1-1.411-.185-1.383-1.397-1.357-2.532.004-.151.007-.301.007-.448.01-2.24.01-4.48.01-6.72v-.03c.01-4.39.02-8.77.02-13.16l-.003-.37c-.014-1.164-.028-2.33 1.193-2.9 1.112-.519 2.603-.563 3.905-.601.279-.008.549-.016.805-.029 1.857-.095 3.714-.07 5.573-.043 1.035.015 2.072.03 3.109.024h.046Zm1.789 25.332 1.133.008c3.668.028 7.335.055 11 .08.57 0 1.131.01 1.701.02h.613a88.469 88.469 0 0 1-.005-1.947l.001-.093-.06-5.35c-.02-1.765-.038-3.53-.055-5.295-.016-1.584-.031-3.169-.049-4.753-4.908.02-9.818.036-14.729.053-4.795.017-9.592.033-14.39.052l.003.283c-.01 3.81-.02 7.63-.02 11.44v2.99c0 .055-.01.199-.025.391-.05.669-.143 1.926.017 2.092-.074-.092 1.048-.073 1.048-.073.49.01.99.01 1.48.01.82.01 1.65.02 2.47.02l7.735.056c.562-.611 1.114-1.235 1.666-1.86 1.61-1.82 3.225-3.646 5.121-5.173a5.117 5.117 0 0 1-.352-3.273c.2-.85.64-1.67 1.4-2.16.76-.49 1.72-.49 2.59-.42v-.02c.095.009.187.03.273.063 1.64.367 2.515 1.985 3.107 3.417.35.87.6 1.84.28 2.76-.27.77-.81 1.43-1.52 1.84-1.57.92-3.59.38-4.8-.81a4.696 4.696 0 0 1-.086-.087c-1.707 1.371-3.17 3.036-4.62 4.689-.309.351-.617.702-.927 1.05Zm-1.92-23.74c-1.014.005-2.029-.01-3.044-.025-1.722-.026-3.445-.051-5.173.023-.17.008-.386.009-.633.01-1.432.009-3.888.024-4.067 1.26-.171 1.158-.117 2.416-.06 3.647 4.828-.019 9.658-.035 14.49-.052h.015c4.883-.017 9.767-.034 14.651-.053-.008-.583-.016-1.166-.016-1.752-.002-.142.004-.304.01-.476.027-.756.06-1.716-.51-2.164-.402-.323-1.16-.31-1.756-.3-.16.002-.307.004-.434 0-.79-.03-1.57-.05-2.36-.07-2.05-.039-4.102-.034-6.155-.03a354.14 354.14 0 0 1-4.835-.01.924.924 0 0 1-.122-.009ZM26.63 17.65c-.46.37-.65 1.1-.68 1.63-.06 1.09.41 2.27 1.29 2.92.88.65 2.11.79 2.9.05.39-.36.58-.79.54-1.29-.017-.3-.129-.609-.23-.89l-.04-.11-.022-.063a3.436 3.436 0 0 0-.218-.517c-.21-.45-.49-.95-.77-1.27-.35-.39-.65-.6-1.14-.7a.616.616 0 0 1-.058-.014c-.533-.045-1.154-.07-1.572.254Z"/>
</svg>
