<svg xmlns="http://www.w3.org/2000/svg" width="40" height="40" fill="none" viewBox="0 0 40 40">
  <path class="display-icon__fill-2" fill="#B6E5FF" d="M7.27 1.29h23.81c.03.16.07.3.07.44 0 3.76.08 7.53-.07 11.28-.07 1.62-.43 3.3-.99 4.82-1.25 3.35-3.9 5.01-7.38 5.36-4.42.44-8.48-.32-11.61-3.81-1.8-2.01-2.68-4.47-3.24-7.05-.77-3.62-.62-7.29-.59-11.04Z"/>
  <path class="display-icon__fill-1" fill="#52B0FF" d="m7.19 35.61 4.26-13.85s3.24 3.4 8.3 3.28c5.06-.12 6.25-1.02 9.07-3.13l3.25 13.5s-5.68 4.52-12.35 4.06c-6.67-.46-12.53-3.86-12.53-3.86Z"/>
  <path class="display-icon__ink" fill="#1C1D1F" d="M27.069 9.06c.45.03.78.35.8.8l.008.189c.118 2.669.237 5.374.022 8.04-.08.95-.5 1.62-1.52 1.68-.815.04-1.643.018-2.467-.004h-.019a54.226 54.226 0 0 0-1.204-.025 932.6 932.6 0 0 1-7.48-.09c-.215-.003-.43-.004-.645-.002-.432.009-.864 0-1.295-.028-.39-.03-.73-.16-.93-.51-.191-.341-.182-.773-.173-1.167l.003-.233a66.7 66.7 0 0 1-.037-1.432l-.002-.118c-.05-2.18-.09-4.38.13-6.55l-.01.02a.87.87 0 0 1 .074-.282.73.73 0 0 1 .735-.538c.978.006 1.955.008 2.932.01h.103c3.659.01 7.317.02 10.975.24Zm-.78 9.1c.02-.11.02-.22.02-.33.145-2.398.085-4.813-.01-7.214-3.429-.18-6.868-.187-10.305-.195l-2.212-.007c-.152 2.075-.1 4.168-.049 6.25l.001.02.005.216.001.027v.022c.01.222.02.437.02.66 0 .026.005.067.01.119l.004.029c.009.08.02.18.029.283h.286c.28.01.55.01.83.01.464.006.925.014 1.388.022h.036c.912.015 1.822.03 2.736.038.695.005 1.388.012 2.08.02l.512.005c.522.006 1.044.011 1.568.015.65.02 1.29.02 1.94.02.05 0 .135.007.237.015l.027.002c.307.026.744.063.846-.017v-.01Zm-11.205 4.798Zm.722-1.499c.253.064.486.182.694.34.27.2.5.41.7.68.39.55.56 1.33.59 1.99.06 1.19-.78 2.32-1.87 2.68-1.09.36-2.37-.12-2.96-1.09-.31-.52-.41-1.1-.43-1.72-.02-.62.05-1.28.38-1.82.58-.95 1.83-1.43 2.9-1.08l-.002.01v.004l-.001.004v.002Zm-1.439 3.867.001.002.002.002.12.12.005.005.002.002.004.004c.055.045.13.085.179.109.02.02.09.04.11.04.045.02.095.03.143.041l.077.019h.003l.002.002.005-.001.01-.001h.25c.018.012.077-.011.13-.032a.374.374 0 0 1 .103-.03l.004-.001.008-.001.085-.046.055-.035a.782.782 0 0 1 .075-.045l.19-.19c.003-.003.003-.003.004-.002h.001l.002-.002a.36.36 0 0 0 .053-.076c.048-.077.087-.155.126-.232a.147.147 0 0 1 .005-.011 1.529 1.529 0 0 0 .039-.137c.01-.03.04-.12.03-.15v-.25l-.015-.127a5.233 5.233 0 0 0-.195-.773.512.512 0 0 0-.044-.084l-.026-.046-.001-.002-.001-.001a.184.184 0 0 0-.005-.006l-.003-.003-.008-.01a.725.725 0 0 0-.032-.038 3.32 3.32 0 0 0-.19-.18.14.14 0 0 1-.008-.005l-.009-.006a.447.447 0 0 0-.01-.007c.002-.004-.003-.012-.033-.032a.238.238 0 0 0-.027-.018l-.002-.001-.001-.001.001.001c-.06-.04-.12-.08-.176-.123l-.01.009c-.015.014-.03.028-.045.023-.06-.02-.13-.04-.19-.05a.352.352 0 0 0-.043.003l.013-.003h-.194c-.049.01-.097.02-.136.03a.791.791 0 0 0-.066.02l-.045.014h-.002v.001h-.001v.001h-.001l-.005.004c-.08.04-.16.09-.239.14h-.003l-.002.002a.019.019 0 0 0-.002.002v.002h-.001v.001l-.003.003-.12.12-.006.007-.003.003-.002.002a1.179 1.179 0 0 0-.103.187l-.001.004-.001.002v.002l-.002.005-.002.008c-.01.07-.03.14-.05.209-.02.11-.02.22-.02.33 0 .182.01.363.019.552l.001.029a.117.117 0 0 1-.002.03l-.001.006v.003l.001.003.002.008.01.037c.01.03.02.064.02.093.01.05.025.097.04.145.015.047.03.095.04.145.002.012 0 .013-.002.013v.001h-.001v.002h.001l.002.004.06.12c.01.018.02.035.032.05-.007-.015 0-.01.025.036Zm0 0c-.005-.005-.008-.01-.011-.015l.003.005c.007.01.015.021.021.034a.263.263 0 0 0-.009-.016c0-.003-.002-.005-.004-.008Zm10.042-3.716.026-.001c1.228-.136 2.344.833 2.544 2.02.06.34.06.67.06 1.01 0 .3-.03.62-.13.91-.21.59-.67.98-1.24 1.21-.45.18-.95.22-1.42.22-.54-.01-1.08-.1-1.56-.35-1.13-.58-1.36-1.92-1.1-3.05.14-.61.46-1.19 1-1.52.514-.313 1.162-.4 1.75-.434a.653.653 0 0 1 .074-.013l-.004-.002Zm1.017 3.353a.309.309 0 0 0 .023-.103v-.85a2.677 2.677 0 0 0-.076-.284.23.23 0 0 1-.035-.066l-.004-.01-.005-.01a.4.4 0 0 0-.035-.055l-.003-.005-.003-.004-.003-.004a.366.366 0 0 1-.026-.042l-.027-.04a2.82 2.82 0 0 0-.093-.09.538.538 0 0 0-.145-.11l-.04-.023a2.197 2.197 0 0 1-.12-.038 1.608 1.608 0 0 0-.085-.027l.05-.002h-.06c-.042-.012-.073-.006-.055-.002-.085-.005-.17 0-.255.012a.643.643 0 0 1-.048.003 1.94 1.94 0 0 1-.222.017.844.844 0 0 0-.053.004c-.11.017-.219.04-.327.066l-.3.09-.009.002-.006.002h-.005l-.002.003-.004.002-.002.002-.004.003a.358.358 0 0 0-.008.006l-.082.03a.482.482 0 0 0-.052.049.878.878 0 0 1-.026.05.425.425 0 0 1-.032.06.665.665 0 0 1-.024.043l-.004.006a2.85 2.85 0 0 1-.046.146v.004l-.003.006-.004.014v.003a1.75 1.75 0 0 0-.047.179c-.01.05-.02.11-.03.17-.01.1-.01.2-.01.3v.12l.006.067c.006.024.01.048.014.073l.03.11a.31.31 0 0 1 .01.027c.008.012.04.09.04.103.014.03.03.06.047.09l.023.02.08.08.043.019c.043.018.103.044.142.069-.04-.022-.08-.011-.005.012.01.002.021.006.032.01l-.004-.005.004.004.02.007.102.03c.048.018.13.046.196.06h.008a.19.19 0 0 0 .082.004h.62c.06-.01.11-.01.16-.01.104-.013.06-.022.017-.018a.9.9 0 0 1 .163-.022l.081-.023.044-.012.016-.005.06-.018v.003a.02.02 0 0 0-.001.003v.002l.031-.015.019-.005c.029-.01.041-.017.04-.02l.008-.005.034-.02.021-.012a.415.415 0 0 0 .036-.022l.068-.068a.424.424 0 0 1 .04-.069l.003-.004v-.01a.444.444 0 0 1 .017-.057Z M36.49 16.96c0-.25 0-.51-.13-.74-.24-.45-.71-.63-1.2-.65-.61-.02-1.25.07-1.84.27-.8.266-1.518.702-2.174 1.22l-.008-.66-.018-1.68a619.347 619.347 0 0 1-.022-4.063v-.002L31.09 8.64c0-.82 0-1.72-.7-2.28-.742-.59-2.052-.505-3.152-.433-.353.023-.684.045-.968.043-1.74-.02-3.481-.043-5.22-.066-1.719-.022-3.436-.044-5.15-.064-.518-.007-1.038-.016-1.558-.025-1.045-.017-2.09-.035-3.132-.035-.87 0-1.85.11-2.19 1.06-.189.544-.15 1.236-.116 1.876.013.242.026.477.026.694 0 .97 0 1.93-.02 2.9a829.8 829.8 0 0 1-.02 2.726v.002l-.015 1.909a7.295 7.295 0 0 0-1.625-.957c-1.03-.43-3.55-1.03-3.62.73-.03.81-.04 1.63-.02 2.44.01.6.2 1.09.72 1.44.47.31 1.06.41 1.62.35 1.26-.152 2.013-1.156 2.506-2.246.11.104.215.214.32.323l.084.088-.016 1.864c-.023 2.77-.047 5.538-.054 8.31 0 .467.33.711.69.755.017.004.033.01.05.016.025.009.05.018.08.02l1.567.102c-.198 1.726-.106 3.476.063 5.208.04.44.33.78.8.8 1.13.05 2.26.1 3.39.16.46.02.76-.39.8-.8.181-1.715.331-3.48.246-5.21a92.06 92.06 0 0 0 6.912.09c-.113 1.62.01 3.285.13 4.895l.002.035c.04.47.34.75.8.8 1.28.13 2.62.18 3.88-.13.36-.09.56-.42.59-.77.128-1.635-.023-3.304-.2-4.943 1.02.038 2.342.027 2.61-.777.18-.532.127-1.246.08-1.887-.02-.25-.037-.49-.04-.703-.013-2.587-.041-5.171-.07-7.756.157-.16.32-.315.483-.47.418.937 1.038 1.857 2.017 2.166 1.16.36 2.73-.13 2.82-1.51a19.8 19.8 0 0 0 .011-1.617c-.005-.269-.011-.537-.011-.803ZM7.02 18.02c-.11.22-.23.45-.36.66-.035.062-.075.12-.116.18l-.034.049-.037.041c-.035.04-.084.095-.103.11a.8.8 0 0 1-.19.16.565.565 0 0 1-.065.04.54.54 0 0 0-.065.04.105.105 0 0 0-.015.01l-.006.004-.001-.002s-.002-.002-.008-.002c-.031 0-.224.037-.207.043a2.11 2.11 0 0 0-.063.007c-.042.005-.085.01-.13.01h-.14l-.13-.03a.22.22 0 0 1-.044-.015 1.341 1.341 0 0 0-.086-.05v-.165c-.01-.645 0-1.298.01-1.944v-.009h.048c.07.002.14.003.212.013a.48.48 0 0 1 .154.017c-.046-.006-.083-.01.006.003a.565.565 0 0 1 .06.01l.038.007.006.002c.088.017.18.035.266.06a3.372 3.372 0 0 1 .415.126c.025.007.05.015.075.025.22.089.428.204.635.321a2.942 2.942 0 0 1-.125.279Zm-1.14 1.33Zm8.83 15.356a209.15 209.15 0 0 0-1.937-.092c-.127-1.44-.192-2.915-.008-4.347l.24.015c.274.016.549.033.825.038.349.006.697-.001 1.044-.008.072 1.461-.024 2.937-.164 4.394Zm12.494-.132c-.703.1-1.43.098-2.14.043-.11-1.408-.183-2.841-.076-4.244l1.991-.075c.156 1.417.279 2.855.225 4.276Zm2.436-5.918c-.407.027-.908.025-1.359.024-.18-.001-.354-.002-.51 0a.102.102 0 0 1-.024-.005.092.092 0 0 0-.027-.005c-.575.015-1.149.04-1.723.065-.576.025-1.151.05-1.727.065a.091.091 0 0 0-.025.005.098.098 0 0 1-.022.005 91.803 91.803 0 0 1-8.568-.11h-.026c-.255 0-.51.006-.763.011-.347.007-.693.015-1.036.009-.599-.01-1.207-.05-1.816-.09h-.004c-.004 0-.009 0-.013.002l-.012.002-1.561-.101c.01-3.654.04-7.303.071-10.954l.035-4.32c0-.644.005-1.29.01-1.934.005-.645.01-1.29.01-1.935 0-.092-.014-.257-.032-.453-.047-.533-.114-1.3.032-1.467.225-.255.95-.184 1.476-.132.175.017.329.032.434.032 1.311.015 2.624.032 3.938.05 1.322.017 2.643.035 3.962.05.66.01 1.317.017 1.975.025.657.007 1.315.015 1.975.025.468.006.96-.012 1.457-.03 1.013-.039 2.055-.078 2.993.09.12.021.214.015.292.01.181-.013.28-.02.448.33.036.086.02.284.009.434-.005.06-.009.112-.009.146v3.52c.02 3.5.06 7 .1 10.51v.06c.02 1.55.03 3.1.04 4.65v1.416Zm5.27-9.372-.022.012a.42.42 0 0 0-.058.034c-.003.002 0 .002-.002.004a.266.266 0 0 0-.057.017.37.37 0 0 1-.06.019l-.156.029c-.096 0-.19-.003-.28-.018l-.005-.001a1.217 1.217 0 0 0-.104-.028 1.838 1.838 0 0 1-.086-.022l-.002-.001a3.55 3.55 0 0 1-.198-.12c.04.03.06.06-.06-.05a.682.682 0 0 1-.09-.088h-.001l-.002-.002-.012-.013-.013-.014a1.052 1.052 0 0 1-.079-.087l-.008-.011c-.02-.027-.055-.073-.065-.094-.15-.22-.27-.45-.39-.68a3.629 3.629 0 0 1-.202-.448l.086-.052c.045-.028.09-.056.136-.08.041-.019.081-.039.12-.059.066-.033.131-.066.2-.091-.053.024-.024.013.026-.006.052-.02.128-.05.154-.054.22-.08.46-.14.69-.19.135-.027.297-.044.523-.048l.002.112c.008.546.015 1.088.015 1.636v.394Zm.045-.028-.001.001h-.001l-.003.003.01-.02a.072.072 0 0 0-.002.005l-.001.002v.003l-.002.006Z"/>
</svg>
