<svg xmlns="http://www.w3.org/2000/svg" width="40" height="40" fill="none" viewBox="0 0 40 40">
  <path class="display-icon__fill-2" fill="#B6E5FF" d="M32.26 39.39H9.49c-.03-.16-.07-.29-.07-.42 0-3.6-.08-7.2.07-10.79.06-1.55.41-3.15.95-4.61 1.19-3.21 3.73-4.79 7.06-5.12 4.22-.42 8.11.3 11.1 3.64 1.72 1.92 2.57 4.27 3.09 6.74.74 3.46.59 6.97.57 10.56Z"/>
  <path class="display-icon__fill-1" fill="#52B0FF" d="M34.44 4.81 29.6 20.55s-3.69-3.86-9.43-3.73c-5.75.14-7.47 1.48-10.16 4.16L6.17 5.03S12.62-.1 20.2.43c7.58.53 14.24 4.39 14.24 4.39v-.01Z"/>
  <path class="display-icon__ink" fill="#1C1D1F" d="M10.11 7.78c-.032 1.712.038 3.424.109 5.136.017.428.035.856.05 1.284.04 1.04.07 2.08.05 3.12v.102c-.001.711-.003 1.464.75 1.788.576.248 1.327.209 2.013.173.256-.013.502-.026.728-.023 1.08.01 2.16.02 3.24.04 1.041.01 2.082.023 3.122.035 1.028.013 2.054.025 3.078.035l2.91.03c.196 0 .412.014.637.028.683.042 1.451.09 1.993-.218.64-.37.71-1.05.75-1.72.06-.98.09-1.96.1-2.94.03-1.91-.04-3.83-.3-5.73l-.01-.074c-.087-.642-.184-1.36-.8-1.726-.555-.331-1.372-.3-2.083-.273-.212.008-.414.015-.597.013-2.216-.036-4.431.002-6.647.04-2.754.047-5.509.094-8.263 0-.363-.01-.598.18-.705.435a.78.78 0 0 0-.145.455l.02-.01Zm1.69 5.21c-.06-1.487-.12-2.98-.117-4.47 2.684.064 5.364.018 8.047-.029.856-.015 1.713-.03 2.57-.04.95-.01 1.89-.01 2.84 0 .47 0 .95.01 1.42.02.052 0 .126-.005.211-.01.305-.015.758-.038.899.08.14.116.153.637.161.967.002.094.004.173.009.222.05.41.08.82.11 1.24.06.85.08 1.7.09 2.56.01.86 0 1.7-.04 2.54-.01.41-.03.82-.05 1.22 0 .132-.009.26-.018.388-.004.067-.009.134-.012.202.1.07.04.08-.18.04-.202.108-.675.055-1.046.013a5.148 5.148 0 0 0-.364-.033c-.46 0-.92-.01-1.38-.02l-10.8-.12c-.212 0-.454.015-.708.031-.52.033-1.092.068-1.567-.015-.028-.2-.005-.45.015-.663.01-.116.02-.221.02-.303 0-.46 0-.92-.02-1.39-.02-.81-.05-1.62-.09-2.43Zm-1.63 12.88c-.02-1.34-.03-2.67-.01-4.01l-.02.02a.819.819 0 0 1 .723-.793.747.747 0 0 1 .157-.017h2.85c.5 0 1.02 0 1.36.43.252.33.285.774.315 1.187l.002.023.013.16c.07.81.06 1.63-.03 2.44-.06.5-.17.99-.65 1.27-.339.198-.759.178-1.153.16a7.183 7.183 0 0 0-.247-.01l-2.51-.06a.809.809 0 0 1-.8-.8Zm1.56-3.2c-.007.814-.006 1.625.005 2.44l1.645.04c.184.01.368.01.552.01l.008-.075a6.86 6.86 0 0 0 .02-.235c.04-.7.04-1.4-.03-2.09l-.01-.09h-2.19Zm2.178 2.718a.194.194 0 0 0-.019.055.27.27 0 0 1 .01-.026.224.224 0 0 0 .01-.029Zm.306-.231c.014-.01.022-.012.023-.01 0 .002-.007.007-.023.01Zm2.801-4.001a.782.782 0 0 0-.385.674h.01v3.05c0 .087-.004.18-.009.276-.012.266-.025.552.049.794.09.31.34.55.65.65.149.041.318.048.479.055a2.174 2.174 0 0 1 .1.005h.03c.34.01.69.02 1.03.04.366.01.733.023 1.1.035.368.012.736.025 1.1.035.33.01.7-.25.77-.59.16-.77.23-1.55.22-2.33 0-.34-.02-.69-.04-1.03-.01-.18-.03-.37-.05-.55l-.014-.146c-.02-.206-.04-.418-.145-.604-.269-.47-.778-.48-1.26-.489l-.06-.001h-1.02l-.355.006c-.559.009-1.117.018-1.676-.002a.668.668 0 0 0-.106-.004.756.756 0 0 0-.418.126Zm1.405 3.904c-.063 0-.127-.002-.19-.005v-2.417c.143 0 .286-.002.429-.004.204-.002.408-.004.61-.004.152 0 .304-.002.454-.005.147-.003.293-.005.437-.005h.339c.008.089.013.177.019.262l.002.028c.02.33.04.66.04.99 0 .33-.01.63-.04.95 0 .08-.01.16-.02.24l-.003.038-1.177-.038-.9-.03Zm-1.61 7.22c-.17-1.33-.25-2.68-.17-4.02.026-.395.276-.698.64-.78a.655.655 0 0 1 .32-.06 37.86 37.86 0 0 0 1.794.058c.342.005.684.011 1.026.022.074.002.153.001.236.001.412-.001.895-.003 1.204.239.397.309.428.805.457 1.275l.013.185c.05.84.04 1.69-.06 2.53l-.008.07c-.027.256-.053.512-.172.76-.13.27-.38.46-.66.55-.311.093-.67.084-1.007.075a9.227 9.227 0 0 0-.283-.005c-.85 0-1.69-.04-2.53-.1-.48-.04-.74-.35-.8-.8Zm1.4-3.23c-.014.826.025 1.653.11 2.474.384.022.77.04 1.16.046h1.199a15.09 15.09 0 0 0 .07-1.28c0-.3 0-.6-.02-.9l-.018-.281a5.548 5.548 0 0 0-.291-.009c-.31-.01-.62-.02-.93-.02-.427-.007-.854-.014-1.28-.03Zm2.433 2.817-.002.004-.001.009.003-.013Zm.415-.3a1.144 1.144 0 0 1-.088.003h.07l.018-.003ZM10.16 28.28v-.03l-.01-.01c.01-.45.37-.78.8-.8a.689.689 0 0 1 .31.06c.5.029 1 .043 1.5.058l.72.022c.35.01.71.03 1.05.05.34.02.66.08.91.32.23.23.3.51.34.82.11.88.11 1.78.05 2.67-.03.55-.08 1.17-.61 1.49-.366.225-.83.214-1.257.204a11.027 11.027 0 0 0-.253-.004c-.92 0-1.85-.03-2.78-.08-.43-.02-.8-.35-.8-.8l.048-3.822a.94.94 0 0 1-.018-.148Zm1.55 3.184c.63.026 1.26.036 1.89.036h.61l.001-.022.002-.022.009-.134a5.2 5.2 0 0 0 .018-.372v-.01c.01-.396.02-.783 0-1.18 0-.178-.009-.366-.027-.554a5.546 5.546 0 0 0-.373-.016l-1-.03c-.368-.012-.736-.023-1.101-.039l-.03 2.343Zm2.868-2.242c-.01.012-.03.009-.045.002.02.001.04.001.045-.002Zm-.388-.313v-.019l-.006-.06c.002.026.006.065.006.08Zm-.03-.081c.004-.003.018.02.03.08-.029-.047-.034-.077-.03-.08Zm.03 2.913v-.001.03-.03Zm-.02.02a.222.222 0 0 0 .012-.012.208.208 0 0 1-.012.031.305.305 0 0 1-.008.028l.008-.048Zm.324-.25a.085.085 0 0 0 .026-.01c-.004.004-.013.008-.026.01Zm9.276-3.051c-.02-2.26.03-4.51.14-6.77l-.01-.01a.956.956 0 0 1 .012-.111c.025-.375.282-.717.778-.689.585.034 1.173.051 1.762.07.469.014.938.028 1.408.05l.067.003c.51.018 1.047.037 1.363.497.244.347.222.817.2 1.246a7.038 7.038 0 0 0-.01.334 1619.5 1619.5 0 0 1-.035 3.467v.006a1344.82 1344.82 0 0 0-.035 3.467c-.004.229-.003.458-.003.686 0 .38.002.76-.017 1.134-.02.46-.11.89-.48 1.19-.372.307-.838.285-1.288.265l-.102-.005c-.27-.01-.538-.022-.805-.035-.268-.012-.535-.025-.805-.035a7.513 7.513 0 0 0-.327-.004c-.39 0-.817 0-1.143-.186-.42-.24-.56-.64-.59-1.1-.066-.94-.07-1.894-.076-2.839v-.001l-.004-.63Zm1.692-5.951a121.217 121.217 0 0 0-.062 8.021l.001.028c.01.24.019.471.019.712.007.107.01.209.01.31.09.006.182.01.27.01l1.42.06c.06.003.144 0 .235-.004.132-.005.281-.011.401 0a3.883 3.883 0 0 1 .028-.466c.009-.087.016-.16.016-.2l.06-5.98.02-1.49c.01-.21.01-.43.01-.64v-.289c-.588-.046-1.18-.054-1.77-.062-.22-.002-.44-.005-.659-.01Z M10.001 3.738a8.602 8.602 0 0 0 1.059-.077.82.82 0 0 1 .32-.061c2.08 0 4.16-.048 6.238-.096 2.276-.052 4.553-.104 6.832-.094l.803.001c1.821 0 3.717 0 5.477.409 1.75.4 1.85 1.89 1.9 3.43.13 4.07.24 8.29.31 12.22.018 1.021.05 2.05.084 3.083.094 2.943.19 5.915-.054 8.817a62.5 62.5 0 0 0-.017.209c-.097 1.235-.24 3.048-1.213 3.861-.49.41-1.1.43-1.699.45h-.001c-.789.03-1.583.043-2.378.056l-.792.014c-4.07.07-8.14.05-12.21-.05a90.978 90.978 0 0 0-1.726-.022c-1.423-.008-2.861-.017-4.254-.188-1.4-.17-1.49-1.18-1.49-2.4-.014-1.85.039-3.677.092-5.512.063-2.191.127-4.393.078-6.658-.072-3.33-.221-6.654-.37-9.977L6.88 8.67a25.944 25.944 0 0 0-.037-.605c-.085-1.26-.186-2.734.767-3.635.67-.636 1.528-.664 2.391-.692ZM20.91 5.04c-1.124.018-2.246.043-3.368.068-2.017.045-4.033.09-6.052.092-.411.07-.818.087-1.228.104-.17.008-.34.015-.512.026-1.2.08-1.36.81-1.34 1.84.027 1.38.098 2.766.17 4.15.03.61.062 1.22.09 1.83.16 3.82.32 7.64.32 11.46a125.217 125.217 0 0 1-.144 6.269 86.98 86.98 0 0 0-.056 1.501v.91c0 .15.005.303.01.455.005.153.01.305.01.455v-.1c.142.134.832.094 1.225.071.105-.006.188-.011.235-.011l.054.003c.391.019.774.038 1.166.047.74.03 1.47.05 2.2.07a292.02 292.02 0 0 0 15.13.04c.127-.003.277.004.435.012.35.018.742.038 1.025-.052.585-.195.66-.524.766-1.001l.044-.189c.19-.78.28-1.58.32-2.38.06-1.179.046-2.37.031-3.554-.004-.362-.009-.725-.011-1.086-.03-3.34-.08-6.68-.16-10.02-.04-1.71-.08-3.42-.13-5.13-.01-.405-.023-.812-.035-1.219V9.7c-.013-.407-.025-.814-.035-1.219-.007-.22.002-.462.01-.712.02-.55.04-1.14-.09-1.608-.354-1.254-3.008-1.183-4.592-1.142-.298.008-.558.015-.758.012-1.58-.03-3.15-.02-4.73.01Z"/>
</svg>
