<svg xmlns="http://www.w3.org/2000/svg" width="40" height="40" fill="none" viewBox="0 0 40 40">
  <path class="display-icon__fill-2" fill="#B6E5FF" d="m20.7 1.18 5.72 13.75s-4.8-.56-8.72 2.86c-3.92 3.42-4.34 5.35-4.67 8.76L1.15 17.67s1.52-7.31 7.1-11.32C13.84 2.34 20.7 1.18 20.7 1.18Z"/>
  <path class="display-icon__fill-1" fill="#52B0FF" d="M27.45 39.01c-3.96-.09-7.26-1.22-9.55-4.32-1.66-2.24-2.2-4.8-2.13-7.5.08-2.83.84-5.45 2.88-7.59 2.74-2.88 6.25-3.69 10.13-3.35 3.61.32 6.63 1.79 8.42 4.91 2.42 4.23 2.41 8.62 0 12.84-1.74 3.04-4.69 4.49-8.21 4.89-.55.06-1.11.08-1.51.11l-.03.01Z"/>
  <path class="display-icon__ink" fill="#1C1D1F" d="M27.858 28.98a.757.757 0 0 0 .24-.357l.032-.073.018-.042c.077-.183.172-.408.292-.668.054-.125.11-.246.167-.366.038-.082.077-.163.113-.244a11.447 11.447 0 0 0 .37-.86l.04-.09c.042-.09.084-.18-.01 0 .37-.71.7-1.44.99-2.19.15-.39-.17-.89-.56-.98-.46-.1-.82.14-.98.56l.02-.01a23.076 23.076 0 0 1-.18.44l.023-.053a1.91 1.91 0 0 1-.067.163 10.473 10.473 0 0 1-.266.56l-.064.129c-.13.26-.264.525-.376.791l-.045.115-.045.115a.24.24 0 0 1-.016.037l-.015.036a8.4 8.4 0 0 0-.1.22l-.014.032c-.037.085-.075.17-.115.255l-.033.071a10.3 10.3 0 0 1-.302-.626.457.457 0 0 1-.015-.045c-.08-.2-.17-.36-.37-.48a.832.832 0 0 0-.62-.08c-.2.06-.38.18-.48.37-.1.19-.16.42-.08.62.2.51.44 1.02.72 1.49.18.31.35.63.52.96.19.37.75.51 1.09.29a.961.961 0 0 0 .118-.09Zm-.848-2.95-.026-.062.026.062Zm-1.93-8.22c.09.05.18.1.26.16.026.015.05.033.076.05l.009.007c.022.015.044.03.066.043.02.01.16.11.07.05s.06.05.06.05c.02.015.04.033.06.05a5.052 5.052 0 0 1 .3.28c.29.3.84.32 1.13 0 .53-.59.92-1.27 1.31-1.95l.05-.085a7.88 7.88 0 0 1 .53-.835 1.28 1.28 0 0 1 .027-.035l.016-.02-.008.011c.004-.004.018-.02.045-.046l.045-.055c.042-.05.083-.1.135-.145.13-.14.27-.26.41-.38.33-.26.29-.86 0-1.13-.35-.32-.78-.28-1.13 0-.61.48-1.04 1.16-1.43 1.82-.18.32-.36.64-.55.95-.034.05-.066.101-.098.152l-.024.038a5.34 5.34 0 0 0-.548-.35c-.37-.2-.89-.1-1.09.29-.2.39-.1.88.29 1.09l-.01-.01Zm-7.41 1.07-1.23-.98-.01.01c-.35-.28-.27-.84 0-1.13.14-.14.37-.23.57-.23.23 0 .4.09.57.23l.487.389a21.733 21.733 0 0 1 2.113-2.509c.31-.32.81-.29 1.13 0 .32.29.29.83 0 1.13a20.074 20.074 0 0 0-1.395 1.565c-.028.035-.055.07-.085.105a1.569 1.569 0 0 1-.056.073c-.04.057-.082.112-.124.167a4.427 4.427 0 0 0-.14.19c-.2.27-.39.55-.58.83-.14.21-.32.35-.58.38-.27.04-.46-.05-.67-.22ZM7.659 26.537c-.156-.143-.312-.286-.47-.427h.01c-.33-.3-.28-.82 0-1.13.3-.33.82-.28 1.13 0l.598.54.103-.16c.09-.145.182-.287.275-.43a25.15 25.15 0 0 0 .394-.622c.329-.532.667-1.079 1.21-1.418.37-.23.85-.08 1.09.29.24.37.06.87-.29 1.09a.974.974 0 0 0-.078.047.495.495 0 0 0-.037.043.583.583 0 0 1-.034.04.998.998 0 0 1-.093.11l-.002.005a.177.177 0 0 1-.025.035c-.093.133-.178.267-.262.4a280.318 280.318 0 0 0-.558.87l-.43.67c-.038.06-.075.124-.112.19-.113.194-.23.398-.388.54-.41.38-.93.3-1.33-.05-.239-.209-.47-.421-.701-.633Zm4.02-2.257-.045.033c.018-.019.034-.033.046-.033Zm-4.439-6.6c.34.38.7.74 1.07 1.09.31.29.82.32 1.13 0l.948-.985a405.81 405.81 0 0 0 1.922-2.005c.29-.3.32-.84 0-1.13-.32-.29-.82-.32-1.13 0-.315.329-.63.657-.946.984l-1.378 1.434a15.604 15.604 0 0 1-.486-.518c-.28-.31-.85-.31-1.13 0-.31.33-.3.8 0 1.13Z M32.54 6.83c0-.43-.37-.8-.8-.8h-8.31l-.03-.341v-.002c-.034-.406-.068-.812-.1-1.217-.03-.42-.35-.82-.8-.8-.41.02-.83.35-.8.8.032.406.066.812.1 1.217v.002l.03.341h-7.413c.03-.664.032-1.324-.056-1.99-.06-.42-.61-.68-.98-.56-.46.15-.62.54-.56.98-.03-.19 0 .11.01.15 0 .1.01.2.02.3v.54c0 .193-.009.386-.02.58H4.79c-.43 0-.8.37-.8.8v5.02c0 .04.003.078.01.115a.752.752 0 0 0-.01.115v17.48c0 .43.37.8.8.8h14.08c.06 0 .118-.005.171-.016a8.49 8.49 0 0 0 .76 1.656c1.87 3.14 5.54 4.75 9.11 4.1 4.083-.737 7.016-4.421 7.089-8.512v-.099a8.885 8.885 0 0 0-3.46-6.882V12.08a.763.763 0 0 0-.008-.108.933.933 0 0 0 .008-.122V6.83ZM14.35 8.6c0-.1-.01-.2-.02-.3v-.54l.001-.13h7.62c.025.38.046.76.059 1.14.01.42.36.82.8.8.44-.02.82-.35.8-.8a43.49 43.49 0 0 0-.058-1.14h7.388v3.42H5.59V7.63h7.158c-.01.513.004 1.025.072 1.54.06.42.61.68.98.56.46-.15.62-.54.56-.98.03.19 0-.11-.01-.15Zm6.23 13.39a8.862 8.862 0 0 0-1.906 6.77h-3.855c-.044-2.212-.12-4.424-.195-6.636l-.022-.644c2.024-.02 4.049-.033 6.073-.046l.406-.002a8.164 8.164 0 0 0-.5.558Zm2.14 1.78c.14.15.37.23.57.23.2 0 .43-.09.57-.23.14-.14.24-.35.23-.57a.856.856 0 0 0-.23-.57 16.907 16.907 0 0 0-.805-.801 7.209 7.209 0 0 1 3.456-1.365c.012.39.01.783 0 1.176-.01.42.38.82.8.8a.83.83 0 0 0 .8-.8c.01-.394.01-.784-.004-1.174a7.04 7.04 0 0 1 3.451 1.402l-.068.062c-.21.2-.41.42-.6.64-.08.07-.13.16-.17.26-.05.1-.07.2-.07.31 0 .2.09.43.23.57.14.14.35.24.57.23.2 0 .43-.07.57-.23a7.35 7.35 0 0 1 .693-.734 7.294 7.294 0 0 1 1.611 3.612c-.492.025-.988.027-1.484.012-.42-.01-.82.38-.8.8.02.42.35.79.8.8.514.015 1.022.008 1.533-.019a7.332 7.332 0 0 1-1.5 3.756c-.102-.121-.206-.24-.313-.357-.2-.21-.42-.41-.64-.6a.654.654 0 0 0-.26-.17.67.67 0 0 0-.31-.07c-.2 0-.43.09-.57.23-.14.14-.24.35-.23.57 0 .2.07.43.23.57.353.29.68.618.978.969a6.9 6.9 0 0 1-2.038 1.151c-.59.211-1.196.34-1.805.39.037-.46.036-.925-.005-1.39-.02-.22-.08-.41-.23-.57a.81.81 0 0 0-.57-.23c-.2.01-.42.08-.57.23-.14.15-.25.36-.23.57.04.45.042.899.009 1.343a7.232 7.232 0 0 1-3.728-1.69c.348-.393.71-.767 1.089-1.123a.81.81 0 0 0 .23-.57c0-.2-.09-.43-.23-.57a.776.776 0 0 0-.57-.23c-.22.01-.41.08-.57.23-.36.338-.71.698-1.041 1.068a7.031 7.031 0 0 1-1.278-3.297 8.46 8.46 0 0 0 1.199-.041c.22-.02.41-.08.57-.23a.81.81 0 0 0 .23-.57.876.876 0 0 0-.23-.57c-.15-.14-.36-.25-.57-.23-.4.04-.806.053-1.207.037a7.117 7.117 0 0 1 1.659-3.858c.293.271.576.55.848.84Zm7.62-4.39a8.388 8.388 0 0 0-2.854-.54.68.68 0 0 0-.226-.03.961.961 0 0 0-.215.034 8.975 8.975 0 0 0-3.38.792 92.043 92.043 0 0 0-.165-3.076c-.081-1.09-.077-2.191-.072-3.29l.001-.39h7.511v6.754a8.741 8.741 0 0 0-.6-.254Zm-8.51-6.247c-.003 1.142-.006 2.285.07 3.427.077 1.091.133 2.176.172 3.265l-1.397.01c-2.042.012-4.084.025-6.126.045a267.87 267.87 0 0 1-.155-7h7.436v.253Zm-8.802 9.326c.073 2.1.145 4.2.19 6.301H5.59v-7.13c2.469-.064 4.937-.105 7.405-.134l.033.963Zm-.236-9.579c.012 2.34.074 4.678.15 7.017-2.45.029-4.901.07-7.352.134v-7.15h7.202Z"/>
</svg>
