<svg xmlns="http://www.w3.org/2000/svg" width="40" height="40" fill="none" viewBox="0 0 40 40">
  <path class="display-icon__fill-2" fill="#B6E5FF" d="M36.69 3.8c-11.6 4.73-23.2 9.46-34.81 14.19-.46-1.14-.92-2.26-1.39-3.41C12.09 9.85 23.69 5.13 35.3.39c.46 1.12.92 2.25 1.39 3.41Z"/>
  <path class="display-icon__fill-1" fill="#52B0FF" d="m32.91 8.18 3.61 20.31s-8.68.45-11.34 2.67c-2.66 2.22-3.9 2.92-4.11 7.64L8.28 26.3s2.62-8.9 9.57-13.21c6.95-4.31 15.06-4.91 15.06-4.91Z"/>
  <path class="display-icon__ink" fill="#1C1D1F" d="M7.14 11.85c-.2 6.03-.28 12.07-.26 18.1 0 .43.37.8.8.8 2.314.006 4.628.034 6.942.062 5.605.068 11.209.136 16.808-.112 1.03-.05 1.03-1.65 0-1.6-5.606.248-11.207.18-16.81.112-1.8-.022-3.601-.044-5.403-.055l.027-.059c.377-.828.752-1.654 1.156-2.468.25-.51.52-1.01.8-1.5.032-.056.075-.138.127-.235.19-.36.492-.931.772-1.212.367.315.725.804 1.037 1.23.154.21.296.405.424.557.22.26.69.3.97.13 1.262-.79 1.828-2.01 2.403-3.247.244-.525.489-1.054.79-1.554a59.859 59.859 0 0 0 4.707 5.181c.29.28.85.33 1.13 0 1.205-1.437 2.013-3.08 2.825-4.733.347-.706.695-1.413 1.075-2.107 1.17-2.16 2.72-3.99 4.35-5.81.69-.76-.44-1.9-1.13-1.13-1.55 1.73-3.07 3.48-4.24 5.5-.49.843-.914 1.727-1.339 2.612-.648 1.35-1.296 2.7-2.177 3.907a59.885 59.885 0 0 1-4.674-5.309c-.25-.32-.88-.31-1.13 0-.512.631-.873 1.427-1.236 2.226-.445.98-.892 1.964-1.622 2.66l-.06-.084c-.497-.679-1.078-1.474-1.752-1.682-.81-.25-1.35.36-1.78.96-.88 1.215-1.562 2.56-2.192 3.926A488.28 488.28 0 0 1 8.74 11.85c.03-1.03-1.57-1.03-1.6 0Z M3.72 8.95a.886.886 0 0 1 .033-.21.752.752 0 0 1 .747-.6c10.37-.23 20.77-.4 31.14-.18.44.01.79.36.8.8.121 4.255.055 8.51-.011 12.765-.027 1.725-.054 3.45-.069 5.175-.002.33.004.668.01 1.01.034 1.943.07 4.018-1.52 5.37-1.289 1.091-3.295 1.137-5.026 1.177-.363.008-.714.016-1.044.033-5.596.3-11.201.096-16.798-.108l-.611-.022c-.434-.016-.917-.006-1.423.003-1.745.033-3.773.07-5.068-.883-.81-.59-1.06-1.51-1.14-2.47-.08-1.012-.102-2.024-.123-3.036-.008-.368-.016-.736-.027-1.104-.16-5.91-.12-11.82.13-17.72Zm1.568.793c-.22 5.557-.25 11.122-.098 16.687.011.364.02.724.029 1.083.023.965.046 1.927.111 2.947.09 1.4.73 1.84 2.09 1.95 1.686.14 3.39.177 5.091.214.732.016 1.462.032 2.19.056 5 .17 10.01.27 15-.04l.546-.032c2.171-.12 4.384-.242 4.504-3.018.064-1.53.062-3.067.06-4.605 0-.866-.001-1.73.01-2.595l.017-1.124c.062-3.896.123-7.799.033-11.702-9.862-.19-19.731-.036-29.583.179Z"/>
</svg>
