<svg xmlns="http://www.w3.org/2000/svg" width="40" height="40" fill="none" viewBox="0 0 40 40">
  <path class="display-icon__fill-2" fill="#B6E5FF" d="m10.62 1.43 9.56 11.15s-3.65 1.52-5.08 4.52c-1.13 2.37-1.22 4.15-.92 6.61L2.44 20.9s-1.6-6.21.99-11.23c2.6-5.01 7.19-8.24 7.19-8.24Z"/>
  <path class="display-icon__fill-1" fill="#52B0FF" d="M38.25 19.53c.97 3.86.7 7.38-1.8 10.46-1.81 2.23-4.25 3.47-6.98 4.14-2.87.7-5.71.69-8.41-.7-3.62-1.86-5.38-5.04-6.07-8.9-.64-3.59.04-6.93 2.71-9.52 3.62-3.51 8.04-4.72 12.94-3.54 3.52.85 5.76 3.31 7.11 6.62.21.52.38 1.06.51 1.44h-.01Z"/>
  <path class="display-icon__ink" fill="#1C1D1F" d="M11.365 4.273a67.338 67.338 0 0 1 1.605.007v-.01c.083.002.16.014.23.034 4.069-.048 8.13-.094 12.19-.094 1.09 0 2.18.018 3.27.036 2.18.035 4.357.07 6.53-.036.45-.02.78.38.8.8.159 3.12.174 6.252.19 9.378v.002a636.866 636.866 0 0 0 .04 4.93c.007.652.015 1.306.02 1.96.002.225.019.473.037.733.057.834.122 1.783-.267 2.447-.38.65-1.12.86-1.82.92-.846.076-1.71.066-2.57.056l-.34-.004c.004.78.016 1.56.027 2.342.034 2.323.068 4.652-.097 6.966-.04.54-.67 1.08-1.2.69-1.836-1.345-3.412-2.97-5.001-4.608l-.09-.092c-1.1-1.13-2.14-2.32-3.07-3.6-.222-.313-.485-.61-.75-.91-.326-.368-.655-.74-.913-1.145-.379-.02-.757-.041-1.136-.06.116.793.203 1.606.14 2.375-.07.8-.54 1.18-1.3 1.26-.56.056-1.131.044-1.698.031-.241-.005-.482-.01-.722-.01-.168.005-.336 0-.504-.004a11.774 11.774 0 0 0-.336-.007l-.151.002a3.18 3.18 0 0 1-.309-.002 1.227 1.227 0 0 0-.15-.006c-.261.239-.494.543-.717.834-.082.107-.163.213-.243.312l-.463.573c-.345.425-.688.849-1.027 1.277-.683.86-1.56 1.401-2.462 1.957-.326.2-.654.403-.978.623-.4.27-1.11.02-1.18-.48a40.889 40.889 0 0 1-.45-5.087c-1.253-.001-2.646-.058-2.95-1.493-.128-.598-.114-1.236-.1-1.88.005-.206.01-.413.01-.62 0-.85.01-1.71.02-2.56.02-.9.04-1.81.04-2.71l.002-.146c.007-.645.015-1.307.368-1.874.72-1.155 2.577-1.039 3.894-.957.071.005.14.01.209.013a91.706 91.706 0 0 1-.203-3.056c-.13-2.78-.13-5.58-.11-8.37 0-.41.37-.83.8-.8.964.07 1.924.067 2.885.063Zm-3.24 13.784a22.713 22.713 0 0 0-1.982.01c-.53.015-.943.027-1.023.653-.084.722-.067 1.482-.05 2.23.008.403.017.802.01 1.19-.01 1.2-.02 2.4 0 3.6 0 .083-.004.172-.008.264-.01.226-.022.466.028.666l.01.04c.032.125.049.189.088.229.042.041.109.057.246.09l.046.011c.362.087.8.076 1.219.065A9.85 9.85 0 0 1 7.3 27.1c.43.01.8.36.8.8 0 1.441.082 2.882.25 4.318.765-.47 1.502-.937 2.09-1.678.186-.231.37-.465.555-.7.574-.727 1.15-1.457 1.755-2.13.645-.717 1.563-.68 2.466-.645.217.009.433.017.644.015.258-.007.518 0 .779.007.329.009.66.018.986-.003v-.008a1.234 1.234 0 0 0-.035-.206c-.038-.16-.04-.374-.041-.575 0-.113-.002-.222-.009-.315-.026-.35-.066-.695-.113-1.04-.402-.015-.805-.03-1.207-.04-.48-.013-.959-.01-1.436-.008-.596.003-1.19.006-1.784-.022a25.4 25.4 0 0 1-1.72-.146c-.693-.074-1.385-.148-2.08-.154-.43 0-.8-.36-.8-.8.016-1.902-.122-3.808-.276-5.713Zm4.303-12.194a101.68 101.68 0 0 0-1.063 0c-.697.003-1.393.006-2.09-.02-.014 2.504-.002 5.028.115 7.527.063 1.285.17 2.574.276 3.864.158 1.918.316 3.84.334 5.757.466.03.93.08 1.396.128.61.064 1.22.128 1.834.151.5.015.997.012 1.495.01.497-.003.995-.005 1.495.01 1.48.05 2.96.12 4.44.2.379.02.616.228.758.562-.054-.136.039.015.115.138.034.055.065.105.077.12.11.13.225.255.34.38.115.125.23.25.34.38.306.353.577.733.849 1.113.135.19.27.38.41.567.85 1.12 1.81 2.15 2.79 3.15l.377.386h.002c.967.991 1.928 1.975 2.976 2.869.07-1.853.042-3.716.015-5.576-.015-.988-.03-1.975-.03-2.959 0-.44.37-.8.8-.8.31-.003.67.02 1.049.044.806.053 1.692.11 2.332-.074.662-.195.698-.418.792-1.003l.008-.047c.058-.345.032-.732.007-1.108a8.77 8.77 0 0 1-.027-.592c-.03-2.11-.05-4.22-.07-6.329v-.001a811.12 811.12 0 0 1-.015-1.849c-.016-2.339-.032-4.681-.128-7.02-1.926.067-3.853.036-5.777.005-1.087-.018-2.174-.036-3.26-.036-4.23 0-8.45.05-12.67.1a.828.828 0 0 1-.292-.047Z"/>
</svg>
