<svg xmlns="http://www.w3.org/2000/svg" width="40" height="40" fill="none" viewBox="0 0 40 40">
  <path class="display-icon__fill-2" fill="#B6E5FF" d="m32.91 8.18 3.61 20.31s-8.68.45-11.34 2.67c-2.66 2.22-3.9 2.92-4.11 7.64L8.28 26.3s2.62-8.9 9.57-13.21c6.95-4.31 15.06-4.91 15.06-4.91Z"/>
  <path class="display-icon__fill-1" fill="#52B0FF" d="M36.69 3.8c-11.6 4.73-23.2 9.46-34.81 14.19-.46-1.14-.92-2.26-1.39-3.41C12.09 9.85 23.69 5.13 35.3.39l1.39 3.41Z"/>
  <path class="display-icon__ink" fill="#1C1D1F" d="M15.32 25.69c.07-1.4.025-2.797-.02-4.195-.013-.423-.027-.847-.037-1.27a27.975 27.975 0 0 0-1.703-.905c-.92-.45-.11-1.83.81-1.38.294.143.586.291.877.445a30.3 30.3 0 0 1 .033-1.085h-.01a.798.798 0 0 1 .167-.466.887.887 0 0 1 .643-.334c1.056-.076 2.118-.025 3.176.026.335.016.67.032 1.004.044.464.016.925.011 1.385.003A82.347 82.347 0 0 1 23.11 13c.58-1.33 1.19-2.68 2.09-3.83.63-.81 1.76.33 1.13 1.13-.878 1.124-1.587 2.855-2.185 4.316l-.105.254c-.233.564-.46 1.13-.682 1.697.1.003.202.008.302.013.43.02.8.35.8.8-.01.779.07 1.554.15 2.33.07.68.141 1.359.15 2.04.01.87-.05 1.74-.19 2.6-.08.46-.11.72 0 1.22s-.23 1.01-.77 1.01c-1.99.008-3.982-.027-5.973-.061l-1.707-.029c-.42-.01-.82-.36-.8-.8Zm1.57-4.195c.037 1.135.073 2.27.049 3.406l1.732.026c1.406.022 2.813.044 4.219.05a3.199 3.199 0 0 1 .04-.587c.14-.83.23-1.64.23-2.48 0-.738-.075-1.472-.15-2.204a30.395 30.395 0 0 1-.133-1.543h-.13a322.86 322.86 0 0 0-.757 2.037c-.12.326-.233.663-.346 1.004-.252.758-.508 1.53-.874 2.206-.612 1.13-1.41.228-1.936-.365l-.094-.105a12.42 12.42 0 0 0-1.856-1.66l.006.215Zm3.37-3.325c-.265-.011-.531-.025-.798-.038-.872-.044-1.747-.087-2.62-.067-.008.413-.01.827-.006 1.24 1.062.677 2.06 1.455 2.915 2.369.208-.557.412-1.115.616-1.674.221-.606.443-1.212.67-1.818-.26 0-.518-.003-.777-.012Zm.195 4.335Zm-.705 7.785c-1.243.058-2.485.115-3.73.17-1.03.05-1.03-1.55 0-1.6 1.245-.055 2.487-.112 3.73-.17 1.242-.057 2.485-.115 3.73-.17 1.03-.05 1.03 1.55 0 1.6-1.244.055-2.485.113-3.725.17h-.005Z M9.079 18.006a.886.886 0 0 0-.019.184l.01-.01a1152.022 1152.022 0 0 0 .16 17.61c0 .43.36.8.8.8 1.75-.016 3.504-.043 5.26-.07h.001c4.813-.073 9.637-.147 14.43 0 .43.01.8-.38.8-.8-.02-1.352.064-2.716.148-4.076.052-.854.104-1.706.131-2.554.08-2.7.1-5.4.08-8.1-.028-5.017-.199-10.042-.369-15.06l-.03-.91c-.01-.41-.36-.82-.8-.8-6.75.37-13.5.55-20.26.55-.43 0-.8.37-.8.8.008 1.759.127 3.527.246 5.296.162 2.385.323 4.772.212 7.14Zm1.581.273a.92.92 0 0 0 .01-.1c.128-2.424-.037-4.87-.203-7.313-.101-1.501-.202-3.002-.236-4.497A380.289 380.289 0 0 0 28.91 5.86l.003.097c.17 5.008.34 10.016.368 15.033.02 2.62 0 5.24-.08 7.86-.025.945-.082 1.892-.139 2.84-.065 1.073-.13 2.146-.147 3.217-4.679-.12-9.385-.047-14.08.026-1.343.02-2.685.042-4.025.058-.076-5.57-.148-11.141-.149-16.712Z"/>
</svg>
