<svg xmlns="http://www.w3.org/2000/svg" width="40" height="40" fill="none" viewBox="0 0 40 40">
  <path class="display-icon__fill-2" fill="#B6E5FF" d="M31.01 23.9c-7.89-.45-15.67-.9-23.5-1.35-.02-.16-.06-.3-.05-.44.22-3.71.35-7.43.71-11.13.16-1.6.61-3.23 1.26-4.7 1.42-3.24 4.13-4.73 7.59-4.87 4.39-.18 8.35.8 11.24 4.42 1.66 2.09 2.39 4.56 2.79 7.14.56 3.62.2 7.23-.04 10.93Z"/>
  <path class="display-icon__fill-1" fill="#52B0FF" d="M11.95 24.45c4.92.28 9.76.56 14.64.84.01.1.04.19.03.27-.14 2.31-.22 4.63-.44 6.94-.1 1-.38 2.01-.78 2.93-.88 2.02-2.57 2.94-4.73 3.03-2.73.11-5.2-.5-7-2.75-1.03-1.3-1.49-2.84-1.74-4.45-.35-2.25-.12-4.51.03-6.81h-.01Z"/>
  <path class="display-icon__ink" fill="#1C1D1F" d="M13.93 8.25c.05.07.02.02-.01-.02l-.09-.12c-.06-.08-.12-.17-.17-.26l-.18-.3a1.54 1.54 0 0 0-.021-.04 1.03 1.03 0 0 1-.049-.1.649.649 0 0 0-.036-.08.506.506 0 0 0-.034-.08.737.737 0 0 1-.04-.14.736.736 0 0 0-.024-.087l-.016-.053c0-.02-.02-.16-.02-.08v-.23c.01-.06.02-.12.04-.18a.572.572 0 0 1 .02-.07.535.535 0 0 1 .031-.1l.005-.008.054-.102a7.15 7.15 0 0 1 .07-.13c.031-.056.067-.109.1-.16a3.192 3.192 0 0 0 .087-.13l.004-.007.004-.006-.035.033c.015-.02.03-.037.045-.055a.886.886 0 0 0 .045-.055c.33-.41.65-.85.62-1.41-.02-.42-.35-.82-.8-.8-.42.02-.82.35-.8.8v.02a2.336 2.336 0 0 1-.207.305.718.718 0 0 0-.073.095c-.1.12-.19.24-.28.37-.3.44-.5.94-.56 1.48-.11 1.08.52 2.02 1.15 2.82.26.33.86.29 1.13 0 .32-.35.28-.78 0-1.13l.04.01Zm-.598-1.94.004-.008a.065.065 0 0 0 .007-.016l-.011.024Z M15.51 4.29c-.88.33-1.5 1.09-1.58 2.04-.07.82.38 1.47.84 2.1l.04.054.012.018a3.015 3.015 0 0 1 .27.42c.05.085.056.095.088.258 0 .016.003.018.006.019.004.002.006.003-.006.051l-.05.19a2.24 2.24 0 0 1-.227.354l-.063.086c-.51.72-.97 1.69-.38 2.52.25.35.7.52 1.09.29.35-.2.54-.74.29-1.09a.216.216 0 0 1-.025-.035.333.333 0 0 0-.02-.03.974.974 0 0 0-.003-.046.883.883 0 0 1 .118-.31c.084-.152.188-.293.292-.436.094-.127.188-.256.268-.393.4-.7.4-1.46.04-2.17-.115-.226-.279-.443-.44-.657-.19-.252-.377-.5-.48-.753-.12-.29.02-.78.36-.91.4-.15.68-.54.56-.98-.11-.39-.58-.71-.98-.56l-.02-.03Zm11.24 11.058a92.409 92.409 0 0 1-.056-.157c-.17-.476-.342-.962-.624-1.38-.42-.62-.95-.76-1.67-.76h-7.18c-.23 0-.463-.008-.697-.015-.558-.017-1.12-.034-1.663.044-.991.146-1.334.96-1.676 1.77-.08.191-.16.382-.249.563l-.615-.003c-.351 0-.583.185-.694.429a.815.815 0 0 0-.096.371c-.02.63 0 1.26.02 1.89 0 .102-.006.211-.012.325-.02.377-.043.795.142 1.095.205.34.578.425.959.442.09.869.189 1.736.288 2.603.22 1.923.44 3.845.553 5.785.06 1.007.087 2.019.114 3.03.036 1.348.072 2.697.186 4.04.07.88.71.93 1.42.93.804 0 1.608-.009 2.414-.018.408-.004.817-.009 1.226-.012 1.51-.02 3.03-.03 4.54-.03.171 0 .366.018.567.037.4.036.828.076 1.153-.017.781-.216.74-1.198.71-1.937a8.979 8.979 0 0 1-.01-.413c.026-1.173.113-2.344.2-3.514.078-1.065.157-2.13.19-3.196.043-1.256.083-2.51.124-3.762a.936.936 0 0 0 .009-.27c.035-1.1.07-2.2.108-3.3l.589-.008c.45 0 .78-.36.8-.8.026-.508.014-1.018.002-1.53-.01-.476-.021-.953-.002-1.43.02-.43-.38-.8-.8-.8l-.27-.002Zm-12.083.066c.02-.052.042-.103.063-.154.017-.037.035-.084.055-.134.059-.15.13-.331.235-.406.096-.074.218-.071.344-.069.045 0 .091.002.136 0h8.41c.045 0 .131-.01.231-.019.21-.02.481-.046.549-.012.168.078.296.41.393.722-1.878 0-3.757.018-5.636.036-1.593.016-3.187.031-4.78.036Zm10.071 7.202c-3.397.175-6.802.2-10.207.072l-.022-.195c-.096-.843-.192-1.687-.28-2.533h1.43c3.06 0 6.115 0 9.172-.026-.029.894-.06 1.788-.093 2.681ZM14.71 24.294c3.318.119 6.643.093 9.968-.077a701.76 701.76 0 0 1-.268 6.162c-3.073.005-6.146.04-9.227.108-.025-.573-.053-1.145-.083-1.718a85.655 85.655 0 0 0-.39-4.475Zm.58 9.005c-.013-.405-.027-.81-.042-1.213 3.025-.067 6.051-.102 9.084-.107a845.68 845.68 0 0 1-.139 2.71H22c-.726 0-1.453.009-2.18.018-.363.004-.726.009-1.09.012-.62 0-1.24.009-1.86.018l-.93.012h-.604a75.499 75.499 0 0 1-.046-1.45Zm.094 2.151c-.007.002-.021-.036-.024-.12.03.076.03.118.024.12Zm4.508-18.47c2.104-.02 4.209-.04 6.313-.035.001.244.007.49.012.734.005.213.01.426.012.639-2.355.025-4.703.041-7.06.041h-5.66a17.996 17.996 0 0 0-.37.004v-.474a56.973 56.973 0 0 1-.017-.875c2.258.01 4.514-.011 6.77-.033Z"/>
</svg>
