<svg xmlns="http://www.w3.org/2000/svg" width="40" height="40" fill="none" viewBox="0 0 40 40">
  <path class="display-icon__fill-2" fill="#B6E5FF" d="m39.49 25-18.52 2.09s.09-7.85-1.76-10.38c-1.85-2.53-2.41-3.68-6.65-4.15L24.57 1.74s7.88 2.87 11.36 9.39c3.48 6.52 3.56 13.86 3.56 13.86V25Z"/>
  <path class="display-icon__fill-1" fill="#52B0FF" d="M.49 37.85c.81-2.15 1.66-4.21 2.33-6.33.4-1.24.99-2.06 2.33-2.21.27-.03.53-.2.79-.32 1.31-.64 1.96-1.59 1.88-2.73-.11-1.5-.91-2.67-2.31-3.01-1.17-.28-2.41-.31-3.62-.45-.15-.02-.29-.01-.53-.02.4-1.08.78-2.09 1.16-3.1.84-2.2 1.7-4.4 2.51-6.61.2-.55.44-.77 1.06-.76 2.15.03 4.27.16 6.33.84 3.09 1.02 5.07 3.14 6.12 6.18 1.18 3.43 1.4 6.84-.31 10.17-1.32 2.57-3.48 4.28-6.02 5.54-3.56 1.76-7.36 2.59-11.3 2.85-.11 0-.21-.01-.43-.03l.01-.01Z"/>
  <path class="display-icon__ink" fill="#1C1D1F" d="M27.22 10.05c1.02.17 2.12.31 3.04-.28.39-.25.7-.59.88-1.01.22-.52.18-1.05.12-1.59a.837.837 0 0 0-.009-.07 1.292 1.292 0 0 1-.008-.416c.019-.01.027-.017.027-.017a2.672 2.672 0 0 1 .677-.127 4.5 4.5 0 0 0 .473-.06c.93-.17 1.79-.66 2.44-1.33.72-.74-.41-1.87-1.13-1.13-.5.51-1.13.83-1.83.93l-.15.02c-.72.09-1.498.19-1.9.9-.24.42-.24.9-.19 1.37.006.068.015.137.023.206.02.165.041.332.027.494-.01.12-.05.24-.07.27-.397.576-1.345.413-1.985.303l-.015-.003c-.43-.07-.86.11-.98.56-.11.38.13.91.56.98Zm4.043-3.381.007-.002c.001-.001-.004 0-.007.002Zm-.008-.032a.458.458 0 0 1 .005-.017l-.001.005-.004.012ZM14.25 9.7c1.89-1.89 3.9-3.67 6-5.32.23-.183.51-.274.772-.209a.787.787 0 0 1 .578.209c.477.417.86.911 1.243 1.405.323.417.647.834 1.027 1.205.38.37.27.99-.16 1.26-1.873 1.189-3.473 2.755-5.056 4.303l-.324.317c-.33.33-.79.27-1.13 0-.54-.436-1.122-.812-1.704-1.187a30.537 30.537 0 0 1-1.086-.723c-.41-.3-.55-.87-.16-1.26Zm6.626-3.792a65.759 65.759 0 0 0-4.805 4.24l.314.208c.44.29.88.58 1.308.89 1.39-1.363 2.81-2.712 4.4-3.842-.14-.17-.275-.344-.41-.517-.26-.335-.519-.67-.807-.979ZM5.76 8.09l.002.012a.42.42 0 0 0-.001-.042v-.14a.335.335 0 0 0-.001-.017V7.9c.006-.02.01-.043.016-.065l.015-.065c0-.02.06-.2.03-.1-.015.045-.01.032 0 .007s.025-.062.03-.067c.05-.09.1-.18.16-.27l.01-.014a.166.166 0 0 0 .02-.016.908.908 0 0 0 .042-.047c.018-.02.036-.042.058-.063a4.12 4.12 0 0 1 .196-.182.333.333 0 0 0 .084-.068c.025-.015.05-.033.075-.05.025-.018.05-.035.075-.05l.046-.026a.587.587 0 0 1 .084-.044c.012 0 .08-.033.11-.05a.419.419 0 0 0 .06-.03l.1-.03.1-.03c.086-.027.173-.045.26-.062l.13-.028.007-.002a5.31 5.31 0 0 0 .394-.02 2.41 2.41 0 0 1 .269.002c.542 0 .985.063 1.45.13l.07.01c.41.06.88-.1.98-.56.09-.38-.12-.92-.56-.98-1.38-.2-2.85-.4-4.15.26-.55.28-1.02.72-1.35 1.23-.37.58-.47 1.23-.37 1.9.06.42.61.68.98.56.46-.15.62-.54.56-.98l.02-.01Zm3.91 2.5c1.03 0 1.03-1.6 0-1.6s-1.03 1.6 0 1.6Zm13.031 3.222a.876.876 0 0 0-.04.108c-.05.15-.07.3-.08.45 0 .13.01.26.03.39.015.102.049.192.092.284a.854.854 0 0 0 .149.252l.018.024c.03.04.07.09.11.13.07.06.14.12.22.17.083.058.18.096.268.13l.03.011.022.009c.05.02.1.03.16.04.12.02.24.04.36.03l.018-.002c.106-.01.229-.02.342-.058l.033-.012a1.16 1.16 0 0 0 .217-.098c.05-.03.1-.07.15-.11a.636.636 0 0 1 .055-.04c.03-.023.06-.045.085-.07.06-.07.12-.15.17-.22a.179.179 0 0 0 .033-.054l.004-.01.003-.006c.04-.08.08-.17.11-.26 0-.015.005-.027.01-.04a2.533 2.533 0 0 0 .05-.33c0-.12-.02-.25-.04-.37a1.404 1.404 0 0 0-.104-.31l-.016-.04c-.1-.23-.28-.4-.48-.54a1.223 1.223 0 0 0-.24-.12l-.01-.006a2.996 2.996 0 0 1-.08-.034.845.845 0 0 0-.235-.06 1.027 1.027 0 0 0-.325-.02l-.014.002c-.086.01-.181.02-.276.048-.1.03-.18.07-.26.11a.8.8 0 0 0-.29.23c-.113.13-.187.246-.248.392Zm8.669-.882c.307-.184.768-.122 1.005.16a.762.762 0 0 1 .236.439l.219.453c.4.83.8 1.664 1.29 2.428.128.201.271.404.418.61.473.666.973 1.37 1.042 2.18.04.45-.17.87-.62 1.02-.253.084-.542.063-.807.044l-.053-.004h-1.92l-1.264-.012c-.853-.009-1.71-.018-2.566-.018-.53 0-.89-.5-.77-1.01.373-1.553 1.298-2.813 2.222-4.073.42-.574.842-1.148 1.21-1.749a.77.77 0 0 1 .358-.468Zm-.15 2.947c-.662.885-1.325 1.774-1.759 2.763.696.006 1.39.01 2.089.01.53.01 1.07.02 1.6.02h.57a7.469 7.469 0 0 0-.24-.39c-.112-.17-.227-.335-.342-.499a15.038 15.038 0 0 1-.478-.711 21.017 21.017 0 0 1-.978-1.818 52.94 52.94 0 0 1-.463.625ZM34 19.38l.007-.027c.033.098.03.102-.007.027Zm-7.37 7.86 1.59-1.27h.02c.066-.052.135-.096.207-.13.28-.302.763-.42 1.143-.05a169.1 169.1 0 0 1 4.94 5.08c.31.33.3.8 0 1.13-.42.46-.87.91-1.32 1.33l-.136.13-.02.02c-.414.401-.892.864-1.504.59-.185-.079-.345-.233-.502-.385a4.576 4.576 0 0 0-.188-.175 45.25 45.25 0 0 1-.354-.315 78.45 78.45 0 0 1-1.725-1.575c-.46-.43-.92-.87-1.38-1.31l-.72-.69a6.386 6.386 0 0 0-.206-.186c-.192-.168-.39-.343-.515-.554-.43-.74.15-1.22.67-1.64Zm2.336.182-.675.538-.57.45c.574.574 1.172 1.13 1.767 1.683l.372.347c.335.314.686.62 1.037.927.356.311.713.623 1.056.945l.078-.072c.15-.13.3-.27.44-.41.134-.13.267-.263.399-.397a168.977 168.977 0 0 0-3.904-4.011ZM20.99 20.85c.6 0 1.16.18 1.69.48.47.27.83.6.96 1.08.13.48.08.99-.09 1.52-.193.597-.53 1.151-.854 1.687l-.087.143c-.54.88.85 1.69 1.38.81.85-1.41 1.73-3.08 1.13-4.76-.6-1.68-2.49-2.57-4.14-2.55-1.03.01-1.03 1.61 0 1.6l.01-.01Zm-5.475-5.41c-.017-.07-.035-.14-.045-.21l-.01-.01c-.06-.43.1-.85.56-.98.37-.1.92.13.98.56.016.115.038.228.06.34.05.246.098.488.07.75-.06.61-.42 1.08-.92 1.43a4.469 4.469 0 0 1-.25.16c-.321.195-.656.398-.68.8-.03.44.26.64.6.84l.107.063c.405.237.807.473 1.073.877.37.55.35 1.25.04 1.82-.222.422-.565.71-.918 1.007-.09.076-.182.153-.272.233-.51.45-.48.94-.42 1.59.04.43-.4.8-.8.8-.46 0-.76-.37-.8-.8-.07-.68-.06-1.39.28-2 .215-.386.535-.65.861-.92.114-.095.228-.19.34-.29.32-.28.54-.5.14-.76-.124-.08-.252-.154-.38-.228-.283-.164-.566-.327-.8-.562-.8-.81-.84-2.2-.13-3.07.2-.25.45-.44.72-.62.048-.03.105-.062.165-.094.175-.093.373-.2.454-.356a.57.57 0 0 0 .02-.163 1.915 1.915 0 0 0-.045-.207ZM7.13 27.06a.08.08 0 0 1 .039-.01.834.834 0 0 1 .072-.024c.023-.008.044-.016.07-.016a3.2 3.2 0 0 0 .087-.012c.065-.009.13-.018.192-.018.19 0 .35.04.52.13.01.005.02.012.03.02.01.008.02.015.03.02.03.025.06.048.09.07.043.033.085.065.12.1a2.014 2.014 0 0 1 .265.37l.006.01c.013.024.026.048.04.07.04.08.08.16.11.25.02.03.02.05.02.08.003.029.008.06.013.09a.65.65 0 0 1 .016.19l-.002.025c-.01.083-.02.173-.038.255-.02.11-.07.23-.12.33-.05.1-.13.2-.2.28l-.05.05a1.16 1.16 0 0 1-.427.258l-.033.012c-.02.01-.05.02-.07.02a1.137 1.137 0 0 1-.57-.005l-.005-.002a1.02 1.02 0 0 1-.455-.255l-.01-.008c-.08-.059-.14-.14-.198-.218l-.008-.01a2.334 2.334 0 0 0-.054-.072.76.76 0 0 1-.12-.19 1.39 1.39 0 0 1-.12-.28 1.59 1.59 0 0 1-.048-.296l-.002-.014c-.02-.14 0-.28.04-.41.07-.19.15-.34.29-.49a.918.918 0 0 1 .167-.14l.053-.04c.08-.06.17-.09.26-.12Zm17.344 5.148a1.545 1.545 0 0 0-.264-.028c-.11 0-.22.02-.33.04-.05 0-.09.02-.13.04l-.038.015a1.598 1.598 0 0 0-.922.895 1.297 1.297 0 0 0-.08.87c0 .05.02.09.04.13.08.22.17.36.32.55a1.688 1.688 0 0 0 .76.49l.12.03c.11.02.22.04.33.04.1 0 .21-.02.31-.04.05 0 .09-.02.13-.04.22-.08.35-.16.53-.32.11-.09.2-.22.27-.33.07-.11.13-.26.17-.4l.03-.12c.02-.11.04-.22.04-.33 0-.1-.02-.21-.04-.31a.35.35 0 0 0-.02-.093l-.003-.012a1.503 1.503 0 0 0-.217-.445c-.07-.11-.14-.22-.23-.31a1.17 1.17 0 0 0-.46-.26c-.04-.01-.08-.017-.12-.025a1.427 1.427 0 0 0-.196-.037ZM4.14 15.41c-.12 2.27-.14 4.55-.06 6.82.02.57.68 1.04 1.2.69 1.77-1.19 3.65-2.21 5.61-3.04.59-.25.44-1.09 0-1.38a175.106 175.106 0 0 1-3.188-2.164A233.48 233.48 0 0 0 5.34 14.72a.697.697 0 0 0-.458-.108.767.767 0 0 0-.407.152.75.75 0 0 0-.225.246.757.757 0 0 0-.106.352.876.876 0 0 0-.004.048Zm1.54 1.465 1.222.841c.65.448 1.298.895 1.951 1.338-1.1.52-2.172 1.1-3.21 1.738a81.656 81.656 0 0 1 .037-3.917ZM11.4 31.67c1.93-.96 3.66-2.28 5.31-3.66h.003a.837.837 0 0 1 .566-.24c.123 0 .236.027.336.076a.793.793 0 0 1 .235.164c.152.152.235.38.232.601a38.168 38.168 0 0 1-.033 5.489 9.075 9.075 0 0 0-.022.41c-.02.498-.044 1.058-.308 1.43-.477.674-1.156.287-1.709-.027l-.037-.021-.074-.042a48.903 48.903 0 0 1-4.5-2.8c-.45-.32-.58-1.09 0-1.38Zm5.158-1.473c-1.023.812-2.083 1.58-3.206 2.238a50.937 50.937 0 0 0 3.082 1.873l.046-.608c.04-.57.07-1.13.08-1.69.015-.606.015-1.21-.002-1.813Z"/>
</svg>
