<svg xmlns="http://www.w3.org/2000/svg" width="40" height="40" fill="none" viewBox="0 0 40 40">
    <path class="display-icon__fill-2" fill="#B6E5FF" d="m21.17.89 5.94 14.28s-4.98-.58-9.05 2.97c-4.07 3.55-4.51 5.56-4.85 9.1L.87 18.02s1.58-7.59 7.38-11.76C14.04 2.1 21.17.89 21.17.89Z"/>
    <path class="display-icon__fill-1" fill="#52B0FF" d="M27.45 39.01c-3.96-.09-7.26-1.22-9.55-4.32-1.66-2.24-2.2-4.8-2.13-7.5.08-2.83.84-5.45 2.88-7.59 2.74-2.88 6.25-3.69 10.13-3.35 3.61.32 6.63 1.79 8.42 4.91 2.42 4.23 2.41 8.62 0 12.84-1.74 3.04-4.69 4.49-8.21 4.89-.55.06-1.11.08-1.51.11l-.03.01Z"/>
    <path class="display-icon__ink" fill="#1C1D1F" d="M28.097 28.623a.758.758 0 0 1-.24.356.97.97 0 0 1-.118.09c-.34.22-.9.08-1.09-.29-.17-.33-.34-.65-.52-.96-.28-.47-.52-.98-.72-1.49-.08-.2-.02-.43.08-.62s.28-.31.48-.37c.2-.06.45-.02.62.08.2.12.29.28.37.48a.485.485 0 0 0 .015.046c.093.212.195.42.302.626l.033-.072c.04-.084.078-.17.115-.255.037-.083.074-.168.114-.251l.015-.036.008-.017a5.579 5.579 0 0 1 .053-.136l.045-.115c.112-.265.245-.531.376-.79l.064-.13c.08-.16.16-.32.23-.48l.035-.08.005-.01a1.632 1.632 0 0 0 .063-.152c.052-.125.105-.256.157-.387l-.02.01c.16-.42.52-.66.98-.56.39.09.71.59.56.98-.29.75-.62 1.48-.99 2.19.094-.181.052-.09.01 0l-.008.02a3.955 3.955 0 0 0-.032.07c-.03.092-.067.178-.105.268l-.035.081c-.07.17-.15.34-.23.51l-.098.213-.015.031c-.056.12-.113.242-.167.367-.12.26-.215.485-.292.667l-.018.042a.824.824 0 0 1-.032.074Z m28.41 24.1.021-.053a.464.464 0 0 0-.022.052Z M32.54 6.83c0-.43-.37-.8-.8-.8h-8.312l-.029-.342v-.002a99.58 99.58 0 0 1-.1-1.216c-.03-.42-.35-.82-.8-.8-.41.02-.83.35-.8.8.031.405.065.811.1 1.217v.001l.029.342h-7.412c.03-.664.031-1.324-.057-1.99-.06-.42-.61-.68-.98-.56-.46.15-.62.54-.56.98-.03-.19 0 .11.01.15 0 .1.01.2.02.3v.54c0 .193-.009.386-.02.58h-8.04c-.43 0-.8.37-.8.8v5.02a.63.63 0 0 0 .01.115.753.753 0 0 0-.01.115v17.48c0 .43.37.8.8.8h14.08c.06 0 .118-.006.171-.016.191.57.444 1.126.76 1.656 1.87 3.14 5.54 4.75 9.11 4.1 4.083-.738 7.016-4.422 7.089-8.512v-.1a8.886 8.886 0 0 0-3.46-6.882V12.08a.75.75 0 0 0-.008-.109.915.915 0 0 0 .008-.121V6.83ZM14.35 8.6c0-.1-.01-.2-.02-.3v-.67h7.62c.025.38.046.76.059 1.14.01.42.36.82.8.8.44-.02.82-.35.8-.8-.013-.38-.034-.76-.058-1.14h7.388v3.42H5.59V7.63h7.158c-.01.512.004 1.024.072 1.54.06.42.61.68.98.56.46-.15.62-.54.56-.98.03.19 0-.11-.01-.15Zm15.99 10.78a8.388 8.388 0 0 0-2.855-.541.682.682 0 0 0-.226-.03c-.07.004-.143.015-.215.034a8.95 8.95 0 0 0-1.855.262v-1.73c.863-.446 1.73-.886 2.6-1.316.97-.48.12-1.93-.85-1.46-.584.288-1.166.58-1.746.876.006-.129.015-.257.026-.385.04-.44-.42-.86-.84-.84-.49.02-.8.37-.84.84-.037.416-.046.838-.045 1.26-.692.36-1.383.724-2.073 1.088.004-.7.008-1.4.008-2.098 0-1.08-1.69-1.09-1.69 0 0 .866-.006 1.733-.011 2.6l-.003.391c-.854.45-1.71.897-2.568 1.34L17.1 15.49c-.02-1.08-1.7-1.09-1.69 0l.07 5.061a68.123 68.123 0 0 0-2.7 1.544c.001-2.192.003-4.387.01-6.585 0-1.08-1.68-1.09-1.69 0 0 2.545 0 5.09-.004 7.64-.963.618-1.936 1.238-2.966 1.72-.98.46-.13 1.91.85 1.46.728-.34 1.426-.75 2.111-1.178l-.001.478c0 1.08 1.68 1.09 1.69 0v-1.548c.9-.562 1.806-1.1 2.727-1.618l.043 3.146c.02 1.08 1.7 1.09 1.69 0l-.056-4.055.436-.226c.701-.358 1.4-.722 2.098-1.087-.001.966.003 1.932.022 2.898 0 .025.002.049.004.073a8.88 8.88 0 0 0-1.07 5.547H5.589V12.88h25.35v6.754a8.744 8.744 0 0 0-.6-.254Zm-3.83 1.084c.012.39.01.783 0 1.175-.01.42.38.82.8.8a.83.83 0 0 0 .8-.8c.011-.393.01-.783-.004-1.174a7.04 7.04 0 0 1 3.451 1.402 9.102 9.102 0 0 0-.668.702c-.08.07-.13.16-.17.26-.05.1-.07.2-.07.31 0 .2.09.43.23.57.14.14.35.24.57.23.2 0 .43-.07.57-.23a7.34 7.34 0 0 1 .693-.733 7.295 7.295 0 0 1 1.611 3.612c-.492.025-.988.026-1.484.012-.42-.01-.82.38-.8.8.02.42.35.79.8.8.514.015 1.022.007 1.534-.02a7.332 7.332 0 0 1-1.501 3.756c-.102-.12-.206-.24-.313-.356-.2-.21-.42-.41-.64-.6a.654.654 0 0 0-.26-.17.67.67 0 0 0-.31-.07c-.2 0-.43.09-.57.23-.14.14-.24.35-.23.57 0 .2.07.43.23.57.353.29.68.617.978.968a6.9 6.9 0 0 1-2.038 1.152 7.076 7.076 0 0 1-1.843.393c-.002-.465.009-.926.033-1.394 0-.2-.1-.43-.23-.57a.793.793 0 0 0-.57-.23c-.45.02-.78.35-.8.8-.023.449-.034.892-.034 1.338a7.23 7.23 0 0 1-3.685-1.685c.348-.392.71-.766 1.089-1.123a.81.81 0 0 0 .23-.57c0-.2-.09-.43-.23-.57a.776.776 0 0 0-.57-.23c-.22.01-.41.08-.57.23-.36.339-.71.699-1.041 1.069a7.031 7.031 0 0 1-1.278-3.297c.403.016.805-.002 1.199-.042.22-.02.41-.08.57-.23a.81.81 0 0 0 .23-.57.876.876 0 0 0-.23-.57c-.15-.14-.36-.25-.57-.23-.4.04-.806.054-1.207.037a7.116 7.116 0 0 1 1.659-3.857c.293.27.576.55.848.84.14.15.37.23.57.23.2 0 .43-.09.57-.23.14-.14.24-.35.23-.57a.856.856 0 0 0-.23-.57 16.905 16.905 0 0 0-.805-.8 7.209 7.209 0 0 1 3.456-1.365Zm-5.102.651c-.002-.587 0-1.175.002-1.762l.307-.162 1.797-.944-.002.84v.006l-.002.614a8.613 8.613 0 0 0-2.102 1.408Z"/>
</svg>
