<svg xmlns="http://www.w3.org/2000/svg" width="40" height="40" fill="none" viewBox="0 0 40 40">
  <path class="display-icon__fill-2" fill="#B6E5FF" d="M36.99 3.88c-11.6 4.74-23.19 9.47-34.8 14.2-.46-1.14-.92-2.26-1.39-3.41C12.4 9.94 23.99 5.21 35.6.48c.46 1.12.92 2.25 1.39 3.41v-.01Z"/>
  <path class="display-icon__fill-1" fill="#52B0FF" d="m35.04 6.62 3.79 21.36s-9.12.48-11.93 2.81c-2.81 2.33-4.1 3.07-4.33 8.03L9.13 25.68s2.75-9.36 10.07-13.89c7.31-4.53 15.84-5.16 15.84-5.16v-.01Z"/>
  <path class="display-icon__ink" fill="#1C1D1F" d="M 19.61 4.02 c 2.38 0.1 5.72 0.43 7.46 2.25 c 0.71 0.74 -0.42 1.88 -1.13 1.13 c -0.809 -0.838 -2.054 -1.11 -3.164 -1.353 l -0.126 -0.027 c -1.24 -0.27 -2.5 -0.42 -3.77 -0.42 c -2.41 0 -4.7 0.58 -6.78 1.79 c -3.72 2.17 -6.81 5.45 -6.65 9.96 c 0.04 1.03 -1.56 1.03 -1.6 0 c -0.18 -5.19 3.41 -9.08 7.74 -11.5 c 2.45 -1.37 5.22 -1.95 8.02 -1.83 Z m 9.5 5.45 c 1.84 1.038 2.897 3.212 3.79 5.049 l 0.03 0.06 c 1.05 2.15 1.74 4.48 1.54 6.89 c -0.08 1.03 1.52 1.02 1.6 0 c 0.22 -2.69 -0.6 -5.3 -1.76 -7.7 c -1.03 -2.12 -2.27 -4.49 -4.39 -5.69 c -0.9 -0.51 -1.71 0.88 -0.81 1.38 v 0.01 Z M 4.62 25.85 c -0.77 -1.93 -0.96 -4.02 -0.63 -6.06 v 0.01 c 0.06 -0.43 0.6 -0.66 0.98 -0.56 c 0.45 0.12 0.63 0.55 0.56 0.98 c -0.27 1.74 -0.03 3.55 0.63 5.21 c 0.16 0.4 -0.18 0.88 -0.56 0.98 c -0.45 0.12 -0.82 -0.16 -0.98 -0.56 Z Z M 11.73 27.79 c -0.264 0.573 -0.623 1.1 -0.982 1.624 c -0.117 0.172 -0.234 0.343 -0.348 0.516 l -0.187 0.288 c -0.165 0.253 -0.329 0.505 -0.503 0.752 a 0.844 0.844 0 0 1 -0.033 0.044 l -0.032 0.036 l -0.006 0.007 a 1.114 1.114 0 0 1 -0.039 0.043 l -0.013 0.013 a 0.63 0.63 0 0 0 -0.032 0.022 a 0.411 0.411 0 0 1 -0.055 0.035 l -0.055 0.03 l -0.055 0.03 a 0.533 0.533 0 0 0 -0.103 0.045 a 0.701 0.701 0 0 0 -0.037 0.015 l -0.15 0.06 c -0.39 0.14 -0.7 0.55 -0.56 0.98 c 0.12 0.39 0.56 0.71 0.98 0.56 c 0.46 -0.17 0.94 -0.35 1.27 -0.73 c 0.248 -0.285 0.45 -0.605 0.651 -0.92 c 0.066 -0.104 0.132 -0.208 0.2 -0.31 c 0.124 -0.19 0.25 -0.382 0.374 -0.575 l 0.375 -0.575 l 0.07 -0.107 c 0.228 -0.345 0.458 -0.692 0.63 -1.073 c 0.17 -0.38 0.12 -0.88 -0.29 -1.09 c -0.35 -0.19 -0.91 -0.12 -1.09 0.29 l 0.02 -0.01 Z m 1.7 -3.47 c -1.39 -2.83 -1.89 -6.83 0.87 -9.05 c 1.22 -0.98 2.83 -1.35 4.34 -1.59 c 1.34 -0.22 3.02 -0.35 4.11 0.62 c 0.77 0.68 1.9 -0.44 1.13 -1.13 c -1.45 -1.3 -3.39 -1.36 -5.23 -1.1 c -1.84 0.26 -3.81 0.74 -5.33 1.94 c -3.46 2.72 -3.03 7.57 -1.28 11.12 c 0.45 0.92 1.83 0.11 1.38 -0.81 h 0.01 Z m 12.11 -7.88 c 2.357 2.142 2.148 5.352 1.955 8.314 c -0.023 0.356 -0.046 0.71 -0.065 1.056 c -0.17 3.23 -0.5 6.77 -2.89 9.22 c -0.72 0.74 0.41 1.87 1.13 1.13 c 2.7 -2.77 3.16 -6.66 3.36 -10.35 l 0.04 -0.703 c 0.203 -3.496 0.42 -7.23 -2.4 -9.797 c -0.76 -0.69 -1.9 0.44 -1.13 1.13 Z M 13.1 35.11 c 2.15 -1.36 3.59 -3.6 4 -6.1 c 0.23 -1.37 0.19 -2.76 -0.07 -4.12 c -0.127 -0.654 -0.352 -1.293 -0.578 -1.933 c -0.291 -0.826 -0.583 -1.654 -0.662 -2.517 c -0.34 -3.52 4.96 -3.73 6.6 -1.48 c 0.73 1 0.92 2.32 1.03 3.52 c 0.14 1.52 0.15 3.04 -0.17 4.54 c -0.683 3.245 -2.452 6.118 -4.164 8.9 l -0.056 0.09 c -0.54 0.88 0.84 1.68 1.38 0.81 c 1.72 -2.79 3.47 -5.67 4.27 -8.88 c 0.68 -2.75 0.75 -6.27 -0.43 -8.92 c -1.18 -2.65 -4.63 -3.79 -7.31 -2.8 c -1.22 0.45 -2.27 1.43 -2.62 2.71 c -0.394 1.436 0.101 2.881 0.569 4.244 l 0.017 0.05 l 0.074 0.216 c 1.23 3.64 0.84 8.05 -2.68 10.28 c -0.87 0.55 -0.07 1.93 0.81 1.38 l -0.01 0.01 Z M 18.47 30.55 c -0.02 0.46 -0.12 0.9 -0.3 1.38 c -0.07 0.19 -0.17 0.4 -0.29 0.62 c -0.13 0.23 -0.27 0.46 -0.42 0.68 c -0.54 0.78 -1.34 1.51 -2.13 2.13 c -0.34 0.27 -0.28 0.85 0 1.13 c 0.33 0.33 0.79 0.27 1.13 0 c 1.87 -1.49 3.47 -3.46 3.6 -5.94 c 0.02 -0.43 -0.38 -0.8 -0.8 -0.8 c -0.45 0 -0.78 0.37 -0.8 0.8 h 0.01 Z m 0.31 -9.65 c 0.89 2.15 1.14 4.51 0.66 6.8 c -0.09 0.42 0.12 0.86 0.56 0.98 c 0.4 0.11 0.89 -0.13 0.98 -0.56 c 0.54 -2.55 0.34 -5.23 -0.66 -7.65 c -0.16 -0.4 -0.53 -0.68 -0.98 -0.56 c -0.38 0.1 -0.72 0.58 -0.56 0.98 v 0.01 Z M 8.2 30.17 L 8.297 30.011 C 8.857 29.104 9.421 28.188 9.62 27.121 C 9.83 25.996 9.647 24.937 9.462 23.864 C 9.375 23.362 9.287 22.856 9.24 22.34 C 8.89 18.69 9.55 15.03 12.36 12.5 C 15.33 9.83 19.56 8.93 23.37 10.09 C 25.2 10.65 26.87 11.61 27.91 13.25 C 28.78 14.62 29.31 16.18 29.78 17.72 C 31.15 22.17 31.15 27.51 29.92 32 C 29.65 32.99 31.19 33.42 31.46 32.43 C 32.64 28.11 32.77 23 31.71 18.64 C 30.87 15.19 29.53 11.39 26.25 9.58 C 19.24 5.69 9.33 9.36 7.8 17.54 C 7.39 19.72 7.5 22.08 7.93 24.24 S 7.87 27.64 6.81 29.36 C 6.27 30.24 7.65 31.04 8.19 30.17 H 8.2 Z"/>
</svg>