<svg xmlns="http://www.w3.org/2000/svg" width="40" height="40" fill="none" viewBox="0 0 40 40">
  <path class="display-icon__fill-2" fill="#B6E5FF" d="m34.31 5.11-4.79 15.56s-3.64-3.82-9.32-3.68c-5.68.13-7.39 1.46-10.04 4.11L6.36 5.34S12.74.25 20.24.77c7.5.52 14.08 4.34 14.08 4.34h-.01Z"/>
  <path class="display-icon__fill-1" fill="#52B0FF" d="M32.26 38.96H9.49c-.03-.16-.07-.29-.07-.42 0-3.6-.08-7.2.07-10.79.06-1.55.41-3.15.95-4.61 1.19-3.21 3.73-4.79 7.06-5.12 4.22-.42 8.11.3 11.1 3.64 1.72 1.92 2.57 4.27 3.09 6.74.74 3.46.59 6.97.57 10.56Z"/>
  <path class="display-icon__ink" fill="#1C1D1F" d="M8.96 7.79c-.93.45-.12 1.83.81 1.38h-.01c5.56-2.68 12.31-3.95 17.83-.48.87.55 1.68-.83.81-1.38-6.02-3.79-13.38-2.45-19.44.48Z M32.84 14.85c-1.96-2.06-4.13-4-6.78-5.13-2.4-1.02-5.1-1.34-7.69-1.22-5.01.24-10.52 3.07-13.84 6.84-.68.77.45 1.91 1.13 1.13 3.04-3.45 8.12-6.16 12.71-6.37 2.34-.11 4.8.13 6.98 1.04 2.5 1.04 4.52 2.9 6.36 4.84.71.75 1.84-.38 1.13-1.13Z M18.49 11.72c2.78-.13 5.41.47 7.78 2.09 2.37 1.62 3.83 3.68 4.62 6.47.62 2.17 1.47 6.37-1.22 7.51-2.13.9-5.74 1-6.79-1.51-.206-.495-.332-.996-.456-1.49l-.002-.01c-.213-.853-.422-1.69-1.024-2.44-.87-1.09-2.29-1.9-3.71-1.57-3.1.72-2.44 4.47-1.78 6.75.87 2.97 3.98 6.12 7.16 6.46 1.01.11 1.02 1.71 0 1.6-3.13-.34-6.11-2.69-7.76-5.32-.59-.93-.92-2.08-1.17-3.14-.28-1.24-.56-2.59-.35-3.86.39-2.29 2-4.06 4.37-4.15 2.37-.09 4.5 1.65 5.4 3.76.16.364.246.813.335 1.272v.004c.148.76.3 1.546.787 2.014.57.55 1.46.62 2.21.58.8-.04 2.26-.15 2.73-.91.351-.57.272-1.57.215-2.267l-.002-.028A12.674 12.674 0 0 0 29.4 20.9c-.38-1.43-.97-2.98-1.98-4.09-3.48-3.86-9.26-4.41-13.77-2.22-2.38 1.15-4.55 3.06-5.66 5.52-1.42 3.15-.97 7.1.4 10.18v.01c.42.94-.96 1.75-1.38.81-1.48-3.34-2.03-7.34-.79-10.85.99-2.8 3.4-5.46 6.05-6.76 2.06-1.02 3.9-1.67 6.22-1.78Z M28.13 30.22a37.354 37.354 0 0 1-3.81-.206l-.05-.005c-1.003-.101-2.067-.21-2.91-.81-1.62-1.16-2.02-3.33-1.95-5.19.04-1.03-1.56-1.03-1.6 0-.1 2.34.55 4.88 2.49 6.38 1.04.8 2.26 1 3.53 1.16 1.43.18 2.86.26 4.3.27 1.03 0 1.03-1.6 0-1.6Z M11.49 22.44c-.42 1.45-.19 3.29.27 4.69.86 2.59 1.93 5.06 3.82 7.07.71.75-.42 1.88-1.13 1.13-2.01-2.13-3.22-4.73-4.14-7.49-.49-1.46-.62-2.83-.59-4.37.02-1.42.68-2.84 1.42-4.03 1.48-2.38 3.78-3.74 6.59-3.9 2.57-.14 4.74.53 6.84 2.21 2.1 1.68 3 4.36 3.05 6.98l-.01-.02c.02 1.03-1.58 1.03-1.6 0-.06-2.95-1.41-5.5-4.09-6.87-2.31-1.18-5.81-1.05-7.87.59-1.21.97-2.14 2.56-2.56 4.01Z"/>
</svg>
