<svg xmlns="http://www.w3.org/2000/svg" width="40" height="40" fill="none" viewBox="0 0 40 40">
  <path class="display-icon__fill-2" fill="#B6E5FF" d="M10.37 7.67c2.42-3.98 5.56-6.65 10.18-7.1 3.34-.33 6.38.69 9.18 2.41 2.94 1.81 5.27 4.18 6.33 7.56 1.43 4.54.23 8.62-2.42 12.36-2.46 3.48-5.8 5.66-10.14 5.57-5.9-.12-10.53-2.81-13.57-7.85-2.19-3.63-1.99-7.51-.34-11.35.26-.6.57-1.18.78-1.61v.01Z"/>
  <path class="display-icon__fill-1" fill="#52B0FF" d="m.64 29.4 9.93-6.79s1.7 2.57 4.75 4.42c1.73 1.05 2.47 1.37 8.52 2.44l-3.58 9.8s-9.44-.37-13.4-3.04C2.9 33.56.64 29.4.64 29.4Z"/>
  <path class="display-icon__ink" fill="#1C1D1F" d="M19.58 13.9c-1.65.5-3.48 1.34-4.45 2.84-1.34 2.06-.73 5.04.68 6.88.835 1.092 2.14 1.566 3.511 1.63a5.446 5.446 0 0 0 2.746-.374c.35-.11.683-.24.993-.386 1.06-.5 1.99-1.35 2.51-2.41.57-1.18.57-2.46.14-3.69-.43-1.23-1.16-2.39-2.16-3.24-.993-.844-2.567-1.757-3.94-1.25a1.122 1.122 0 0 0-.04.01l.01-.01Zm.42 1.55a.897.897 0 0 0 .066-.023c.806-.254 1.75.347 2.344.853.68.58 1.21 1.3 1.58 2.11.37.81.59 1.78.28 2.67-.28.8-.92 1.45-1.65 1.86-.86.48-1.85.67-2.82.69-.97.02-1.96-.06-2.62-.83-1.11-1.3-1.64-3.6-.73-5.13.697-1.167 2.23-1.796 3.479-2.178A.587.587 0 0 0 20 15.45Z M13.26 6.823c.656.597 1.565 1.422 2.142.855-.001-.176-.008-.37-.015-.575-.044-1.227-.102-2.852.913-3.403.514-.277 1.229-.272 1.847-.268.163.001.319.002.463-.002.9-.02 1.8-.03 2.7 0 1.22.04 2.3.3 2.5 1.68.033.233.016.486-.002.74-.03.436-.06.877.162 1.23.304.494 1.024.705 1.65.835.947-1.258 2.204-2.647 3.87-1.965 1.76.72 3.32 2.34 4.3 3.93.73 1.17.87 2.46-.32 3.36a4.134 4.134 0 0 1-.544.319c-.396.209-.82.432-.866.681-.024.093.11.374.194.55l.01.019.046.101.035.079c.14.306.182.398.515.491.181.052.438.024.678-.002.13-.014.256-.028.362-.028h.025c.892 0 1.796 0 1.965 1.05.072.456.05.968.029 1.463a13.73 13.73 0 0 0-.02.767c.01.448.023.899.035 1.35v.002c.013.465.026.932.036 1.398.004.157.012.317.02.477.061 1.31.125 2.646-1.55 2.673-.09.001-.212-.002-.356-.005-.932-.024-2.745-.07-2.034.935.217.308.555.516.9.728.338.208.682.42.92.732 1.11 1.47.08 2.52-1.22 3.25-1.77 1-3.25 2.32-4.5 3.91-.25.33-.87.3-1.13 0l-.127-.145c-.519-.6-1.58-1.828-2.323-1.535-.47.192-.384.868-.304 1.503.041.327.081.643.044.877-.25 1.593-1.797 1.539-3.093 1.493-.16-.005-.317-.01-.467-.013-.575-.01-1.153-.017-1.73-.025a327.91 327.91 0 0 1-1.73-.025c-.095 0-.2.004-.31.007-.56.019-1.266.043-1.65-.367-.475-.512-.378-1.388-.306-2.039l.009-.077.007-.064c.008-.065.021-.133.034-.202.048-.25.099-.518-.034-.738-.121-.194-.452-.289-.765-.344l-.067.077-.05.059c-.558.65-1.238 1.442-2.048 1.458-.86.017-1.78-.728-2.486-1.3-.114-.093-.223-.18-.324-.26-1.41-1.1-4.17-3.28-3.25-5.38.166-.387.432-.625.724-.886.077-.068.156-.139.236-.214.35-.33 1.2-1.49.45-1.94-.244-.152-.84-.047-1.346.042-.262.046-.5.088-.654.088-.4-.01-.81-.06-1.12-.35-.543-.504-.509-1.459-.48-2.259.009-.231.017-.45.01-.64a714.13 714.13 0 0 0-.136-4.56l-.004-.14c-.01-.33.26-.7.59-.77.271-.052.57-.046.867-.04.46.01.919.02 1.283-.18.477-.263.777-.81 1.005-1.325l-.136-.136c-.882-.882-2.08-2.08-1.26-3.13.46-.596 1.19-1.1 1.874-1.574.269-.185.53-.366.767-.546a77.14 77.14 0 0 1 3.12-2.25c.25-.17.56-.12.81 0 .145.071.359.266.61.493Zm3.63 1.537c-.56.79-1.4 1.06-2.35.96-.47-.05-.94-.18-1.35-.42-.254-.148-.45-.363-.645-.576-.1-.11-.201-.22-.31-.32A70.392 70.392 0 0 0 8.44 10.81l-.165.119c-.23.163-.628.447-.806.614.056.025.127.112.183.18.033.041.06.075.078.087.313.252.593.61.864.955.126.162.251.321.376.465.18.2.32.51.21.78-.36.87-.76 1.76-1.49 2.39-.649.548-1.243.56-1.904.574-.14.002-.285.005-.433.014l.032 1.062c.017.588.035 1.175.055 1.76.01.274.017.55.025.828a74.902 74.902 0 0 0 .045 1.282c.007.158.015.315.02.47v.326c.177-.058.97-.167 1.14-.176l.268-.024c.31-.03.63-.062.932-.016.65.11 1.04.58 1.26 1.18.43 1.2.08 2.52-.84 3.37-.51.47-.95.95-.54 1.65.205.356.497.665.777.962l.103.108c.61.63 1.26 1.22 1.97 1.74a7.7 7.7 0 0 1 .275.213c.283.227.616.493.905.567.395.105.559-.075.81-.35a10.67 10.67 0 0 0 .324-.357c.357-.404.653-.738 1.266-.713 1.04.05 2.25.68 2.49 1.76.079.337.04.664 0 1v.01a.642.642 0 0 0-.005.037l-.003.022c-.027.236-.127 1.079-.297 1.042.311.154 1.59.075 2.363.027.25-.016.447-.028.542-.028.29 0 .577.005.865.01.287.005.575.01.865.01.108 0 .255.015.415.03.369.038.811.082 1.035-.03.416-.22.304-.823.202-1.374a4.437 4.437 0 0 1-.082-.566c-.06-1.26.99-1.96 2.17-1.92 1.115.04 2.04.714 2.811 1.487a16.152 16.152 0 0 1 4.289-3.517c.082-.046.168-.085.25-.123.389-.18.712-.329.35-.947-.13-.226-.483-.422-.804-.6a3.828 3.828 0 0 1-.456-.28c-.55-.44-1.01-1.04-1-1.78.03-1.74 1.92-2.14 3.29-2.14.26.01.52.01.78.01.08-.016.15-.026.205-.032a4.365 4.365 0 0 0-.04-.656 4.362 4.362 0 0 1-.035-.432c-.01-.561-.025-1.123-.04-1.685-.015-.57-.03-1.141-.04-1.715a24.05 24.05 0 0 1-.002-.85l.002-.43v-.18c-.305.128-.979.09-1.419.064l-.04-.003c-.09-.005-.17-.01-.231-.01-.77-.02-1.16-.2-1.53-.9-.28-.52-.9-1.79-.76-2.4.14-.61.81-1.05 1.31-1.34.08-.047.182-.094.292-.144.25-.113.536-.243.668-.417.32-.442.047-.847-.2-1.214-.038-.056-.076-.111-.11-.166-.64-1.01-1.54-1.9-2.54-2.57-.64-.43-1.22-.77-1.88-.17-.46.42-.86.93-1.23 1.43-.22.31-.52.44-.9.37-2.05-.4-3.56-1.31-3.53-3.55.002-.09.007-.165.012-.23.017-.253.023-.338-.232-.57-.259-.234-.583-.22-.909-.207a5.428 5.428 0 0 1-.231.007c-.75-.01-1.5 0-2.25.02a4.517 4.517 0 0 1-.341-.008c-.279-.012-.58-.026-.79.058-.344.141-.345.153-.368.377a3.298 3.298 0 0 1-.031.243c-.086.467-.08.976-.075 1.475.002.18.003.358.001.532.08.192.067.421-.096.653Z"/>
</svg>
