<svg xmlns="http://www.w3.org/2000/svg" width="40" height="40" fill="none" viewBox="0 0 40 40">
  <path class="display-icon__fill-2" fill="#B6E5FF" d="M.49 31.87V12.96c.13-.02.24-.06.35-.06 2.99 0 5.98-.06 8.96.06 1.29.05 2.62.34 3.83.79 2.66.99 3.98 3.1 4.26 5.86.35 3.51-.25 6.74-3.03 9.22-1.6 1.43-3.55 2.13-5.6 2.57-2.88.62-5.79.49-8.77.47Z"/>
  <path class="display-icon__fill-1" fill="#52B0FF" d="m35.88 38.43-18.99-7.42s4.09-7.55 3.59-10.95c-.5-3.39-.46-4.79-4.32-7.4l17.13-4.35s6.16 6.79 6.22 14.88c.05 8.08-3.61 15.24-3.61 15.24h-.02Z"/>
  <path class="display-icon__ink" fill="#1C1D1F" d="M7.58 5.99c2.22-2.43 6.1-2.67 7.97.37h.01c.54.88-.84 1.69-1.38.81-.8-1.31-2.56-1.89-4-1.25-1.97.87-3.26 3.58-3.84 5.51-.66 2.19-.9 4.58-.93 6.86-.01.62.09 1.22.23 1.82.013.053.038.12.066.192.054.143.117.305.103.418l.019.053c.141 0 .302.013.433.024.093.007.171.013.218.013H8.4l24.05-.12c1.13 0 1.55-.32 1.9-1.6.72-2.69.12-5.87-.69-8.47-.43-1.38-1.06-3-2.14-3.94s-3.55-1.04-4.36.33c-.52.88-1.9.08-1.38-.81.93-1.59 2.92-1.97 4.63-1.74 2.09.28 3.35 2.17 4.13 3.96 1.41 3.23 2.22 7.4 1.41 10.88-.39 1.65-1.36 2.97-3.13 3l-.232.003a7.221 7.221 0 0 1 3.598 6.006c.01.053.015.11.014.17-.05 3.35-2.43 6.39-5.78 6.99-2.93.53-5.92-.78-7.46-3.35a6.909 6.909 0 0 1-.818-2.059 1.054 1.054 0 0 1-.33-.31c-.29-.38-.5-.84-.61-1.3-.13-.53-.14-1.07-.05-1.61h-.01c.03-.2.21-.37.37-.48a.799.799 0 0 1 .792-.008c.079-.252.171-.5.277-.743-.228-.132-.562-.172-.83-.19-.53-.03-1.06-.03-1.59-.03-.93.018-1.853.087-2.775.228.102.229.192.464.27.704a.894.894 0 0 1 .314-.181c.42-.14.85.16.98.56.38 1.16.05 2.47-.76 3.36a.696.696 0 0 1-.424.221c-.703 2.583-2.79 4.7-5.525 5.189-2.93.53-5.92-.78-7.46-3.35-1.54-2.57-1.24-5.88.64-8.18a6.868 6.868 0 0 1 1.762-1.525l-1.203.005-.144.001c-.351.004-.667.008-.976-.22-.88-.67-1.04-2.57-1.07-3.58-.13-4.35.78-9.34 3.79-12.63Zm8.926 18.15h.004c1.29-.22 2.59-.36 3.9-.36h.19c.935-.003 1.947-.005 2.77.457a6.893 6.893 0 0 1 2.135-1.907l-10.966.05a7.17 7.17 0 0 1 1.967 1.76Zm-.096 4.34c-.04-2.65-1.9-4.93-4.52-5.43-2.23-.43-4.56.64-5.73 2.6-1.17 1.96-1.04 4.5.45 6.31 1.49 1.81 4.01 2.5 6.19 1.71 2.145-.777 3.544-2.833 3.617-5.08a.93.93 0 0 1-.007-.11Zm18.187.11a.927.927 0 0 1-.008-.11c-.04-2.65-1.9-4.93-4.52-5.43-2.23-.43-4.56.64-5.73 2.6-1.17 1.96-1.04 4.5.45 6.31 1.49 1.81 4.01 2.5 6.19 1.71 2.145-.777 3.545-2.833 3.618-5.08Z"/>
</svg>
