<svg xmlns="http://www.w3.org/2000/svg" width="40" height="40" fill="none" viewBox="0 0 40 40">
  <path class="display-icon__fill-2" fill="#B6E5FF" d="m35.83 6.35-6.16 18.77s-7.81-1.81-11.48-1.5c-3.67.31-7.13.27-10.24 2.13L3.2 9.5s6.77-7.81 15.64-8.3c10.24-.57 17 5.15 17 5.15h-.01Z"/>
  <path class="display-icon__fill-1" fill="#52B0FF" d="M19.74 38.79c-3.15.05-6.3.02-9.36-.83-1.21-.33-2.36-.81-3.32-1.64-1.46-1.26-1.82-2.94-1.8-4.76.03-2.84 1.46-4.66 4.08-5.64 2.11-.78 4.32-1.06 6.55-1.19 3.62-.22 7.23-.23 10.83.3 1.64.24 3.25.62 4.71 1.45 1.68.96 2.59 2.42 2.72 4.32.06.93.02 1.89-.17 2.8-.4 1.96-1.77 3.1-3.54 3.84-2.26.94-4.66 1.18-7.07 1.33-1.2.08-2.41.02-3.62.03l-.01-.01Z"/>
  <path class="display-icon__ink" fill="#1C1D1F" d="M17.64 16.16c.89.285 1.854.863 2.476 1.648.843-1.136 2.254-1.819 3.723-1.798 1.07.02 2.24.35 2.99 1.14.71.74 1.01 1.84 1.14 2.83.31 2.34-.82 4.12-2.27 5.86a20.452 20.452 0 0 1-4.963 4.278.57.57 0 0 1-.547.205.607.607 0 0 1-.274-.083 12.298 12.298 0 0 1-4.735-3.06c-2.31-2.39-4.63-6.73-2.06-9.73.55-.65 1.17-1.26 2.04-1.43.82-.16 1.68-.11 2.48.14Zm3.068 3.795c-.19.788-1.402.445-1.336-.361a.575.575 0 0 1 .008-.23c-.13-.702-.869-1.276-1.46-1.594-.71-.39-1.58-.56-2.38-.41-.76.14-1.52.99-1.84 1.67-.4.83-.37 2.05-.13 2.91.854 3.102 3.596 5.782 6.578 6.908a19.204 19.204 0 0 0 3.791-3.118c1.11-1.18 2.45-2.63 2.67-4.3.11-.87-.01-1.79-.34-2.6-.36-.87-1.08-1.3-2-1.42-1.569-.205-3.05.654-3.467 2.153a.543.543 0 0 1-.094.392Z M13.15 7.905c-.065-.684-.052-1.351.39-1.925.4-.51 1.01-.72 1.63-.79a5.69 5.69 0 0 1 .878-.016c.629.022 1.168.042 1.762-.524 1.12-1.06 2.53-1.79 4-.86.28.18.58.42.74.72.074.138.107.23.13.294.018.052.029.084.051.104.034.031.095.033.25.039l.089.003c.254.01.514-.001.776-.012.552-.024 1.111-.047 1.634.122 1.401.458 1.41 1.72 1.318 2.937.559-.04 1.16.02 1.648.068.134.013.26.026.374.035 1.56.13 2.59.83 2.68 2.5.16 2.926.192 5.877.224 8.818.008.738.015 1.476.026 2.212.05 3.46.06 6.93 0 10.39-.002.166 0 .342.002.525.01.844.02 1.827-.332 2.525-.71 1.402-2.625 1.38-4.09 1.362-.25-.003-.485-.006-.7-.002-3.92.07-7.83.01-11.75-.06-.33-.006-.685.002-1.054.009-1.52.03-3.274.066-4.376-.779-1.144-.876-1.117-2.51-1.094-3.911.004-.278.009-.547.004-.799-.09-4.92-.08-9.83.03-14.75.03-1.3.07-2.6.11-3.9.007-.209.007-.426.006-.646 0-.731 0-1.503.254-2.164.588-1.564 2.414-1.544 3.925-1.528.16.002.315.004.465.003Zm11.97 1.326c.001-.206.05-.482.102-.771.085-.472.176-.982.078-1.29-.223-.685-.953-.659-1.541-.637a7.785 7.785 0 0 1-.28.007l-.236.005c-.723.017-1.358.031-1.773-.655-.42-.68-.88-1.2-1.78-.78-.322.152-.533.41-.745.672a3.802 3.802 0 0 1-.395.438c-.694.637-1.587.596-2.463.556l-.137-.006c-.057 0-.124-.006-.195-.012-.152-.014-.32-.029-.435.012-.71.243-.674.38-.617.606a.796.796 0 0 1 .027.364c-.08.39.08 1.84.39 2.15.258.251.855.197 1.355.151a5.67 5.67 0 0 1 .475-.03h2.21l1.39.001c.926.003 1.853.005 2.78-.002h.11c.415-.006 1.693-.022 1.56.12.114-.12.115-.423.116-.692 0-.073.001-.143.004-.207Zm1.58.473c-.016.225-.071.474-.114.669l-.006.027c-.13.54-.4.91-.94 1.09-.666.212-1.48.173-2.238.137-.279-.014-.55-.027-.802-.027h-3.68c-.474 0-.951.01-1.428.021-.753.017-1.506.034-2.252.01-.61-.02-1.15-.16-1.5-.7-.248-.396-.366-.9-.434-1.415l-.456.012c-.44.011-.88.022-1.32.042-1.13.05-1.35.68-1.39 1.69-.05 1.3-.09 2.61-.12 3.91a351.14 351.14 0 0 0-.06 15.96c.003.195-.005.413-.013.643-.037 1.047-.083 2.34.893 2.757.714.302 1.672.268 2.542.237.312-.011.613-.022.888-.017 3.75.07 7.5.14 11.26.09.35-.006.722.007 1.102.021.869.031 1.778.064 2.558-.13.849-.204.871-.628.91-1.33.002-.058.006-.118.01-.18.076-1.287.073-2.588.07-3.879v-.702c.01-3.1 0-6.21-.07-9.31-.04-1.96-.1-3.91-.16-5.86-.022-.468-.023-.937-.024-1.403-.002-.4-.003-.8-.016-1.197-.02-.69-.12-.98-.85-1.16-.465-.108-.979-.079-1.465-.05-.142.008-.28.016-.415.02-.05 0-.11.006-.175.012-.1.01-.21.02-.304.012Z"/>
</svg>
