<svg xmlns="http://www.w3.org/2000/svg" width="40" height="40" fill="none" viewBox="0 0 40 40">
  <path class="display-icon__fill-2" fill="#B6E5FF" d="M39.24 36.67.68 36.61v-3.78l38.57.06v3.78h-.01Z"/>
  <path class="display-icon__fill-1" fill="#52B0FF" d="M20.28 32.93c-4.34-.1-7.96-1.39-10.49-4.92-1.82-2.55-2.42-5.47-2.34-8.54.09-3.22.92-6.21 3.16-8.65 3-3.27 6.86-4.21 11.11-3.81 3.96.37 7.28 2.04 9.24 5.6 2.65 4.82 2.65 9.82 0 14.63-1.91 3.46-5.14 5.11-9.01 5.57-.61.07-1.22.09-1.66.12h-.01Z"/>
  <path class="display-icon__ink" fill="#1C1D1F" d="M16.11 11.21c1.532.487 3.051 1.484 3.929 2.849 1.18-1.93 3.392-3.1 5.771-3.07 1.58.02 3.33.5 4.44 1.68 1.05 1.11 1.5 2.76 1.69 4.23.46 3.55-1.21 6.19-3.45 8.86-2.21 2.635-4.857 4.88-7.78 6.677a.647.647 0 0 1-.58.194.696.696 0 0 1-.269-.078 18.83 18.83 0 0 1-7.321-4.722C9.08 24.25 5.5 17.66 9.36 13.14c.84-.97 1.75-1.88 3.05-2.14 1.22-.25 2.51-.17 3.7.21Zm-3.26 1.33c-1.24.24-2.47 1.61-3.01 2.72-.65 1.35-.61 3.32-.23 4.72 1.35 4.953 5.728 9.206 10.48 10.96a30.29 30.29 0 0 0 6.06-4.95c1.77-1.87 3.86-4.17 4.21-6.82.18-1.39-.02-2.84-.53-4.14-.58-1.47-1.82-2.21-3.36-2.4-2.678-.331-5.12 1.197-5.66 3.836v.104h-.01c0 1.03-1.6 1.03-1.6 0v-.254c-.219-2.757-3.963-4.232-6.35-3.776Z M21.16 3.95a.886.886 0 0 0-.175.019c-6.627.343-13.19 3.7-15.855 10.01-2.69 6.37-1.12 14.18 4.08 18.46 5.42 4.47 13.84 5.12 19.61 1.02s8.11-10.86 6.67-17.56C34.057 9.233 28.296 4.06 21.272 3.952a.915.915 0 0 0-.111-.001Zm.003 1.6h.008c5.51.04 10.39 3.52 12.21 8.75 1.99 5.71.74 12.05-3.62 16.31-2.22 2.17-5.19 3.74-8.31 3.99s-6.88-.62-9.7-2.28c-5.06-2.97-7.23-9.77-5.93-15.34.82-3.51 2.91-6.66 5.98-8.57 2.77-1.72 6.11-2.72 9.36-2.86h.002Z"/>
</svg>
