<svg xmlns="http://www.w3.org/2000/svg" width="40" height="40" fill="none" viewBox="0 0 40 40">
  <path class="display-icon__fill-2" fill="#B6E5FF" d="M31.17 25.34c-2.85-.07-5.23-.91-6.89-3.23-1.2-1.67-1.59-3.6-1.54-5.61.06-2.12.61-4.08 2.08-5.68 1.97-2.15 4.51-2.76 7.3-2.51 2.61.24 4.78 1.34 6.07 3.68 1.74 3.17 1.74 6.45 0 9.61-1.25 2.27-3.38 3.36-5.92 3.66-.4.05-.8.06-1.09.08h-.01Z"/>
  <path class="display-icon__fill-1" fill="#52B0FF" d="m1.56 18.3 18.51-5.55s1.36 8.02 3.71 10.27c2.35 2.24 3.14 3.31 7.55 3L21.08 39.26s-8.57-1.48-13.32-7.48c-4.77-6-6.2-13.48-6.2-13.48Z"/>
  <path class="display-icon__ink" fill="#1C1D1F" d="M6.271 14.598a.889.889 0 0 1-.015-.048H6.25v-.025c-.077-.298.017-.623.38-.805 3.74-1.87 7.52-3.73 11.49-5.06.51-.17.99.28 1.01.77.084 1.896.262 3.788.44 5.68.076.803.151 1.606.22 2.41.017.209.046.415.075.617.12.847.232 1.63-.575 2.243-.754.573-1.593 1.072-2.423 1.566-.271.16-.541.322-.807.484-2.22 1.36-4.49 2.65-6.82 3.81l-.15.075c-.722.362-1.702.854-2.28-.005-.22-.329-.218-.787-.217-1.2 0-.115.001-.226-.003-.33l-.06-1.95c-.045-1.38-.088-2.76-.13-4.14a2313.94 2313.94 0 0 0-.129-4.093ZM8.14 23.64l.04 1.14.004.108c.366-.187.878-.406 1.2-.543.143-.061.248-.106.286-.125 1.23-.64 2.43-1.3 3.62-2s2.37-1.41 3.53-2.15l.266-.173c.255-.165.515-.334.774-.497l.041-.031.015-.012c.141-.11.476-.372.457-.21.027-.165-.032-.463-.08-.707a3.485 3.485 0 0 1-.053-.31 21.39 21.39 0 0 1-.04-.455c-.013-.152-.025-.305-.04-.455-.064-.75-.134-1.5-.203-2.25a148.72 148.72 0 0 1-.367-4.441c-3.345 1.198-6.548 2.771-9.73 4.36l.28 8.751Zm.88 3.525c-.067.29.03.6.386.773a.734.734 0 0 0 .205.097c.644.298 1.31.55 1.975.801A41.5 41.5 0 0 1 13 29.39c.125.053.249.112.373.17.412.198.826.395 1.287.38.595-.023 1.178-.38 1.712-.708.157-.096.31-.19.459-.272l.023-.013c2.863-1.586 5.763-3.193 8.246-5.347.4-.35.25-1-.16-1.26-1.26-.79-2.78-1.55-4.22-1.96-.626-.18-1.017.082-1.483.394-.076.05-.155.104-.236.156-.63.41-1.26.8-1.9 1.19a137.07 137.07 0 0 1-3.765 2.168A130.207 130.207 0 0 0 9.4 26.56a.74.74 0 0 0-.38.605Zm3.186.204-.635-.238c.842-.49 1.693-.966 2.545-1.442a147.828 147.828 0 0 0 3.154-1.8c.53-.31 1.05-.63 1.57-.96.29-.18.58-.37.87-.56a3.37 3.37 0 0 0 .228-.179c.156-.13.34-.283.472-.344-.045.05.121.148.181.183l.018.01c.105.066.236.11.362.153.066.022.13.044.189.068a26.522 26.522 0 0 1 1.972.892c-1.994 1.57-4.239 2.833-6.453 4.058-.215.118-.43.242-.646.366-.387.222-.776.445-1.174.644-.334.167-.732-.036-1.097-.222a4.581 4.581 0 0 0-.332-.158 38.486 38.486 0 0 0-1.224-.471Zm17.861-11.8a.557.557 0 0 1-.018-.129h-.01c-.03-.23-.03-.42.08-.62.1-.19.28-.31.48-.37.2-.06.45-.02.62.08.15.09.34.3.37.48.049.335.09.67.126 1.007l1.205-.027c.45-.01.78.36.8.8.02.44-.38.8-.8.8l-1.09.024c.013.321.02.643.02.966 0 .45-.37.78-.8.8-.43.02-.8-.38-.8-.8 0-.31-.004-.62-.014-.93l-.936.02c-.45.01-.78-.36-.8-.8-.02-.44.38-.8.8-.8l.821-.018-.016-.137c-.008-.065-.015-.13-.026-.195 0-.015-.002-.06-.005-.098l-.001-.023-.006-.03Z M3.5 13.024c-.031-.266.08-.537.4-.694C9.22 9.73 14.7 7.5 20.23 5.4c.37-.14.92.16.98.56.37 2.46.55 4.92.68 7.4.06 1.25.13 2.5.22 3.75.07.95.11 1.45 1.01 1.83l.805.34.805.34c.296.127.592.252.889.377-1.308-2.19-1.028-5.018.561-6.957 1.59-1.94 4.37-2.7 6.73-1.8a6.13 6.13 0 0 1 3.95 5.725c-.063 2.695-1.918 5.16-4.56 5.803l.37.152c.132.054.264.105.395.156.726.284 1.433.56 1.975 1.144.36.38.29.99-.16 1.26l-.124.075c-3.999 2.425-8.009 4.857-12.166 7.005l-.305.158-.004.002c-1.55.805-3.256 1.691-4.98 1.26-1.298-.324-2.576-.887-3.83-1.44-.525-.231-1.045-.46-1.56-.67-.68-.272-1.351-.544-2.025-.817-.763-.309-1.53-.62-2.316-.933-.256-.102-.518-.193-.777-.283-1.233-.427-2.39-.829-2.523-2.317-.43-4.819-.7-9.657-.77-14.496Zm1.638.478c.07 4.025.285 8.041.602 12.048.014.154.017.321.02.491.007.337.014.687.1.98-.08.45.11.76.57.92.105.04.21.082.315.124.105.043.21.085.315.125.77.3 1.53.6 2.29.91.673.269 1.342.542 2.01.813.473.193.947.386 1.42.577.467.188.935.39 1.405.593 1.03.444 2.068.891 3.125 1.207 1.773.541 3.607-.524 5.222-1.462.326-.19.643-.373.948-.538 3.255-1.749 6.42-3.652 9.576-5.57-.52-.272-1.127-.48-1.693-.673a16.96 16.96 0 0 1-.953-.347l-1.3-.535h-.002l-1.298-.535c-1.83-.76-3.66-1.52-5.48-2.3-.94-.39-1.52-.74-1.68-1.78-.16-1.026-.204-2.093-.247-3.148a74.843 74.843 0 0 0-.043-.962l-.04-.732c-.118-2.155-.235-4.298-.514-6.433-4.97 1.898-9.886 3.909-14.668 6.227ZM32.35 21.07c1.749-.63 2.878-2.327 2.91-4.166a4.504 4.504 0 0 0-3.65-4.374c-1.8-.35-3.67.52-4.61 2.09-.94 1.57-.85 3.6.35 5.07 1.2 1.47 3.25 2.01 5 1.38Z"/>
</svg>
