<svg xmlns="http://www.w3.org/2000/svg" width="40" height="40" fill="none" viewBox="0 0 40 40">
  <path class="display-icon__fill-2" fill="#B6E5FF" d="m20.88.28 5.44 16.67s-7.25 1.41-9.23 3.6c-1.98 2.19-2.93 2.92-2.56 6.92L2.29 18.46S3.44 10.65 8.78 6.2 20.88.28 20.88.28Z"/>
  <path class="display-icon__fill-1" fill="#52B0FF" d="M36.31 25.92c.91 3.39.74 6.49-1.42 9.25-1.56 1.99-3.69 3.12-6.08 3.76-2.51.67-5.02.7-7.42-.47-3.22-1.58-4.82-4.35-5.49-7.74-.62-3.16-.08-6.11 2.23-8.43 3.13-3.16 7-4.29 11.34-3.33 3.12.69 5.13 2.82 6.37 5.71.19.45.35.93.48 1.26l-.01-.01Z"/>
  <path class="display-icon__ink" fill="#1C1D1F" d="m7.18 23.03-.28-8.81.01.02v-.008c-.091-.323.004-.678.4-.872 2.38-1.172 4.83-2.21 7.278-3.25a214.23 214.23 0 0 0 4.732-2.05c.59-.27 1.25.04 1.28.73.05 1.216.079 2.433.108 3.65.041 1.723.083 3.447.182 5.17.014.232.043.463.072.69.111.896.216 1.73-.622 2.36-.754.567-1.58 1.062-2.397 1.552-.32.192-.64.383-.953.578a88.662 88.662 0 0 1-7.1 3.954c-.77.382-1.806.897-2.41-.014-.234-.352-.23-.837-.227-1.276 0-.123.001-.242-.003-.354l-.07-2.07Zm1.443-8.421c.102 3.004.195 6.015.288 9.019l.01.282.04 1.21.004.124c.357-.182.844-.392 1.177-.535.178-.077.313-.136.358-.16 1.24-.65 2.46-1.32 3.66-2.03a131.243 131.243 0 0 0 4.252-2.625v-.001l.408-.263a.9.9 0 0 0 .056-.043c.141-.11.483-.377.49-.242.02-.179-.035-.48-.082-.73a3.896 3.896 0 0 1-.054-.335l-.03-.49-.03-.49c-.083-1.572-.12-3.147-.157-4.722-.02-.833-.04-1.666-.066-2.499-1.16.51-2.33 1.006-3.499 1.502-2.293.972-4.588 1.946-6.825 3.028ZM10.56 28.32l.038.018c.048.03.1.055.154.073.598.276 1.216.506 1.834.737.546.203 1.092.407 1.624.642.71.32 1.25.55 2.01.2a19.27 19.27 0 0 0 1.429-.757c.252-.143.505-.286.761-.423 2.82-1.51 5.71-3.08 8.14-5.18.38-.33.23-.94-.15-1.18-.72-.45-1.49-.82-2.28-1.15-.144-.061-.303-.139-.47-.22-.544-.266-1.18-.576-1.7-.53-.491.043-1.004.426-1.465.771-.177.132-.347.26-.505.359-.67.42-1.35.82-2.03 1.22-1.195.7-2.391 1.388-3.592 2.079l-.768.441c-.457.263-.927.5-1.396.738-.548.277-1.096.554-1.624.872a.695.695 0 0 0-.357.552c-.08.285.006.598.357.768l-.01-.03Zm2.716-.478a79.696 79.696 0 0 1-.62-.233l.301-.152h.001c.372-.188.745-.375 1.112-.577.866-.473 1.72-.975 2.572-1.477.446-.263.891-.525 1.338-.783 1.3-.75 2.47-1.45 3.67-2.23.028-.02.06-.046.096-.074.094-.074.207-.164.294-.186.1-.029.129-.016.202.015.03.012.066.028.118.045.251.075.498.186.743.297.116.053.231.105.347.153.423.18.842.373 1.253.586-1.946 1.524-4.17 2.754-6.333 3.914l-1.89 1.02a5.84 5.84 0 0 0-.237.14c-.24.146-.49.3-.753.33-.241.023-.452-.074-.67-.175a4.886 4.886 0 0 0-.19-.085c-.445-.188-.9-.358-1.354-.528Zm10.191 1.145-.005.004-.03.027-.008-.003a.247.247 0 0 1 .043-.028Z M20.698 28.215a.687.687 0 0 0-.378.315c-.183.309-.106.822.232 1.01a.655.655 0 0 0 .362.162c.303.12.612.225.92.329.258.087.514.174.766.27.058.021.116.045.173.07.233.096.471.195.767.18.361-.025.696-.242 1.01-.445.078-.05.155-.1.23-.146l.022-.013c1.463-.886 2.945-1.783 4.198-2.957.35-.33.26-.94-.15-1.18-.69-.4-1.51-.76-2.29-.96-.48-.12-.77.08-1.14.34-.31.23-.63.44-.95.65-.61.404-1.235.788-1.86 1.171a61.29 61.29 0 0 0-1.912 1.204Zm1.999.519.288-.176c.377-.23.753-.46 1.125-.698l.19-.12c.344-.218.682-.432 1.02-.66l.66-.45.3-.21a2.65 2.65 0 0 0 .09-.063c.03.012.059.026.087.04.053.024.105.048.153.063.168.056.335.12.495.185-.86.674-1.802 1.246-2.732 1.812l-.023.013a5.215 5.215 0 0 1-.313.17c-.204.105-.418.216-.57.347.045-.022.087-.016.083.083l-.118-.052-.002.002c-.103.103-.065.042-.006-.005L23.39 29c-.13-.06-.26-.11-.39-.16a16.93 16.93 0 0 0-.303-.106Zm3.873-2.524-.027.007c.058-.057.065-.054.027-.007Z M4.13 12.57c.015 1.687-.014 3.374-.044 5.061-.04 2.33-.08 4.66-.006 6.989.03.97.09 1.94.16 2.91l.004.06c.048.668.093 1.293.666 1.73.79.603 1.891.97 2.936 1.319.463.154.915.305 1.324.471 1.026.414 2.05.833 3.072 1.252 1.67.682 3.338 1.365 5.018 2.028 1.55.61 2.92.88 4.52.24 1.237-.495 2.397-1.307 3.52-2.094h.001c.329-.23.655-.459.979-.676 3.23-2.16 6.35-4.47 9.41-6.86.37-.29.28-.9 0-1.2-.593-.641-1.37-.94-2.16-1.244-.184-.07-.368-.14-.55-.216a239.51 239.51 0 0 1-1.455-.606c-.435-.182-.864-.362-1.305-.544a761.67 761.67 0 0 1-2.115-.89c-.705-.297-1.41-.595-2.115-.89-.18-.076-.368-.148-.558-.221-.382-.146-.772-.295-1.112-.489-.728-.419-.76-.97-.806-1.736a101.634 101.634 0 0 1-.164-4.134c-.07-2.59-.19-5.16-.57-7.73-.06-.43-.65-.74-1.05-.59-5.82 2.21-11.6 4.48-17.19 7.22-.383.187-.485.526-.41.84Zm0-.124v-.006.01-.004Zm1.703.543c5.03-2.433 10.216-4.495 15.435-6.48.27 2.19.33 4.392.39 6.6v.002l.022.789c.008.308.013.619.019.932.02 1.192.04 2.412.23 3.568.18 1.09.75 1.46 1.74 1.88a729.042 729.042 0 0 0 5.433 2.3l.003.002h.002c.567.24 1.132.477 1.703.708.303.127.65.247 1.012.372.632.219 1.309.452 1.871.767-2.81 2.163-5.68 4.254-8.633 6.211-.295.197-.609.424-.936.662-1.472 1.07-3.235 2.35-4.944 1.998-1.235-.253-2.495-.82-3.71-1.368-.517-.233-1.025-.462-1.52-.662l-4.02-1.65c-.81-.33-1.61-.65-2.42-.97a7.601 7.601 0 0 0-.324-.114c-.459-.154-1.002-.336-1.226-.736-.152-.26-.137-.82-.124-1.27.005-.17.01-.324.004-.44-.156-2.83-.106-5.662-.056-8.492.027-1.537.055-3.073.049-4.609Z"/>
</svg>
