<svg xmlns="http://www.w3.org/2000/svg" width="40" height="40" fill="none" viewBox="0 0 40 40">
  <path class="display-icon__fill-2" fill="#B6E5FF" d="M35.31 36.96 17.26 29.2s4.8-5.08 4.45-8.38c-.35-3.3-.81-6.78-4.44-9.42l16.7-3.7s5.68 6.77 5.42 14.61c-.26 7.84-4.08 14.66-4.08 14.66v-.01Z"/>
  <path class="display-icon__fill-1" fill="#52B0FF" d="M19.3 17.6c.82 3.04.67 5.83-1.27 8.31-1.4 1.79-3.31 2.81-5.47 3.38-2.26.6-4.51.63-6.67-.43-2.9-1.42-4.33-3.91-4.93-6.96-.56-2.83-.07-5.49 2-7.58 2.81-2.84 6.29-3.85 10.19-2.99 2.8.62 4.61 2.53 5.72 5.13.17.41.31.83.43 1.13v.01Z"/>
  <path class="display-icon__ink" fill="#1C1D1F" d="M27.53 8.02a.873.873 0 0 1 .052.179 13.984 13.984 0 0 1 4.225 4.263c1.72.072 2.857 1.444 3.513 2.938.74 1.7 1.22 3.58 1.12 5.45-.152 2.983-1.92 5.976-4.866 6.85a14.07 14.07 0 0 1-3.726 3.754l-.004.014-.004.012c-.54 1.65-1.7 2.92-3.22 3.76-1.52.84-3.1 1.54-4.87 1.45-1.57-.08-3.17-.5-4.52-1.47-1.21-.87-1.923-2.077-2.345-3.464a13.845 13.845 0 0 1-4.29-4.053.924.924 0 0 1-.076-.03c-1.61-.023-3.022-1.138-4-2.353-1.23-1.54-1.41-3.34-1.32-5.24.09-1.9.2-3.74 1.41-5.29 1.015-1.306 2.154-2.504 3.838-2.458a.602.602 0 0 1 .051-.046 13.44 13.44 0 0 1 3.995-3.99.938.938 0 0 1 .047-.106c1.4-2.74 4.28-4.42 7.35-4.5 3.07-.08 6.43 1.36 7.64 4.33Zm-2.755-1.212C23.423 5.668 21.4 5.216 19.65 5.31a6.894 6.894 0 0 0-3.815 1.401c2.877-.93 6.044-.949 8.94.097ZM7.498 14.114a2.86 2.86 0 0 0-.729.586c-.45.49-.92 1.01-1.27 1.58-.61 1.006-.651 2.287-.689 3.465-.006.192-.012.38-.02.565-.07 1.42.02 2.8.93 3.96.482.617 1.088 1.204 1.795 1.532-1.726-3.707-1.683-8.015-.017-11.688ZM22.72 33.57a14.058 14.058 0 0 1-7.604-.72c.295.441.669.83 1.154 1.14 1.03.66 2.27 1.03 3.48 1.09 1.47.08 2.7-.49 3.96-1.17a6.28 6.28 0 0 0 1.433-1.029c-.773.301-1.583.534-2.423.69Zm7.378-6.684a38.768 38.768 0 0 1-3.005-2.626 8.354 8.354 0 0 1-2.497 2.582 46.034 46.034 0 0 1 2.798 2.998 12.28 12.28 0 0 0 2.705-2.775.85.85 0 0 1 0-.179Zm2.883-1.83c1.064-1.005 1.713-2.463 1.839-3.956.12-1.47-.17-2.92-.66-4.3-.268-.746-.638-1.667-1.251-2.229a14.295 14.295 0 0 1 1.11 5.34v.045a14.172 14.172 0 0 1-1.038 5.1Zm-6.94 5.654a46.31 46.31 0 0 0-2.71-2.87.742.742 0 0 1-.17-.249 7.82 7.82 0 0 1-1.502.43 8.411 8.411 0 0 1-4.238-.33l-2.83 3.204c2.942 1.468 6.427 1.753 9.639.625a11.874 11.874 0 0 0 1.81-.81ZM10.64 27.78a12.283 12.283 0 0 0 2.545 2.295l1.454-1.644.002-.003 1.268-1.434a8.2 8.2 0 0 1-2.878-2.851 24.223 24.223 0 0 0-1.56 1.327c-.515.464-1.008.948-1.489 1.446.205.297.424.585.658.864Zm-1.5-2.289a34.694 34.694 0 0 1 3.197-2.833 8.313 8.313 0 0 1-.027-5.318c-1.271-.76-2.232-1.87-3.17-3.004-1.768 3.494-1.73 7.705 0 11.155Zm21.734-.012.127.1a12.708 12.708 0 0 0 1.419-5.659v-.01a12.605 12.605 0 0 0-1.2-5.197 14.229 14.229 0 0 1-3.456 2.202c.352.889.557 1.846.591 2.835a.89.89 0 0 1 .014.17 8.457 8.457 0 0 1-.535 2.827c.565.568 1.147 1.12 1.755 1.653.33.29.67.58 1.01.86l.244.195.03.024ZM27.043 15.5a13.817 13.817 0 0 0 2.327-1.351c.07-.05.15-.11.23-.17a.325.325 0 0 1 .05-.04l.007-.005a13.43 13.43 0 0 0 .773-.653 12.47 12.47 0 0 0-2.73-3.03.753.753 0 0 1-.18.148c-.05.02-.1.05-.14.08l-.025.017c-.032.033-.074.066-.115.1a1.34 1.34 0 0 0-.11.093 5.292 5.292 0 0 0-.29.323l-.1.117c-.125.155-.252.307-.38.46-.127.152-.255.305-.38.46l-.037.045c-.318.39-.649.797-1.028 1.14a8.302 8.302 0 0 1 2.128 2.266ZM22.62 7.86c-2.825-.596-5.737-.118-8.22 1.184l.053.084c.173.277.347.555.527.821.11.16.22.32.34.48.01.01.017.02.024.03.008.01.016.02.026.03l.013.023.037.037.085.1.084.1c.25.29.52.57.81.82.04.03.078.063.116.095.037.033.075.065.114.095.016.012.03.026.045.039l.019.017c.02.011.044.025.056.034.168.128.335.247.513.355 1.83-.67 3.888-.708 5.737-.005.14.053.277.11.413.17a2.92 2.92 0 0 0 .228-.14c.02-.015.04-.03.06-.04.15-.12.29-.26.42-.4.29-.3.55-.62.81-.94.085-.103.168-.209.253-.315.346-.437.703-.887 1.135-1.236A12.148 12.148 0 0 0 22.62 7.86Zm-7.3 2.569.056.075.003.003a.378.378 0 0 1-.06-.078Zm.31 2.584a8.01 8.01 0 0 1-1.18-1.134 16.73 16.73 0 0 1-1.414-2.005 12.263 12.263 0 0 0-3.03 3.015l.168.208c.383.473.768.948 1.186 1.392.31.33.64.66 1 .95l.113.09.057.04.3.21.13.08a8.35 8.35 0 0 1 .81-1.19 7.878 7.878 0 0 1 1.86-1.656Zm1.11-1.164a.12.12 0 0 1-.012-.006l.011.006Zm5.65 14.32c2.63-.94 4.33-3.49 4.37-6.25-.04-3.18-2.29-5.94-5.43-6.54-2.7-.51-5.51.76-6.92 3.13-1.41 2.37-1.23 5.44.55 7.61s4.8 2.99 7.43 2.05Z"/>
</svg>
