<svg xmlns="http://www.w3.org/2000/svg" width="40" height="40" fill="none" viewBox="0 0 40 40">
  <path class="display-icon__fill-2" fill="#B6E5FF" d="m32.09 4.27-4.1 16.08s-6.45-3.43-9.33-2.98c-2.88.45-4.99 1.65-7.51 2.87L8.59 6.55s5.74-5.27 12.62-5.36c6.87-.1 10.89 3.08 10.89 3.08h-.01Z"/>
  <path class="display-icon__fill-1" fill="#52B0FF" d="M19.61 20.63c4.07-.08 8.15-.05 12.12 1.03 1.57.43 3.05 1.03 4.31 2.11 1.89 1.63 2.37 3.8 2.36 6.16-.02 3.68-1.86 6.04-5.25 7.31-2.73 1.02-5.59 1.39-8.46 1.58-4.68.3-9.36.33-14.01-.33-2.13-.3-4.21-.78-6.1-1.85-2.18-1.23-3.37-3.12-3.54-5.58-.08-1.2-.03-2.45.2-3.62.51-2.54 2.28-4.02 4.57-4.98 2.92-1.23 6.03-1.55 9.14-1.76 1.55-.1 3.12-.04 4.68-.05l-.02-.02Z"/>
  <path class="display-icon__ink" fill="#1C1D1F" d="M25.56 3.49c-.713-.007-1.431-.005-2.148-.002l-1.072.002h-1.716c-.35-.002-.752-.004-1.054.17-.586.337-.527 1.228-.481 1.929.01.172.021.333.021.47a228.605 228.605 0 0 0 .02 3.321c.009.482.017.964.014 1.446-2.629.289-5.097 2.014-5.563 4.734a.808.808 0 0 0-.005.026l-.876-.006a.78.78 0 0 0-.427.116c-.23.114-.393.342-.373.684.025.44.013.877 0 1.315-.012.437-.025.875 0 1.315.02.43.35.8.8.8l.984.002.009.69c-1.49-.029-2.98-.008-4.473.012-.809.011-1.62.023-2.43.026-.58 0-1.16 0-1.74-.02-.54-.01-1.1.02-1.41.53-.228.377-.195.815-.163 1.235l.013.175c.015.3.032.602.05.905.017.302.035.605.05.905.034.59.584.842 1.03.75h.11c.004 1.459 0 2.917-.003 4.376-.004 1.946-.008 3.894.003 5.844 0 .44.37.79.8.8 8.17.11 16.34.17 24.51.08h.031c.96-.01 1.93-.02 2.889-.04.126 0 .27.007.426.014.574.027 1.291.061 1.724-.214.8-.525.646-2.027.533-3.139-.03-.306-.059-.583-.063-.801l-.039-1.8c-.038-1.73-.076-3.46-.099-5.19h.048c.44 0 .79-.37.8-.8l.007-.221c.029-.838.057-1.683-.007-2.519-.03-.43-.34-.81-.8-.8-1.59.02-3.18.01-4.77 0-1.455-.009-2.91-.018-4.365-.004a27.475 27.475 0 0 0-.078-.757h1.083c.43 0 .8-.37.8-.8 0-.97-.02-1.92-.18-2.88-.06-.34-.45-.58-.77-.59a336.91 336.91 0 0 0-1.385-.008c-.282-2.504-2.645-4.306-5.081-4.698a61.88 61.88 0 0 0-.014-1.493l-.001-.104L26.9 9.25c.43 0 .81-.36.8-.8-.017-.805-.01-1.61-.005-2.415.005-.575.01-1.15.005-1.725 0-.44-.36-.78-.8-.8a11.48 11.48 0 0 0-.67-.005c-.221.002-.442.005-.66-.005l-.01-.01Zm-10.35 12.1c.308-1.129 1.061-1.994 2.039-2.541a6.453 6.453 0 0 0-.228.44c-.304.653-.548 1.374-.538 2.101H15.21Zm4.09-.008-1.213.004.002-.106v-.018l.002-.123c0-.051.03-.146.013-.037a.31.31 0 0 0-.013.077l.013-.077a.54.54 0 0 1 .007-.023c.01-.08.03-.15.05-.22.04-.16.09-.32.14-.48l.045-.115.023-.056a.343.343 0 0 0 .022-.04l.06-.12c.14-.3.31-.58.51-.85l.03-.04c.01-.012.02-.024.03-.04l-.015.026a.33.33 0 0 0-.042.063c-.005.011.004.001.042-.063l.005-.005a4.99 4.99 0 0 1 .223-.248 22.43 22.43 0 0 1 .052 1.583c.002.302.004.606.015.908Zm3.72-1.993c.62.516 1.073 1.185 1.198 1.978h-.694a6.254 6.254 0 0 0-.504-1.978Zm-2.194-.612a3.495 3.495 0 0 1 .105.124l.001.002.003.004a2.263 2.263 0 0 1 .186.272c.09.14.17.28.25.43.04.07.08.15.11.23a1.256 1.256 0 0 1 .03.065l.03.065c.12.31.23.63.3.96.02.09.04.18.05.26 0 .03.01.07.02.1a.952.952 0 0 0 .007.035l.005.047-1.022.004c-.01-.299-.013-.598-.015-.898a58.544 58.544 0 0 0-.005-.528c-.005-.375-.029-.75-.052-1.125l-.003-.047ZM20.72 7.61a.726.726 0 0 0-.008-.11c-.002-.39-.002-.778-.002-1.17V5.4c0-.085-.002-.173-.005-.26v-.03h4.875a.87.87 0 0 0 .099-.006c.138.005.28.005.422.005 0 .309-.003.618-.005.926-.005.54-.009 1.079-.006 1.618l-5.37.023V7.61Zm3.965 12.35.015.13c.01.075.017.148.024.22.008.073.015.145.026.22.03.31.05.61.07.92.03.62.04 1.23.03 1.85v.023l-1.11.004V23.3l-.04-3.455.971.002.014.113Zm-2.544 3.375-1.232.007a26.084 26.084 0 0 1-.024-1.124 23.848 23.848 0 0 0-.057-1.652 35.3 35.3 0 0 1-.04-.73l1.312.005.04 3.459v.035Zm-2.831.017-1.248.008c.004-.336.011-.671.02-1.007.02-.84.039-1.679-.002-2.513v-.014l.487.002h.001l.62.003c.01.238.025.476.04.715.023.38.046.76.052 1.144.003.174.004.35.005.525.003.379.006.76.025 1.137Zm-3.982.026c-.01-.614-.016-1.228-.023-1.842v-.002c-.007-.572-.013-1.145-.021-1.717l1.195.004.001.019c.038.948.018 1.896-.003 2.84v.001l-.015.69-1.134.007Zm19.392-.035a735.53 735.53 0 0 0-8.271-.025V23.3c.009-.365.008-.73-.001-1.095a281.64 281.64 0 0 1 4.272.005c1.336.009 2.672.017 4.008.008.008.374.003.75-.008 1.125Zm-20.992.046c-2.864.018-5.727.032-8.59.032a45.856 45.856 0 0 1-.028-.601 17.36 17.36 0 0 0-.02-.36c-.007-.105-.014-.21-.018-.315.131.017.289.006.436-.004a3.31 3.31 0 0 1 .232-.011h2.23c.467-.005.935-.01 1.403-.017 1.446-.02 2.894-.038 4.338-.01.005.428.01.857.017 1.286Zm-7.406 7.185c.004-1.85.008-3.7 0-5.554 1.222-.002 2.445-.005 3.668-.01.004.33 0 .662-.005.993-.004.329-.009.658-.005.987.01.42.36.81.8.8l.599-.013c.082 2.246.104 4.485.068 6.732-1.71-.016-3.42-.036-5.129-.058-.002-1.292.001-2.585.004-3.877Zm6.725 3.949c.037-2.26.014-4.513-.07-6.772l.953-.01c-.018 1.101-.039 2.2-.06 3.299-.022 1.162-.045 2.325-.063 3.489l-.76-.006Zm3.673.024-1.314-.007c.02-1.168.042-2.334.064-3.5.021-1.102.042-2.203.06-3.307 2.102-.005 4.205.012 6.307.028.996.008 1.992.016 2.987.021.219 1.252.13 2.517.042 3.784-.07.997-.139 1.995-.059 2.988l-1.554.004c-.079-.536-.047-1.087-.015-1.64.028-.478.056-.957.012-1.428-.09-1-.49-1.79-1.3-2.4a3.2 3.2 0 0 0-3.02-.44c-.59.21-1.04.52-1.42 1.02l-.004.006-.055.074c-.05.06-.1.12-.14.19-.07.09-.14.19-.19.29-.14.27-.21.57-.27.87-.24 1.153-.213 2.287-.13 3.447Zm1.643.007c-.067-.848-.119-1.696-.023-2.544 0 0 .02-.15 0-.05 0-.043.008-.078.016-.119l.004-.02.06-.33c.02-.11.05-.23.08-.34.01-.05.02-.1.04-.15-.024.073-.01.044.008.004a1.437 1.437 0 0 1 .213-.315c-.1.14.18-.23.14-.18l-.01.009a.189.189 0 0 1-.005.005l.005-.005c.014-.015.056-.059.05-.059.034-.035.07-.07.11-.105l.07-.035c.05-.03.1-.06.15-.08 0 0 .14-.06.04-.03.04-.02.08-.03.12-.04l.055-.017a2.401 2.401 0 0 1 .32-.078l.084-.015c.032 0 .065 0 .098-.002h.014a1.928 1.928 0 0 1 .256.004l.014.001c.05.005.12.011.075-.001l.053.008c.05.015.098.028.146.04.047.013.095.025.145.04a2.07 2.07 0 0 1 .418.265.87.87 0 0 1 .091.085c.03.025.058.055.085.085a.91.91 0 0 0 .085.085l.018.025a1.619 1.619 0 0 1 .067.12c.028.052.057.107.09.148a7.11 7.11 0 0 1 .085.317l.004.018.008.051.001.007.004.022.009.054c.008.083.015.166.015.248.018.433.001.861-.015 1.289-.021.53-.041 1.058.005 1.59-1.1 0-2.199-.001-3.298-.005Zm8.042-.007c-.093-1.102-.015-2.198.064-3.301l.01-.156c.078-1.086.104-2.2-.047-3.301a410.07 410.07 0 0 0 1.338 0v6.75l-.17.001-1.195.007Zm6.555-.067c-1.2.02-2.394.036-3.59.047v-6.743l.33.006c.43 0 .8-.37.8-.8 0-.69-.02-1.385-.07-2.072 1.138.003 2.275.008 3.413.017.02 1.339.047 2.678.074 4.02a1254.019 1254.019 0 0 1 .063 3.155c.007.325.015.649.02.97 0 .041.007.14.016.267.027.366.07.959.004 1.033-.147.17-.542.137-.834.113a3.148 3.148 0 0 0-.226-.013Zm-21.38-8.675c.004-.268.007-.536.006-.804 1.753-.01 3.506-.02 5.26-.033h.011c3.99-.027 7.983-.054 11.973-.052.03.419.05.838.06 1.257-3.412-.065-6.83-.038-10.247-.012-1.842.015-3.684.03-5.523.03-.26 0-.52-.003-.78-.005-.255-.003-.51-.005-.764-.005l.004-.376Zm1.92-8.11c.005-.17.01-.34.012-.51 2.15.013 4.296.004 6.443-.005 2.185-.01 4.37-.018 6.557-.005.03.356.042.715.046 1.075-4.359-.002-8.711-.02-13.07-.037.002-.173.007-.345.012-.518Z"/>
</svg>
