<svg xmlns="http://www.w3.org/2000/svg" width="40" height="40" fill="none" viewBox="0 0 40 40">
  <path class="display-icon__fill-2" fill="#B6E5FF" d="M28.75 38.82 15.71 24.99s6.46-4.73 7.39-7.79c.93-3.06 1.53-4.22-.69-7.96l16.17 3.17s2.48 8.19-.7 15.02c-3.18 6.84-9.13 11.4-9.13 11.4v-.01Z"/>
  <path class="display-icon__fill-1" fill="#52B0FF" d="M.49 25.74V1.87c.16-.03.3-.08.44-.07 3.77 0 7.55-.08 11.31.07 1.63.07 3.31.43 4.84 1 3.36 1.25 5.02 3.91 5.37 7.4.44 4.43-.32 8.5-3.82 11.64-2.01 1.8-4.48 2.69-7.07 3.24-3.63.78-7.31.62-11.07.59Z"/>
  <path class="display-icon__ink" fill="#1C1D1F" d="m14.7 9 2.67-.59c.41-.09.69-.59.56-.98a.816.816 0 0 0-.98-.56l-2.67.59c-.41.09-.69.59-.56.98.14.43.55.66.98.56Zm3.68 3.66a131.544 131.544 0 0 1 2.315 7c.037.128.075.255.115.38.073.246.054.26-.122.395l-.058.045c-.31.24-.67.39-1.06.32-.88-.18-1.25-1.12-1.29-1.92-.05-1.03-1.65-1.03-1.6 0 .058 1.28.614 2.609 1.806 3.21-.372.15-.64.56-.506.96.13.4.56.7.98.56.603-.196 1.224-.314 1.845-.433.677-.129 1.353-.258 2.005-.487.39-.14.7-.55.56-.98-.13-.39-.56-.71-.98-.56a7.285 7.285 0 0 1-.23.077c.032-.045.061-.09.09-.137.381-.639.165-1.325-.043-1.981l-.077-.249a115.625 115.625 0 0 0-2.2-6.62c-.15-.41-.54-.68-.98-.56-.39.11-.71.58-.56.98h-.01Zm4.454 14.927c-.55.142-1.102.276-1.654.403l.02-.03c-.43.1-.84-.13-.98-.56-.13-.39.15-.89.56-.98.323-.074.645-.15.965-.228a.797.797 0 0 1-.155-.702c.09-.39.59-.71.98-.56.312.123.632.23.954.337.28.095.563.189.841.294a.82.82 0 0 1 .515.309c.207.277.2.583.064.88-.03.096-.058.192-.086.288-.156.532-.312 1.064-.738 1.452-.27.25-.64.3-.97.13-.29-.15-.5-.59-.37-.9l.054-.133Z M32.878 32.401c.126-.167.175-.393.082-.661-1.37-4.038-2.742-8.074-4.114-12.11l-.001-.005C27.472 15.587 26.1 11.55 24.73 7.51c-.195-.58-.393-1.16-.59-1.74-.198-.58-.395-1.16-.59-1.74-.15-.44-.54-.64-.98-.56-2.5.45-4.998.902-7.495 1.355h-.001c-2.498.453-4.995.905-7.494 1.355-.42.08-.68.6-.56.98l7.59 24.99.54 1.78.54 1.78c.13.43.55.66.98.56 2.625-.59 5.247-1.183 7.87-1.775l.005-.001c2.62-.592 5.241-1.184 7.865-1.774a.713.713 0 0 0 .468-.319Zm-2.047-1.968.321.945c-2.345.528-4.689 1.057-7.032 1.587l-7.112 1.604L9.64 10.31 9.1 8.53l-.288-.945c2.228-.402 4.455-.805 6.681-1.209h.002c2.25-.408 4.499-.815 6.75-1.221 1.292 3.808 2.586 7.614 3.88 11.42 1.372 4.038 2.744 8.076 4.115 12.116.195.58.392 1.16.59 1.74v.003Z"/>
</svg>
