<svg xmlns="http://www.w3.org/2000/svg" width="40" height="40" viewBox="0 0 40 40">
  <path class="display-icon__fill-2" fill="#B6E5FF" d="M20.8791 0.279785L26.3191 16.9498C26.3191 16.9498 19.0691 18.3598 17.0891 20.5498C15.1091 22.7398 14.1591 23.4698 14.5291 27.4698L2.28906 18.4598C2.28906 18.4598 3.43906 10.6498 8.77906 6.19978C14.1191 1.74978 20.8791 0.279785 20.8791 0.279785Z"/>
  <path class="display-icon__fill-1" fill="#52B0FF" d="M36.3101 25.9199C37.2201 29.3099 37.0501 32.4099 34.8901 35.1699C33.3301 37.1599 31.2001 38.2899 28.8101 38.9299C26.3001 39.5999 23.7901 39.6299 21.3901 38.4599C18.1701 36.8799 16.5701 34.1099 15.9001 30.7199C15.2801 27.5599 15.8201 24.6099 18.1301 22.2899C21.2601 19.1299 25.1301 17.9999 29.4701 18.9599C32.5901 19.6499 34.6001 21.7799 35.8401 24.6699C36.0301 25.1199 36.1901 25.5999 36.3201 25.9299C36.3201 25.9299 36.3101 25.9199 36.3101 25.9199Z"/>
  <path class="display-icon__ink" fill="#1C1D1F" d="M16.3103 10.5202L16.2804 10.5502C16.2203 10.6102 16.1403 10.6702 16.0703 10.7202C16.0551 10.735 16.0376 10.7471 16.0183 10.7562L16.0103 10.7602C15.9303 10.8002 15.8404 10.8402 15.7503 10.8702C15.7303 10.8902 15.7003 10.8902 15.6803 10.8902C15.5606 10.9101 15.4401 10.9302 15.3203 10.9202H15.3113L15.3023 10.9194C15.1879 10.9096 15.0656 10.8992 14.9613 10.8602L14.9333 10.8502C14.829 10.8187 14.7302 10.7716 14.6403 10.7102C14.5704 10.6602 14.5005 10.6003 14.4305 10.5403C14.3754 10.489 14.3268 10.4307 14.2863 10.3672L14.2603 10.3302C14.2565 10.322 14.2518 10.3143 14.2463 10.3072C14.1926 10.2088 14.1471 10.1061 14.1103 10.0002C14.0903 9.91016 14.0703 9.81019 14.0703 9.71021V9.63019L14.0733 9.60321L14.0765 9.57625C14.0855 9.50088 14.0951 9.42053 14.1103 9.34021C14.1103 9.32608 14.1147 9.31461 14.1194 9.30248L14.1203 9.30017C14.1263 9.28766 14.1297 9.27404 14.1303 9.26019C14.1703 9.14019 14.2203 9.0202 14.2903 8.92016C14.3602 8.82029 14.4304 8.72007 14.5303 8.64019L14.6013 8.58617L14.6095 8.57981C14.6596 8.54102 14.7082 8.50336 14.7613 8.47014C14.8413 8.42015 14.9413 8.38017 15.0213 8.35014L15.0513 8.33818C15.0713 8.32914 15.0913 8.32017 15.1113 8.32017H15.1103C15.2003 8.30015 15.3003 8.28019 15.4003 8.28019L15.3903 8.26017C15.6103 8.24015 15.8103 8.35014 15.9603 8.49015C15.9973 8.52713 16.0303 8.56613 16.0603 8.60715C16.1103 8.64316 16.1553 8.68113 16.2003 8.72013C16.2301 8.74003 16.2501 8.75993 16.27 8.77977C16.33 8.84978 16.3903 8.93015 16.4403 9.01017C16.5103 9.12016 16.5603 9.24015 16.5903 9.36015C16.6069 9.43618 16.6168 9.51901 16.6261 9.59765L16.6283 9.61619L16.6303 9.64018V9.72014C16.6203 9.94017 16.5803 10.0602 16.4903 10.2602L16.4833 10.2762L16.4824 10.2781C16.4746 10.2957 16.4657 10.3157 16.4503 10.3302C16.4103 10.4002 16.3603 10.4602 16.3103 10.5202Z M21.8905 9.90984C27.0605 17.4499 31.2105 25.8299 35.0205 34.1299C35.1804 34.4798 35.1505 35.0398 34.7304 35.2199C29.9364 37.2499 26.6605 31.3849 25.2744 27.3699L25.0905 27.5249C24.1535 28.3169 23.1845 29.1358 22.1305 29.6598C21.8799 29.7843 21.6167 29.8815 21.3455 29.9499L21.3905 34.1899C21.3905 34.6399 21.0305 34.9698 20.5905 34.9899C20.1505 35.0099 19.7904 34.6098 19.7904 34.1899L19.7465 30.0959C19.2785 30.073 18.812 30.0243 18.3494 29.9499C18.1138 29.9148 17.879 29.8738 17.6455 29.8269C17.671 30.4975 17.6376 31.1701 17.6041 31.8428L17.6024 31.8769C17.5634 32.6449 17.5244 33.4129 17.5705 34.1799C17.6004 34.6299 17.1804 34.9599 16.7705 34.9798C16.3205 34.9999 15.9904 34.5998 15.9705 34.1799C15.9304 33.4899 15.9674 32.7939 16.0045 32.1009C16.0144 31.9309 16.0235 31.7599 16.0305 31.5899C16.0504 31.1499 16.0705 30.6999 16.0705 30.2599C16.0705 30.0578 16.0621 29.8622 16.0535 29.6607L16.0524 29.6369L16.0504 29.6098L16.0445 29.5448L16.0294 29.3899C14.3545 28.8048 12.8344 27.8108 11.9594 26.2199C10.7565 24.0418 10.8064 21.2898 10.8523 18.7546L10.853 18.7197C10.8628 18.1695 10.8724 17.631 10.8695 17.1098C10.8633 16.3066 10.8586 15.5032 10.8554 14.6999C10.438 14.7115 10.0207 14.7262 9.60349 14.7439L9.56531 14.7453C8.26981 14.7949 6.96517 14.8447 5.60947 14.7298C3.59946 14.5599 4.36948 12.7499 5.05948 11.5799C6.86948 8.53984 9.85947 5.22984 13.3894 4.25987C15.0395 3.80986 16.8095 4.03984 18.1795 5.10985C19.3835 6.04985 20.2985 7.46587 21.1574 8.79686L21.2064 8.87257C21.4365 9.22852 21.6626 9.57833 21.8905 9.90984ZM6.20047 13.1199L10.8535 13.0929C10.8535 11.1722 10.8675 9.25158 10.8955 7.33288C10.2216 7.86779 9.58518 8.44818 8.99045 9.06988C8.29044 9.78985 7.65049 10.5599 7.09049 11.3799C6.98267 11.5319 6.88501 11.7086 6.78585 11.888L6.76047 11.9339C6.60349 12.2229 6.44345 12.5149 6.24045 12.7299C6.20047 12.9369 6.10947 13.0669 5.97043 13.1199H6.20047ZM26.2694 25.5339C26.3855 25.6362 26.469 25.7705 26.5094 25.9199C27.2425 28.4178 29.7224 34.6579 33.2445 34.0389C31.5305 30.3309 29.7415 26.6139 27.8195 22.9689C26.5775 23.1819 25.2774 23.3189 24.0504 23.3099C22.7705 23.2999 21.6604 22.9899 20.6104 22.2399C18.774 20.9324 17.2898 19.1906 16.2904 17.1699V17.1799C15.8405 16.2599 17.2204 15.4499 17.6704 16.3699C18.5105 18.0799 19.7304 19.6199 21.2805 20.7599C21.7005 21.0699 22.1405 21.3699 22.6505 21.5399C23.1604 21.7099 23.7005 21.7099 24.2404 21.7099C25.1735 21.699 26.1048 21.6235 27.0274 21.4839C24.8714 17.4959 22.5445 13.6059 19.9695 9.91987C19.7864 9.65552 19.6068 9.3888 19.4305 9.11988C18.2615 7.35688 16.9624 5.3979 14.6004 5.6399C13.8705 5.71589 13.1685 5.9549 12.5005 6.29487C12.5077 6.34291 12.511 6.39137 12.5105 6.43989C12.4505 9.40986 12.4405 12.3699 12.4505 15.3299C12.4497 16.027 12.4404 16.724 12.4225 17.4209C12.3795 19.4479 12.3365 21.5239 12.6994 23.4899C13.1895 26.1399 15.0595 27.5899 17.5995 28.1899C18.7895 28.4699 20.3595 28.7899 21.4895 28.1999C22.3894 27.7289 23.2235 27.0229 24.0365 26.3339C24.3965 26.0289 24.7534 25.7269 25.1095 25.4499C25.5055 25.1379 25.9845 25.2579 26.2694 25.5339Z"/>
</svg>
