<svg xmlns="http://www.w3.org/2000/svg" width="40" height="40" fill="none" viewBox="0 0 40 40">
  <path class="display-icon__fill-2" fill="#B6E5FF" d="M11.95 24.45c4.92.28 9.76.56 14.64.84.01.1.04.19.03.27-.14 2.31-.22 4.63-.44 6.94-.1 1-.38 2.01-.78 2.93-.88 2.02-2.57 2.94-4.73 3.03-2.73.11-5.2-.5-7-2.75-1.03-1.3-1.49-2.84-1.74-4.45-.35-2.25-.12-4.51.03-6.81h-.01Z"/>
  <path class="display-icon__fill-1" fill="#52B0FF" d="M32.21 25.05c-8.29-.48-16.47-.95-24.7-1.42-.02-.17-.06-.32-.05-.46.23-3.9.37-7.82.75-11.7.16-1.68.64-3.4 1.32-4.94 1.49-3.41 4.34-4.97 7.98-5.12 4.61-.19 8.78.84 11.82 4.65 1.75 2.19 2.52 4.79 2.94 7.51.59 3.8.21 7.6-.04 11.49l-.02-.01Z"/>
  <path class="display-icon__ink" fill="#1C1D1F" d="m16.3 9.37-2.47.54a.76.76 0 0 1-.91-.52c-.12-.36.14-.83.52-.91l2.47-.54c.4-.09.78.12.91.52.12.36-.14.83-.52.91Zm4.748 20.063a1.02 1.02 0 0 0-.238.447c-.02.09-.04.2-.03.3l.001.013c.01.096.02.2.049.287.07.19.16.37.31.51l.01.008c.067.058.144.124.22.162l.031.013.026.012c.054.024.111.05.163.065.033.013.07.017.105.022a.722.722 0 0 1 .055.008c.05.01.1.02.16.02.055 0 .114-.01.172-.019l.015-.002.063-.01c.02 0 .05-.01.07-.02.08-.03.16-.06.24-.1.19-.1.34-.27.46-.45.24-.38.23-.88 0-1.26-.12-.2-.28-.35-.47-.48-.21-.13-.43-.18-.67-.2-.1 0-.2.02-.29.06-.09.03-.17.08-.24.15-.07.07-.12.15-.15.24a.47.47 0 0 0-.062.224Z M30.679 31.627c.134-.156.191-.375.101-.637-1.273-3.74-2.544-7.482-3.814-11.224l-.006-.016-.001-.003v-.002C25.687 16 24.415 12.253 23.14 8.51L22.05 5.3c-.14-.41-.5-.59-.91-.52l-6.95 1.26h-.002L7.24 7.3c-.39.07-.63.56-.52.91 1.175 3.864 2.347 7.729 3.52 11.594 1.173 3.866 2.345 7.73 3.52 11.596.33 1.09.66 2.18.99 3.28.12.4.51.61.91.52 4.86-1.1 9.73-2.2 14.59-3.29a.663.663 0 0 0 .429-.283Zm-1.576-.976c-4.374.99-8.755 1.98-13.129 2.961-1.106-3.64-2.21-7.279-3.314-10.918l-.001-.003c-1.172-3.864-2.344-7.727-3.519-11.591v-.001c-.253-.834-.505-1.667-.757-2.506l6.195-1.123h.005l6.257-1.135c1.201 3.53 2.4 7.063 3.6 10.595 1.273 3.747 2.545 7.495 3.82 11.24l.843 2.481Zm1.277-11.084c.712.193 1.42.385 2.12.643.39.15.89-.16.98-.56.1-.45-.14-.83-.56-.98-.742-.276-1.503-.481-2.267-.688a56.284 56.284 0 0 1-.953-.262c-.4-.12-.89.14-.98.56-.09.42.13.86.56.98.367.108.734.208 1.1.307Zm.21-3.452c-.645.173-1.29.345-1.94.505-.43.11-.85-.16-.98-.56s.15-.88.56-.98c.65-.16 1.295-.332 1.94-.505.645-.172 1.29-.345 1.94-.505.43-.11.85.16.98.56s-.15.88-.56.98c-.65.16-1.295.333-1.94.505Zm-2.45-2.165c.243-.264.495-.512.75-.764.104-.1.207-.203.31-.306.38-.37.72-.78 1.06-1.19.14-.17.23-.34.23-.57 0-.2-.09-.43-.23-.57a.776.776 0 0 0-.57-.23c-.2 0-.43.07-.57.23-.34.41-.68.82-1.06 1.19-.36.35-.72.7-1.06 1.07-.29.31-.33.83 0 1.13.33.3.83.33 1.13 0l.01.01Z"/>
</svg>
