<svg xmlns="http://www.w3.org/2000/svg" width="40" height="40" fill="none" viewBox="0 0 40 40">
  <path class="display-icon__fill-2" fill="#B6E5FF" d="M19.16 20.35c-3.33-.08-6.11-1.07-8.05-3.77-1.4-1.96-1.86-4.2-1.79-6.56.07-2.47.71-4.77 2.42-6.64C14.04.87 17 .15 20.27.45c3.04.28 5.59 1.57 7.09 4.3 2.04 3.7 2.03 7.54 0 11.23-1.47 2.66-3.95 3.92-6.92 4.27-.47.06-.94.07-1.28.09v.01Z"/>
  <path class="display-icon__fill-1" fill="#52B0FF" d="M20.32 39.36c-4.07.08-8.15.05-12.12-1.03-1.57-.43-3.05-1.03-4.31-2.11-1.89-1.63-2.37-3.8-2.36-6.16.02-3.68 1.86-6.04 5.25-7.31 2.73-1.02 5.59-1.39 8.46-1.58 4.68-.3 9.36-.33 14.01.33 2.13.3 4.21.78 6.1 1.85 2.18 1.23 3.37 3.12 3.54 5.58.08 1.2.03 2.45-.2 3.62-.51 2.54-2.28 4.02-4.57 4.98-2.92 1.23-6.03 1.55-9.14 1.76-1.55.1-3.12.04-4.68.05l.02.02Z"/>
  <path class="display-icon__ink" fill="#1C1D1F" d="M23.71 7.69a.89.89 0 0 1-.015.178c-.1 1.91-1.494 3.643-3.415 3.992-1.76.31-3.55-.44-4.48-2-.93-1.56-.69-3.57.41-4.91 1.1-1.34 3.03-1.88 4.7-1.25 1.67.63 2.78 2.2 2.8 3.99Zm-1.6 0h-.01c0-.035.003-.07.007-.103A2.673 2.673 0 0 0 19.91 5.07c-1.04-.2-2.16.31-2.72 1.25s-.47 2.19.19 3.01c.74.92 1.91 1.23 3.02.84 1.02-.35 1.7-1.4 1.71-2.48Zm-6.57 10.14c2.61-.08 5.23-.09 7.84-.03 1.03.02 1.03-1.58 0-1.6-2.61-.06-5.23-.05-7.84.03-1.03.03-1.03 1.63 0 1.6Zm12.832 1.549a.93.93 0 0 1 .189-.059l.033-.005c.07-.01.17-.025.247-.025.06 0 .12.009.18.018l.09.012c.11.01.22.06.31.11.19.09.36.27.47.45.16.25.19.55.12.84-.05.22-.19.45-.36.59a1.596 1.596 0 0 1-.4.262 1.02 1.02 0 0 1-.67.198c-.21-.02-.31-.05-.51-.14a1.109 1.109 0 0 1-.253-.184l-.007-.006a1.13 1.13 0 0 1-.32-.56c-.04-.2-.04-.34 0-.54.02-.11.07-.22.13-.32l.007-.011.033-.069c.05-.09.12-.19.2-.26l.006-.005c.04-.035.08-.07.124-.103a.874.874 0 0 1 .381-.193Z M8.853 17.48a9.955 9.955 0 0 1 2.244-1.936c3.325-2.652 7.726-2.446 11.804-2.254.337.016.672.032 1.004.046 1.404-1.613 3.766-2.286 5.855-1.926 1.1.2 2.03.83 2.22 2.02.178 1.114-.702 2.287-1.443 3.274l-.077.104c.887.54 1.461 1.275 2.174 2.189l.026.033c.33.42.38.45.96.55.118.021.233.035.348.048.215.025.427.05.642.122.53.18 1.01.54 1.31 1.01.688 1.061.656 2.546.63 3.79a39.211 39.211 0 0 0-.01.902c.005 1.197.008 2.302-1.31 2.738-.181.06-.533.087-.901.115-.545.04-1.127.084-1.259.245-.068.08-.094.236-.12.393-.02.12-.04.24-.08.327-.12.25-.3.49-.49.69-.295.308-.652.55-1.01.792-.235.16-.471.32-.69.498-.69.56-1.28 1.24-1.74 2-.157.264-.287.542-.416.815-.392.837-.763 1.63-1.834 1.825-1.214.222-2.632.174-3.918.13L22.13 36a.796.796 0 0 1-.8-.8 4.478 4.478 0 0 0-.104-.797c-1.006.006-2.012.028-3.014.049l-.195.004c-.024.304-.03.607-.037.914-.01.45-.36.78-.8.8a38.9 38.9 0 0 1-3.24.02l-.126-.005c-1.198-.047-2.523-.1-3.084-1.355-.16-.36-.214-.753-.267-1.145-.042-.313-.085-.627-.183-.925-.24-.73-.63-1.4-1.03-2.05-.158-.26-.321-.52-.484-.777-.618-.979-1.234-1.955-1.606-3.063-.948-2.846-.639-5.752.773-8.113a4.062 4.062 0 0 1-.795-.831 3.668 3.668 0 0 1-2.178.004c-1.12-.36-2.05-1.3-2.26-2.49-.07-.42.11-.86.56-.98.38-.11.91.13.98.56.13.75.65 1.29 1.42 1.44.271.053.565.055.838-.008-.203-.895-.132-1.898.772-2.182.72-.23 1.43.31 1.6.98.162.64-.04 1.288-.423 1.789a2.702 2.702 0 0 0 .406.44Zm3.107-.59a8.273 8.273 0 0 0-1.579 1.271l.16.03.01-.01c.43.07.67.6.56.98-.12.45-.55.63-.98.56a5.003 5.003 0 0 1-.797-.204c-1.253 2.058-1.481 4.625-.574 7.093.358.974.92 1.848 1.482 2.721.741 1.152 1.481 2.302 1.748 3.68.023.116.04.231.057.342.096.625.172 1.12 1.013 1.197.71.08 1.46.08 2.18.08a25.2 25.2 0 0 0 1.164-.032 9.49 9.49 0 0 1 .136-1.148c.06-.35.44-.59.77-.59 1.52-.04 3.04-.07 4.55-.07.33 0 .7.25.77.59l.081.377c.048.217.096.436.134.656.955.026 1.944.029 2.875-.083.92-.11 1.09-.45 1.47-1.22.25-.51.55-1 .9-1.46.66-.88 1.46-1.59 2.36-2.22.57-.4.84-.71 1.05-1.38.018-.055.034-.11.05-.163.082-.286.158-.545.41-.747.368-.287.784-.3 1.212-.314l.148-.006c.093-.005.198-.005.308-.005.317 0 .677.001.922-.125.322-.165.324-.188.338-.417a3.6 3.6 0 0 1 .022-.243c.058-.494.038-1.015.019-1.528-.008-.202-.016-.404-.019-.602v-.328c.004-.621.008-1.38-.33-1.852-.35-.489-.9-.536-1.457-.584-.57-.05-1.148-.1-1.523-.626a4.45 4.45 0 0 1-.355-.655c-.129-.272-.257-.543-.455-.785-.47-.56-1.08-.96-1.76-1.2-.46-.17-.78-.72-.48-1.18.078-.116.197-.276.337-.463.715-.952 1.974-2.63 1.013-3.157-.61-.33-1.74-.17-2.36-.04-.77.16-1.57.48-2.16 1.02-.14.13-.253.243-.351.342-.396.4-.555.56-1.389.528-.418-.017-.848-.038-1.285-.06-3.467-.179-7.413-.381-10.192 1.857a.846.846 0 0 1-.203.173Zm-4.648-1.233c.018-.01.043.001.022.062-.05-.022-.04-.053-.022-.062Z"/>
</svg>
