<svg xmlns="http://www.w3.org/2000/svg" width="40" height="40" fill="none" viewBox="0 0 40 40">
  <path class="display-icon__fill-2" fill="#B6E5FF" d="M38.94 22.33c1.02 4.09.74 7.82-1.91 11.08-1.92 2.36-4.5 3.67-7.4 4.38-3.04.75-6.05.73-8.91-.74-3.84-1.97-5.7-5.34-6.43-9.43-.68-3.81.04-7.34 2.87-10.09 3.83-3.72 8.52-5 13.7-3.75 3.73.9 6.11 3.51 7.53 7.01.22.55.4 1.12.54 1.53l.01.01Z"/>
  <path class="display-icon__fill-1" fill="#52B0FF" d="m9.68 3.16 10.13 11.81s-3.86 1.61-5.39 4.79c-1.2 2.51-1.56 4.07-.69 7.07L1.01 23.78s-1.7-6.57 1.05-11.89c2.75-5.31 7.62-8.73 7.62-8.73Z"/>
  <path class="display-icon__ink" fill="#1C1D1F" d="M35.07 19.96v.048a16.78 16.78 0 0 1-.03.713c1.49.954 3.462 3.505 1.75 5.13-.855.806-2.245 1.046-3.595 1.101-2.01 3.603-5.492 6.323-9.745 7.138-5.89 1.13-11.94-1.46-15.11-6.67-2.462-4.046-2.668-9.046-.829-13.27h-.01l-.025-.003a2.03 2.03 0 0 0-.235-.017l-.34-.002a17.517 17.517 0 0 0-.68.002 4.361 4.361 0 0 0-.582.04.255.255 0 0 1-.058.01c-.09.02-.17.04-.25.06-.2.05-.25.07-.36.12l-.1.06-.1.06-.06.04-.01.01-.18.18-.005.004a.465.465 0 0 1-.024.023.562.562 0 0 1-.021.043l-.045.075c-.018.03-.036.06-.051.089a.586.586 0 0 0-.053.235l-.001-.07v.17l.023.091.007.03a.475.475 0 0 1 .01.036 3.152 3.152 0 0 1 .09.14l.06.094c.016.026.023.04.025.046.008.008.02.018.035.034a10.335 10.335 0 0 0 .38.369l.05.03.045.031c.049.034.102.07.155.1l.21.12.048.022.056.026.016-.008c.42.16.67.52.56.98-.08.39-.59.72-.98.56-.84-.34-1.68-.91-2.11-1.74-.47-.91-.27-1.91.36-2.65s1.62-.99 2.55-1.06c.77-.053 1.593-.044 2.356.126.388-.668.833-1.31 1.333-1.916 3.84-4.65 10.49-6.4 16.11-4.27 3.888 1.474 6.838 4.503 8.313 8.21a.813.813 0 0 1 .178.45l.002.025a14.813 14.813 0 0 1 .867 4.805Zm-1.054 5.27c.59-.08 1.508-.238 1.735-.7.324-.655-.317-1.456-.944-1.998a14.78 14.78 0 0 1-.791 2.698Zm-.538-5.156a.91.91 0 0 1-.008-.114c-.008-.7-.072-1.388-.188-2.062l-.011.012c-.568.605-1.248.822-1.962 1.05-.266.085-.537.171-.808.28-1.096.438-.986 1.223-.866 2.086.055.397.113.81.056 1.214-.13.91-.7 1.55-1.42 2.08a16.6 16.6 0 0 1-.415.297c-.078.055-.157.11-.234.166.12.017.239.032.359.047 1.367.168 2.831.294 4.254.251a13.2 13.2 0 0 0 1.243-5.307ZM24.98 32.02c2.698-.952 4.901-2.775 6.388-5.074l-.128-.003c-.16-.005-.313-.01-.46-.013a28.743 28.743 0 0 1-4.38-.434 2.2 2.2 0 0 0-.1.464c-.059.517.037 1.02.133 1.523.066.344.132.688.148 1.037.07 1.74-1.72 2.07-2.99 1.5-1.57-.72-2.25-1.5-2.57-3.19-.177-.923-.2-1.888-.216-2.856a65.468 65.468 0 0 1-4.15-1.506c.122.285.25.568.386.852.44.93-.93 1.77-1.38.81-.422-.9-.81-1.82-1.145-2.755a.694.694 0 0 1-.103-.34.638.638 0 0 1 .15-.515.776.776 0 0 1 .246-.23c1.01-.57 2.09-1.08 3.22-1.33.43-.09.84.13.98.56.13.39-.15.89-.56.98-.26.06-.51.13-.76.21l-.204.075-.206.075-.15.06a.14.14 0 0 0-.015.006c1.197.478 2.418.893 3.64 1.305-.05-.797-.157-1.578-.403-2.321-.113-.349-.348-.713-.588-1.086-.586-.912-1.21-1.88-.202-2.824.846-.793 2.288-.34 3.565.06.624.197 1.209.38 1.665.4 1.867.085.187-1.08-.677-1.679-.15-.104-.275-.19-.353-.251-.67-.51-1.27-1.15-1.55-1.96-.34-.97-.11-1.89.21-2.83.285-.812.579-1.62.873-2.428l.299-.825a12.577 12.577 0 0 0-4.81-.188 5.23 5.23 0 0 1 .977 2.131c.21 1.01.16 2.09-.23 3.05-.24.59-.58 1.15-1.25 1.33-.56.15-1.16 0-1.63-.32-.31-.212-.558-.49-.804-.765-.404-.453-.8-.897-1.446-1.015-.453-.084-.933-.062-1.4-.041l-.27.011c-.645.02-1.29.066-1.926.123a12.562 12.562 0 0 0-1.372 2.026c1.813-.143 3.72-.068 5.188 1.141 1.49 1.23 2.02 3.45.79 5.05-.475.616-1.089.86-1.733 1.118a9.06 9.06 0 0 0-.807.352c-.61.31-.63.72-.42 1.32.101.295.232.577.361.858.126.272.25.542.349.822.618 1.764.244 3.692-.85 5.163 3.44 2.943 8.288 3.914 12.67 2.367Zm1.13-7.8c.205-.17.437-.32.671-.47.386-.25.776-.501 1.05-.85.396-.504.278-1.125.161-1.742-.057-.301-.114-.602-.111-.888.01-.72.3-1.36.84-1.83.478-.42 1.117-.643 1.737-.86 1.105-.387 2.153-.754 2.136-2.174-1.31-3.394-4.002-6.149-7.475-7.453-.088.243-.177.487-.267.73v.004c-.303.827-.606 1.653-.891 2.483-.47 1.36-.35 2.25.85 3.16.172.13.36.262.552.397 1.152.807 2.485 1.74 1.748 3.343-.65 1.41-2.69 1.08-3.89.76a7.493 7.493 0 0 1-.34-.113c-.672-.232-2-.69-2.21-.407-.104.14.334.676.65 1.063.138.17.253.31.29.377.632 1.188.685 2.618.685 4.003 1.091.367 2.195.697 3.315.954.153-.175.32-.338.5-.487Zm-3.22 1.42-.582-.182.003.072c.04.9.13 1.94.42 2.8.208.635.8.915 1.385 1.193l.015.007c.027.012.067.034.113.06.143.079.349.193.447.17.32-.065.312-.088.278-.177a.4.4 0 0 1-.028-.213c.026-.19-.034-.442-.09-.675a3.75 3.75 0 0 1-.07-.335c-.098-.734-.157-1.458.037-2.191-.648-.154-1.29-.33-1.927-.529ZM8.763 15.501l-.09.01c-1.534 4.18-.818 9.019 2.068 12.54.136.165.275.327.418.484a3.89 3.89 0 0 0 .702-2.045c.05-.941-.304-1.745-.66-2.557l-.01-.023c-.36-.82-.68-1.7-.32-2.57.3-.72.97-1.16 1.68-1.44.11-.044.222-.085.332-.126.667-.247 1.299-.48 1.548-1.244.27-.8-.09-1.64-.68-2.2-1.305-1.227-3.337-1.007-4.988-.829Zm3.771-5.414c.165-.007.331-.013.497-.017.64-.02 1.3-.03 1.91.12.61.15 1.15.47 1.58.91a5.5 5.5 0 0 1 .325.382c.22.277.449.563.745.718.07.04.12.06.19.08.06.04.1.03.12-.01-.07.04-.08.04-.03-.01.138-.178.208-.435.268-.653l.002-.007c.13-.47.17-.96.11-1.44a3.749 3.749 0 0 0-1.298-2.44 13.017 13.017 0 0 0-4.419 2.367Z"/>
</svg>
