<svg xmlns="http://www.w3.org/2000/svg" width="40" height="40" fill="none" viewBox="0 0 40 40">
  <path class="display-icon__fill-2" fill="#B6E5FF" d="M15.89 1.41 26.28 17.6s-7.31 3.5-8.81 6.37c-1.5 2.87-2.31 3.91-.8 8.05L1.18 25.84s-.94-8.6 3.5-14.81c4.44-6.19 11.21-9.62 11.21-9.62Z"/>
  <path class="display-icon__fill-1" fill="#52B0FF" d="M18.41 30.5c-.46-3.41.11-6.4 2.56-8.81 1.77-1.74 3.98-2.56 6.39-2.88 2.53-.33 4.97-.04 7.15 1.41 2.93 1.95 4.13 4.85 4.35 8.23.2 3.15-.7 5.94-3.25 7.91-3.44 2.67-7.35 3.27-11.44 1.79-2.94-1.07-4.63-3.4-5.46-6.37-.13-.47-.22-.94-.3-1.29v.01Z"/>
  <path class="display-icon__ink" fill="#1C1D1F" d="M19.96 27.74a.689.689 0 0 0 .15-.066.581.581 0 0 0 .32-.394.515.515 0 0 1 .02-.07.477.477 0 0 0 .02-.07.303.303 0 0 0 .008-.025 4.545 4.545 0 0 1 .2-.365l.014-.021c.063-.104.127-.21.178-.319.092-.183.158-.383.223-.577l.017-.053.02-.052a1.92 1.92 0 0 1 .08-.198.618.618 0 0 0 .03-.075l.02-.055.005-.01c.008-.02.005-.013-.002 0-.013.029-.042.088-.003-.01.093-.206.19-.408.285-.61.193-.406.385-.81.545-1.23.12-.31-.13-.7-.44-.77-.36-.08-.64.11-.77.44v-.01l-.043.111a3.03 3.03 0 0 1-.067.17l-.004.009-.005.01c-.002.006-.001.004 0 0l.005-.01a2.357 2.357 0 0 1-.016.04c-.01.015-.017.033-.025.05l-.003.007a.27.27 0 0 1-.022.043c-.06.14-.13.29-.2.43a13.295 13.295 0 0 0-.59 1.34c-.015.05-.032.098-.05.145-.017.048-.035.095-.05.145 0 .01-.013.041-.021.064-.01.027-.016.04.011-.014a.979.979 0 0 0-.025.055l-.003.007a4.265 4.265 0 0 1-.282-.552l.06.15c-.05-.11-.09-.22-.13-.33-.06-.16-.14-.29-.29-.37a.618.618 0 0 0-.48-.06c-.15.05-.3.14-.37.29-.07.15-.12.33-.06.48.14.36.28.72.49 1.05.044.07.089.137.133.205.117.177.233.352.32.543a.49.49 0 0 1 .027.092c.09.31.44.54.77.44Z M27.299 26.489c-.077 3.526-2.599 6.714-6.12 7.351-3.1.56-6.28-.82-7.91-3.55s-1.3-6.25.69-8.68c1.99-2.43 5.48-3.37 8.42-2.25a7.65 7.65 0 0 1 4.92 6.994v.135Zm-1.847.455c-.35.015-.699.018-1.052.006-.35 0-.6-.29-.62-.62-.02-.33.29-.62.62-.62.344.006.684.005 1.024-.008a5.848 5.848 0 0 0-1.324-2.97 6.989 6.989 0 0 0-.42.458c-.1.12-.28.18-.44.18-.16.01-.33-.08-.44-.18a.647.647 0 0 1-.18-.44c-.01-.09.01-.17.05-.24.03-.08.07-.14.13-.2.127-.153.26-.298.399-.437a5.738 5.738 0 0 0-2.816-1.143c.007.252.006.505-.003.76 0 .35-.29.6-.62.62-.33.02-.62-.29-.62-.62.004-.256.005-.51 0-.762a5.802 5.802 0 0 0-2.835 1.123c.175.17.347.342.515.519.11.12.17.28.18.44.01.16-.08.33-.18.44-.1.11-.29.18-.44.18-.15 0-.33-.07-.44-.18-.178-.187-.36-.37-.545-.548a5.59 5.59 0 0 0-.565.788 5.81 5.81 0 0 0-.785 2.386c.26.002.519-.01.775-.036.16-.02.32.07.44.18.12.11.17.29.18.44a.62.62 0 0 1-.18.44c-.12.12-.27.16-.44.18a7.25 7.25 0 0 1-.765.036 5.65 5.65 0 0 0 1.042 2.674c.23-.247.468-.487.713-.72a.72.72 0 0 1 .44-.18c.16-.01.33.08.44.18.11.1.18.29.18.44 0 .15-.07.33-.18.44-.259.246-.51.5-.752.762a5.842 5.842 0 0 0 3.069 1.387 6.156 6.156 0 0 0-.027-.879c-.02-.16.07-.32.18-.44.11-.12.29-.17.44-.18.15-.01.33.07.44.18.12.12.16.27.18.44.031.303.039.61.025.915a5.683 5.683 0 0 0 1.475-.315 5.507 5.507 0 0 0 1.65-.94 6.953 6.953 0 0 0-.67-.64c-.12-.1-.18-.28-.18-.44-.01-.16.08-.33.18-.44.1-.11.29-.18.44-.18.09-.01.17.01.24.05.08.03.14.07.2.13.236.196.453.405.656.627a5.913 5.913 0 0 0 1.216-3.043ZM18.616 15.02c-.56-.165-1.12-.33-1.706-.33-.81 0-.8-1.25 0-1.25.683 0 1.328.18 1.974.362.29.081.581.163.876.228.344.076.693.13 1.043.182.566.086 1.133.172 1.677.358.32.11.53.43.44.77-.09.31-.45.55-.77.44-.55-.188-1.124-.275-1.697-.362a17.973 17.973 0 0 1-.933-.158 11.303 11.303 0 0 1-.904-.24Zm-1.326-2.75c1.81.54 3.65 1 5.51 1.38.33.07.68-.1.77-.44.08-.31-.1-.7-.44-.77-1.85-.38-3.69-.84-5.51-1.38-.77-.23-1.1.98-.33 1.21Zm3.35-1.53c-.94-.29-1.9-.54-2.87-.72l-.01.01c-.34-.06-.52-.46-.44-.77.1-.35.44-.5.77-.44.94.18 1.87.41 2.78.69l.31.098c.759.241 1.527.485 2.31.582.33.04.62.25.62.62 0 .3-.28.66-.62.62-.98-.12-1.91-.4-2.85-.69ZM18.1 7.63c1.98.37 3.91.94 5.83 1.51.77.23 1.1-.98.33-1.21-1.92-.57-3.85-1.14-5.83-1.51-.33-.06-.67.09-.77.44-.08.3.1.71.44.77Z M13.56 13.86a.793.793 0 0 1 .32.043c.083-.356.16-.714.23-1.073.36-1.85.77-3.68 1.29-5.5l.104-.361c.155-.537.309-1.07.456-1.609l.043-.157c.153-.563.31-1.14.867-1.433.525-.275 1.205-.18 1.8-.098.095.014.19.027.28.038.71.08 1.42.19 2.12.33 1.46.3 2.89.71 4.31 1.17.115.036.24.07.37.106.514.141 1.105.303 1.44.694.42.49.3 1.07.18 1.65-.43 2.01-.88 4.023-1.33 6.035l.219-.015c1.627-.112 4.097-.282 4.33 1.56.273 2.17.286 4.421.3 6.614v.005c.003.463.005.924.01 1.381l.014 1.31c.023 2.183.045 4.365.136 6.54l.012.285c.074 1.778.158 3.804-1.892 4.515-.769.264-1.72.233-2.61.204-.358-.011-.707-.022-1.03-.014a331.69 331.69 0 0 1-13.37.06h-.352c-.972-.001-2.065-.001-2.857-.58-.89-.65-.99-1.67-.95-2.69.01-.31.022-.62.034-.929.1-2.697.2-5.38.156-8.08-.02-1.5-.08-3-.16-4.5-.02-.313-.055-.64-.092-.972-.096-.879-.197-1.801-.008-2.629.2-.88.77-1.47 1.65-1.66.872-.18 1.825-.197 2.758-.213.414-.008.825-.015 1.222-.037v.01Zm-1.21 2.83.816-.009.15-.565.173-.652-2.01.106a6.025 6.025 0 0 1-.407.002c-.557-.01-1.284-.022-1.542.378-.14.221-.105.59-.076.887l.016.183c.017.407.047.817.077 1.227.023.305.045.61.063.913.15 2.57.21 5.15.19 7.72-.01 1.29-.05 2.57-.1 3.86-.02.57-.05 1.14-.08 1.71a6.652 6.652 0 0 1-.028.329c-.042.433-.096.978.108 1.291.408.625 1.78.557 2.716.51.232-.012.437-.022.593-.02 1.14.02 2.27.03 3.4.03 2.33.01 4.67-.01 7-.05.487-.008.971-.022 1.454-.037.72-.021 1.439-.043 2.157-.043.112 0 .228.003.347.006.802.02 1.705.044 2.063-.836.213-.529.14-1.236.074-1.872a10.505 10.505 0 0 1-.055-.648c-.04-.97-.06-1.94-.08-2.91-.02-1.044-.032-2.09-.044-3.135-.013-1.045-.026-2.09-.046-3.135-.04-1.94-.08-3.88-.24-5.81-.006-.09-.007-.168-.009-.238-.004-.25-.006-.389-.24-.522-.198-.11-.59-.096-.884-.085a5.906 5.906 0 0 1-.206.005 25.182 25.182 0 0 0-1.598.023l-.425.014-.274 1.233.947-.01c1.03-.01 1.03 1.59 0 1.6l-14 .15c-1.03.01-1.03-1.59 0-1.6Zm3.543-.038a.704.704 0 0 1-.133-.582c.08-.35.45-.51.77-.44.94.2 1.87.46 2.77.79.119.043.219.11.295.192l4.181-.044c.285-1.28.568-2.56.851-3.837v-.002l.001-.003c.397-1.79.793-3.578 1.192-5.366.012-.07.028-.137.043-.205l.03-.131a.462.462 0 0 0-.133-.034c-.19-.025-.392-.107-.589-.186a4.384 4.384 0 0 0-.33-.124c-.61-.2-1.23-.39-1.85-.56-1.29-.36-2.6-.66-3.92-.83-.36-.05-.73-.09-1.09-.11l-.049-.003c-.183-.013-.263-.019-.305.019-.033.03-.043.085-.06.185-.007.041-.015.09-.027.15-.08.406-.208.814-.333 1.213-.047.15-.093.299-.137.446-.27.94-.54 1.89-.77 2.84a48.438 48.438 0 0 0-.501 2.345c-.092.466-.185.939-.289 1.425a55.98 55.98 0 0 1-.716 2.864l1.099-.012ZM25.94 7.064c-.001.001-.007-.004-.013-.019.012.01.015.018.013.019Z"/>
</svg>
