<svg xmlns="http://www.w3.org/2000/svg" width="40" height="40" fill="none" viewBox="0 0 40 40">
  <path class="display-icon__fill-2" fill="#B6E5FF" d="M20.1.3c3.94-.07 7.89-.05 11.73.99 1.52.41 2.96 1 4.17 2.04 1.83 1.57 2.29 3.68 2.28 5.96-.02 3.56-1.8 5.85-5.08 7.08-2.64.99-5.41 1.35-8.19 1.53-4.53.29-9.06.32-13.56-.32-2.06-.29-4.07-.75-5.91-1.79-2.11-1.19-3.26-3.02-3.42-5.4-.08-1.16-.03-2.37.19-3.51.49-2.46 2.2-3.9 4.42-4.82C9.55.87 12.56.56 15.57.35c1.5-.1 3.02-.04 4.53-.05Z"/>
  <path class="display-icon__fill-1" fill="#52B0FF" d="M21.26 19.32c3.33.08 6.11 1.07 8.05 3.77 1.4 1.96 1.86 4.2 1.79 6.56-.07 2.47-.71 4.77-2.42 6.64-2.31 2.51-5.26 3.23-8.53 2.93-3.04-.28-5.59-1.57-7.09-4.3-2.04-3.7-2.03-7.54 0-11.23 1.47-2.66 3.95-3.92 6.92-4.27.47-.06.94-.07 1.28-.09v-.01Z"/>
  <path class="display-icon__ink" fill="#1C1D1F" d="M6.188 9.939a1.34 1.34 0 0 0-.038.271c0 .05.008.101.017.155.005.03.01.062.013.095v.03c.012.04.03.079.046.117l.005.01c.011.026.022.05.03.073v.02c0 .01.01.02.02.03.04.06.11.16.17.21.06.05.12.1.19.14.004 0 .008.004.013.008.006.005.015.012.026.012l.051.023c.07.032.139.063.22.087.03 0 .06.01.09.02l.095.012c.07.009.14.018.214.018l.21-.03c.1-.02.19-.07.27-.14.06-.04.11-.08.14-.14.07-.08.12-.17.14-.27l.015-.07a1.97 1.97 0 0 0 .055-.41c0-.065-.01-.136-.02-.2l-.002-.018a2.358 2.358 0 0 1-.008-.052c0-.02 0-.04-.01-.06a.612.612 0 0 0-.05-.12.61.61 0 0 1-.025-.06.509.509 0 0 0-.025-.06c-.03-.062-.08-.118-.123-.168l-.01-.01a1.806 1.806 0 0 1-.027-.032c-.03-.036-.078-.072-.12-.104a.607.607 0 0 1-.07-.056s-.01 0-.02-.01a1.667 1.667 0 0 0-.22-.085l-.005-.002a2.461 2.461 0 0 1-.092-.015c-.058-.008-.118-.018-.173-.018-.055 0-.114.01-.172.019l-.015.002a2.056 2.056 0 0 1-.063.01c-.02 0-.03 0-.05.01-.19.07-.27.11-.42.24a.91.91 0 0 0-.272.518Zm4.038-.997a.717.717 0 0 1 .174.028 1.332 1.332 0 0 1 .497.286l.005.004c.01.007.018.013.018.02.05.05.1.12.14.18a.82.82 0 0 1 .086.178l.024.062c.02.02.02.04.02.06l.012.09c.01.06.018.12.018.18 0 .11-.02.23-.04.34 0 .04-.01.09-.03.13-.03.09-.06.18-.11.26-.05.07-.1.14-.16.21-.06.07-.16.14-.22.18a.21.21 0 0 1-.06.04l-.096.04-.014.005-.11.045h-.03a1.775 1.775 0 0 0-.044.007l-.015.002c-.058.01-.122.02-.18.02h-.06c-.03-.004-.07-.01-.11-.014l-.11-.015c-.01-.01-.03-.01-.04-.01l-.19-.08h-.01a1.221 1.221 0 0 0-.068-.055l-.013-.01c-.035-.028-.07-.055-.08-.065-.02-.02-.07-.09-.07-.09a.705.705 0 0 1-.07-.09c-.01-.01-.02-.02-.02-.03l-.028-.06c-.023-.051-.048-.103-.062-.16-.02-.03-.02-.06-.02-.09-.03-.14-.05-.27-.03-.41a2.66 2.66 0 0 0 .027-.172c.007-.049.014-.097.023-.138.017-.074.053-.155.088-.232l.022-.048a.362.362 0 0 0 .022-.04l.003-.005a.405.405 0 0 1 .025-.045 3.465 3.465 0 0 1 .16-.212c.007-.01.013-.018.02-.018.15-.12.24-.18.42-.24a.083.083 0 0 1 .044-.01.494.494 0 0 1 .06-.009l.01-.001c.056-.01.116-.02.166-.02h.02l-.014.002Zm3.007.088c.054-.01.11-.02.167-.02h.03c.14 0 .28.04.4.11l.16.13a.8.8 0 0 1 .181.266c.027.057.05.115.072.17l.017.044c.02.04.04.08.04.12.02.1.04.2.04.31 0 .025-.005.05-.01.075a.386.386 0 0 0-.01.075c0 .05-.01.1-.02.15 0 .005-.003.012-.005.02l-.002.005a.055.055 0 0 0-.003.015 3.69 3.69 0 0 0-.022.054l-.008.018c-.02.049-.04.098-.06.138v.02c0 .011-.007.02-.013.027-.004.005-.007.009-.007.013l-.019.026a1.195 1.195 0 0 1-.131.164.87.87 0 0 1-.11.09.507.507 0 0 0-.037.028.425.425 0 0 1-.073.052c-.01.01-.03.02-.04.02a1.53 1.53 0 0 0-.086.036c-.047.02-.094.041-.144.054-.02.01-.03.01-.05.01a2.322 2.322 0 0 0-.078.011 1.04 1.04 0 0 1-.172.019h-.12c-.09-.01-.18-.02-.27-.04a.683.683 0 0 1-.22-.09l-.16-.13-.06-.08a.378.378 0 0 1-.06-.075l-.01-.015-.09-.21v-.02c-.01-.02-.01-.03-.01-.05a2.036 2.036 0 0 0-.013-.092 1.069 1.069 0 0 1-.017-.168v-.05c0-.059.008-.113.017-.169.005-.03.01-.06.013-.091a.09.09 0 0 0 .01-.05l.008-.015a.06.06 0 0 0 .012-.035c.03-.08.06-.16.1-.23.037-.084.11-.168.168-.236l.012-.014a.27.27 0 0 1 .07-.08c.06-.05.13-.1.2-.15.01-.01.03-.03.04-.03.09-.05.18-.1.28-.12h.03l.063-.01ZM10.47 22.38c-.65-1.21-.67-2.82.5-3.71h-.02a.436.436 0 0 1 .149-.075c.615-.388 1.379-.547 2.08-.275.69.27 1.33.95 1.54 1.66.17.57.13 1.2.08 1.79-.047.568-.235 1.155-.606 1.582l.002.023v.012a.819.819 0 0 1 .005.083v.2c.01.18 0 .37-.01.55-.03.38-.08.76-.24 1.1-.33.72-1.06 1.11-1.84.86-.35-.11-.71-.3-.89-.64-.18-.34-.21-.81-.23-1.19a3.49 3.49 0 0 1 .016-.37c.017-.22.035-.447-.016-.65-.06-.228-.197-.438-.332-.645-.066-.102-.132-.203-.188-.305Zm3.68 1.02.006-.007-.002.003-.004.004Zm-2.526-3.677a.827.827 0 0 1-.034.027c-.32.25-.36.76-.32 1.13.05.476.268.851.498 1.248l.001.001.12.211c.16.29.29.59.33.92.02.18.014.36.008.54-.004.09-.007.18-.007.27v.101c-.003.232-.006.534.075.743a.14.14 0 0 0 .055.036.821.821 0 0 1 .062.024c.067.028.154.063.198.056.32-.08.33-.75.33-.98a3.45 3.45 0 0 0-.002-.396 3.15 3.15 0 0 1 .002-.464c.03-.29.16-.48.34-.7.116-.143.16-.334.204-.523l.016-.067c.01-.035.017-.067.025-.1.007-.032.015-.065.025-.1a5.67 5.67 0 0 1 .015-.45c.016-.277.033-.554-.025-.83-.16-.78-1.12-1.31-1.81-.77a.863.863 0 0 1-.106.073Zm.66 5.175.009.014c-.007-.008-.01-.014-.01-.014Zm.024.046a.604.604 0 0 0 .002.006l-.002-.006ZM22.79 16.09c-.55-.01-1.1-.02-1.65 0l-.09.005c-.498.028-1.052.058-1.42.435-.363.372-.365.884-.368 1.37v.024l-.002.166c-.005.27-.005.545-.005.821 0 .277 0 .554-.005.83 0 .29.25.56.55.55.3-.01.55-.24.55-.55 0-.49 0-.98.01-1.46v-.857a.35.35 0 0 0-.001-.029l.001-.005c0-.016.006-.038.014-.056l.005-.01a.273.273 0 0 0 .013-.022.393.393 0 0 0 .018-.012l.01-.007a2.637 2.637 0 0 1 .085-.018l.017-.004.048-.01c.015 0 .058-.006.079-.008l.012-.002-.061.01c.225-.03.46-.04.686-.05h.014c.327-.014.653-.01.98-.005.163.002.327.004.49.004.29 0 .56-.26.55-.55a.569.569 0 0 0-.55-.55l.02-.01Zm-3.586 9.383-.024-.783.02-.01c-.01-.31.25-.54.55-.55.3-.01.55.26.55.55.01.47.02.94.04 1.41l.002.026c.01.11.018.213.018.324 0 .024.002.05.004.077.003.03.006.062.006.093l.002.023a2.817 2.817 0 0 0 .078.368l.007.022.004.014.014.003c.022.005.045.01.065.01.06.01.12.02.24.03.23.03.46.05.69.06.46.03.92.02 1.38-.01.31-.02.54.27.55.55.01.31-.26.53-.55.55-.52.03-1.04.04-1.56 0-.26-.02-.52-.05-.78-.08l-.033-.004c-.297-.038-.576-.074-.807-.296-.39-.37-.42-1.08-.44-1.58a81 81 0 0 1-.026-.797Zm8.626-8.263 1.55.03h.56l.03.003.016.001c.043.005.092.01.024-.004.05 0 .1.02.15.04l.02.005a.217.217 0 0 0 .054.032l.006.003a.781.781 0 0 1 .028.032l.005.006c.014.016.025.028.02.02l.002.002.009.013.026.037c.008.013.019.04.025.058.01.024.012.03-.005-.038.03.08.05.16.07.25 0 .02.005.043.01.065.005.023.01.045.01.065l-.01-.042-.004-.02.002.013a.734.734 0 0 1 .012.08c0 .09.01.18.02.26.02.52 0 1.04-.03 1.55-.02.29.27.56.55.55.32-.01.53-.24.55-.55.04-.56.06-1.12.03-1.68-.03-.49-.13-.98-.45-1.37-.38-.45-.96-.49-1.51-.51l-1.77-.03c-.29 0-.56.26-.55.55.01.29.24.54.55.55v.03Zm1.64 11.19c-.55.05-1.11.04-1.66 0l.02-.01c-.31-.02-.54-.23-.55-.55-.01-.28.26-.57.55-.55.49.04.98.04 1.47.02.24-.01.49-.03.73-.06a.934.934 0 0 0 .076-.006l.036-.003.028-.006.07-.015.045-.015.017-.018a.295.295 0 0 0 .028-.047c-.04.058-.032.041-.02.011a.577.577 0 0 0 .02-.05.576.576 0 0 1 .013-.052c.008-.029.017-.057.017-.089-.011.07-.01.059-.007.03l.001-.013.006-.057.012-.238c.009-.164.018-.33.018-.492.02-.5.02-.99 0-1.49-.01-.31.26-.54.55-.55.3-.01.54.26.55.55.02.56.02 1.12 0 1.68-.003.056-.004.114-.006.172-.013.491-.028 1.042-.394 1.408-.35.35-.88.387-1.37.421a11.84 11.84 0 0 0-.25.02Zm-6.26-3.6c.63.42 1.41.65 2.16.61.81-.04 1.54-.34 2.16-.84.23-.19.19-.58 0-.78-.23-.23-.55-.19-.78 0-.85.68-2.07.69-2.99.06-.25-.17-.61-.05-.75.2-.16.27-.05.59.2.75Zm-.88-3.98c-.02-.28.04-.57.25-.77h-.01c.11-.1.24-.15.39-.16.071-.005.14.01.204.038l.006.002c.07.02.14.05.19.1.06.03.11.09.14.15.05.12.09.23.12.36.03.13.03.25.03.38-.02.25-.08.5-.22.72a.53.53 0 0 1-.26.23.23.23 0 0 1-.14.04c-.05.01-.1.01-.15 0a.48.48 0 0 1-.2-.07l-.11-.09a.634.634 0 0 1-.14-.24c-.07-.22-.09-.46-.1-.69Zm4.75-.55c-.09.41-.08.84.03 1.25.05.17.16.29.32.36.07.03.14.05.21.05.1 0 .19-.03.28-.08.03-.015.048-.03.072-.048l.028-.022c.015-.015.03-.027.045-.04a.647.647 0 0 0 .045-.04c.09-.1.13-.19.18-.32.04-.12.05-.25.05-.37 0-.25-.05-.51-.15-.74a.498.498 0 0 0-.1-.19.4.4 0 0 0-.15-.14.569.569 0 0 0-.13-.055.396.396 0 0 0-.05-.015c-.14-.03-.3-.03-.42.06a.55.55 0 0 0-.25.33l-.01.01Zm.14.86.01-.07a.588.588 0 0 1-.01.07Zm-2.316-.295c.002-.148.003-.297.006-.445v.01c.01-.31.26-.54.55-.55.29-.01.55.26.55.55l-.02.99v.017l-.004.121a5.41 5.41 0 0 1-.066.842c-.06.33-.22.65-.47.87-.3.28-.66.37-1.06.31-.3-.05-.44-.42-.38-.68.067-.3.377-.412.65-.384l-.039-.005.039-.001h-.04a.04.04 0 0 0 .009-.001l.01-.007.02-.012a.158.158 0 0 0 .035-.017l.016-.013c.01-.02.03-.04.05-.06l.018-.019a.821.821 0 0 0 .02-.037l.012-.04.003-.008a.731.731 0 0 0 .017-.056c.02-.06.04-.12.04-.18-.006.081-.005.047-.003-.001v-.021l.003-.068c.028-.365.031-.734.034-1.105Zm-.154 1.555.021-.026c-.008.015-.016.026-.021.026Zm-.105.084-.006.002a.083.083 0 0 1-.008.002l.014-.004Z M18.317 6.02h.013l-.01-.01c.054 0 .106.004.155.012 1.531.014 3.066.002 4.601-.01 3.182-.024 6.367-.049 9.534.158 1.58.11 2.91.63 3.25 2.33.28 1.416.231 2.975.184 4.486-.02.645-.04 1.281-.034 1.894.02 2.14.042 4.28.065 6.42v.01c.022 2.137.045 4.273.065 6.41.02 1.14.03 2.27.04 3.41.001.074.005.15.008.228.019.444.04.945-.248 1.302-.35.434-.916.42-1.44.405a9.978 9.978 0 0 0-.27-.005c-.535 0-1.07-.005-1.605-.01-.535-.005-1.07-.01-1.605-.01-4.36-.04-8.73-.07-13.1-.1-2.14-.02-4.33-.04-6.43-.05a56.85 56.85 0 0 0-2.044.04c-1.49.045-3.01.091-4.436-.1-1.412-.185-1.384-1.397-1.357-2.532.003-.151.007-.302.007-.448.01-2.24.01-4.48.01-6.72v-.03c.01-4.39.02-8.77.02-13.16l-.003-.37c-.014-1.164-.028-2.33 1.193-2.9 1.111-.519 2.603-.563 3.904-.601.28-.009.55-.017.806-.029 1.857-.096 3.713-.07 5.573-.043a152.921 152.921 0 0 0 3.147.023h.008Zm-.13 1.59c-1.014.006-2.029-.009-3.044-.023-1.722-.026-3.446-.051-5.173.023-.17.007-.386.009-.633.01-1.432.009-3.888.023-4.067 1.26-.171 1.158-.117 2.415-.06 3.647 4.828-.019 9.659-.035 14.49-.052h.003c4.887-.017 9.775-.034 14.663-.053-.008-.583-.016-1.166-.016-1.752a8.99 8.99 0 0 1 .01-.476c.026-.756.06-1.716-.51-2.164-.403-.323-1.16-.31-1.756-.3-.16.002-.308.004-.434 0-.79-.03-1.57-.05-2.36-.07-2.05-.04-4.103-.034-6.155-.03-1.613.004-3.225.008-4.835-.01a.92.92 0 0 1-.123-.01ZM5.27 14.41c-.01 3.81-.02 7.63-.02 11.44v2.99c0 .055-.011.199-.025.391-.05.669-.144 1.925.017 2.092-.074-.092 1.048-.073 1.048-.073.49.01.99.01 1.48.01.82.01 1.65.02 2.47.02 3.665.025 7.332.053 11 .08 3.667.028 7.335.055 11 .08.57 0 1.13.01 1.701.02h.612a89.034 89.034 0 0 1-.004-1.947v-.093l-.06-5.35c-.02-1.765-.037-3.53-.054-5.295-.016-1.584-.032-3.169-.05-4.753-4.907.02-9.816.036-14.727.053-4.796.017-9.593.033-14.39.052l.002.283Z"/>
</svg>
