<svg xmlns="http://www.w3.org/2000/svg" width="40" height="40" fill="none" viewBox="0 0 40 40">
  <path class="display-icon__fill-2" fill="#B6E5FF" d="m29.875 2.997.005-.007V3l-.005-.003ZM21.8.52c4.283.284 7.932 2.394 8.075 2.477L25.57 10.38s-2.22-1.43-4.68-1.52l-.055-.002c-2.026-.069-3.204-.11-5.276.922l-2.04-6.63S17.44.23 21.8.52Zm-9.17 28.42-5.47 6.65h.01s3.31 2.72 7.57 3.67c4.26.95 8.61-1.36 8.61-1.36l-.96-7.12c-2.24.72-3.34.66-5.38.37-2.2-.31-4.38-2.21-4.38-2.21Z"/>
  <path class="display-icon__fill-1" fill="#52B0FF" d="M19.77 30.67c-3.62-.08-6.64-1.12-8.74-3.95-1.52-2.05-2.02-4.39-1.95-6.86.07-2.59.77-4.99 2.63-6.94 2.5-2.63 5.72-3.38 9.26-3.06 3.3.29 6.07 1.64 7.7 4.49 2.21 3.87 2.2 7.88 0 11.75-1.59 2.78-4.29 4.1-7.51 4.47-.51.06-1.02.07-1.39.1Z"/>
  <path class="display-icon__ink" fill="#1C1D1F" d="M18.849 10.12a.68.68 0 0 0 .171-.31c.23-.86.21-1.73.1-2.6-.1-.8-.26-1.63-.75-2.3-.52-.71-1.25-1.11-2.14-1.12-.77-.01-1.57.18-2.24.57-.67.39-1.2 1.01-1.47 1.75s-.2 1.51.11 2.23c.25.58.55 1.15 1.13 1.45.45.24.86.37 1.36.43.47.06.95.11 1.43.11.262 0 .522-.006.781-.011.346-.008.69-.015 1.04-.01a.624.624 0 0 0 .478-.189Zm-1.05-1.178-.364.006c-.52.01-1.04.02-1.565-.018-.1-.01-.197-.018-.295-.025-.097-.008-.195-.015-.295-.025-.032 0-.142-.017-.205-.027l-.018-.003a.366.366 0 0 0 .043.01 1.18 1.18 0 0 1-.2-.04c-.015-.004-.046-.017-.07-.026-.04-.016-.059-.023.04.026a6.494 6.494 0 0 0-.14-.06l-.14-.06a3.099 3.099 0 0 0-.06-.03 1.814 1.814 0 0 1-.19-.1l-.011-.007a2 2 0 0 0-.029-.033 2.642 2.642 0 0 0-.045-.044 1.009 1.009 0 0 1-.119-.128.952.952 0 0 0-.026-.048 2.29 2.29 0 0 1-.16-.31 3.36 3.36 0 0 0-.07-.15c-.09-.2-.18-.45-.18-.61 0-.47.13-.95.47-1.3.38-.41.87-.63 1.43-.73.49-.1 1.09-.08 1.43.24.45.42.61 1.08.71 1.72.085.58.135 1.185.06 1.772Zm-6.262 9.898c1.185.017 2.369-.073 3.553-.162l.51-.038c1.19-.09 2.34-.21 2.9-1.41.49-1.05.25-2.4-.23-3.41-.48-1.01-1.45-1.42-2.51-1.53-1.095-.124-2.218-.084-3.329-.043l-.681.023c-.745.02-1.49.043-2.234.065-.745.022-1.49.045-2.236.065-1.16.03-2.28.11-2.81 1.3-.4.9-.4 2.09-.18 3.04.28 1.23 1.19 1.94 2.42 2.1 1.59.21 3.228.15 4.827 0ZM7.42 17.53l-.095-.005c-.502-.028-1.097-.06-1.445-.455-.3-.35-.36-.88-.37-1.32-.02-.46-.02-1 .16-1.44.214-.516.672-.525 1.151-.535l.18-.005 4.079-.12.595-.02c1.092-.036 2.183-.072 3.275-.03l.137.005c.463.017.965.035 1.383.235.51.25.66.76.79 1.27.14.55.26 1.28-.14 1.76-.32.385-.911.397-1.417.407-.124.003-.244.005-.353.013l-.025.002c-1.211.095-2.414.189-3.624.18a.736.736 0 0 0-.161-.002l-.04-.01c-1.36.13-2.72.16-4.08.07Zm13.792-2.55c-.09-1.184-.179-2.368-.162-3.553-.15-1.599-.21-3.238 0-4.827.16-1.23.87-2.14 2.1-2.42.95-.22 2.14-.22 3.04.18 1.19.53 1.27 1.65 1.3 2.81.02.745.043 1.49.065 2.235v.002c.023.744.045 1.489.065 2.233l.023.681c.04 1.11.081 2.234-.043 3.33-.11 1.06-.52 2.03-1.53 2.51s-2.36.72-3.41.23c-1.2-.56-1.32-1.71-1.41-2.9l-.038-.51Zm1.218-3.59-.01.04a.741.741 0 0 1-.002.16c-.009 1.211.085 2.414.18 3.626l.002.024c.008.11.01.229.013.354.01.505.022 1.095.407 1.416.48.4 1.21.28 1.76.14.51-.13 1.02-.28 1.27-.79.2-.418.218-.92.235-1.383l.005-.137c.042-1.091.006-2.183-.03-3.274l-.02-.596-.12-4.08-.005-.179c-.01-.478-.019-.937-.535-1.15-.44-.18-.98-.18-1.44-.16-.44.01-.97.07-1.32.37-.395.347-.427.942-.455 1.444l-.005.095c-.09 1.36-.06 2.72.07 4.08Zm7.33 7.358a.68.68 0 0 0 .31.172c.86.23 1.73.21 2.6.1.8-.1 1.63-.26 2.3-.75.71-.52 1.11-1.25 1.12-2.14.01-.77-.18-1.57-.57-2.24-.39-.67-1.01-1.2-1.75-1.47s-1.51-.2-2.23.11c-.58.25-1.15.55-1.45 1.13-.24.45-.37.86-.43 1.36-.06.47-.11.95-.11 1.43 0 .262.005.522.01.781.008.346.016.69.01 1.04a.624.624 0 0 0 .19.477Zm1.172-1.413c-.01-.52-.02-1.04.018-1.565.01-.1.017-.197.025-.295.007-.097.015-.195.025-.295 0-.032.017-.142.027-.205l.003-.018a.375.375 0 0 0-.01.043c.01-.07.02-.14.04-.2a.65.65 0 0 1 .026-.07c.015-.04.023-.059-.026.04l.052-.122.008-.018.06-.14.02-.041.01-.02a1.8 1.8 0 0 1 .1-.189l.007-.012.033-.028.044-.045c.04-.042.08-.083.128-.119a.947.947 0 0 0 .048-.026c.05-.03.1-.06.16-.09.05-.025.1-.047.15-.07l.019-.008c.043-.02.087-.04.13-.062.2-.09.45-.18.61-.18.47 0 .95.13 1.3.47.41.38.63.87.73 1.43.1.49.08 1.09-.24 1.43-.42.45-1.08.61-1.72.71-.58.085-1.184.134-1.77.06a62.946 62.946 0 0 0-.007-.365ZM24.9 21.102c1.184-.09 2.368-.178 3.553-.162 1.599-.15 3.238-.21 4.827 0 1.23.16 2.14.87 2.42 2.1.22.95.22 2.14-.18 3.04-.53 1.19-1.65 1.27-2.81 1.3-.745.02-1.49.043-2.235.065-.745.023-1.49.045-2.235.065l-.681.023c-1.11.04-2.234.082-3.329-.043-1.06-.11-2.03-.52-2.51-1.53s-.72-2.36-.23-3.41c.56-1.2 1.71-1.32 2.9-1.41l.51-.038Zm3.59 1.218-.04-.01a.741.741 0 0 1-.16-.002c-1.211-.008-2.414.085-3.625.18l-.025.002c-.109.008-.229.01-.354.013-.505.01-1.095.022-1.416.407-.4.48-.28 1.21-.14 1.76.13.51.28 1.02.79 1.27.419.2.92.218 1.383.235l.137.005c1.091.042 2.183.006 3.275-.03l.595-.02 4.08-.12.179-.005c.479-.01.938-.019 1.151-.535.18-.44.18-.98.16-1.44-.01-.44-.07-.97-.37-1.32-.348-.395-.943-.427-1.445-.455l-.095-.005c-1.36-.09-2.72-.06-4.08.07Zm-7.359 7.34a.679.679 0 0 0-.171.31c-.23.86-.21 1.73-.1 2.6.1.8.26 1.63.75 2.3.52.71 1.25 1.11 2.14 1.12.77.01 1.57-.18 2.24-.57.67-.39 1.2-1.01 1.47-1.75s.2-1.51-.11-2.23c-.25-.58-.55-1.15-1.13-1.45-.45-.24-.86-.37-1.36-.43-.47-.06-.95-.11-1.43-.11a36.8 36.8 0 0 0-.782.011c-.345.008-.69.015-1.038.01a.624.624 0 0 0-.479.19Zm1.413 1.172c.522-.01 1.042-.02 1.566.018.1.01.197.018.295.025.097.008.195.015.295.025.032 0 .142.018.205.027l.018.003a.375.375 0 0 0-.043-.01c.07.01.14.02.2.04a.743.743 0 0 1 .07.026c.039.016.058.024-.04-.026l.122.053.018.007.14.06.041.02.02.01c.062.03.128.063.189.1l.011.007.014.016.015.017.045.044c.042.04.083.08.119.128l.026.048c.03.05.06.1.09.16.025.05.047.1.07.15.022.05.045.1.07.15.09.2.18.45.18.61 0 .47-.13.95-.47 1.3-.38.41-.87.63-1.43.73-.49.1-1.09.08-1.43-.24-.45-.42-.61-1.08-.71-1.72-.086-.58-.135-1.185-.06-1.771l.364-.007ZM18.778 24.8c.09 1.184.179 2.368.162 3.553.15 1.599.21 3.238 0 4.827-.16 1.23-.87 2.14-2.1 2.42-.95.22-2.14.22-3.04-.18-1.19-.53-1.27-1.65-1.3-2.81-.02-.745-.042-1.49-.065-2.235-.022-.745-.045-1.49-.065-2.235l-.023-.681c-.04-1.11-.081-2.234.043-3.33.11-1.06.52-2.03 1.53-2.51s2.36-.72 3.41-.23c1.2.56 1.32 1.71 1.41 2.9l.038.51Zm-1.218 3.59.01-.04a.735.735 0 0 1 .002-.16c.009-1.211-.085-2.414-.18-3.625l-.002-.025c-.008-.11-.01-.229-.013-.354-.01-.505-.022-1.095-.407-1.416-.48-.4-1.21-.28-1.76-.14-.51.13-1.02.28-1.27.79-.2.418-.218.92-.235 1.383l-.005.137c-.042 1.091-.006 2.183.03 3.274l.02.596.12 4.08.005.179c.01.479.02.937.535 1.15.44.18.98.18 1.44.16.44-.01.97-.07 1.32-.37.395-.347.427-.942.455-1.444l.005-.095c.09-1.36.06-2.72-.07-4.08Zm-7.33-7.358a.68.68 0 0 0-.31-.172c-.86-.23-1.73-.21-2.6-.1-.8.1-1.63.26-2.3.75-.71.52-1.11 1.25-1.12 2.14-.01.77.18 1.57.57 2.24.39.67 1.01 1.2 1.75 1.47s1.51.2 2.23-.11c.58-.25 1.15-.55 1.45-1.13.24-.45.37-.86.43-1.36.06-.47.11-.95.11-1.43 0-.262-.006-.521-.011-.781-.008-.346-.015-.69-.01-1.039a.624.624 0 0 0-.19-.478ZM9.05 22.08l.007.364c.01.521.02 1.041-.018 1.565-.01.1-.018.197-.025.295-.008.098-.015.195-.025.295 0 .032-.018.142-.027.205l-.003.018a.366.366 0 0 0 .01-.043c-.01.07-.02.14-.04.2-.004.015-.017.047-.026.07-.016.04-.024.059.026-.04l-.053.122-.007.018a7.852 7.852 0 0 1-.09.2c-.03.064-.063.13-.1.19l-.007.012a2.071 2.071 0 0 0-.033.028 2.68 2.68 0 0 0-.044.045c-.04.042-.08.083-.128.12a.95.95 0 0 0-.048.025c-.05.03-.1.06-.16.09-.05.025-.1.047-.15.07-.05.023-.1.045-.15.07-.2.09-.45.18-.61.18-.47 0-.95-.13-1.3-.47-.41-.38-.63-.87-.73-1.43-.1-.49-.08-1.09.24-1.43.42-.45 1.08-.61 1.72-.71.58-.085 1.185-.134 1.771-.06Z"/>
</svg>
