<svg xmlns="http://www.w3.org/2000/svg" width="40" height="40" fill="none" viewBox="0 0 40 40">
  <path class="display-icon__fill-2" fill="#B6E5FF" d="M39.24 31.3.68 31.24v-3.78l38.57.06v3.78h-.01Z"/>
  <path class="display-icon__fill-1" fill="#52B0FF" d="M20.28 27.56c-4.34-.1-7.96-1.39-10.49-4.92-1.82-2.55-2.42-5.47-2.34-8.54.09-3.22.92-6.21 3.16-8.65 3-3.27 6.86-4.21 11.11-3.81 3.96.37 7.28 2.04 9.24 5.6 2.65 4.82 2.65 9.82 0 14.63-1.91 3.46-5.14 5.11-9.01 5.57-.61.07-1.22.09-1.66.12h-.01Z"/>
  <path class="display-icon__ink" fill="#1C1D1F" d="M19.35 12.33c1.83.09 3.65-.4 4.83-1.88.27-.34.85-.28 1.13 0 .33.33.27.79 0 1.13-1.41 1.78-3.82 2.46-5.96 2.35-2.14-.11-4.62-.66-6.15-2.26-.71-.74.42-1.88 1.13-1.13 1.23 1.29 3.31 1.7 5.02 1.79Z M27.2 4.3c3.74 1.49 6.02 5.81 6.19 9.66.096 2.04-.437 3.895-.994 5.833l-.065.227c-.558 1.956-.74 3.912-.924 5.892l-.002.022a87.08 87.08 0 0 1-.204 2.036c-.28 2.41-1.34 4.45-2.49 6.55-.88 1.59-2.93 2.8-4.6 1.55-1.54-1.15-1.096-2.793-.655-4.431v-.001c.24-.884.478-1.766.405-2.568-.11-1.21-.64-2.29-1.2-3.41a58.3 58.3 0 0 0-1.79-3.3c-.026-.044-.053-.096-.083-.152l-.023-.043c-.303-.573-.823-1.555-1.594-.855-.217.2-.316.706-.394 1.103v.004a5.51 5.51 0 0 1-.076.353c-.244.916-.752 1.831-1.267 2.757-.923 1.661-1.866 3.358-1.333 5.163.098.334.22.66.339.982l.007.019c.366.98.72 1.93.414 3.039-.23.83-.8 1.59-1.63 1.88-1.07.38-2.34-.2-3.1-.91-.39-.363-.582-.818-.773-1.27v-.001c-.164-.385-.326-.767-.607-1.091a.835.835 0 0 1-.1-.098l-.006-.006.006.015a.813.813 0 0 1-.132-.16C8.843 31.136 7.92 28.934 7.52 26.38a48.138 48.138 0 0 1-.207-1.548l-.003-.02c-.112-.906-.224-1.808-.42-2.702a81.58 81.58 0 0 0-.554-2.289l-.016-.066a81.706 81.706 0 0 1-.57-2.355c-.64-2.88-.94-5.7.8-8.27.91-1.35 2.04-2.83 3.34-3.8 2.287-1.694 4.987-1.657 7.672-1.62.389.006.778.01 1.168.01a54.35 54.35 0 0 0 1.892-.046c2.219-.08 4.605-.164 6.578.626Zm3.608 15.599.004-.016c.664-2.545 1.325-5.081.779-7.713-.73-3.51-3.76-6.77-7.44-6.84a198.418 198.418 0 0 0-4.63-.01l-.377.003c-.645.003-1.289.007-1.933.007-.271 0-.54-.002-.81-.005a50.84 50.84 0 0 0-1.61.005c-2.13.04-3.94.98-5.29 2.62l-.208.25c-.888 1.07-1.805 2.175-2.222 3.52-.665 2.13-.03 4.5.55 6.663l.062.235c.079.296.156.587.228.872.41 1.633.664 3.298.913 4.927l.034.225c.086.558.17 1.112.263 1.658.37 2.21 1.16 4.12 2.66 5.81.016.018.031.038.046.057.331.342.537.782.74 1.217l.002.003.002.005c.261.557.518 1.104 1.03 1.428 1.15.72 1.84-.12 1.75-1.27-.042-.542-.242-1.026-.445-1.516l-.008-.02c-.09-.218-.182-.438-.257-.664-.785-2.345.353-4.501 1.433-6.545l.04-.075c.145-.276.29-.549.427-.82.217-.427.373-.94.53-1.46l.007-.02c.428-1.416.874-2.89 2.593-2.89 1.09 0 1.74.59 2.27 1.47a53.039 53.039 0 0 1 1.91 3.46c.46.92.92 1.86 1.26 2.84.67 1.95.28 3.75-.29 5.66-.22.74-.39 1.84.65 2.04.58.11 1.22-.35 1.56-.78.365-.472.627-1.046.885-1.612l.014-.032c.154-.337.306-.67.48-.976 1.062-1.86 1.21-3.822 1.362-5.858l.003-.04c.032-.424.064-.851.106-1.282.144-1.527.536-3.03.927-4.531Z"/>
</svg>
