<svg xmlns="http://www.w3.org/2000/svg" width="40" height="40" fill="none" viewBox="0 0 40 40">
  <path class="display-icon__fill-2" fill="#B6E5FF" d="m.64 29.4 9.93-6.79s1.7 2.57 4.75 4.42c1.73 1.05 2.47 1.37 8.52 2.44l-3.58 9.8s-9.44-.37-13.4-3.04C2.9 33.56.64 29.4.64 29.4Z"/>
  <path class="display-icon__fill-1" fill="#52B0FF" d="M10.37 7.67c2.42-3.98 5.56-6.65 10.18-7.1 3.34-.33 6.38.69 9.18 2.41 2.94 1.81 5.27 4.18 6.33 7.56 1.43 4.54.23 8.62-2.42 12.36-2.46 3.48-5.8 5.66-10.14 5.57-5.9-.12-10.53-2.81-13.57-7.85-2.19-3.63-1.99-7.51-.34-11.35.26-.6.57-1.18.78-1.61v.01Z"/>
  <path class="display-icon__ink" fill="#1C1D1F" d="M13.21 10.6a.703.703 0 0 1-.092.155.864.864 0 0 1-.228.505.94.94 0 0 1-.71.29c-.07 0-.16-.01-.23-.03h-.03c-.2-.06-.29-.13-.45-.26-.09-.07-.16-.17-.22-.26s-.11-.2-.14-.3a1.665 1.665 0 0 1-.046-.295l-.004-.035v-.15l.002-.014c.01-.106.02-.22.049-.326.03-.11.08-.22.14-.32.06-.09.13-.18.21-.25.17-.14.24-.18.45-.26.1-.04.22-.06.32-.06h.08c.09.01.18.02.26.04.1.03.2.07.29.13.15.11.26.2.35.36.05.09.09.18.11.28.04.22.04.3 0 .52a.966.966 0 0 1-.083.22l-.007.015-.02.045Zm5.793 2.785c-.096.075-.16.164-.233.275-.12.16-.17.39-.17.59a1.07 1.07 0 0 0 .55.93 1.194 1.194 0 0 0 1.15-.01c.19-.1.36-.28.46-.47.03-.05.05-.1.07-.15.006-.017.014-.033.022-.05a.457.457 0 0 0 .038-.1c.019-.07.03-.15.04-.226l.003-.016c.005-.037.01-.074.017-.108v-.13l-.001-.01c-.01-.107-.02-.223-.06-.32l-.026-.066c-.026-.062-.054-.133-.083-.184-.04-.07-.1-.14-.16-.21-.07-.08-.16-.15-.25-.21-.29-.18-.72-.2-1.01 0-.09.05-.17.12-.22.21a.591.591 0 0 0-.137.255Z M13.91 5.56c-1.57-.17-3.15.37-4.33 1.41-1.26 1.12-1.66 2.6-1.75 4.22-.017.277-.016.571-.015.872.003.787.005 1.618-.306 2.298-.214.47-.645.856-1.07 1.237-.289.258-.575.514-.79.793a8.834 8.834 0 0 0-1.8 4.39c-.39 3.3 1.27 6.5 4.12 8.18.432.253.88.461 1.34.627-.003.347-.009.695-.014 1.043-.016.993-.031 1.987.015 2.98.02.42.35.82.8.8.42-.02.82-.35.8-.8-.046-.993-.03-1.987-.015-2.98l.01-.64a9.692 9.692 0 0 0 1.814.1c.228-.009.46-.02.693-.034l.138 3.554c.02.42.36.82.8.8.42-.02.82-.35.8-.8l-.145-3.726c1.031-.17 2.036-.477 2.885-1.044a5.67 5.67 0 0 0 2.087 1.41l.003.01-.001-.01.004.002.01.122c.009.098.017.194.017.286.007.193.005.382.002.572l-.002.288c-.01.67-.01 1.34.06 2.01.05.41.33.82.8.8.39-.02.85-.35.8-.8-.064-.574-.06-1.15-.057-1.725.002-.381.004-.763-.014-1.142a8.389 8.389 0 0 0 2.044.009l.007.048c.005.045.012.088.02.13.007.043.015.085.02.13l.005.03.005.05a19.668 19.668 0 0 1 .14 2.8c-.01.42.38.82.8.8a.83.83 0 0 0 .8-.8 20.21 20.21 0 0 0-.231-3.505 9.205 9.205 0 0 0 2.894-1.413 59.944 59.944 0 0 0 3.587 4.908 25.448 25.448 0 0 1 .23.286c.902 1.14 2.358 2.977 3.78 1.564 1.198-1.197.188-2.95-.566-4.26-.134-.232-.26-.451-.364-.65a440.58 440.58 0 0 1-3.51-6.84 440.04 440.04 0 0 1-3.38-6.9c-.108-.226-.215-.454-.322-.682-.848-1.799-1.712-3.632-3.088-5.078a7.512 7.512 0 0 0-1.661-1.303 1.03 1.03 0 0 0 .221-.677c0-.63-.52-1-1.07-1.16-.51-.15-1.01-.3-1.51-.47-.577-.205-1.15-.432-1.724-.659-1.488-.59-2.984-1.181-4.573-1.408a.873.873 0 0 0-.067-.016.9.9 0 0 0-.177-.037Zm4.61 3.085c.355.139.709.278 1.063.408-1.192-.012-2.35.368-3.278 1.262a24.247 24.247 0 0 0-1.016-2.833c.867.244 1.715.567 2.551.898.227.087.454.176.68.265Zm-5.127-1.513c.323.696.576 1.319.858 2.088.31.847.568 1.65.764 2.49l-.308.348c-.478.54-.956 1.08-1.427 1.632-.75.88-1.37 1.72-1.72 2.77-.22.65-.14 1.4.6 1.67.206.071.43.093.65.113.057.006.114.01.17.017.32.04.64.07.96.1.204.02.408.043.612.066.268.03.536.06.802.084 0 .676.019 1.35.066 2.02.1 1.51.43 2.99.79 4.45l.054.22c.189.784.383 1.585.726 2.316-1.25.777-2.834.919-4.27.974-1.55.06-2.94-.25-4.22-1.08a6.917 6.917 0 0 1-1.09-.876c.934-.503 1.758-1.192 2.27-2.154.65-1.22.75-2.65.81-4.02.02-.43-.38-.8-.8-.8-.45 0-.78.37-.8.8l-.006.152c-.047 1.024-.095 2.083-.543 2.978-.24.49-.5.8-.92 1.15-.12.1-.35.26-.54.37a6.468 6.468 0 0 1-.48.258A6.759 6.759 0 0 1 5.61 20c.37-1.43 1.14-2.63 2.22-3.61 1.08-.98 1.4-1.85 1.52-3.25.033-.37.04-.754.047-1.14.02-1.156.041-2.338.753-3.29.774-1.038 1.99-1.573 3.244-1.578Zm.997 7.728c.391-.457.787-.91 1.184-1.36l-.032.512c-.06.966-.121 1.937-.157 2.906l-.134-.018a7.636 7.636 0 0 0-.24-.03l-.563-.06-1.117-.12a3.954 3.954 0 0 0-.155-.014c.09-.215.207-.42.325-.616.26-.43.56-.82.89-1.2Zm2.799-1.406c.031-.627.062-1.253.091-1.875 2.242-2.612 5.94.293 7.3 2.5 1.213 1.966 2.195 4.105 3.17 6.23.49 1.065.976 2.126 1.49 3.16l.385.773c-1.56.185-3.12-.218-4.445-1.092-.69-.46-1.36-.99-1.96-1.57-.57-.54-1.03-1.13-1.19-1.92-.21-1.01-1.75-.58-1.54.43v-.01c.41 1.96 2.31 3.39 3.89 4.44 1.775 1.173 3.917 1.585 5.997 1.216a508.23 508.23 0 0 0 3.683 7.134c.014.027.04.07.07.127.194.346.65 1.157.52 1.303-.296.347-.67-.15-.87-.415-.036-.048-.066-.089-.09-.115-.49-.57-.97-1.16-1.44-1.76-1.17-1.5-2.26-3.06-3.28-4.67a.812.812 0 0 0-1.26-.16 6.827 6.827 0 0 1-5.18 1.92c-2.27-.14-3.93-1.29-4.53-3.51-.6-2.22-1.06-4.5-1.02-6.84.03-1.728.12-3.516.209-5.296Z"/>
</svg>
