<svg xmlns="http://www.w3.org/2000/svg" width="40" height="40" fill="none" viewBox="0 0 40 40">
  <path class="display-icon__fill-2" fill="#B6E5FF" d="m39.44 20.37-14 6.02s-5.39-7.12-4.88-6.45c.51.67-3.75-4.1-5.89-4.96l6.28-10.39S28.31 5 32.91 9.6c4.6 4.6 6.53 10.76 6.53 10.76v.01Z"/>
  <path class="display-icon__fill-1" fill="#52B0FF" d="M7.94 31.09C5.57 28.61 3.25 26.07 1.65 23 1.02 21.79.55 20.52.5 19.13c-.07-2.1 1-3.64 2.47-4.98 2.29-2.09 4.81-2.3 7.53-.92 2.19 1.11 4.06 2.66 5.81 4.34 2.86 2.73 5.55 5.61 7.8 8.87 1.03 1.49 1.92 3.05 2.34 4.84.48 2.05 0 3.87-1.44 5.38-.7.74-1.5 1.42-2.36 1.95-1.86 1.14-3.79.89-5.7.02-2.43-1.11-4.4-2.85-6.31-4.66-.95-.9-1.81-1.91-2.7-2.87v-.01Z"/>
  <path class="display-icon__ink" fill="#1C1D1F" d="M14.4 7.79c0 1.03-1.6 1.03-1.6 0v-.06c0-1.03 1.6-1.03 1.6 0v.06Zm5.79 3.52-.1.1c-.08.07-.13.16-.17.26-.05.1-.07.2-.07.31 0 .11.02.21.07.31.03.1.09.19.17.26l.16.13c.12.07.26.11.4.11l.21-.03c.14-.04.25-.11.35-.21l.1-.1c.08-.07.13-.16.17-.26.05-.1.07-.2.07-.31a.67.67 0 0 0-.07-.31.563.563 0 0 0-.17-.26l-.16-.13a.802.802 0 0 0-.4-.11l-.21.03c-.14.04-.25.11-.35.21Z M28.443 16.615c-.387-.778-.68-1.61-.974-2.44-.624-1.77-1.247-3.535-2.769-4.775a6.508 6.508 0 0 0-2.82-1.326c.41-.297.408-1.065-.07-1.374-1.94-1.26-4.02-2.12-6.17-2.96a.875.875 0 0 0-.154-.046C12.713 2.63 9.852 4.97 8.941 7.52c-.31.85-.45 1.75-.53 2.65-.06.605-.08 1.21-.1 1.805v.015c-.003.102.003.223.01.353.016.327.034.706-.08.957-.137.312-.453.569-.76.818-.184.15-.365.297-.5.452-.21.24-.41.52-.59.8-.5.79-.83 1.7-1.06 2.6-.87 3.26.1 6.81 3.46 8.16.808.325 1.678.376 2.543.426.89.052 1.776.104 2.587.454.7.304 1.196.85 1.694 1.397.533.587 1.07 1.178 1.866 1.483.96.37 1.38-1.17.43-1.54-.56-.217-.974-.662-1.372-1.136.819-.542 1.725-1.129 2.71-1.354.92-.21 1.756.078 2.615.375h.001c.12.042.242.084.365.125 1.027.352 2.037.378 3.107.406l.163.004c.667.015 1.446.078 1.998.48-.764.307-1.554.532-2.368.6-1.02.08-1.03 1.68 0 1.6 2.16-.17 4.13-1.18 5.99-2.23 1.62-.92 3.13-2.09 3.79-3.89.15-.41-.17-.88-.56-.98-.45-.12-.83.15-.98.56l-.01-.01c-.302.825-.898 1.468-1.59 1.998.101-.949.18-1.898.18-2.848 0-1.27-.11-2.71-.76-3.85-.583-1.014-1.631-1.537-2.747-1.585Zm-13.71-11.51c.165.791.36 1.575.553 2.359.16.65.322 1.3.466 1.955-1.678 1.514-3.279 3.331-3.642 5.631-.06.39.1.91.56.98 1.17.177 2.348.295 3.533.34-.087.957-.18 1.914-.274 2.871a6.447 6.447 0 0 0-.86-.961c-.44-.39-.94-.73-1.44-1.04-1-.63-2.29-1.19-3.47-.72-1.36.54-1.87 2.06-2 3.4-.15 1.483.192 2.93.56 4.358a4.114 4.114 0 0 1-.908-.738c-1.23-1.31-1.4-3.01-1.02-4.72.38-1.71 1-2.79 2.2-3.91.89-.839.912-1.792.936-2.893.004-.159.008-.322.014-.487.06-1.62.2-3.35 1.14-4.73.712-1.054 2.322-2.083 3.651-1.694ZM17.34 21.18c.06-.627.12-1.255.182-1.882.3-3.049.599-6.101.68-9.172 1.857-1.024 4.308-.715 5.807.804 1.101 1.12 1.615 2.624 2.126 4.121.215.629.43 1.257.687 1.854-1.026.459-1.813 1.417-2.403 2.355-.043.067-.085.133-.126.2a22.575 22.575 0 0 1-.494-.6.326.326 0 0 0-.021-.031l-.004-.006.005.007.03.04-.006-.01-.044-.06a3.472 3.472 0 0 0-.075-.1 12.505 12.505 0 0 1-.345-.48c-.18-.26-.36-.53-.53-.8-.22-.35-.72-.53-1.09-.29-.37.24-.53.72-.29 1.09l-.01.02a19.387 19.387 0 0 0 2.072 2.728c-.134.3-.255.606-.362.922a16.644 16.644 0 0 0-.6 2.429c-.15-.26-.285-.53-.407-.807a7.088 7.088 0 0 1-.302-.932c-.1-.41-.58-.69-.98-.56-.4.13-.67.55-.56.98l-.01.01c.111.431.258.853.436 1.261a4.71 4.71 0 0 0-1.678-.001c-.274.051-.54.124-.8.213-.065-1.086-.444-2.1-.947-3.058a.884.884 0 0 0 .059-.245Zm12.717 4.794c-.335.186-.675.374-1.022.555-.964-1.208-2.452-1.287-3.94-1.366-.363-.02-.726-.039-1.08-.074.218-1.276.504-2.545 1.054-3.712a.838.838 0 0 0 .173-.347c.053-.1.109-.2.167-.3l.036-.062c.512-.867 1.115-1.887 1.994-2.278.54-.24 1.13-.2 1.69 0 .07.03.24.12.34.21.063.064.127.127.183.19-.001.004.042.07.082.13l.065.1c.14.24.16.29.24.56.08.26.14.52.19.78.08.47.11 1.09.12 1.64 0 1.29-.14 2.58-.29 3.86a.576.576 0 0 0-.002.114ZM16.629 24.74c.002.177.05.324.13.44-.407.239-.802.5-1.19.76a.912.912 0 0 0-.12.097 2.873 2.873 0 0 0-.158-.117c-1.066-.727-2.35-.81-3.596-.89h-.014a11.628 11.628 0 0 1-1.154-.128c-.069-.274-.143-.55-.217-.826-.268-.99-.537-1.992-.59-3.016-.05-.93 0-2.33.78-2.93.29-.23.63-.24.96-.15.44.12.84.32 1.23.55.92.56 1.66 1.19 2.25 2.1.81 1.23 1.67 2.59 1.69 4.11Zm.225-17.554v-.001c-.112-.45-.223-.9-.33-1.351.875.362 1.733.746 2.572 1.176l-.002.001-.244.12c-.63.297-1.198.687-1.737 1.115a125.98 125.98 0 0 0-.26-1.06Zm-.514 7.59a27.965 27.965 0 0 1-2.469-.19c.48-1.462 1.519-2.646 2.645-3.707.02.005.041.01.062.013a91.45 91.45 0 0 1-.238 3.883Zm5.84 8.874a6.351 6.351 0 0 1-.034-.081l.035.08Zm-10.716 6.314a19.037 19.037 0 0 1 1.308.066l.014.001a.584.584 0 0 1 .173.039c.067.013.133.035.2.058l.1.032.011.002h.004l.015.008.12.06.3.18.07.055.07.055c.08.07.16.14.23.22.035.04.073.08.11.12.038.04.075.08.11.12l.038.045c.026.031.052.06.072.095l-.026-.032-.004-.005.002.003a8.424 8.424 0 0 1 .728 1.233c.19.38.75.51 1.09.29.39-.25.49-.69.29-1.09-.47-.96-1.1-1.87-1.99-2.49-.897-.629-1.987-.648-3.046-.668h-.001a40.858 40.858 0 0 1-.503-.011c-.42-.01-.82.38-.8.8.02.45.35.78.8.8h.03c.16.006.322.01.483.014h.002Z M20.42 31.09c-.38-.9-.35-1.88-.28-2.84v-.01c.03-.45.34-.78.8-.8.41-.02.83.38.8.8l-.001.022c-.03.392-.058.775-.048 1.168a3.225 3.225 0 0 1 .022.356v.023a.733.733 0 0 1 .008.061 4.58 4.58 0 0 0 .162.597l.005.016-.024-.047.057.114c.04.08.09.16.14.24.015.02.03.038.045.055.015.018.03.035.045.055.07.08.14.16.22.23a7.609 7.609 0 0 0 .57.48c.015.012.03.021.044.03.024.017.047.032.066.05-.03-.02-.12-.02-.01 0 .44.1.65.57.56.98-.09.43-.57.65-.98.56-.262-.059-.474-.225-.684-.39a9.595 9.595 0 0 0-.116-.09c-.18-.14-.36-.28-.52-.43-.37-.35-.68-.76-.88-1.23Zm5.28.83c1.28.11 2.57-.36 3.52-1.21.31-.28.31-.85 0-1.13-.33-.31-.8-.3-1.13 0l-.1.08c-.016.01-.028.02-.04.03l-.04.03c-.1.07-.21.14-.32.21a2.324 2.324 0 0 1-.29.147l-.05.023-.21.07a3.995 3.995 0 0 1-.452.117 1.141 1.141 0 0 1-.154.028c-.015.002-.03.005-.045.005l.043-.006.023-.004h.004a3.847 3.847 0 0 1-.76 0c-.42-.04-.82.39-.8.8.02.47.35.76.8.8v.01Zm2.29-2.26-.05.04-.011.007.06-.047Z M11.5 33.3c-2.94-1.41-5.51-4.25-7.03-7.1h.02c-.49-.91.9-1.72 1.38-.81 1.44 2.69 3.74 5.28 6.64 6.62 2.9 1.34 6.33 2.09 9.52 2.09 2.99 0 5.98-.76 8.39-2.58 1.68-1.266 2.554-2.912 3.469-4.635.3-.564.603-1.136.94-1.705.53-.88 1.91-.08 1.38.81-.336.568-.628 1.166-.92 1.762-.374.768-.747 1.53-1.21 2.218-.82 1.22-1.88 2.24-3.07 3.09-2.61 1.85-5.82 2.64-8.99 2.64-3.55 0-7.32-.86-10.52-2.4Z"/>
</svg>
