<svg xmlns="http://www.w3.org/2000/svg" width="40" height="40" fill="none" viewBox="0 0 40 40">
  <path class="display-icon__fill-2" fill="#B6E5FF" d="m29.875 2.997.005-.007V3l-.005-.003ZM21.8.52c4.283.284 7.932 2.394 8.075 2.477L25.57 10.38s-2.22-1.43-4.68-1.52l-.055-.002c-2.026-.069-3.204-.11-5.276.922l-2.04-6.63S17.44.23 21.8.52Zm-9.17 28.42-5.47 6.65h.01s3.31 2.72 7.57 3.67c4.26.95 8.61-1.36 8.61-1.36l-.96-7.12c-2.24.72-3.34.66-5.38.37-2.2-.31-4.38-2.21-4.38-2.21Z"/>
  <path class="display-icon__fill-1" fill="#52B0FF" d="M19.77 30.67c-3.62-.08-6.64-1.12-8.74-3.95-1.52-2.05-2.02-4.39-1.95-6.86.07-2.59.77-4.99 2.63-6.94 2.5-2.63 5.72-3.38 9.26-3.06 3.3.29 6.07 1.64 7.7 4.49 2.21 3.87 2.2 7.88 0 11.75-1.59 2.78-4.29 4.1-7.51 4.47-.51.06-1.02.07-1.39.1Z"/>
  <path class="display-icon__ink" fill="#1C1D1F" d="M16.65 16.674c-.324-3.86-.565-7.728-.73-11.604l.04-.01a.67.67 0 0 1 .05-.3c.014-.331.234-.66.66-.68 1.79-.08 3.58-.15 5.37-.22.36-.02.69.32.68.68a439.047 439.047 0 0 1-.565 12.337L33.73 12.38c.26-.11.65.06.77.31.83 1.77 1.44 3.6 1.83 5.52.07.36-.1.74-.48.84-2.14.55-4.28 1.103-6.42 1.655-1.826.472-3.651.943-5.477 1.413 1.99 2.799 4.27 5.27 6.617 7.792l.023.025.052.054c.7.746 1.298 1.384.535 2.321-.914 1.119-2.292 2.067-3.49 2.891l-.1.07c-.86.59-1.5.91-2.2.02-.754-.953-1.384-2.058-1.99-3.12l-.11-.19c-.825-1.439-1.55-2.933-2.275-4.428-.392-.809-.784-1.617-1.192-2.417a121.325 121.325 0 0 0-2.253 4.074c-.222.418-.44.85-.66 1.287-.672 1.33-1.364 2.702-2.26 3.823-.95 1.193-1.997.657-3.114.085l-.246-.125c-.241-.122-.544-.25-.874-.388-1.13-.475-2.573-1.082-2.906-2.042-.347-1.002.754-2.206 1.55-3.074a13.2 13.2 0 0 0 .49-.556c1.117-1.377 2.302-2.702 3.485-4.023l.265-.297c.058-.065.212-.216.41-.41.59-.577 1.565-1.533 1.52-1.72-.03-.128-1.373-.382-2.148-.529a15.214 15.214 0 0 1-.512-.1c-1.88-.47-3.75-.99-5.62-1.53a9.838 9.838 0 0 0-.702-.155c-1.069-.211-2.52-.498-2.608-1.546-.052-.557.178-1.207.385-1.796.072-.204.141-.401.195-.584.27-.94.57-1.87.87-2.8.1-.32.49-.63.84-.48l10.72 4.424Zm.696-11.25c.18 4.108.445 8.207.804 12.296.03.41-.48.82-.87.66L6.202 13.81a71.13 71.13 0 0 0-.772 2.541c-.045.155-.087.313-.13.47-.042.158-.085.315-.13.47a1.896 1.896 0 0 1-.044.394c.224.082.575.158.83.213.121.027.221.048.274.063 2.09.61 4.18 1.2 6.28 1.74.386.099.781.182 1.178.267.653.138 1.31.278 1.932.483.44.15.88.31 1.05.78.19.54-.09 1.01-.41 1.42-.46.587-.974 1.144-1.487 1.7-.213.23-.425.459-.633.69l-.385.434c-1.293 1.454-2.584 2.908-3.785 4.436a5.904 5.904 0 0 1-.26.3c-.307.339-.737.816-.73 1.02.024.464.618.717 1.064.907.112.048.214.091.296.133l.73.37.73.37c.069.037.167.1.28.174.314.203.742.48.97.466.76-.04 1.398-1.345 1.838-2.245.11-.226.208-.426.292-.575.45-.81.89-1.63 1.33-2.45.9-1.67 1.81-3.34 2.79-4.96.26-.43.93-.46 1.18 0a94.551 94.551 0 0 1 1.733 3.454c.46.95.92 1.899 1.407 2.836.57 1.09 1.19 2.17 1.85 3.21.106.167.217.332.328.498.162.241.324.483.472.732.021.033.062.078.105.126.045.05.092.104.12.146a3.545 3.545 0 0 1 .38-.266l.055-.036c.65-.45 1.28-.93 1.89-1.45.057-.05.168-.135.303-.239.437-.335 1.133-.87 1.117-1.06 0-.011-.176-.15-.36-.297a10.18 10.18 0 0 1-.41-.334l-.325-.34a924.88 924.88 0 0 0-.644-.67 63.164 63.164 0 0 1-1.28-1.35c-1.82-1.97-3.46-4.09-4.96-6.31-.25-.37 0-.9.41-1.01 2.14-.55 4.28-1.102 6.42-1.655l5.793-1.494a23.11 23.11 0 0 0-1.312-3.992L21.6 18.57c-.41.16-.9-.25-.87-.66.265-4.213.45-8.435.604-12.649-1.329.058-2.659.11-3.988.163Z"/>
</svg>
