<svg xmlns="http://www.w3.org/2000/svg" width="40" height="40" fill="none" viewBox="0 0 40 40">
  <path class="display-icon__fill-2" fill="#B6E5FF" d="M24.34 39.56c-.29-2.3-.49-4.53-.88-6.73-.23-1.29-.08-2.29 1.05-3.06.23-.15.38-.42.55-.65.87-1.18 1.01-2.33.4-3.31-.8-1.28-2.06-1.96-3.46-1.6-1.18.3-2.29.85-3.43 1.29-.14.05-.27.13-.49.23-.14-1.15-.28-2.23-.41-3.31-.28-2.36-.54-4.71-.85-7.07-.08-.58.03-.89.59-1.18 1.93-.98 3.7-1.07 5.85-1.43 3.23-.53 6.18-.36 8.52 1.86 2.65 2.5 4.45 5.44 4.48 9.21.02 2.91-1.1 5.44-2.77 7.75-2.35 3.23-5.35 5.75-8.74 7.82-.09.06-.2.09-.4.18h-.01Z"/>
  <path class="display-icon__fill-1" fill="#52B0FF" d="m17.6.39 7.78 16.73s-7.4 2.38-9.2 4.92c-1.8 2.53-2.7 3.42-1.8 7.55L.46 21.72S.68 13.42 5.7 8.1C10.73 2.77 17.6.39 17.6.39Z"/>
  <path class="display-icon__ink" fill="#1C1D1F" d="M3.637 15.966c1.943-2.696 4.188-5.165 6.452-7.586.236-.251.514-.302.761-.23l.05.01c6.043 1.365 12.156 2.378 18.279 3.27a.808.808 0 0 1 .112.017l.088.013c.362.055.548.276.594.54l.157.21.07.09.036.048c.045.06.086.116.134.172.24.31.48.6.73.9 1.02 1.23 2.07 2.42 3.13 3.61.198.218.395.44.591.662.349.394.699.789 1.064 1.169.32.186.514.593.405.959-.94 3.09-3.62 5.15-6.85 5.19-.77.01-1.64.01-2.36-.17-.72-.18-1.33-.57-1.93-1.06a7.92 7.92 0 0 1-1.56-1.71c-.23-.346-.424-.717-.618-1.087-.125-.238-.25-.476-.383-.707a.76.76 0 0 1-.06-.896c.848-1.471 1.971-2.738 3.096-4.005.719-.81 1.438-1.621 2.085-2.485a321.217 321.217 0 0 1-7.166-1.134c-.039 5.607.01 11.223.15 16.83 3.697.029 7.397.027 11.096-.006 1.08-.01 1.07 1.67 0 1.67-7.77.07-15.53 0-23.3-.2-1.07-.03-1.07-1.7 0-1.67 3.51.09 7.02.154 10.533.19-.14-5.698-.19-11.406-.147-17.105-2.075-.37-4.144-.77-6.206-1.208a261.234 261.234 0 0 0 2.75 3.513c.143.181.284.367.426.553.375.494.756.994 1.184 1.437a.8.8 0 0 1 .233.49.752.752 0 0 1-.023.32c-.94 3.09-3.62 5.15-6.85 5.19-.76.01-1.62.02-2.34-.16-.72-.18-1.35-.59-1.9-1.07-1.13-.99-1.94-2.26-2.63-3.57a1.015 1.015 0 0 1-.026-.053c-.12-.246-.135-.548.026-.777l.041-.058a.767.767 0 0 1 .076-.105Zm2.252-.245c2.95.009 5.897-.036 8.848-.143-1.407-1.74-2.813-3.496-4.137-5.303-1.637 1.754-3.246 3.545-4.711 5.445Zm-.193 1.669a9.661 9.661 0 0 0 1.364 1.7c.41.4.87.75 1.44.89.447.11.945.105 1.413.101l.257-.001c2.16.025 4.022-1.037 5.007-2.848-3.156.12-6.318.17-9.48.158Zm19.094 1.58c2.942.01 5.881-.032 8.824-.136a196.49 196.49 0 0 1-2.424-2.744l-.154-.178a61.86 61.86 0 0 1-1.856-2.218c-.636.86-1.344 1.671-2.047 2.477a195.962 195.962 0 0 0-.565.647c-.612.7-1.228 1.404-1.778 2.152Zm-.078 1.68c.358.617.75 1.203 1.318 1.71.43.38.92.73 1.48.87.468.115.991.112 1.486.11h.194c2.16.025 4.022-1.037 5.007-2.848-3.158.12-6.32.17-9.485.158Z"/>
</svg>
