<svg xmlns="http://www.w3.org/2000/svg" width="40" height="40" fill="none" viewBox="0 0 40 40">
  <path class="display-icon__fill-2" fill="#B6E5FF" d="M.36 36.74V13.77c.16-.03.29-.07.43-.07 3.63 0 7.26-.08 10.89.07 1.57.06 3.18.41 4.65.96 3.24 1.2 4.84 3.76 5.17 7.12.42 4.26-.31 8.18-3.68 11.2-1.94 1.73-4.31 2.59-6.8 3.12-3.49.75-7.04.6-10.66.57Z"/>
  <path class="display-icon__fill-1" fill="#52B0FF" d="m39.49 21.99-16.33 3.07s-.44-6.98-2.24-9.11c-1.8-2.13-2.38-3.11-6.18-3.25L24.7 2.3s7.19 2.04 10.72 7.6c3.53 5.56 4.08 12.09 4.08 12.09h-.01Z"/>
  <path class="display-icon__ink" fill="#1C1D1F" d="m22.59 10.42.152-.013c.715-.06 1.646-.139 2.299.113.16.06.59.34.58.55-.018.246-.6.322-.87.357l-.02.003a3.263 3.263 0 0 0-.07.01c-.39.07-.71.61-.56.98.432 1.034.865 2.07 1.288 3.112-.703.69-1.285 1.472-1.872 2.262-.223.3-.446.6-.677.896l-.329.42c-.878-.01-1.757-.023-2.636-.035-.795-.01-1.59-.022-2.384-.031a36.98 36.98 0 0 1-.3-1.064 33.47 33.47 0 0 1-.339-1.475 38.32 38.32 0 0 0-.292-1.295 5.522 5.522 0 0 0-.543-1.348c.418.009.836.021 1.253.038.42.02.82-.38.8-.8a.816.816 0 0 0-.8-.8c-1.51-.06-3.03-.07-4.54-.02-.42.01-.82.36-.8.8.02.44.35.82.8.8.463-.015.927-.025 1.391-.03.475.665.807 1.31.99 2.15l.018.088c-.723.531-1.34 1.245-1.91 1.97-1.351-.751-2.994-.866-4.51-.608-2.362.397-4.163 2.144-4.747 4.449a.897.897 0 0 0-.039.223c-.348 1.71-.399 3.672.336 5.278.62 1.36 1.86 2.36 3.25 2.88 3.09 1.16 7.23-.38 8.43-3.52.23-.597.358-1.239.413-1.893.598-.004 1.195-.01 1.788-.017h.076c.729 0 1.383.001 1.944-.54 1.03-.996 1.956-2.158 2.858-3.291.185-.231.368-.462.552-.689.323-.4.632-.818.943-1.236.489-.658.98-1.32 1.53-1.927.167.423.33.847.492 1.273-1.25.878-2.218 2.207-2.566 3.62-.72 2.93-.07 6.37 2.78 7.87 2.57 1.36 6.32.74 8.26-1.48.97-1.12 1.18-2.6 1.24-4.03.06-1.55.09-2.98-.71-4.35-.6-1.03-1.59-1.88-2.73-2.23-1.08-.33-2.09-.44-3.22-.45h-.005l-.005-.01a5 5 0 0 0-1.625.313c-.265-.69-.536-1.377-.813-2.062a.772.772 0 0 0-.079-.196c-.364-.898-.735-1.794-1.108-2.687.372-.148.707-.37.947-.718.42-.61.39-1.32 0-1.93-.9-1.45-2.79-1.39-4.3-1.28-1.02.08-1.03 1.68 0 1.6h-.01Zm4.53 9.644.066.193c.531 1.57 1.076 3.178 2.255 4.373.73.73 1.86-.4 1.13-1.13-1.043-1.058-1.535-2.59-2.002-4.042l-.074-.231c.35-.135.718-.217 1.095-.227.04-.001.08-.005.117-.01.737 0 1.348.01 2.023.21.82.24 1.36.45 1.95 1.09.04.045.08.087.12.13a5.925 5.925 0 0 1 .132.143 17.596 17.596 0 0 0 .08.087 4.391 4.391 0 0 1 .277.48c.27.51.36.98.38 1.55.04 1.21.08 2.56-.3 3.72-.72 2.22-3.95 3.07-5.99 2.49-.94-.27-1.83-.87-2.37-1.69-.67-1.03-.71-2.3-.65-3.49.07-1.29.48-2.39 1.4-3.31.115-.116.235-.228.361-.336Zm-15.45-.924c.184.065.365.142.54.229-.814 1.06-1.6 2.138-2.388 3.217L9.03 23.67c-.37.51.13 1.2.69 1.2h5.013c-.11 1.176-.572 2.334-1.554 3.04-1.14.82-2.53 1.24-3.9 1.14-1.3-.09-2.61-.76-3.33-1.87-.89-1.36-.79-3.28-.46-4.8.41-1.65 1.51-2.84 3.11-3.27.21-.06.42-.1.63-.13-.153.024-.108.02-.03.012.056-.005.127-.012.16-.012.81-.05 1.65-.07 2.31.16Zm-.182 3.873c.666-.911 1.33-1.821 2.015-2.719.189.183.364.38.526.586.47.605.64 1.513.7 2.39h-3.428l.187-.257Zm4.641-1.383c-.196-1.009-.868-1.916-1.644-2.631.322-.41.665-.813 1.033-1.161.076.32.155.64.242.962.42 1.517.943 3.002 1.555 4.45-.32 0-.641.003-.963.005a13.96 13.96 0 0 0-.223-1.625Zm1.884-.98 1.86.025h.001l1.33.018a145.18 145.18 0 0 1-1.614 1.857 6.124 6.124 0 0 0-.155.18c-.135.164-.258.313-.432.417a33.574 33.574 0 0 1-.99-2.497Z"/>
</svg>
