<svg xmlns="http://www.w3.org/2000/svg" width="40" height="40" fill="none" viewBox="0 0 40 40">
  <path class="display-icon__fill-2" fill="#B6E5FF" d="M29.64 39.09 17.39 26.32s5.97-4.46 6.82-7.31c.85-2.85 1.39-3.94-.7-7.41l15.07 2.83s2.37 7.6-.54 13.98c-2.91 6.39-8.41 10.68-8.41 10.68h.01Z"/>
  <path class="display-icon__fill-1" fill="#52B0FF" d="M12.04 25.01c-3.91-.09-7.17-1.25-9.44-4.42C.96 18.29.43 15.66.5 12.9c.08-2.9.83-5.59 2.84-7.78 2.7-2.95 6.17-3.79 10-3.43 3.57.33 6.55 1.84 8.31 5.04 2.39 4.34 2.38 8.84 0 13.17-1.72 3.11-4.63 4.6-8.11 5.01-.55.06-1.1.08-1.5.11v-.01Z"/>
  <path class="display-icon__ink" fill="#1C1D1F" d="m25.45 4.95-.25 3.33c-.03.45-.34.78-.8.8-.41.02-.83-.38-.8-.8l.25-3.33c.03-.45.34-.78.8-.8.41-.02.83.38.8.8Zm-2.68 12.74c-.61-.07-1.19.03-1.77.24l-.01-.02c-.4.15-.87-.17-.98-.56-.12-.44.16-.83.56-.98 1.31-.49 2.77-.4 4.03.18.57.26 1.08.65 1.34 1.21.26.56.29 1.19.15 1.78-.26 1.14-1.11 2.04-2.15 2.63-.545.309-1.13.53-1.715.75-.533.202-1.065.403-1.565.67-.96.51-1.81 1.22-2.46 2.1-.25.35-.68.53-1.09.29-.35-.2-.55-.74-.29-1.09.78-1.06 1.76-1.97 2.91-2.61.537-.3 1.11-.515 1.681-.731.652-.246 1.302-.492 1.899-.86.47-.29.91-.71 1.13-1.23.15-.35.24-.88-.07-1.18-.38-.36-1.1-.54-1.6-.59ZM8.35 19.61c.092 0 .18.009.268.017.047.005.094.01.142.013l.037.003.031.006.032.006.02.004.06.011c.1.02.19.04.28.08l.062.022.018.008a.704.704 0 0 1 .06.034l.04.026c.073.043.046.048.01.03a.192.192 0 0 1-.05-.056c.007.025.03.045.05.056l.06.048.008.007a.654.654 0 0 1 .042.035c.015.015.028.03.04.045l.038.043.062.092c.027.04.055.08.08.12l.045.08.006.01a1.888 1.888 0 0 0 .058.103l.011.037a3.173 3.173 0 0 1 .16.62c-.027-.116-.017-.05-.008.01a1.47 1.47 0 0 1 .008.06c.01.14.02.29.01.43l-.015.215-.004.054-.011.161c0 .033-.007.06-.015.09l-.005.02c-.06.24-.14.47-.23.69-.15.39.17.89.56.98.46.1.82-.14.98-.56.47-1.23.49-2.72-.22-3.88-.25-.41-.57-.79-1-1.01-.54-.28-1.14-.35-1.74-.39-.42-.03-.82.39-.8.8.02.46.35.77.8.8l.02.03Zm.84.12.086.039a.428.428 0 0 1-.086-.039Z M30.738 16.498c.433.177.842.417 1.212.722 1.16.96 1.61 2.68 1.59 4.2-.02 1.52-.62 2.87-1.46 4.11-.48.714-1.07 1.305-1.796 1.637.055 1.27-.245 2.847-1.493 3.433a4.19 4.19 0 0 1-.68.24c-.097.461-.224.913-.351 1.366-.126.448-.252.896-.35 1.354-.14.64-.5 1.04-1.16 1.13-.53.06-1.05.09-1.59.06s-1.11-.12-1.51-.52c-.344-.335-.459-.786-.574-1.24l-.017-.066-.019-.074a11.89 11.89 0 0 0-.4-1.29c-.017-.043-.035-.085-.05-.13-.02-.04-.04-.09-.06-.14 0 .01.01.035.015.047l.003.006v.002l-.018-.035-.105-.22-.105-.22c-.259-.511-.573-1-.898-1.48-1.395.24-2.806.366-4.202.07-1.2-.26-2.64-.91-3.25-2.04-.236-.431-.283-.875-.26-1.334-1.062.584-2.242.94-3.46.614-.94-.25-1.73-1-2.15-1.87-.371-.765-.444-1.593-.423-2.424-.883-.132-1.746-.581-2.247-1.296-.75-1.06-.79-2.66-.49-3.88.28-1.14 1.08-2.13 2.12-2.67.277-.143.56-.25.846-.326.95-1.335 2.115-2.554 3.604-3.294 1.893-.932 3.986-.969 5.994-.418.232-.123.48-.22.745-.282.99-.23 2.09-.12 3.08.07 1.184.221 2.347.751 3.233 1.574a.71.71 0 0 1 .427-.124c1.55.06 2.93.78 4.09 1.77.49.42.94.87 1.3 1.41.3.44.57.92.8 1.4.024.052.044.104.059.158ZM16.48 13.03l.01.01c-.69.76-1.8-.41-1.13-1.13l.078-.084c-1.267-.18-2.55-.063-3.728.544-.888.458-1.646 1.11-2.293 1.853a4.273 4.273 0 0 1 2.953 2.647c.15.4-.17.87-.56.98-.44.12-.83-.16-.98-.56-.27-.72-.97-1.32-1.72-1.53-.68-.2-1.36-.08-1.99.31-.67.42-1.07 1.08-1.19 1.87-.06.41-.07.86-.01 1.27.03.23.09.48.18.7.03.07.07.14.11.21l.045.07.021.032.005.008.01.01c.2.21.47.36.75.46.178.057.358.113.537.136a.713.713 0 0 1 .075.002h.017l.06.002a.78.78 0 0 0 .057-.003.789.789 0 0 1 .243-.037c.41 0 .83.37.8.8l-.002.023c-.06.767-.135 1.733.162 2.387.16.34.34.59.62.83.22.2.45.3.79.36.57.1 1.19-.11 1.74-.34-.122.05-.064.023-.007-.003l.017-.008.007-.003.033-.016c.07-.03.13-.06.19-.09.13-.07.26-.15.39-.23.272-.168.531-.349.788-.538a6.076 6.076 0 0 1 .426-1.104.85.85 0 0 1-.094-.208 2.236 2.236 0 0 0-.077-.226 3.953 3.953 0 0 0-.473-.764l.13.16a4.81 4.81 0 0 0-.733-.757c-.026-.02-.047-.033-.047-.033v.02a.926.926 0 0 1-.37-.48.743.743 0 0 1 .03-.514c.214-1.383.995-2.55 2.083-3.407a.641.641 0 0 1-.053-.15 3.244 3.244 0 0 0-.111-.378 3.805 3.805 0 0 0-.35-.591 3.832 3.832 0 0 0-.35-.35 3.636 3.636 0 0 0-.429-.27c-.4-.2-.48-.72-.29-1.09.09-.18.29-.32.48-.37.21-.06.43-.02.62.08a3.977 3.977 0 0 1 1.888 2.256c.452-.216.92-.395 1.392-.556l.165-.054c.263-.084.503-.16.735-.326.09-.06.18-.15.23-.25a.383.383 0 0 1 .04-.068.166.166 0 0 0 .008-.053l.002-.03c-.02.12-.02-.15-.02-.15-.05-.43.4-.8.8-.8.47 0 .75.37.8.8.1.91-.58 1.72-1.36 2.09a9.876 9.876 0 0 1-1.047.414 9.113 9.113 0 0 0-1.113.447c-1.157.588-2.254 1.56-2.508 2.776.433.38.815.826 1.1 1.325 1.34-1.39 3.267-2.18 5.158-2.57h-.01c1.01-.21 1.44 1.33.43 1.54-1.39.29-2.81.75-3.91 1.65-1.1.9-1.65 2.04-1.85 3.42l-.02.115-.004.028c-.048.276-.1.584-.066.856.04.27.22.46.42.63.46.41 1.05.66 1.64.82 1.28.347 2.625.188 3.92-.049a3.357 3.357 0 0 1-.56-1.781V26c-.01-.43.36-.8.8-.8.44 0 .79.37.8.8l.001.038.002.032c.005.118.007.154.066.35a.787.787 0 0 0 .085.232l.045.088c.08.16.15.26.22.33.06.07.12.13.18.19-.005 0 .035.035.07.066.039.035.073.066.03.034.49.38 1.09.49 1.66.36 1.267-.278 2.013-1.41 2.117-2.656-.424.06-.855.091-1.285.116l.04-.01c-.45.03-.78-.39-.8-.8-.02-.45.38-.78.8-.8.3-.01.6-.03.9-.06l.216-.027a.7.7 0 0 1 .094-.013l.22-.045.22-.045c.13-.03.26-.07.39-.11.035-.01.067-.023.1-.035a.98.98 0 0 1 .1-.035.528.528 0 0 1 .043-.011c.201-.097.394-.204.577-.33l.02-.012.012-.011.018-.016c.02-.02.04-.038.06-.055.02-.018.04-.035.06-.055.08-.08.16-.17.24-.26-.061.069-.052.056-.026.018l.006-.008.02-.03.045-.07.045-.07.04-.083.005-.012.045-.095c-.04.11.01-.02.02-.06l.012-.042a2.51 2.51 0 0 0 .088-.378l.006-.046c-.002.013-.006.024-.006-.014 0-.026.002-.054.004-.083l.001-.012c.003-.033.005-.065.005-.095v-.47c-.01-.07-.02-.14-.02-.21l-.002-.033a.559.559 0 0 1-.018-.097c-.07-.44.11-.84.56-.98.38-.12.91.15.98.56.23 1.43.02 2.95-1.17 3.9a4.398 4.398 0 0 1-1.058.614c.004.034.006.07.006.106 0 2.09-1.33 4.18-3.49 4.54a3.798 3.798 0 0 1-1.693-.08c.221.351.427.713.604 1.09.39.83.63 1.7.87 2.58l.063.188c.02.008.078.056.037.042.21.07.44.07.71.07.27 0 .53-.01.8-.03.01 0 .036-.003.068-.008l.022-.102c.093-.402.205-.799.317-1.194.067-.235.134-.47.196-.707a6.584 6.584 0 0 1-1.022.001c-.45-.03-.78-.34-.8-.8-.02-.41.38-.83.8-.8.26.02.51.02.77.02.05 0 .1-.005.15-.01.043-.004.085-.008.128-.01h.002c.04-.01.08-.02.12-.02l.053-.009c.155-.026.313-.052.47-.08a.924.924 0 0 1 .4-.084c.176-.04.35-.089.517-.147l.02-.006v-.001a.573.573 0 0 1 .029-.012.95.95 0 0 1 .17-.1.098.098 0 0 1 .016-.005l.005-.006.13-.13c-.082.082-.057.052-.023.012l.043-.052c.03-.05.06-.1.09-.16l.01-.017.006-.012.004-.01.06-.18a3.383 3.383 0 0 0 .091-.412l.004-.024.008-.05.007-.045c-.02.102-.013.033-.007-.03l.007-.07c.014-.156.02-.31.019-.462-.836-.192-.773-1.588.19-1.578.92.01 1.47-.58 1.94-1.31.59-.91 1.09-1.86 1.13-2.97.04-1.03-.18-2.41-1.01-3.13-.83-.72-2.08-.87-3.11-.63l.01-.01c-1.01.24-1.43-1.3-.43-1.54a5.804 5.804 0 0 1 1.338-.156c-.052-.085-.105-.17-.159-.254l-.21-.3a1.328 1.328 0 0 1-.052-.057l-.008-.008c-.02-.022-.04-.045-.06-.065-.21-.23-.44-.44-.67-.65-.26-.24-.4-.35-.68-.54-.26-.17-.52-.33-.8-.47a4.423 4.423 0 0 0-.891-.314l.002.004c.18.39.11.85-.29 1.09-.34.2-.91.1-1.09-.29-.61-1.35-1.87-2.09-3.28-2.39-.75-.16-1.64-.27-2.39-.1-.198.044-.38.122-.55.221a.695.695 0 0 1-.22.146c-.317.235-.592.54-.855.831l-.055.062ZM6.3 20.26l-.005-.01a.096.096 0 0 1 .005.01Zm7.94-4.203a1.943 1.943 0 0 0-.02-.047l.023.053-.003-.006Zm-1.42 5.083-.08-.065c.027.02.06.045.08.065Zm-.099-.08-.061-.05.061.05Zm19.949-6.5 3.59-2.72c.17-.13.31-.26.37-.48.05-.19.03-.45-.08-.62-.21-.33-.74-.56-1.09-.29l-3.59 2.72c-.17.13-.31.26-.37.48-.05.19-.03.45.08.62.21.33.74.56 1.09.29ZM7.2 11.2c-.82-.69-1.64-1.38-2.47-2.07-.17-.14-.34-.23-.57-.23-.2 0-.43.09-.57.23-.27.3-.34.84 0 1.13.82.69 1.64 1.38 2.47 2.07.17.14.34.23.57.23.2 0 .43-.09.57-.23.27-.3.34-.84 0-1.13Zm1.65 20.21 1.4-1.57c.15-.15.35-.22.57-.23.22-.01.43.09.57.23.14.14.23.37.23.57 0 .22-.09.41-.23.57l-1.4 1.57c-.15.15-.35.22-.57.23a.776.776 0 0 1-.57-.23.856.856 0 0 1-.23-.57c0-.22.09-.41.23-.57Z"/>
</svg>
