<svg xmlns="http://www.w3.org/2000/svg" width="40" height="40" fill="none" viewBox="0 0 40 40">
  <path class="display-icon__fill-2" fill="#B6E5FF" d="M1.13 35.37V13.9c.15-.03.27-.07.4-.07 3.39 0 6.79-.07 10.17.06 1.46.06 2.97.39 4.35.9 3.02 1.12 4.52 3.51 4.83 6.66.39 3.98-.29 7.65-3.44 10.46-1.81 1.62-4.03 2.42-6.36 2.92-3.26.7-6.57.56-9.96.53l.01.01Z"/>
  <path class="display-icon__fill-1" fill="#52B0FF" d="m38.74 27.04-17.1.11s.84-7.15-.6-9.64-1.84-3.59-5.66-4.43l11.99-8.7s6.91 3.38 9.46 9.66c2.55 6.28 1.91 12.99 1.91 12.99v.01Z"/>
  <path class="display-icon__ink" fill="#1C1D1F" d="M36.53 8.24c0-.43-.37-.8-.8-.8h-9.71l-.05-.606a208.75 208.75 0 0 1-.11-1.314c-.03-.42-.35-.82-.8-.8-.41.02-.83.35-.8.8.04.547.086 1.095.133 1.643v.001l.023.276h-8.818c.04-.79.05-1.575-.058-2.36-.06-.43-.61-.66-.98-.56-.46.13-.62.55-.56.98-.01-.068-.004-.018.004.05.007.06.016.136.016.15 0 .055.005.112.01.17.005.057.01.115.01.17v.62c-.005.262-.016.52-.03.78h-9.4c-.43 0-.8.37-.8.8v5.8c0 .046.004.09.012.135a.752.752 0 0 0-.012.135V34.5c0 .43.37.8.8.8h31.12a.738.738 0 0 0 .565-.235.738.738 0 0 0 .235-.565V14.31a.76.76 0 0 0-.011-.128.913.913 0 0 0 .01-.142v-5.8Zm-20.993 2.21a3.254 3.254 0 0 1-.017-.15c0-.055-.005-.113-.01-.17a1.996 1.996 0 0 1-.01-.17v-.62c.002-.1.005-.2.01-.3h9.032c.033.48.06.96.078 1.44.01.42.36.82.8.8.44-.02.82-.35.8-.8-.017-.48-.044-.96-.076-1.44h8.786v4.2H5.41v-4.2h8.512A11.15 11.15 0 0 0 14 10.92c.06.43.61.66.98.56.46-.13.62-.55.56-.98.01.068.005.018-.003-.05ZM9.92 18.742c-1.504.026-3.007.058-4.51.098v-3.73h4.462c.005 1.21.023 2.422.048 3.632Zm1.603-.026a234.367 234.367 0 0 1-.05-3.606h4.767c.001 1.184.005 2.369.013 3.553-1.577.013-3.153.03-4.73.053Zm6.33-.065a596.78 596.78 0 0 1-.013-3.541h4.582c.005 1.172.021 2.345.045 3.517-1.538.006-3.076.014-4.614.024Zm-6.292 1.662c1.568-.024 3.136-.042 4.705-.055.01 1.146.024 2.29.04 3.436l-1.736.006c-.967 0-1.94 0-2.909.01a534.035 534.035 0 0 1-.1-3.398Zm6.305-.066 1.384-.007c1.085-.005 2.17-.007 3.254-.01.03 1.149.065 2.296.102 3.444l-1.196.006c-1.14.005-2.28.008-3.42.01h-.084a657.43 657.43 0 0 1-.04-3.443Zm-1.534 5.054c.018 1.093.04 2.186.063 3.278a773.65 773.65 0 0 0-4.57.049l-.086-2.574-.025-.736 3.633-.014.985-.003Zm1.6-.006c1.576-.007 3.152-.014 4.728-.025l.028.842.082 2.432c-1.592.006-3.183.014-4.775.024a687.298 687.298 0 0 1-.063-3.274Zm-6.058 4.928a691.9 691.9 0 0 1 4.558-.048c.028 1.175.059 2.35.093 3.525h-4.566c.001-.02.002-.04.001-.06a364.151 364.151 0 0 0-.086-3.417Zm6.158-.059.908-.004c1.14-.005 2.28-.007 3.42-.01h.46a353.6 353.6 0 0 1 .093 3.55h-4.788a744.765 744.765 0 0 1-.093-3.536Zm6.178-6.5a563.267 563.267 0 0 1-.102-3.437 1091 1091 0 0 0 1.982-.007c.902 0 1.81 0 2.715-.007.01 1.133.024 2.266.04 3.399-1.545.023-3.09.04-4.635.051Zm4.66 1.544c.019 1.104.04 2.208.064 3.313l-3.929.015-.634.002c-.026-.826-.054-1.652-.082-2.478l-.027-.802c1.536-.012 3.072-.028 4.608-.05Zm1.664 3.305c-.024-1.11-.046-2.22-.064-3.33a498.51 498.51 0 0 0 4.46-.094v3.283c-.524.028-1.05.042-1.574.055l-.786.023c-.128.004-.276 0-.434-.005-.374-.01-.806-.022-1.17.065l-.432.003Zm-1.563 1.615c.028 1.19.06 2.381.094 3.572h-4.556v-.06a367.28 367.28 0 0 0-.088-3.495l1.36-.005c1.06 0 2.127 0 3.19-.012Zm1.694 3.572a757.449 757.449 0 0 1-.093-3.534c.19-.001.376-.017.547-.063.612-.038 1.23-.054 1.844-.07.263-.007.525-.014.787-.023.127-.004.275 0 .434.005.235.006.495.014.746-.004V33.7h-4.265Zm-.22-10.114c-.016-1.12-.03-2.238-.04-3.357.343.022.71.038 1.024-.046.613-.038 1.23-.054 1.845-.07.262-.007.525-.014.786-.023.128-.004.276 0 .434.005.14.004.287.008.436.007v3.387c-1.495.039-2.99.07-4.485.097Zm-.052-4.99a586.873 586.873 0 0 1-.013-3.486h4.55v3.357c-.421.018-.843.03-1.264.04l-.786.023c-.127.004-.275 0-.434-.005-.373-.01-.806-.022-1.17.065l-.883.005Zm-1.6.007-3.482.013-1.24.005a233.42 233.42 0 0 1-.048-3.511h4.757c.001 1.164.005 2.328.013 3.493ZM5.41 20.44a522.63 522.63 0 0 1 4.547-.101c.03 1.114.063 2.228.1 3.341-.283-.013-.572-.01-.826.057-.613.038-1.23.054-1.845.07l-.786.023c-.128.004-.276 0-.434-.005-.24-.006-.503-.014-.756.005v-3.39Zm3.974 4.89.727-.004.027.786c.03.847.058 1.693.086 2.54-1.605.026-3.21.058-4.814.1v-3.284a61.418 61.418 0 0 1 1.583-.055c.263-.007.525-.014.787-.023.127-.004.275 0 .434.005.373.01.806.023 1.17-.065ZM5.41 30.352c1.62-.043 3.242-.077 4.864-.104a349.1 349.1 0 0 1 .09 3.452H5.41v-3.348Z"/>
</svg>
