<svg xmlns="http://www.w3.org/2000/svg" width="40" height="40" fill="none" viewBox="0 0 40 40">
  <path class="display-icon__fill-2" fill="#B6E5FF" d="M28.79 22.41c-3.69-.08-6.77-1.18-8.92-4.18-1.55-2.17-2.06-4.65-1.99-7.26.07-2.74.78-5.28 2.69-7.35C23.12.82 26.4.03 30.02.36c3.37.31 6.19 1.74 7.86 4.76 2.26 4.1 2.25 8.35 0 12.44-1.62 2.94-4.38 4.35-7.66 4.74-.52.06-1.04.08-1.41.11h-.02Z"/>
  <path class="display-icon__fill-1" fill="#52B0FF" d="m.49 23.49 15.09-10.68s2.99 7.56 5.76 9.26c2.76 1.7 5.42 2.2 8.44 2.98L22.07 38.5s-8.68.33-14.58-4.55c-5.9-4.86-7-10.46-7-10.46Z"/>
  <path class="display-icon__ink" fill="#1C1D1F" d="M16.337 8.124a.128.128 0 0 1-.028-.02.106.106 0 0 1 .019-.019c.006.016.009.03.009.039Z M19.07 6.817a2.818 2.818 0 0 0-1.14-1.867l.01-.02c-.36-.24-.52-.69-.29-1.09.2-.36.73-.54 1.09-.29 1.43.98 2.18 2.68 1.88 4.4a2.465 2.465 0 0 1-.097.39c.378.593.697 1.24.637 1.99-.07.87-.61 1.53-1.17 2.15-.69.76-1.82-.37-1.13-1.13l.069-.074c.322-.348.724-.782.621-1.286a1.967 1.967 0 0 0-.13-.386 2.146 2.146 0 0 1-.18.076c-.76.28-1.74.25-2.53.16-.85-.09-1.72-.51-1.94-1.38-.22-.87.43-1.69 1.18-1.97s1.77-.14 2.53.08a2.8 2.8 0 0 1 .59.247Zm-.713 1.446c-.378-.219-.845-.262-1.287-.293-.25-.02-.45-.01-.68.08a.283.283 0 0 0-.062.035.275.275 0 0 0-.018-.035s-.033.022-.001.054c-.019.023-.01.041.003.045.01.003.024-.003.024-.025l.034.016c.576.239 1.29.181 1.908.131h.012l.056-.007h.011ZM12.09 11.03c1.39.95 2.82 2.13 3.37 3.79a6 6 0 0 1 .223.937 5.569 5.569 0 0 0-.783-.237c-1.1-.246-2.323-.075-2.963.82a.81.81 0 0 0-.377.43l.01.01c-.886 2.253-1.77 4.506-2.654 6.758A7994.33 7994.33 0 0 1 5.22 32.94l-.92 2.33c-.22.57.44 1.16.98.98 5.32-1.73 10.64-3.46 15.96-5.2l2.181-.708c.815-.107 1.285-1.008 1.33-1.942a7.836 7.836 0 0 0-.262-2.28c.07.002.14.005.211.01.646.042 1.443.163 2.124.424-.327.59-.304 1.4.166 1.906.63.68 1.68.52 2.18-.22a1.7 1.7 0 0 0 .276-1.187c1.086-.06 2.213.088 3.254.307 1 .21 1.43-1.33.43-1.54-1.12-.24-2.26-.37-3.4-.36-.424.004-.885.015-1.323.096-.566-.36-1.263-.573-1.887-.736a8.398 8.398 0 0 0-2.575-.293 12.87 12.87 0 0 0-.685-1.377 12.791 12.791 0 0 1 7.18-.02c.99.29 1.41-1.25.43-1.54a14.392 14.392 0 0 0-8.513.169c-1.022-1.412-2.263-2.684-3.517-3.85-.46-.426-.947-.847-1.469-1.22-.014-.84-.136-1.67-.431-2.469-.73-2-2.33-3.4-4.04-4.57-.85-.58-1.65.8-.81 1.38Zm10.244 13.791c-.463.154-.908.37-1.324.659-.84.58-.04 1.97.81 1.38h-.02c.348-.24.714-.415 1.094-.535.08.294.143.593.186.895.06.44.13.97.04 1.4v.06a2.436 2.436 0 0 1-.034.091l-.02.007.004-.058c.08.02-.2-.2-.2-.2a4.158 4.158 0 0 0-.6-.381c-.107-.06-.212-.118-.31-.18-1.99-1.24-3.95-2.55-5.57-4.25-1.606-1.685-2.927-3.91-3.232-6.298a.937.937 0 0 0 .032-.081c.26-.75 1.84-.13 2.26.07.102.049.202.1.3.154-.062.98-.255 1.962-.44 2.903v.003c-.2 1.01 1.34 1.44 1.54.43.146-.738.294-1.498.396-2.264.266.231.523.472.774.714.99.944 1.955 1.943 2.789 3.034-.363.17-.72.355-1.069.556-.89.51-.09 1.9.81 1.38.384-.22.777-.42 1.179-.598a13.4 13.4 0 0 1 .605 1.109Zm5.486 2.529c-.004-.003-.002-.005.006-.006-.003.004-.004.006-.006.006Zm-15.717-7.624c.625 1.844 1.684 3.514 3.027 4.964 1 1.08 2.15 2.02 3.35 2.88l.059.042c.835.603 1.71 1.235 2.608 1.79A8797.39 8797.39 0 0 0 7.13 33.97l-.715.232 2.07-5.27c1.205-3.07 2.41-6.14 3.618-9.206Z M24 9.68c-.03 1.58-.63 2.95-1.49 4.25-.283.43-.582.85-.882 1.268-.556.78-1.113 1.56-1.568 2.412-.48.91.9 1.72 1.38.81.46-.866 1.026-1.658 1.593-2.45.343-.481.686-.962 1.007-1.46.94-1.47 1.53-3.07 1.56-4.83.02-1.03-1.58-1.03-1.6 0Zm6.88 6.74c-1.24 1.24-2.97 1.71-4.65 1.91v-.01c-.43.05-.8-.41-.8-.8 0-.47.37-.75.8-.8 1.128-.127 2.314-.449 3.21-1.16-.813-.516-1.334-1.436-1.11-2.48.17-.81.76-1.59 1.52-1.93.84-.38 1.78-.1 2.18.75.308.652.345 1.371.199 2.068.868-.561 1.563-1.553 2.01-2.368.49-.9 1.87-.09 1.38.81-.88 1.607-2.424 3.338-4.348 3.568a4.915 4.915 0 0 1-.391.442Zm-.431-2.116c.123-.263.208-.543.24-.824a2.07 2.07 0 0 0-.083-.904c-.024.014-.069.031-.108.046a.746.746 0 0 0-.068.028c-.4.26-.73.88-.43 1.31.11.16.27.273.449.344Zm.106-1.774c.003-.003.02-.001.035.019-.031-.005-.04-.015-.035-.019Z"/>
</svg>
