<svg xmlns="http://www.w3.org/2000/svg" width="40" height="40" fill="none" viewBox="0 0 40 40">
  <path class="display-icon__fill-2" fill="#B6E5FF" d="M7.27 1.29h23.81c.03.16.07.3.07.44 0 3.76.08 7.53-.07 11.28-.07 1.62-.43 3.3-.99 4.82-1.25 3.35-3.9 5.01-7.38 5.36-4.42.44-8.48-.32-11.61-3.81-1.8-2.01-2.68-4.47-3.24-7.05-.77-3.62-.62-7.29-.59-11.04Z"/>
  <path class="display-icon__fill-1" fill="#52B0FF" d="m7.19 35.61 4.26-13.85s3.24 3.4 8.3 3.28c5.06-.12 6.25-1.02 9.07-3.13l3.25 13.5s-5.68 4.52-12.35 4.06c-6.67-.46-12.53-3.86-12.53-3.86Z"/>
  <path class="display-icon__ink" fill="#1C1D1F" d="M11.2 23.47c-.51.45-.99.94-1.45 1.44v-.01c-.7.76-1.82-.37-1.13-1.13.84-.92 1.82-1.98 2.92-2.6.861-.486 1.412-.039 2.068.493l.182.147.53.422.002.001c.399.318.796.635 1.198.947l.09.073c.152.123.366.297.44.297.101-.008.537-.442.772-.675.065-.065.116-.115.138-.135l1.67-1.475 1.67-1.475c.31-.27.83-.34 1.13 0a31.37 31.37 0 0 0 3.275 3.215 19.422 19.422 0 0 1 5.305-5.595c.84-.6 1.64.79.81 1.38-2.16 1.53-3.91 3.52-5.2 5.83-.28.49-.87.47-1.26.16a30.654 30.654 0 0 1-3.56-3.304l-1.04.92-1.67 1.474c-.105.093-.212.194-.323.299-.623.59-1.335 1.264-2.227.94-.38-.13-.718-.419-1.036-.69-.093-.08-.184-.157-.274-.23a27.443 27.443 0 0 0-.522-.397c-.359-.27-.72-.54-1.048-.842-.115-.106-.18-.186-.225-.241-.041-.052-.065-.08-.093-.087-.037-.008-.082.021-.186.09l-.106.068c-.261.16-.494.37-.722.575l-.024.021-.104.094Zm12.559-7.375h.002c1.097-.037 2.194-.075 3.289-.115 1.03-.04 1.03-1.64 0-1.6l-6.58.23c-1.03.04-1.03 1.64 0 1.6 1.094-.04 2.192-.077 3.289-.115Zm6.801-3.115-10.24-.15c-1.03-.01-1.03-1.61 0-1.6l10.24.15c1.03.01 1.03 1.61 0 1.6ZM14.9 10.33c-1.61-.73-3.43-.56-4.82.55-1.27 1.01-2.04 2.85-1.41 4.43.63 1.58 2.23 2.48 3.85 2.6 1.62.12 3.2-.73 3.95-2.16.43-.81.56-1.7.38-2.59-.19-.96-.75-1.8-1.39-2.52a.714.714 0 0 0-.454-.223.564.564 0 0 0-.116-.067l.01-.02Zm-.81 1.4c.09.041.184.07.278.084.7.813 1.186 1.835.832 2.866-.3.87-1.15 1.53-2.09 1.63-1 .11-2.14-.31-2.73-1.15a1.79 1.79 0 0 1-.233-.45 67.94 67.94 0 0 1 2.853.07c.46.02.77-.38.8-.8.064-.77.103-1.546.12-2.32.057.021.114.045.17.07Zm-1.768-.18c-.01.536-.03 1.07-.063 1.604a82.058 82.058 0 0 0-1.966-.042c.133-.273.315-.526.527-.742a2.97 2.97 0 0 1 1.502-.82Z M19.09 4.22c-.02.333-.013.667-.006 1l.003.155c-4.928.048-9.855.15-14.777.255a.753.753 0 0 0-.566.246c-.186.125-.313.337-.304.634.174 6.884.163 13.768.153 20.652L3.59 29.04c0 .44.37.79.8.8 3.432.116 6.864.16 10.295.16-.494.913-1.037 1.8-1.58 2.685a61.413 61.413 0 0 0-1.515 2.565c-.5.9.89 1.71 1.38.81.47-.849.976-1.676 1.482-2.504.714-1.167 1.428-2.334 2.036-3.56a596.03 596.03 0 0 0 6.949-.069.873.873 0 0 0 .053.123c.158.296.315.594.472.893.378.722.758 1.447 1.168 2.147.126.214.26.423.396.632a12.677 12.677 0 0 1 1.005 1.815c.082.172.165.344.249.513.19.39.74.49 1.09.29.39-.23.48-.71.29-1.09l-.185-.383v-.001c-.167-.345-.333-.691-.515-1.026-.153-.28-.325-.548-.498-.817a15.66 15.66 0 0 1-.452-.733c-.413-.713-.796-1.441-1.178-2.166l-.118-.224c1.373-.022 2.746-.046 4.119-.07h.002c2.012-.036 4.023-.071 6.035-.1.44 0 .79-.36.8-.8.064-4.426.07-8.852.076-13.278.005-3.124.009-6.248.034-9.372 0-.44-.37-.79-.8-.8-4.93-.133-9.862-.156-14.793-.12l-.003-.14a12.49 12.49 0 0 1 .006-1c.01-.2-.1-.43-.23-.57a.793.793 0 0 0-.57-.23c-.2.01-.42.08-.57.23-.15.15-.22.34-.23.57ZM5.192 28.265c.018-7.017.03-14.034-.135-21.05 9.872-.2 19.753-.398 29.616-.156-.024 3.043-.028 6.087-.031 9.13-.005 3.984-.01 7.968-.061 11.953-1.7.025-3.398.055-5.097.084-8.1.14-16.199.28-24.292.039Z"/>
</svg>
