<svg xmlns="http://www.w3.org/2000/svg" width="40" height="40" fill="none" viewBox="0 0 40 40">
  <path class="display-icon__fill-2" fill="#B6E5FF" d="M18.9 17.16c.81 3 .66 5.75-1.25 8.19-1.38 1.77-3.27 2.77-5.39 3.33-2.23.59-4.45.62-6.57-.42-2.85-1.4-4.27-3.86-4.86-6.86-.55-2.79-.07-5.41 1.97-7.47 2.77-2.8 6.2-3.8 10.04-2.95 2.76.61 4.55 2.5 5.64 5.06.17.4.31.82.42 1.12Z"/>
  <path class="display-icon__fill-1" fill="#52B0FF" d="m35.49 36.77-18.02-7.79s4.19-7.13 3.83-10.41c-.36-3.28-.27-4.63-3.91-7.27l16.63-3.6s5.7 6.75 5.47 14.53c-.23 7.78-4 14.54-4 14.54Z"/>
  <path class="display-icon__ink" fill="#1C1D1F" d="M15.672 24.514c-1.666-.06-3.338-.142-5.002-.254-.44-.03-.79-.35-.8-.8-.06-2.29-.06-4.57-.02-6.86.01-.44.36-.8.8-.8l3.96-.03c.31-.01.63-.01.94-.01h.4a.448.448 0 0 1 .03-.12l.013-.196c.009-.12.017-.237.017-.354l.009-.223.002-.037.001-.038c.01-.204.018-.41.018-.612.009-.48-.033-.973-.074-1.465-.053-.623-.106-1.247-.056-1.845.08-.95.87-1.13 1.68-1.13.8-.013 1.6-.009 2.4-.004.4.002.8.004 1.2.004.167 0 .366-.015.579-.031.717-.055 1.604-.124 2.051.331.49.498.51 1.608.523 2.435.004.203.007.39.017.545.063.947.076 1.894.05 2.84l.68.01c.503.008 1.005.015 1.51.02.246.003.513-.009.787-.021.65-.03 1.34-.06 1.903.101.59.17.81.65.85 1.21.041.668.03 1.35.02 2.027-.005.306-.01.611-.01.913.002.215.021.47.042.747.095 1.272.223 2.994-1.132 3.273-.595.128-1.255.1-1.895.072-.264-.01-.524-.022-.775-.022h-2.159l-.003.242c-.009.689-.018 1.377-.018 2.068-.003.275.005.558.012.843.017.628.034 1.269-.062 1.867-.237 1.438-1.898 1.323-3.166 1.236-.232-.016-.45-.031-.644-.036-.225-.005-.484.003-.76.01-1.275.039-2.936.088-3.47-1.07-.28-.603-.346-1.375-.404-2.068l-.003-.037a16.417 16.417 0 0 1-.04-2.731Zm1.56-.61c.047.105.07.23.058.376-.09 1.3-.07 2.61.17 3.89l.02.12c.034.212.057.355.21.44.147.082.63.07.915.063l.155-.003c.59.03 1.19.05 1.78.06.167.003.361.02.565.037.48.04 1.016.085 1.395-.027a2.56 2.56 0 0 1 .09-.012v-.318c-.034-.23-.022-.495-.01-.748.005-.122.01-.241.01-.352.02-1.35.03-2.69.04-4.03 0-.43.36-.8.8-.8.92-.01 1.85-.01 2.77-.01h1.29c.092 0 .203.009.322.018.251.02.54.042.771-.006.094-.506.05-1.118.008-1.68-.02-.288-.04-.562-.04-.802v-1.47c0-.092-.013-.22-.027-.362-.026-.26-.055-.565-.02-.776-.129-.002-.256-.002-.384-.002-.5-.01-1.01-.02-1.51-.02-1-.02-2.01-.03-3.02-.04-.42 0-.82-.36-.8-.8.05-.97.06-1.93.02-2.9a26.697 26.697 0 0 1-.01-.509c-.011-.611-.022-1.28-.146-1.875l-.01-.001a2.138 2.138 0 0 0-.174-.015h-3.96c-.104 0-.233-.012-.37-.024-.21-.02-.439-.04-.633-.024-.007.278.037.604.076.899.027.199.051.383.057.53.02.61.02 1.21 0 1.82-.003.126-.002.271 0 .428.008.694.02 1.602-.43 2.051-.485.478-1.442.416-2.209.367a9.384 9.384 0 0 0-.58-.027l-2.986.024c-.028 1.774-.02 3.543.017 5.317 1.67.103 3.34.177 5.018.23.576.016.83.524.762.963Z M36.32 19.956c-.098-6.833-4.334-12.991-10.76-15.396-6.44-2.41-14.06-.35-18.42 5.01C2.78 14.93 2.2 22.5 5.71 28.4c3.51 5.9 10.51 9.03 17.27 7.76 7.695-1.447 13.23-8.364 13.34-16.116v-.088Zm-1.6.044c0 .04.003.079.008.116-.116 6.125-3.935 11.727-9.748 13.844-5.85 2.13-12.5.33-16.5-4.41S3.9 17.76 7.09 12.41c3.19-5.35 9.54-8.21 15.63-6.99 6.94 1.38 11.92 7.54 12 14.58Z"/>
</svg>
