<svg xmlns="http://www.w3.org/2000/svg" width="40" height="40" fill="none" viewBox="0 0 40 40">
  <path class="display-icon__fill-2" fill="#B6E5FF" d="M20.09 27.37c-4.34-.1-7.96-1.39-10.49-4.92-1.82-2.55-2.42-5.47-2.34-8.54.09-3.22.92-6.21 3.16-8.65 3-3.27 6.86-4.21 11.11-3.81 3.96.37 7.28 2.04 9.24 5.6 2.65 4.82 2.65 9.82 0 14.63-1.91 3.46-5.14 5.11-9.01 5.57-.61.07-1.22.09-1.66.12h-.01Z"/>
  <path class="display-icon__fill-1" fill="#52B0FF" d="M39.04 31.11.48 31.05v-3.78l38.57.06v3.78h-.01Z"/>
  <path class="display-icon__ink" fill="#1C1D1F" d="M23.013 12.67c-.29.689-.638 1.346-.985 2.002-.3.568-.6 1.134-.861 1.719l-.176.42-.036.087a2.824 2.824 0 0 1-.035.086l-.01.023-.025.053c-.153.312-.306.625-.459.927-.156.304-.31.609-.46.916l-.016-.027a19.743 19.743 0 0 1-.58-1.053 18.07 18.07 0 0 1-.318-.663 5.064 5.064 0 0 1-.098-.211 8.422 8.422 0 0 0-.088-.195l-.033-.083c-.088-.228-.198-.413-.428-.543a.96.96 0 0 0-.712-.098c-.438.142-.832.652-.646 1.13.362.902.789 1.782 1.282 2.618.235.4.46.803.678 1.217-.064.417.318.866.737.972.11.027.213.037.313.032a.821.821 0 0 0 .495-.125.957.957 0 0 0 .415-.542v-.001a52.09 52.09 0 0 1 1.246-2.556c.051-.105.104-.209.156-.313a17.212 17.212 0 0 0 .526-1.133c.018-.037.032-.075.047-.113.015-.038.03-.075.047-.113 0-.022.118-.27.035-.076.2-.425.43-.825.661-1.23l.08-.14c.447-.808.823-1.65 1.188-2.502.188-.453-.212-1.003-.694-1.121-.564-.14-1.023.172-1.223.636h-.023Zm-4.125 4.14.01.024a.16.16 0 0 0-.002-.006l-.008-.018Z M19.49 3.618c-3.983.097-7.885 1.641-10.844 4.37a.762.762 0 0 0-.348.33c-.421.413-.821.85-1.198 1.312-4.34 5.32-4.92 12.98-1.36 18.86 3.56 5.88 10.49 8.91 17.21 7.63 7.615-1.45 13.09-8.28 13.257-15.943a.953.953 0 0 0 .013-.167c-.08-6.87-4.35-13.06-10.83-15.43a15.988 15.988 0 0 0-5.354-.967.704.704 0 0 0-.296-.043.923.923 0 0 0-.25.048Zm-.527 1.684a35 35 0 0 1 .047 3.088c-.01.44.4.86.84.84.44-.02.83-.37.84-.84a34.73 34.73 0 0 0-.047-3.091c.679.038 1.36.124 2.037.26a14.62 14.62 0 0 1 6.656 3.264A15.73 15.73 0 0 0 27.4 10.77c-.15.18-.25.36-.25.6a.857.857 0 0 0 .85.85c.21 0 .46-.08.6-.25A15.554 15.554 0 0 1 30.555 10a14.985 14.985 0 0 1 3.916 8.819c-1.25.095-2.5.128-3.74.09-.44-.01-.86.4-.84.84.02.44.37.83.84.84a34.63 34.63 0 0 0 3.786-.094 15.128 15.128 0 0 1-3.742 9.315 16.205 16.205 0 0 0-2.415-2.51c-.18-.15-.36-.25-.6-.25a.857.857 0 0 0-.85.85c0 .21.08.46.25.6.87.72 1.65 1.53 2.34 2.41l-.13-.17.03.03c.067.086.131.162.205.227a14.289 14.289 0 0 1-4.815 2.883c-1.49.529-3.033.803-4.568.839a1.99 1.99 0 0 0 .018-.119l-.01.01c.15-1.13.16-2.27.06-3.4-.02-.23-.08-.43-.25-.6a.857.857 0 0 0-.6-.25c-.42.02-.89.37-.84.84.11 1.13.09 2.27-.06 3.4a.39.39 0 0 0-.004.063 14.888 14.888 0 0 1-8.987-4.09 35.382 35.382 0 0 1 2.631-2.763c.32-.3.33-.89 0-1.19a.878.878 0 0 0-1.19 0 35.29 35.29 0 0 0-2.587 2.711c-1.961-2.392-3.062-5.375-3.249-8.422 1.034.097 2.074.077 3.106-.02.44-.04.87-.36.84-.84-.02-.42-.37-.89-.84-.84a16.675 16.675 0 0 1-3.116.019c.118-2.384.798-4.747 2.066-6.838a14.8 14.8 0 0 1 1.883-2.473 34.569 34.569 0 0 1 2.227 2.163c.3.32.89.33 1.19 0 .3-.33.32-.85 0-1.19a34.47 34.47 0 0 0-2.19-2.13 14.83 14.83 0 0 1 8.643-3.458Z"/>
</svg>
