<svg xmlns="http://www.w3.org/2000/svg" width="40" height="40" fill="none" viewBox="0 0 40 40">
  <path class="display-icon__fill-2" fill="#B6E5FF" d="M20.34 30.67c-3.62-.08-6.64-1.12-8.74-3.95-1.52-2.05-2.02-4.39-1.95-6.86.07-2.59.77-4.99 2.63-6.94 2.5-2.63 5.72-3.38 9.26-3.06 3.3.29 6.07 1.64 7.7 4.49 2.21 3.87 2.2 7.88 0 11.75-1.59 2.78-4.29 4.1-7.51 4.47-.51.06-1.02.07-1.39.1Z"/>
  <path class="display-icon__fill-1" fill="#52B0FF" d="m30.448 2.993.002-.003.01.01-.012-.007ZM22.38.52c4.227.28 7.836 2.338 8.068 2.473L26.14 10.38s-2.47-1.54-4.68-1.52c-2.06.03-3.16.14-5.25 1.18l-2.12-6.89S18.01.23 22.38.52ZM13.2 28.94l-5.47 6.65h.01s3.31 2.72 7.57 3.67c4.26.95 8.61-1.36 8.61-1.36l-.96-7.12c-2.24.72-3.34.66-5.38.37-2.2-.31-4.38-2.21-4.38-2.21Z"/>
  <path class="display-icon__ink" fill="#1C1D1F" d="M5.17 20.16c.09 3.17 1.52 6.93 4.12 8.87l.01-.01c.81.61.02 2-.81 1.38-2.99-2.23-4.65-6.16-4.89-9.83-.27-4.05 1.81-7.24 4.3-10.24 2.32-2.8 5.02-5.34 8.76-6.34 3.246-.868 6.123-.23 8.748 1.504a9.935 9.935 0 0 1-.05-.352c-.033-.24-.066-.483-.128-.722-.27-1 1.27-1.42 1.54-.43.25.94.72 2.78-.16 3.54a1.066 1.066 0 0 1-.519.232l-.011.004c-.716.297-1.362.565-2.162.5l-.028.004v-.005a3.13 3.13 0 0 1-.2-.025c-.97-.15-.6-1.48.21-1.57.094-.01.198-.026.306-.048-2.33-1.437-4.89-1.81-7.696-.912-2.94.94-5.28 3.14-7.23 5.45-2.22 2.62-4.22 5.41-4.11 9Zm29.55-1.88c-.26-3.62-1.96-7.01-4.58-9.49l.01.01c-.75-.71.38-1.84 1.13-1.13 2.93 2.78 4.75 6.58 5.04 10.62.32 4.5-1.55 8.45-4.45 11.78-4.462 5.105-12.962 8.751-18.735 4.23.009.265.024.532.045.8.07.94-1.31 1.03-1.57.21-.33-1.07-.37-2.11-.15-3.21a.664.664 0 0 1 .198-.349c.123-.275.381-.442.722-.471.93-.09 1.81-.03 2.72.13 1.01.17.58 1.72-.43 1.54a7.479 7.479 0 0 0-.745-.097c5.172 4.266 12.835.642 16.815-3.923 2.63-3.02 4.26-6.58 3.98-10.65Z M21.26 17.09c.23-.47.37-.8.54-1.23v-.02c.16-.42.52-.66.98-.56.39.09.71.59.56.98-.23.596-.501 1.169-.774 1.744-.13.274-.26.548-.386.826l-.006.014a3.028 3.028 0 0 1-.019.04c-.009.026-.02.05-.03.076l-.035.09c-.02.06-.042.12-.065.18-.022.06-.045.12-.064.18l-.026.074c-.092.267-.186.54-.304.796-.074.16-.165.311-.256.462a9.488 9.488 0 0 0-.134.228c-.06.109-.12.218-.17.327.002-.001 0 .009-.01.043a1.127 1.127 0 0 1-.04.162l-.01.038a.71.71 0 0 1-.262.411.882.882 0 0 1-.338.199c-.41.13-.86-.16-.98-.56a5.982 5.982 0 0 1-.04-.11l-.021-.06a6.237 6.237 0 0 0-.404-.677c-.076-.116-.153-.233-.226-.353-.266-.424-.449-.881-.632-1.341l-.047-.12c-.08-.2-.02-.43.08-.62s.28-.31.48-.37c.2-.06.45-.02.62.08.2.11.29.28.37.48a15.189 15.189 0 0 0 .153.37l.008.02c.117.264.255.512.405.756l.024-.045c.01-.025.022-.05.034-.075.013-.025.026-.05.035-.075l.99-2.36Z M30.246 20.232c-.125-4.132-2.679-7.822-6.566-9.312a9.71 9.71 0 0 0-3.335-.634.693.693 0 0 0-.246-.036.867.867 0 0 0-.216.04c-2.438.076-4.846 1.024-6.655 2.703a.684.684 0 0 0-.184.175 9.53 9.53 0 0 0-.724.792c-2.69 3.3-3.07 7.98-.89 11.62 2.18 3.64 6.43 5.51 10.58 4.77 4.77-.86 8.18-5.16 8.25-9.95a.894.894 0 0 0-.014-.168ZM12.81 16.03c.274-.457.588-.883.935-1.273.384.35.752.715 1.104 1.093.14.15.37.23.57.23.2 0 .43-.09.57-.23.3-.33.31-.81 0-1.13a22.478 22.478 0 0 0-1.069-1.055 8.652 8.652 0 0 1 4.436-1.752c.021.507.022 1.017.003 1.527-.01.42.38.82.8.8a.83.83 0 0 0 .8-.8c.013-.511.01-1.019-.01-1.527a8.438 8.438 0 0 1 4.427 1.797c-.32.288-.62.596-.896.93-.08.07-.13.16-.17.26-.05.1-.07.2-.07.31 0 .2.09.43.23.57.14.14.35.24.57.23.2 0 .43-.07.57-.23a9.2 9.2 0 0 1 .919-.963 8.73 8.73 0 0 1 2.05 4.59 18.8 18.8 0 0 1-1.9.023c-.42-.01-.82.38-.8.8.02.42.35.79.8.8.654.017 1.3.006 1.952-.03a8.79 8.79 0 0 1-1.918 4.795 9.369 9.369 0 0 0-1.233-1.245.654.654 0 0 0-.26-.17.67.67 0 0 0-.31-.07c-.2 0-.43.09-.57.23-.14.14-.24.35-.23.57 0 .2.07.43.23.57.46.38.88.8 1.256 1.259a8.29 8.29 0 0 1-2.566 1.481 8.46 8.46 0 0 1-2.311.477 8.635 8.635 0 0 0 0-1.797c-.02-.22-.08-.41-.23-.57a.81.81 0 0 0-.57-.23c-.2.01-.42.08-.57.23-.14.15-.25.36-.23.57a9.92 9.92 0 0 1 0 1.75 8.635 8.635 0 0 1-4.726-2.147 19.14 19.14 0 0 1 1.386-1.433.81.81 0 0 0 .23-.57c0-.2-.09-.43-.23-.57-.33-.3-.81-.31-1.13 0-.468.445-.918.909-1.342 1.387a8.47 8.47 0 0 1-1.655-4.266c.523.03 1.053.014 1.578-.03.22-.02.41-.08.57-.23a.81.81 0 0 0 .23-.57.876.876 0 0 0-.23-.57c-.15-.14-.36-.25-.57-.23a9.791 9.791 0 0 1-1.587.03 8.478 8.478 0 0 1 1.167-3.62Z"/>
</svg>
