<svg xmlns="http://www.w3.org/2000/svg" width="40" height="40" fill="none" viewBox="0 0 40 40">
  <path class="display-icon__fill-2" fill="#B6E5FF" d="M.49 38.82c.81-2.15 1.66-4.21 2.33-6.33.4-1.24.99-2.06 2.33-2.21.27-.03.53-.2.79-.32 1.31-.64 1.96-1.59 1.88-2.73-.11-1.5-.91-2.67-2.31-3.01-1.17-.28-2.41-.31-3.62-.45-.15-.02-.29-.01-.53-.02.4-1.08.78-2.09 1.16-3.1.84-2.2 1.7-4.4 2.51-6.61.2-.55.44-.77 1.06-.76 2.15.03 4.27.16 6.33.84 3.09 1.02 5.07 3.14 6.12 6.18 1.18 3.43 1.4 6.84-.31 10.17-1.32 2.57-3.48 4.28-6.02 5.54-3.56 1.76-7.36 2.59-11.3 2.85-.11 0-.21-.01-.43-.03l.01-.01Z"/>
  <path class="display-icon__fill-1" fill="#52B0FF" d="m39.49 25.96-18.52 2.09s.09-7.85-1.76-10.38c-1.85-2.53-2.41-3.68-6.65-4.15L24.57 2.7s7.88 2.87 11.36 9.39c3.49 6.52 3.56 13.86 3.56 13.86v.01Z"/>
  <path class="display-icon__ink" fill="#1C1D1F" d="M27.11 4.27a.804.804 0 0 0-.297-.199c-1.076-.651-2.609-1.122-3.503.1-.77 1.06-.41 2.9-.05 4.04.058.185.122.369.192.549l-6.201 6.37-.264.27c-1.537 1.566-3.226 3.287-2.886 5.67.126.875.5 1.692 1.05 2.36-.437.56-.895 1.1-1.422 1.58-.45.41-.921.796-1.392 1.182-.23.189-.46.377-.688.568-.69.58-1.31 1.17-1.92 1.8-.5.516-1.007 1.05-1.441 1.629a.904.904 0 0 0-.3-.083c-.803-.327-1.642-.485-2.487-.086-.37.18-.69.46-.97.76l-.126.138a8.164 8.164 0 0 1-.344.363c-.047.05-.097.102-.15.149-.015.015-.033.03-.05.045a.902.902 0 0 0-.05.045c-.029.019-.137.109-.04.035-.345.27-.476.663-.27 1.075.154.3.4.51.655.726l.075.064c.28.24.56.49.81.76s.48.53.7.81l.035.05.01.013.025.037.044.06c.035.047.068.09.096.14l.009.013c.146.215.286.42.52.547.55.31 1.09.02 1.5-.38.29-.29.57-.58.84-.89l.059-.065c.234-.261.485-.541.642-.855.23-.45.27-.91.19-1.4a3.192 3.192 0 0 0-.302-.904c.167-.253.31-.42.54-.676.32-.36.65-.72.99-1.06.62-.63 1.27-1.24 1.95-1.81.199-.166.398-.33.596-.493.483-.397.964-.792 1.424-1.217.537-.498.997-1.062 1.447-1.628a4.336 4.336 0 0 0 1.665.588c2.53.34 5.01-1.06 6.84-2.67 1.535-1.355 2.732-3.014 3.927-4.669.58-.803 1.158-1.605 1.775-2.372.833.364 1.709.641 2.577.671 1.45.05 2.85-.73 3.12-2.18.27-1.45-.7-2.43-2-2.68-.32-.06-.636-.105-.948-.15-.868-.123-1.706-.241-2.522-.69a5.924 5.924 0 0 1-2.51-2.66c-.26-.53-.42-1.03-.4-1.61.03-.72-.27-1.27-.77-1.78ZM7.74 31.735a1.8 1.8 0 0 0 .1.095l.06.09c.04.07.08.14.12.22a.5.5 0 0 1 .026.065c0 .003.002.006.003.008.006.02.013.04.022.057l.045.155.005.02.04.135.009.036a.347.347 0 0 0 .01.084v.04a.813.813 0 0 1-.024.087l-.003.012a1.16 1.16 0 0 0-.08.129l-.032.052-.013.02-.012.019-.035.04c-.15.18-.3.35-.46.52-.14.16-.29.31-.44.46l-.004.005c-.074-.096-.15-.19-.226-.284a9.99 9.99 0 0 0-.68-.78 9.1 9.1 0 0 0-.72-.68l-.131-.11.11-.12c.12-.13.25-.27.38-.4l.076-.07c.025-.023.05-.045.075-.07a2.792 2.792 0 0 1 .11-.08c.053-.038.113-.07.174-.102-.038.022.066-.014.115-.031l.02-.007c.06-.02.32-.02.39 0 .391.087.616.188.923.338l.048.047Zm-.348 2.785a.41.41 0 0 1 .029.04l-.029-.04Zm14.212-21.568v-.001l2.604-2.676c1.127 1.825 2.849 3.253 4.752 4.275l.149.08a64.584 64.584 0 0 0-1.436 1.956c-.367.513-.738 1.032-1.12 1.543a52.48 52.48 0 0 1-1.392-1.376c-1.233-1.248-2.465-2.495-3.983-3.364l.426-.437Zm-1.583 1.626c1.027.528 1.893 1.214 2.729 2.032.383.372.758.751 1.132 1.13a50.38 50.38 0 0 0 1.683 1.651c-1.484 1.79-3.191 3.318-5.464 3.929-1.93.52-3.94-.17-4.39-2.28-.385-1.803 1.055-3.204 2.275-4.39.208-.203.41-.4.595-.59l1.44-1.482Zm6.25-8.38-.001.062c-.01.43.1.87.25 1.29.33.94.82 1.81 1.48 2.56 1.28 1.47 3.09 2.29 5.01 2.49l.09.01.032.003c.703.07 2.07.209 1.458 1.217-.65 1.07-2.24.48-3.08.14-2.08-.83-4.18-2.08-5.53-3.92-.74-1.01-1.29-2.2-1.44-3.45a7.455 7.455 0 0 0-.012-.096l-.003-.025c-.052-.412-.153-1.213.135-1.429.375-.267.996.157 1.352.4l.042.029c.23.255.226.374.218.718Z"/>
</svg>
