<svg xmlns="http://www.w3.org/2000/svg" width="40" height="40" fill="none" viewBox="0 0 40 40">
  <path class="display-icon__fill-2" fill="#B6E5FF" d="M.49 38.82c.81-2.15 1.66-4.21 2.33-6.33.4-1.24.99-2.06 2.33-2.21.27-.03.53-.2.79-.32 1.31-.64 1.96-1.59 1.88-2.73-.11-1.5-.91-2.67-2.31-3.01-1.17-.28-2.41-.31-3.62-.45-.15-.02-.29-.01-.53-.02.4-1.08.78-2.09 1.16-3.1.84-2.2 1.7-4.4 2.51-6.61.2-.55.44-.77 1.06-.76 2.15.03 4.27.16 6.33.84 3.09 1.02 5.07 3.14 6.12 6.18 1.18 3.43 1.4 6.84-.31 10.17-1.32 2.57-3.48 4.28-6.02 5.54-3.56 1.76-7.36 2.59-11.3 2.85-.11 0-.21-.01-.43-.03l.01-.01Z"/>
  <path class="display-icon__fill-1" fill="#52B0FF" d="m39.49 25.96-18.52 2.09s.09-7.85-1.76-10.38c-1.85-2.53-2.41-3.68-6.65-4.15L24.57 2.7s7.88 2.87 11.36 9.39c3.49 6.52 3.56 13.86 3.56 13.86v.01Z"/>
  <path class="display-icon__ink" fill="#1C1D1F" d="M25.5 31.7c.117.224.271.402.447.527.129.146.32.243.573.243.667 0 1.334.005 2 .009 1.334.009 2.667.018 4-.009 1.77-.035 1.974-2.483 2.108-4.1.018-.21.034-.405.053-.58.182-1.8.293-3.613.342-5.432.434-.02.878-.184 1.128-.588.211-.343.197-.749.184-1.141v-.03l-.004-.129-.04-2.29a.828.828 0 0 0-.5-.747l-.004-.004a.523.523 0 0 0-.027-.03c-.047-.054-.118-.102-.18-.145l-.013-.009a2.643 2.643 0 0 1-.037-.025c-.012-.012-.028-.02-.045-.03l-.035-.02a3.06 3.06 0 0 0-.27-.11l-.022-.008a.452.452 0 0 0-.148-.032l-.02-.005a91.409 91.409 0 0 0-.18-3.255l-.014-.204c-.105-1.497-.214-3.051-.615-4.496-.21-.75-.49-1.4-1.33-1.51-1.371-.167-2.814-.11-4.238-.055a64.58 64.58 0 0 1-1.766.053c-.292-.153-.638-.087-1.046.302-.714.68-.842 2.084-.94 3.147-.02.219-.038.422-.06.603a59.583 59.583 0 0 0-.365 5.3H21.21c-1.56 0-3.13 0-4.69-.01h-.005a94.624 94.624 0 0 0-.176-3.15l-.021-.314c-.102-1.487-.21-3.047-.639-4.476-.22-.72-.5-1.32-1.31-1.42-.743-.094-1.53-.062-2.306-.03-.383.015-.763.03-1.134.03H8.22c-.284-.13-.618-.053-1.01.32-.713.68-.841 2.084-.938 3.147-.02.219-.04.422-.061.603a59.436 59.436 0 0 0-.364 5.259 4.558 4.558 0 0 0-.278.02l-.016.003c-.295.03-.599.06-.874.138-.39.1-.66.36-.81.73-.21.5-.26 1.1-.26 1.64 0 .96.25 2.28 1.18 2.78.318.171.676.206 1.036.208.037 1.75.124 3.5.296 5.242.02.206.039.419.057.636.1 1.16.21 2.45.733 3.444.114.22.265.396.437.52.128.139.315.23.561.23h6.02c.71 0 1.18-.12 1.53-.81.458-.932.57-2.093.674-3.15.018-.19.036-.378.056-.56.203-1.902.322-3.822.369-5.745a.937.937 0 0 0 .073.005c.513.023 1.027.05 1.54.076.857.045 1.713.09 2.57.114.36.007.725.005 1.088.002l.541-.002c.23-.002.46-.002.692 0 .45 0 .903.002 1.352-.021a67.91 67.91 0 0 0 .297 5.26c.02.206.039.42.057.637.1 1.16.21 2.45.733 3.444Zm2.915-18.389c-.038-.54-.188-2.643-.64-4.17h3.986c.076 0 .174.008.279.017.175.015.372.032.53.015a.32.32 0 0 1 .01.057c.012.26.09.54.166.814.054.191.106.38.134.556.13.81.22 1.62.28 2.44.35 4.13.36 8.33.1 12.47-.09 1.52-.19 3.06-.51 4.56-.005.028-.096.333-.175.595l-.062.206h-4.624c.182-.651.25-1.378.311-2.03.02-.21.039-.412.06-.601.56-4.9.54-9.94.16-14.85l-.005-.079Zm4.046 17.74c-.002-.002-.001-.004 0-.006v.005ZM7.44 22.33c.226-.047.436-.14.608-.321.4-.425.37-1.08.343-1.657a10.15 10.15 0 0 1-.013-.333l-.028-1.745a.638.638 0 0 0-.002-.095v-.001a.769.769 0 0 0-.027-.19c-.102-.483-.437-.833-.913-.977.027-2.155.132-4.336.524-6.42.15.859.217 1.742.283 2.603l.015.195c.31 3.9.32 7.83.1 11.74-.08 1.38-.17 2.778-.389 4.148l-.001-.008c-.13-.82-.21-1.66-.28-2.49a79.264 79.264 0 0 1-.22-4.45Zm-1.628-3.874c-.007.511-.01 1.022-.012 1.533V20c0 .266 0 .532.002.799H5.75l-.064.004a1.996 1.996 0 0 1-.098.006.079.079 0 0 0-.038-.009c-.012-.018-.033-.04-.055-.043l-.015-.027a1.176 1.176 0 0 1-.055-.095 1.176 1.176 0 0 0-.067-.117l-.01-.03-.003-.012a3.118 3.118 0 0 1-.108-.418 2.915 2.915 0 0 0-.027-.128c0-.05 0-.09-.01-.14 0-.045-.002-.093-.005-.14-.002-.048-.005-.095-.005-.14 0-.2 0-.4.02-.6 0-.05 0-.09.02-.14.01-.041.017-.083.024-.123a1.59 1.59 0 0 1 .024-.127l.052-.01a.746.746 0 0 0 .142-.026l.268-.024.074-.003Zm-.316 2.305-.003-.005h-.002l.005.005Zm.032.037-.032-.037c.006.01.013.019.022.028l.006.01h.004Zm.006.007L5.53 20.8h.01l.01.001a.096.096 0 0 1 .005.008H5.54l-.005-.002Zm0 .001-.007-.002.001.001.007.001Zm0 0a.079.079 0 0 0 .021.017l.003-.003s0-.003-.002-.005v-.003a.073.073 0 0 0-.017-.005h-.004Zm-.013-.008-.032-.043c-.007 0-.014 0-.02.004.013-.005.026.015.04.034l.003.005h.009Zm-.007.004.011.002a.08.08 0 0 1-.01-.002Zm.04.022c-.012.01-.024-.001-.036-.018a.1.1 0 0 0 .036.018Zm4.27-7.514c-.038-.54-.188-2.643-.64-4.171h4.044c.087 0 .195.01.31.02a3.3 3.3 0 0 0 .53.02c-.007.254.09.57.184.872.06.196.12.385.146.548.13.81.22 1.62.28 2.44.35 4.13.36 8.33.1 12.47l-.013.21c-.095 1.484-.193 2.998-.527 4.44-.01.057-.082.282-.147.487l-.06.191-.099.007-.074.005H9.305c.177-.645.245-1.364.305-2.01.02-.209.039-.41.06-.6.56-4.9.54-9.94.16-14.85l-.005-.079Zm4.205-4.302c.014-.03.041-.028.04.102-.055-.007-.055-.071-.04-.102Zm-.05 22.011c-.014-.014-.01-.025.006-.033l-.007.033Zm2.6-10.43c.004-.7-.002-1.4-.017-2.1 2.426 0 4.852.01 7.277.02h.563c-.007.494-.01.987-.012 1.48V20c0 .247 0 .494.002.74h-.102l-.435.012c-1.037.027-2.08.055-3.116.028a78.949 78.949 0 0 1-2.615-.114c-.498-.027-.996-.054-1.494-.076h-.05Zm9.444 1.37a1.4 1.4 0 0 0 .216-.2c.382-.42.39-.94.4-1.463v-.077c.005-.146.015-.305.026-.472.06-.919.136-2.067-.669-2.597.024-2.2.125-4.43.526-6.56.15.86.217 1.743.283 2.604l.015.195c.31 3.9.32 7.83.1 11.74-.081 1.38-.17 2.778-.39 4.148v-.008c-.13-.82-.21-1.66-.28-2.49a80.807 80.807 0 0 1-.228-4.82Z"/>
</svg>
