<svg xmlns="http://www.w3.org/2000/svg" width="40" height="40" fill="none" viewBox="0 0 40 40">
  <path class="display-icon__fill-2" fill="#B6E5FF" d="m35.83 6.35-6.16 18.77s-7.81-1.81-11.48-1.5c-3.67.31-7.13.27-10.24 2.13L3.2 9.5s6.77-7.81 15.64-8.3c10.24-.57 17 5.15 17 5.15h-.01Z"/>
  <path class="display-icon__fill-1" fill="#52B0FF" d="M19.74 38.79c-3.15.05-6.3.02-9.36-.83-1.21-.33-2.36-.81-3.32-1.64-1.46-1.26-1.82-2.94-1.8-4.76.03-2.84 1.46-4.66 4.08-5.64 2.11-.78 4.32-1.06 6.55-1.19 3.62-.22 7.23-.23 10.83.3 1.64.24 3.25.62 4.71 1.45 1.68.96 2.59 2.42 2.72 4.32.06.93.02 1.89-.17 2.8-.4 1.96-1.77 3.1-3.54 3.84-2.26.94-4.66 1.18-7.07 1.33-1.2.08-2.41.02-3.62.03l-.01-.01Z"/>
  <path class="display-icon__ink" fill="#1C1D1F" d="m12.36 3.672.38.008.01-.02c1.09.03 1.09 1.71 0 1.69-1.35-.03-2.7-.06-4.05-.01h-.017c-.635.02-1.289.04-1.913.13l-.022.004c-.356.059-.794.132-1.058.406-.288.307-.3.801-.31 1.2v.01c-.02.65-.02 1.3-.02 1.95-.02 1.34-.03 2.69-.04 4.04-.01 1.09-1.69 1.09-1.69 0 .005-.76.012-1.518.02-2.275.007-.758.015-1.515.02-2.275.001-.171 0-.348-.003-.528-.012-1.16-.026-2.446.823-3.312.865-.883 2.257-.945 3.436-.998l.264-.012c1.384-.064 2.776-.036 4.17-.008ZM3.473 27.611l-.023-.871h-.02c-.03-1.09 1.66-1.08 1.69 0l.12 3.89v.008c.02.607.04 1.224.14 1.832.05.28.11.57.19.85l.017.062c.038.14.09.332.193.418.118.085.308.105.46.121l.021.002.06.007a29.784 29.784 0 0 0 2.75.27c1.27.07 2.55.05 3.82-.03.45-.03.84.41.84.84 0 .47-.39.81-.84.84-1.43.09-2.87.1-4.31 0-.72-.05-1.44-.12-2.15-.22l-.13-.017c-.617-.082-1.233-.165-1.7-.623-.46-.45-.65-1.15-.77-1.76-.15-.7-.21-1.41-.24-2.12-.057-1.162-.087-2.33-.118-3.499ZM26.66 5.41l4.27.08c.168.004.35 0 .542-.004.881-.018 1.94-.04 2.498.634.56.68.61 1.72.63 2.55.05 1.43 0 2.86-.09 4.29-.03.45.41.84.84.84.48 0 .81-.39.84-.84.11-1.54.17-3.1.08-4.65-.07-1.17-.28-2.38-1.05-3.31-.92-1.11-2.35-1.17-3.68-1.2l-4.88-.09c-1.09-.02-1.09 1.67 0 1.69v.01Zm4.5 30.93c-1.52.1-3.05.09-4.57-.03l-.03-.02c-.45-.03-.84-.35-.84-.84 0-.43.39-.87.84-.84a30.72 30.72 0 0 0 6.1-.11l.125-.012c.395-.035.885-.079 1.165-.358.28-.29.317-.778.347-1.162l.003-.038c.05-.67.08-1.34.1-2.01.04-1.37.03-2.74-.02-4.11-.04-1.09 1.65-1.08 1.69 0 .06 1.54.06 3.09 0 4.63-.007.161-.01.329-.015.5v.002c-.027 1.177-.06 2.542-.905 3.388-.46.46-1.08.67-1.72.77-.75.12-1.51.19-2.27.24Zm-16.92-9.87c3.43 2.32 7.92 2.02 11.12-.54.36-.28.3-.9 0-1.19-.35-.35-.84-.29-1.19 0-2.63 2.1-6.32 2.13-9.08.27-.9-.61-1.75.85-.85 1.46Zm-2.1-10.4c-.04-.6.05-1.22.49-1.66v-.02c.272-.271.68-.3.999-.133l.011.003c.18.05.42.21.5.39.23.54.37 1.12.32 1.7-.05.58-.21 1.15-.52 1.65-.18.29-.5.44-.84.4a.837.837 0 0 1-.7-.6c-.18-.55-.22-1.13-.26-1.73Zm13.1-1.35c-.22 1.02-.2 2.09.09 3.09.07.25.25.44.49.55.26.11.5.08.75-.04.64-.31.82-1.08.8-1.73-.02-.65-.14-1.27-.38-1.86-.09-.21-.18-.38-.39-.5a.844.844 0 0 0-.31-.108l-.01-.002c-.42-.1-.94.13-1.04.59v.01Zm-6.07 4.44c.069-.971.076-1.952.084-2.929.003-.451.007-.902.016-1.351.03-1.09 1.71-1.09 1.69 0l-.06 2.74-.008.4c-.013.709-.026 1.423-.152 2.13-.3 1.65-1.63 3.04-3.39 2.77-.45-.07-.7-.64-.59-1.04.13-.48.59-.66 1.04-.59.13.02.3-.04.45-.12.19-.1.36-.26.48-.43.33-.45.41-1.04.44-1.58Z"/>
</svg>
