<svg xmlns="http://www.w3.org/2000/svg" width="40" height="40" fill="none" viewBox="0 0 40 40">
  <path class="display-icon__fill-2" fill="#B6E5FF" d="M11.68 18.64c-2.46-2.4-3.85-5.1-3.41-8.49.32-2.45 1.55-4.47 3.25-6.19C13.31 2.15 15.4.87 18.01.67c3.5-.27 6.23 1.27 8.48 3.79 2.09 2.35 3.1 5.1 2.32 8.21-1.07 4.22-3.77 7.1-7.89 8.45-2.97.97-5.73.18-8.21-1.64-.39-.29-.75-.61-1.03-.83v-.01Z"/>
  <path class="display-icon__fill-1" fill="#52B0FF" d="m15.14 39.14-.13-17.22s4.42 1.39 7.97-.21c2.81-1.26 4.22-2.33 5.63-5.48l8.58 11.65s-3.26 6.77-9.37 9.3c-6.12 2.53-12.67 1.95-12.67 1.95l-.01.01Z"/>
  <path class="display-icon__ink" fill="#1C1D1F" d="m23.415 14.249.003.002.002.002-.005-.004Z M20.869 12.569a77.027 77.027 0 0 0-.32-6.79c-.14-1.52-.93-2.17-2.43-2.38-1.28-.19-2.55.08-3.2 1.31-.547 1.033-.52 2.373-.496 3.55l.007.33c.01.823.053 1.646.096 2.47.04.759.08 1.519.094 2.28.055 2.813.13 5.613.242 8.42-1.217-1.25-2.657-2.415-4.242-2.749-1.89-.4-3.71.86-3.97 2.79-.278 2.043 1.667 3.987 2.996 5.317l.034.033c.735.744 1.528 1.43 2.317 2.115l.433.375c.456.398.883.829 1.31 1.26.444.446.886.893 1.36 1.3l.156.134c1.497 1.286 2.98 2.56 4.874 3.226 1.96.69 4.01.8 5.96.5 1.95-.3 3.71-1.25 4.73-2.96 1.25-2.11 1.55-4.73 1.68-7.13.04-.775.06-1.547.08-2.32.02-.772.04-1.545.08-2.32.02-.35.057-.707.095-1.067.1-.938.202-1.897-.015-2.793-.376-1.565-2.083-2.817-3.65-2.337a3.724 3.724 0 0 0-.13-.233c-.38-.63-.95-1.11-1.64-1.37-.586-.214-1.172-.082-1.758.05l-.132.03a3.681 3.681 0 0 0-.433.124c-.19-.407-.529-.725-.907-.944-.81-.48-1.78-.6-2.68-.39-.19.043-.37.1-.541.169Zm-.004 1.875a2.729 2.729 0 0 1 .17-.177l.006-.006a.454.454 0 0 0 .028-.026.786.786 0 0 0 .094-.058 1.229 1.229 0 0 1 .257-.137l-.056.026.015-.005c.023-.008.071-.026.101-.03.14-.04.28-.08.42-.11.022 0 .15-.018.156-.022.025 0 .05-.002.074-.004.04-.002.08-.005.12-.005h.24l.049.003c.013.005.033.01.061.017.147.037.293.073.432.126.005.002.04.02.075.035l.015.007.048.022c.08.04.16.09.23.14l.015.009a.739.739 0 0 1-.025-.019l.003.002a.365.365 0 0 1 .024.019l.016.01-.003-.001a.27.27 0 0 1-.01-.007c.019.016.037.034.05.047l.047.047a.295.295 0 0 0 .013.023c.02.03.04.07.05.1a.321.321 0 0 0-.024-.045l.014.045c0 .026.038.228.035.172.035.346.035.692.035 1.038 0 .79-.03 1.57-.11 2.35-.04.42.4.82.8.8.47-.02.75-.35.8-.8h.01c.093-.879.126-1.757.105-2.636l.004-.005.007-.008.02-.024.011-.007c.024-.015.057-.036.073-.04.07-.04.16-.07.04-.02a5.1 5.1 0 0 1 .62-.165l.24-.055c.04-.01.083-.018.125-.025.043-.008.086-.015.126-.025h.02l.03-.001.088-.004.021.005h.03l-.022-.004c.012 0 .02.002.022.004h.03s.27.12.14.06c.043.018.082.04.12.062l.07.038c.023.015.046.03.069.043l.05.03c.008.012.1.093.121.107a2.674 2.674 0 0 1 .122.13c.001.004.033.044.06.077l.018.023c.08.12.16.25.22.39.02.03.03.06.04.09.01.035.023.067.035.1a.98.98 0 0 1 .035.1c.04.15.08.3.1.45 0 .06.01.12.02.17 0 .045.003.088.005.13.003.043.005.085.005.13 0 .19 0 .38-.01.57-.01.19-.03.38-.05.57 0 .063-.01.127-.019.186-.004.026-.008.05-.01.074 0 .06-.01.12-.02.17l-.011.083-.001.007v.001l.002-.008.007-.026.002-.007c-.06.41.1.88.56.98.38.09.92-.12.98-.56v.03c.115-.83.22-1.692.138-2.525.632-.183 1.357.279 1.582.875.262.672.168 1.465.082 2.197-.019.161-.038.32-.052.473-.092 1.1-.121 2.203-.15 3.305-.022.812-.043 1.625-.09 2.435-.18 3.39-.78 7.68-4.72 8.46-3.15.62-6.24-.26-8.66-2.29-.727-.609-1.402-1.256-2.079-1.905a59.891 59.891 0 0 0-1.421-1.335 86.799 86.799 0 0 0-1.092-.96c-.927-.805-1.849-1.606-2.688-2.51l-.155-.167c-.675-.729-1.487-1.606-1.765-2.543-.34-1.17.54-2.3 1.78-2.16 1.895.2 3.7 2.323 4.921 3.76l.179.21c.281.328.643.319.92.14.26-.102.458-.338.44-.71a260.195 260.195 0 0 1-.324-9.828 101.4 101.4 0 0 0-.066-2.872 44.16 44.16 0 0 0-.064-1.07c-.054-.794-.108-1.587-.066-2.38.009-.162.01-.34.013-.526.011-1.047.026-2.347 1.317-2.364.27 0 .59.03.85.1.49.14.59.28.73.75.138.476.138 1.067.137 1.621 0 .248 0 .49.013.709.17 3.24.2 6.49.09 9.73-.03 1.03 1.57 1.03 1.6 0 .036-1.128.063-2.26.075-3.396Zm4.455.866-.009.008a.123.123 0 0 1 .01-.008Z"/>
</svg>
