<svg xmlns="http://www.w3.org/2000/svg" width="40" height="40" fill="none" viewBox="0 0 40 40">
  <path class="display-icon__fill-2" fill="#B6E5FF" d="M19.16 20.35c-3.33-.08-6.11-1.07-8.05-3.77-1.4-1.96-1.86-4.2-1.79-6.56.07-2.47.71-4.77 2.42-6.64C14.04.87 17 .15 20.27.45c3.04.28 5.59 1.57 7.09 4.3 2.04 3.7 2.03 7.54 0 11.23-1.47 2.66-3.95 3.92-6.92 4.27-.47.06-.94.07-1.28.09v.01Z"/>
  <path class="display-icon__fill-1" fill="#52B0FF" d="M20.32 39.36c-3.94.07-7.89.05-11.73-.99-1.52-.41-2.96-1-4.17-2.04-1.83-1.57-2.29-3.68-2.28-5.96.02-3.56 1.8-5.85 5.08-7.08 2.64-.99 5.41-1.35 8.19-1.53 4.53-.29 9.06-.32 13.56.32 2.06.29 4.07.75 5.91 1.79 2.11 1.19 3.26 3.02 3.42 5.4.08 1.16.03 2.37-.19 3.51-.49 2.46-2.2 3.9-4.42 4.82-2.83 1.19-5.83 1.5-8.85 1.71-1.5.1-3.02.04-4.53.05h.01Z"/>
  <path class="display-icon__ink" fill="#1C1D1F" d="M26.21 23.86c-1.34-.03-2.67-.02-4.01.04-.45.02-.78-.38-.8-.8-.02-.44.38-.78.8-.8 1.34-.06 2.67-.07 4.01-.04a.83.83 0 0 1 .8.8c.02.42-.38.81-.8.8Zm-4.07 1.16c2.44-.02 4.89-.01 7.33.04 1.03.02 1.03 1.62 0 1.6-2.44-.04-4.89-.06-7.33-.04-1.03.01-1.03-1.6 0-1.6Z M32.15 19.48c-2.01.005-4.02-.012-6.03-.028l-.27-.002c-2.1-.018-4.2-.035-6.3-.03a.725.725 0 0 0-.676.394.81.81 0 0 0-.114.396c-.08 1.9-.09 3.79-.08 5.69 0 .96.01 1.93.03 2.89.02.96.43 1.34 1.35 1.34 3.501-.01 7.003-.096 10.498-.184l1.882-.046c.45-.01.77-.36.8-.8.21-2.95.07-5.89-.29-8.82-.05-.43-.32-.8-.8-.8Zm-.462 8.84c-3.49.09-6.978.153-10.468.2-.303-.01-.607-.016-.91-.017v-.454l-.03-2.61c0-1.47.007-2.942.052-4.42 1.839 0 3.678.016 5.518.03h.004c1.863.016 3.725.03 5.589.03.26 2.414.367 4.82.245 7.24Z M36.604 28.886v.082c.004 1.33.009 2.662.016 3.992 0 .45-.37.78-.8.8-4.076.219-8.152.21-12.233.203h-.056a799.208 799.208 0 0 0-3.321-.003c-1.786.003-3.574.059-5.363.115h-.027c-3.45.107-6.902.214-10.34-.055-.45-.03-.78-.34-.8-.8-.23-4.52-.34-9.06-.14-13.59.11-2.27.19-4.52.14-6.79l-.02-.742c-.044-1.714-.089-3.41.099-5.117-.17-.473.07-1.104.72-1.091 1.18.023 2.358.044 3.536.065l1.124.02c1.553.027 3.106.055 4.66.085l.244.003c.992.013 1.711.022 2.396.847.587.691 1.125 1.431 1.662 2.17l.027.037.312.428a.902.902 0 0 1 .16-.015c2.815-.03 5.63.022 8.445.075l.104.002c2.78.051 5.56.102 8.34.073.45 0 .78.37.8.8.27 6.132.293 12.27.315 18.406Zm-1.88-17.6c-2.56.014-5.12-.033-7.68-.081-2.474-.046-4.95-.092-7.425-.082l.036.047c.237.318.475.635.714.95.58.77.99 1.03 1.97 1.03h4.43c.964 0 1.927 0 2.889.002h.01c1.708.002 3.416.004 5.127 0-.021-.622-.044-1.244-.07-1.866ZM20.21 32.36c1.106-.002 2.213 0 3.32.003 3.828.008 7.66.016 11.486-.163-.005-1.151-.01-2.303-.012-3.455-.015-4.663-.03-9.33-.16-13.992-1.714.01-3.432.005-5.15.002l-.353-.001a1469.8 1469.8 0 0 0-3.042-.004c-.49 0-.98.004-1.471.009-.983.009-1.968.018-2.948-.01-1.04-.02-1.68-.28-2.34-1.09a55.493 55.493 0 0 1-1.747-2.292l-.014-.02-.178-.24c-.206-.28-.413-.56-.622-.837-.21-.277-.42-.556-.627-.834l-.087-.116c-.238-.318-.476-.635-.716-.95-.524-.691-.761-.695-1.537-.706a30.88 30.88 0 0 1-.213-.004l-8.512-.155c-.154 1.517-.1 3.05-.047 4.576l.001.032c.02.55.04 1.1.049 1.646.03 1.63-.04 3.245-.11 4.869v.016l-.02.465c-.014.33-.028.66-.04.99-.16 4.122-.072 8.252.123 12.375 3.208.2 6.43.1 9.639 0h.019c1.776-.056 3.547-.11 5.309-.114Z"/>
</svg>