<svg xmlns="http://www.w3.org/2000/svg" width="40" height="40" fill="none" viewBox="0 0 40 40">
  <path class="display-icon__fill-2" fill="#B6E5FF" d="M19.92 39.25c-3.94.07-7.89.05-11.73-.99-1.52-.41-2.96-1-4.17-2.04-1.83-1.57-2.29-3.68-2.28-5.96.02-3.56 1.8-5.85 5.08-7.08 2.64-.99 5.41-1.35 8.19-1.53 4.53-.29 9.06-.32 13.56.32 2.06.29 4.07.75 5.91 1.79 2.11 1.19 3.26 3.02 3.42 5.4.08 1.16.03 2.37-.19 3.51-.49 2.46-2.2 3.9-4.42 4.82-2.83 1.19-5.83 1.5-8.85 1.71-1.5.1-3.02.04-4.53.05h.01Z"/>
  <path class="display-icon__fill-1" fill="#52B0FF" d="M34.44 5.2 29.6 20.94s-3.69-3.86-9.43-3.73c-5.75.14-7.47 1.48-10.16 4.16L6.17 5.42S12.62.29 20.2.82c7.58.53 14.24 4.39 14.24 4.39V5.2Z"/>
  <path class="display-icon__ink" fill="#1C1D1F" d="M29.73 10.14c.157-1.157-.134-2.43-.6-3.43a5.918 5.918 0 0 0-1.82-2.24c-.91-.7-1.85-.81-2.98-.76-2.068.09-3.595 1.134-4.68 2.62a8.61 8.61 0 0 0-1.44-1.26c-1.02-.71-2.28-1.3-3.55-1.15-1.27.15-2.42.87-3.25 1.78-1.15 1.26-1.695 2.976-1.43 4.599-1.157-.156-2.43.134-3.43.601-.88.41-1.66 1.04-2.24 1.82-.7.91-.81 1.85-.76 2.98.086 2 1.067 3.495 2.476 4.573A8.728 8.728 0 0 0 4.91 21.58c-.71 1.02-1.3 2.28-1.15 3.55.15 1.27.87 2.42 1.78 3.25 1.26 1.15 2.975 1.694 4.598 1.43-.156 1.157.135 2.43.602 3.43.41.88 1.04 1.66 1.82 2.24.91.7 1.85.81 2.98.76 2.067-.09 3.594-1.134 4.68-2.62.428.474.917.893 1.44 1.26 1.02.71 2.28 1.3 3.55 1.15 1.27-.15 2.42-.87 3.25-1.78 1.149-1.26 1.694-2.975 1.43-4.599 1.157.157 2.43-.134 3.43-.6.88-.41 1.66-1.04 2.24-1.82.7-.91.81-1.85.76-2.98-.086-2.001-1.067-3.495-2.476-4.574a8.735 8.735 0 0 0 1.117-1.307c.71-1.02 1.3-2.28 1.15-3.55-.15-1.27-.87-2.42-1.78-3.25-1.26-1.15-2.977-1.695-4.6-1.43Zm-2.157.93c-.653.614.079 1.834.868 1.327a.618.618 0 0 0 .365-.24c1.616-.93 3.567-.473 4.805.943.69.79 1.13 1.79.82 2.84-.28.95-.93 1.85-1.63 2.53a4.91 4.91 0 0 1-.371.325c-1.803-.92-3.956-1.363-5.83-1.455a15.345 15.345 0 0 0-5.063.61c.29-2.128.32-4.286.053-6.43-.165-1.315-.348-2.65-.975-3.83.06-.089.12-.175.184-.26.6-.8 1.53-1.68 2.5-1.97.97-.29 2.28-.32 3.11.34.77.61 1.32 1.48 1.57 2.43.213.796.332 1.916-.198 2.618a.638.638 0 0 0-.095.081.732.732 0 0 0-.113.14Zm3.134 8.638c-1.166.397-2.454.504-3.676.582a24.122 24.122 0 0 1-5.72-.33 15.123 15.123 0 0 0-.085-.203l.008-.038a13.682 13.682 0 0 1 5.097-.789c1.454.047 3.002.263 4.376.778Zm-8.805 1.964c2.186.314 4.405.353 6.609.078 1.36-.17 2.74-.36 3.95-1.04l.07-.04a9.397 9.397 0 0 1 .069.05c.8.6 1.68 1.53 1.97 2.5.29.97.32 2.28-.34 3.11-.61.77-1.48 1.32-2.43 1.57-.795.213-1.915.332-2.617-.198a.638.638 0 0 0-.081-.095.732.732 0 0 0-.14-.113c-.616-.657-1.84.078-1.328.87.03.135.106.262.239.362.93 1.616.473 3.566-.944 4.804-.79.69-1.79 1.13-2.84.82-.95-.28-1.85-.93-2.53-1.63a4.962 4.962 0 0 1-.469-.563c.855-1.763 1.271-3.83 1.36-5.637a15.348 15.348 0 0 0-.548-4.848Zm-1.79-.32.032.007c.538 1.568.769 3.23.716 4.89-.043 1.33-.227 2.736-.651 4.016-.305-1.067-.4-2.217-.47-3.315a24.114 24.114 0 0 1 .304-5.568l.07-.03ZM20.13 13a24.11 24.11 0 0 1-.303 5.569l-.068.029-.034-.007a13.72 13.72 0 0 1-.716-4.89c.043-1.33.227-2.736.651-4.017.306 1.067.4 2.218.47 3.316Zm-2.71.43a15.306 15.306 0 0 0 .547 4.848 24.838 24.838 0 0 0-6.607-.078c-1.36.17-2.74.36-3.95 1.04a6.296 6.296 0 0 0-.072.04 8.025 8.025 0 0 1-.068-.05c-.8-.6-1.68-1.53-1.97-2.5-.29-.97-.32-2.28.34-3.11.61-.77 1.48-1.32 2.43-1.57.795-.213 1.916-.331 2.617.198a.783.783 0 0 0 .22.207c.615.658 1.838-.075 1.33-.866a.617.617 0 0 0-.24-.366c-.93-1.615-.473-3.565.943-4.803.79-.69 1.79-1.13 2.84-.82.95.28 1.85.93 2.53 1.63.173.179.328.367.469.563-.855 1.762-1.271 3.83-1.36 5.637Zm-4.58 6.23a24.128 24.128 0 0 1 5.717.33l.086.204-.008.038c-1.628.59-3.362.844-5.096.788-1.454-.046-3.002-.262-4.376-.778 1.166-.396 2.454-.504 3.677-.582ZM18.333 22a24.8 24.8 0 0 0-.053 6.43c.164 1.315.347 2.65.974 3.83a6.47 6.47 0 0 1-.184.26c-.6.8-1.53 1.68-2.5 1.97-.97.29-2.28.32-3.11-.34a4.607 4.607 0 0 1-1.57-2.43c-.213-.796-.332-1.916.198-2.618a.649.649 0 0 0 .094-.081.73.73 0 0 0 .11-.137c.662-.613-.07-1.838-.862-1.332a.617.617 0 0 0-.369.242c-1.614.93-3.564.471-4.801-.944-.69-.79-1.13-1.79-.82-2.84.28-.95.93-1.85 1.63-2.53.12-.116.243-.224.37-.324 1.803.919 3.956 1.363 5.83 1.454 1.716.08 3.428-.127 5.063-.61Z"/>
</svg>
