<svg xmlns="http://www.w3.org/2000/svg" width="40" height="40" fill="none" viewBox="0 0 40 40">
  <path class="display-icon__fill-2" fill="#B6E5FF" d="m.64 29.4 9.93-6.79s1.7 2.57 4.75 4.42c1.73 1.05 2.47 1.37 8.52 2.44l-3.58 9.8s-9.44-.37-13.4-3.04C2.9 33.56.64 29.4.64 29.4Z"/>
  <path class="display-icon__fill-1" fill="#52B0FF" d="M10.37 7.67c2.42-3.98 5.56-6.65 10.18-7.1 3.34-.33 6.38.69 9.18 2.41 2.94 1.81 5.27 4.18 6.33 7.56 1.43 4.54.23 8.62-2.42 12.36-2.46 3.48-5.8 5.66-10.14 5.57-5.9-.12-10.53-2.81-13.57-7.85-2.19-3.63-1.99-7.51-.34-11.35.26-.6.57-1.18.78-1.61v.01Z"/>
  <path class="display-icon__ink" fill="#1C1D1F" d="M4.1 20.64c.01-5.13.06-10.27.13-15.4.01-1.03 1.61-1.03 1.6 0-.07 5.13-.12 10.27-.13 15.4v7.45c.003.74.024 1.486.045 2.233a70.68 70.68 0 0 1 .042 3.012c1.785-1.713 3.104-3.981 4.373-6.162.424-.729.842-1.448 1.27-2.133.57-.91 1.13-1.81 1.69-2.709v-.001c.169-.27.333-.561.5-.856.359-.634.73-1.289 1.18-1.814.827-.958 2.048-.314 3.062.22.225.118.44.23.638.32.95.42 1.89.84 2.83 1.26.152.07.322.163.501.26.41.224.863.471 1.24.52l.17.28c.16-.24.31-.49.45-.75.568-1.035 1.004-2.14 1.44-3.246.33-.839.66-1.677 1.05-2.484 1.78-3.69 4.06-7.11 6.33-10.51.57-.85 1.95-.05 1.38.81l-.06.089c-2.37 3.56-4.756 7.143-6.56 11.04-.313.671-.582 1.374-.853 2.08-.477 1.244-.957 2.498-1.678 3.6-.85 1.311-1.904.8-3.037.249a17.922 17.922 0 0 0-.523-.248c-.545-.245-1.087-.488-1.63-.73l-1.63-.73a8.109 8.109 0 0 0-.45-.183c-.297-.115-.6-.232-.85-.397-.32-.02-.5-.18-.55-.46l-.139.22a3098.632 3098.632 0 0 0-2.197 3.526L11.92 27.31c-.283.455-.562.915-.84 1.376-1.236 2.04-2.48 4.097-4.17 5.766 9.644.274 19.32.174 28.96-.022 1.03-.02 1.03 1.58 0 1.6-10.31.21-20.66.32-30.97-.04-.4-.01-.84-.36-.8-.8.127-1.562.085-3.155.042-4.74-.02-.79-.042-1.579-.042-2.36v-7.45Z"/>
</svg>
