<svg xmlns="http://www.w3.org/2000/svg" width="40" height="40" fill="none" viewBox="0 0 40 40">
  <path class="display-icon__fill-2" fill="#B6E5FF" d="m6.47 37.82 4.16-17.32s7.02 2.64 9.9 1.8c2.88-.84 4.09-.96 5.89-4.62l5.8 14.3s-5.15 6.14-12.14 7.15c-6.99 1.01-13.62-1.31-13.62-1.31h.01Z"/>
  <path class="display-icon__fill-1" fill="#52B0FF" d="M9.5 16.5C7.7 13.55 7 10.57 8.28 7.36c.92-2.32 2.62-3.97 4.71-5.24C15.19.8 17.55.07 20.14.52c3.48.6 5.77 2.78 7.33 5.8 1.46 2.81 1.76 5.75.22 8.59-2.09 3.85-5.44 5.99-9.8 6.28-3.14.21-5.63-1.25-7.6-3.64-.31-.38-.59-.78-.8-1.06l.01.01Z"/>
  <path class="display-icon__ink" fill="#1C1D1F" d="M14.99 4.54c.8-.51 1.77-.92 2.7-1.15 1.14-.32 2.11-.18 3.2.21 1.04.36 2.15.84 2.85 1.72.81 1.02 1.01 2.41.97 3.73-.04 1.32-.49 2.55-1.47 3.46-1.91 1.77-5.05 2.38-7.44 1.34-2.52-1.1-3.51-3.85-2.8-6.42.33-1.16.96-2.23 1.99-2.89Zm3.062.407a7.81 7.81 0 0 0-2.252.973c-.83.53-1.23 1.57-1.38 2.51-.31 1.98.78 3.71 2.73 4.2 1.78.45 4.27-.2 5.4-1.73.59-.82.63-1.9.53-2.87-.08-.81-.35-1.63-1.04-2.12-.56-.4-1.21-.65-1.86-.87-.708-.242-1.265-.325-1.991-.13a.947.947 0 0 1-.069.02.967.967 0 0 1-.068.017ZM13.49 17.6c0-.071.007-.137.02-.199V16.12c0-.44.37-.8.8-.8 3.13-.07 6.26-.11 9.39-.13.43 0 .8.37.8.8 0 1.797.001 3.593.003 5.39v.001c.002 3.593.004 7.186-.003 10.779-.003.288.012.606.027.937.04.871.084 1.828-.177 2.553-.279.776-1.074.776-1.784.777-.104 0-.207 0-.306.003l-7.8.18c-.44.01-.8-.38-.8-.8-.05-6.07-.11-12.14-.17-18.21Zm1.6.054c.048 5.78.105 11.56.162 17.339l2.683-.062h.003c1.186-.028 2.375-.056 3.562-.081l.22-.01a37.51 37.51 0 0 1 1.137-.048c.002-.067.003-.134.003-.202.01-.25.02-.5.02-.75.02-1.14.02-2.28.02-3.42V16.795a588 588 0 0 0-7.8.108v.617a.915.915 0 0 1-.01.134Z"/>
</svg>
