<svg xmlns="http://www.w3.org/2000/svg" width="40" height="40" fill="none" viewBox="0 0 40 40">
  <path class="display-icon__fill-2" fill="#B6E5FF" d="m34.509 5.45-4.71 15.74s-3.59-3.86-9.174-3.73c-5.594.14-7.268 1.48-9.885 4.16L7.004 5.67s6.275-5.14 13.65-4.61c7.375.53 13.855 4.39 13.855 4.39Z"/>
  <path class="display-icon__fill-1" fill="#52B0FF" d="M20.77 38.96c-3.833.07-7.676.05-11.412-.99-1.48-.41-2.88-1-4.058-2.04-1.78-1.57-2.228-3.68-2.218-5.96.02-3.56 1.751-5.85 4.943-7.08 2.568-.99 5.263-1.35 7.968-1.53 4.407-.29 8.815-.32 13.193.32 2.004.29 3.96.75 5.75 1.79 2.053 1.19 3.172 3.02 3.327 5.4.078 1.16.03 2.37-.185 3.51-.476 2.46-2.14 3.9-4.3 4.82-2.753 1.19-5.672 1.5-8.61 1.71-1.46.1-2.939.04-4.408.05h.01Z"/>
  <path class="display-icon__ink" fill="#1C1D1F" d="M20.407 9.63a.717.717 0 0 1 .157.013c.94.085 1.855.349 2.492 1.107.632.76 1.119 1.7 1.303 2.68.321 1.71-.282 3.78-1.936 4.55-1.498.7-3.434.61-4.738-.46-1.46-1.19-1.79-3.18-1.303-4.96a3.97 3.97 0 0 1 1.42-2.11c.711-.55 1.597-.768 2.476-.814a.521.521 0 0 1 .129-.006Zm.012 0h-.01.01Zm-.02 1.4c-.729.02-1.469.18-2.013.7-.506.48-.75 1.1-.827 1.79-.078.64-.098 1.37.204 1.96.263.51.652.95 1.138 1.22.895.5 2.384.48 3.22-.15 1.003-.75 1.14-2.17.78-3.3-.186-.6-.526-1.22-.964-1.67-.399-.41-.992-.51-1.528-.55H20.4Z M24.426 27.38a55.579 55.579 0 0 0 5.636-9.22c1.946-4.04.457-9.24-2.821-12.11-3.279-2.87-8.367-3.15-12.142-.82-3.445 2.13-6.188 5.96-5.653 10.26.185 1.48.525 2.97 1.245 4.28.537.976 1.235 1.941 1.923 2.89.235.326.469.649.694.97a67.706 67.706 0 0 0 2.238 3.006 17.22 17.22 0 0 0-1.382-.116c-.924-.04-1.479.23-2.238.75-.438.3-.743.637-1.07.999-.129.143-.262.29-.409.441-.456.47-.986.553-1.529.64-.383.06-.772.121-1.146.32-1.284.69-1.703 2.43-.827 3.64.924 1.29 2.802 1.27 4.193 1.19 1.187-.07 2.238-.12 3.376.33.35.14.694.294 1.038.448.664.297 1.329.595 2.027.792 1.936.54 3.98.34 5.847-.36.438-.168.87-.358 1.3-.548.47-.208.938-.415 1.415-.592 1.012-.38 1.985-.52 3.045-.65 1.41-.17 2.685-.81 2.958-2.37.292-1.69-.856-3.14-2.316-3.75-.914-.38-1.907-.44-2.88-.37-.87.058-1.686.006-2.522-.05Zm-3.568 4.25a51.696 51.696 0 0 0 2.528-2.915l.06.005c.333.015.67.055 1.011.095.555.066 1.117.132 1.684.095.194-.013.385-.03.575-.047.7-.063 1.374-.124 2.071.057.886.23 1.81.78 2.005 1.75.282 1.4-.915 1.77-1.966 1.89-1.566.17-2.928.59-4.388 1.22-1.955.85-3.95 1.53-6.09 1.06-.778-.175-1.512-.505-2.245-.835-.9-.405-1.8-.81-2.776-.925-.482-.055-1.087.006-1.72.07-1.206.123-2.519.256-3.31-.38-1.109-.9-.165-1.81.75-2.01.155-.032.31-.048.464-.064.233-.024.465-.048.693-.126.613-.21.983-.62 1.392-1.11.447-.54.943-1.02 1.556-1.34.789-.422 2.07-.173 3.045.016.204.04.395.076.565.104a.779.779 0 0 0 .085.01c.94 1.137 1.907 2.252 2.892 3.36.162.183.352.241.53.216.193.046.406-.002.59-.196Zm-.547-1.44c-1.648-1.855-3.276-3.72-4.745-5.73-.299-.41-.61-.824-.924-1.241-1.08-1.435-2.197-2.92-2.958-4.5-1.84-3.79-.857-8.1 2.198-10.83 3.24-2.89 7.95-3.94 11.685-1.39 3.367 2.31 5.128 7.36 3.22 11.14-2.271 4.508-5.091 8.83-8.476 12.55Z"/>
</svg>
