<svg xmlns="http://www.w3.org/2000/svg" width="40" height="40" fill="none" viewBox="0 0 40 40">
  <path class="display-icon__fill-2" fill="#B6E5FF" d="M24.34 39.56c-.29-2.3-.49-4.53-.88-6.73-.23-1.29-.08-2.29 1.05-3.06.23-.15.38-.42.55-.65.87-1.18 1.01-2.33.4-3.31-.8-1.28-2.06-1.96-3.46-1.6-1.18.3-2.29.85-3.43 1.29-.14.05-.27.13-.49.23-.14-1.15-.28-2.23-.41-3.31-.28-2.36-.54-4.71-.85-7.07-.08-.58.03-.89.59-1.18 1.93-.98 3.7-1.07 5.85-1.43 3.23-.53 6.18-.36 8.52 1.86 2.65 2.5 4.45 5.44 4.48 9.21.02 2.91-1.1 5.44-2.77 7.75-2.35 3.23-5.35 5.75-8.74 7.82-.09.06-.2.09-.4.18h-.01Z"/>
  <path class="display-icon__fill-1" fill="#52B0FF" d="m17.6.39 7.78 16.73s-7.4 2.38-9.2 4.92c-1.8 2.53-2.7 3.42-1.8 7.55L.46 21.72S.68 13.42 5.7 8.1C10.73 2.77 17.6.39 17.6.39Z"/>
  <path class="display-icon__ink" fill="#1C1D1F" d="M20 14.63c2.56-.05 5.12-.2 7.67-.47.43-.05.8-.34.8-.8 0-.4-.37-.85-.8-.8-2.55.27-5.1.42-7.67.47-1.03.02-1.03 1.62 0 1.6Zm6.06 3.07c-1.85.1-3.71.28-5.55.56h-.01c-.42.06-.85-.1-.98-.56-.1-.38.13-.92.56-.98a63.1 63.1 0 0 1 5.98-.62c.43-.02.8.38.8.8 0 .45-.37.78-.8.8Zm-5.23 4.33c2.89-.17 5.78-.43 8.66-.77.43-.05.8-.33.8-.8 0-.39-.37-.85-.8-.8-2.88.34-5.77.6-8.66.77-1.02.06-1.03 1.66 0 1.6Zm5.12 3.55-4.25.49c-.45.05-.78-.41-.8-.8-.02-.47.39-.75.8-.8l4.25-.49c.45-.05.78.41.8.8.02.47-.39.75-.8.8Zm-4.62 4.72c2.56-.13 5.11-.34 7.66-.63.43-.05.8-.33.8-.8 0-.39-.37-.85-.8-.8-2.55.29-5.1.5-7.66.63-1.02.05-1.03 1.65 0 1.6Z M24.898 8.462c-.07-.652-.142-1.302-.213-1.952-.093-.842-.185-1.685-.275-2.53-.06-.54-.46-.88-1.01-.77-5.8 1.13-11.66 1.9-17.55 2.32-.75.052-.954.928-.601 1.363a.942.942 0 0 0 .02.097l.01-.01A119.679 119.679 0 0 1 9.25 34c.01.4.36.85.8.8a90.465 90.465 0 0 0 7.841-1.181c.028.111.058.223.088.334.06.229.122.459.172.697.04.19.062.38.084.567.066.558.128 1.083.646 1.473.546.415 1.235.403 1.89.392l.12-.002c1.29-.02 2.58-.09 3.87-.18 2.33-.17 4.64-.46 6.94-.85.155-.027.31-.051.464-.076 1.515-.24 2.864-.455 2.746-2.334-.201-3.218-.457-6.432-.713-9.647-.139-1.74-.277-3.481-.407-5.223l-.27-3.595-.27-3.595c-.017-.22-.025-.452-.032-.69-.045-1.351-.095-2.868-1.778-2.91-2.156-.048-4.376.197-6.542.482ZM6.936 7.039a150.802 150.802 0 0 0 15.975-2.116l.174 1.586v.001l.236 2.163-.051.007c-.99.133-1.964.28-2.93.439l-.05-.9c-.005-.079-.007-.162-.01-.247-.012-.49-.027-1.037-.47-1.292-.374-.22-.82-.148-1.238-.082-.096.016-.19.03-.282.042a144.721 144.721 0 0 0-8.61 1.32c-.43.08-.66.59-.56.98.36 1.4.7 2.81 1.01 4.23.1.45.58.63.98.56a35.998 35.998 0 0 1 4.41-.437c.117.471.228.944.332 1.417-1.52.08-3.033.362-4.482.83-.4.13-.7.56-.56.98.13.4.56.7.98.56a15.596 15.596 0 0 1 4.386-.785c.116.606.221 1.213.318 1.822-.643.115-1.282.236-1.925.357l-.349.066c-.85.16-1.65.29-2.43.37a1.037 1.037 0 0 0-.24.05.738.738 0 0 0-.536.53c-.042.142-.05.298-.024.45l.02-.01 1.33 7.62c.026.147.044.31.063.48.048.431.1.903.287 1.24.35.62.99.47 1.56.33l3.277-.775c.057 1.067.107 2.135.154 3.202a82.059 82.059 0 0 1-6.873 1.089A121.718 121.718 0 0 0 6.936 7.039Zm11.818 2.356a92.091 92.091 0 0 0-3.294.665c-.41.09-.68.59-.56.98.068.226.134.452.199.678-1.2.056-2.395.175-3.582.345a117.55 117.55 0 0 0-.644-2.705c1.292-.234 2.584-.446 3.877-.638.74-.11 1.48-.21 2.22-.31.192-.026.39-.056.591-.087.373-.056.758-.114 1.14-.152l.002.175c0 .112 0 .222.007.324.01.195.022.39.035.585l.009.14Zm-5.227 15.8-.33-1.88c.467-.043.933-.114 1.397-.203a82.5 82.5 0 0 1 .346 1.77c-.471.101-.943.204-1.413.313Zm1.703 1.253c.076.407.154.814.236 1.22l-.056.012c-.25.058-.494.121-.733.184-.217.056-.431.112-.646.162l-.08-.436-.147-.822c.475-.11.95-.216 1.426-.32Zm1.788.853c-.08-.395-.155-.79-.23-1.186l.566-.12a152 152 0 0 1 .08 1.208l-.416.098Zm-.52-2.749a91.63 91.63 0 0 0-.347-1.79c.246-.061.491-.124.736-.186l.174-.045c.063.62.12 1.24.171 1.862-.244.054-.489.107-.733.159Zm-.699-3.358a29.826 29.826 0 0 0-.34-1.267l.083-.016c.395-.075.789-.15 1.184-.221.056.412.11.825.159 1.238l-.33.082-.756.184Zm-1.921-.977c.13.435.248.873.358 1.313a19.796 19.796 0 0 1-.897.15c-.034.005-.048.007.041-.01a.516.516 0 0 0-.118.016l-.022.004-.27.03-.053.006-.232-1.324c.399-.054.796-.117 1.193-.185ZM19.32 32.68c-.318-7.141-.682-14.338-2.634-21.242A87.175 87.175 0 0 1 30.49 9.63c.183-.01.333-.032.456-.05.4-.059.52-.077.604.52.052.364.07.74.09 1.11a31.019 31.019 0 0 0 .02.38l.3 3.96.27 3.595.27 3.595.27 3.595.27 3.595.15 1.98c.008.108.038.285.073.49.09.533.214 1.259.077 1.49-.296.514-1.508.628-2.379.71-.247.023-.467.043-.631.07-2.48.39-4.99.64-7.5.76-.48.02-.97.04-1.45.05-.118.004-.24.016-.363.028-.49.048-.981.096-1.197-.368-.081-.174-.105-.434-.129-.687a3.176 3.176 0 0 0-.071-.503c-.03-.107-.06-.21-.09-.31-.092-.315-.18-.612-.21-.96Z"/>
</svg>
