<svg xmlns="http://www.w3.org/2000/svg" width="40" height="40" fill="none" viewBox="0 0 40 40">
  <path class="display-icon__fill-2" fill="#B6E5FF" d="M18.94 31.04c-.46-3.41.11-6.4 2.56-8.81 1.77-1.74 3.98-2.56 6.39-2.88 2.53-.33 4.97-.04 7.15 1.41 2.93 1.95 4.13 4.85 4.35 8.23.2 3.15-.7 5.94-3.25 7.91-3.44 2.67-7.35 3.27-11.44 1.79-2.94-1.07-4.63-3.4-5.46-6.37-.13-.47-.22-.94-.3-1.29v.01Z"/>
  <path class="display-icon__fill-1" fill="#52B0FF" d="m16.87.39 10.87 16.94s-7.65 3.66-9.21 6.66c-1.57 3-2.41 4.09-.84 8.42L1.48 25.96s-.98-9 3.66-15.49C9.79 3.97 16.87.39 16.87.39Z"/>
  <path class="display-icon__ink" fill="#1C1D1F" d="M23.34 13.21c-2.19.23-4.38.36-6.58.4v-.01c-.89.02-.88-1.35 0-1.37 2.2-.04 4.39-.17 6.58-.4.37-.04.69.35.69.69 0 .4-.32.65-.69.69Zm-6.14 3.52c1.58-.24 3.17-.39 4.77-.48.37-.02.69-.3.69-.69 0-.36-.31-.71-.69-.69-1.72.09-3.43.27-5.13.53-.37.06-.57.52-.48.84.11.39.48.54.84.48v.01Zm7.7 2.57c-2.47.29-4.95.51-7.43.66v-.01c-.88.06-.88-1.32 0-1.37 2.48-.15 4.96-.37 7.43-.66.37-.04.69.35.69.69 0 .41-.32.65-.69.69Zm-6.68 4.12 3.65-.42c.36-.04.7-.29.69-.69-.02-.34-.3-.73-.69-.69l-3.65.42c-.36.04-.7.29-.69.69.02.34.3.73.69.69Zm10.13 7.48c0-.454-.01-.92-.031-1.387l-1.669.037c-.39.01-.68-.32-.7-.7-.02-.38.33-.7.7-.7l1.573-.035a23.733 23.733 0 0 0-.143-1.215c-.06-.39.09-.73.49-.86.33-.11.81.13.86.49.075.517.137 1.035.186 1.554l1.534-.034c.39-.01.68.32.7.7.02.38-.33.7-.7.7l-1.434.032c.023.472.034.945.034 1.418 0 .39-.32.68-.7.7-.38.02-.7-.33-.7-.7Z M20.54 4.46c.134 1.284.276 2.576.418 3.869a72.95 72.95 0 0 1 3.352-.309c.189-.014.41-.042.646-.073.803-.105 1.794-.234 2.404.113.655.373.684 1.213.71 1.929.004.147.01.29.02.421.05.64.097 1.28.145 1.919.047.64.095 1.281.145 1.921.095 1.28.192 2.56.29 3.84.09 1.179.18 2.358.267 3.537a7.172 7.172 0 0 1 7.093 6.133c.44 2.94-1.03 5.95-3.59 7.39-2.56 1.44-5.8 1.16-8.09-.68a7.037 7.037 0 0 1-1.67-1.935 65.706 65.706 0 0 1-3.55.265l-.03.001c-.61.03-1.21.059-1.82.059-.162.003-.318.034-.473.063-.317.062-.625.121-.947-.053-.57-.304-.7-1.148-.796-1.764l-.005-.03-.02-.126c-.03-.13-.05-.27-.06-.41-.02-.13-.03-.26-.03-.39a.337.337 0 0 1-.01-.079v-.001a4.725 4.725 0 0 1-.03-.156 74.747 74.747 0 0 1-6.69 1.006c-.38.04-.68-.35-.69-.69-.25-7.84-1.4-15.61-3.41-23.19v.01a.818.818 0 0 1-.017-.08c-.312-.368-.143-1.136.508-1.18 5.06-.36 10.08-1.02 15.06-1.99.47-.09.82.2.87.66ZM8.873 29.467a71.03 71.03 0 0 0 5.902-.93 315.1 315.1 0 0 0-.135-2.745c-.936.218-1.878.443-2.82.668l-.016.003c-.486.11-1.027.231-1.324-.293-.157-.285-.202-.68-.244-1.048-.017-.148-.033-.292-.056-.422l-1.14-6.54h.004a.624.624 0 0 1 .24-.714.676.676 0 0 1 .333-.143.939.939 0 0 1 .083-.013c.67-.07 1.36-.19 2.09-.32.297-.053.593-.11.888-.165.357-.068.713-.136 1.071-.198a53.495 53.495 0 0 0-.274-1.572 13.6 13.6 0 0 0-3.765.675c-.36.12-.73-.14-.84-.48-.12-.36.14-.73.48-.84a15.114 15.114 0 0 1 3.847-.712c-.091-.41-.187-.821-.29-1.23-1.28.04-2.553.168-3.817.372-.35.06-.75-.09-.84-.48-.27-1.21-.56-2.42-.87-3.63-.09-.33.11-.77.48-.84 1.95-.36 3.9-.67 5.86-.93.255-.03.51-.062.765-.095.255-.032.51-.065.765-.095.081-.01.166-.023.252-.037.358-.057.743-.118 1.058.067.371.228.386.691.4 1.106.003.077.005.152.01.224.015.23.027.463.04.695l.004.078a79.447 79.447 0 0 1 2.595-.386c-.113-1.072-.23-2.15-.35-3.228A129.274 129.274 0 0 1 5.548 7.09a104.098 104.098 0 0 1 3.325 22.378Zm6.784-20.346-.037-.63a6.952 6.952 0 0 1-.01-.297c0-.045 0-.091-.002-.137-.357.036-.72.09-1.067.143l-.401.06-.949.135h-.003l-.948.135c-1.11.167-2.218.348-3.327.548.193.77.378 1.546.555 2.325a33.726 33.726 0 0 1 3.08-.297 39.459 39.459 0 0 0-.168-.576c-.1-.34.12-.76.48-.84a79.16 79.16 0 0 1 2.797-.57Zm-4.72 11.94.28 1.608c.399-.092.798-.18 1.198-.266a71.433 71.433 0 0 0-.295-1.516 12.22 12.22 0 0 1-1.183.174Zm.516 2.957.127.712.065.382c.199-.046.399-.098.6-.15.185-.048.373-.096.565-.142l.055-.013a85.17 85.17 0 0 1-.202-1.06 78.72 78.72 0 0 0-1.21.271Zm2.545-.554.492-.106c.024.349.048.698.07 1.047l-.364.087a83.124 83.124 0 0 1-.198-1.028Zm-.545-2.879c.106.51.203 1.022.298 1.534.21-.045.422-.09.633-.137a88.385 88.385 0 0 0-.147-1.596l-.225.058c-.186.047-.372.095-.559.141Zm.632-1.571a67.052 67.052 0 0 0-.136-1.058c-.363.064-.726.133-1.089.2.106.36.202.722.291 1.085.312-.073.623-.149.934-.227Zm-3.583-.452.195 1.12.033-.002c.034 0 .07-.005.107-.01.04-.005.082-.01.123-.01.02 0 .04-.003.06-.005a.485.485 0 0 1 .06-.005l-.061.009.012-.002c.022-.002.064-.007.079-.007.234-.034.468-.076.702-.121a24.646 24.646 0 0 0-.308-1.125c-.333.058-.667.111-1.002.158Zm11.581 12.677a7.332 7.332 0 0 1-.111-4.466 99.22 99.22 0 0 1-4.072.287c-.38.02-.69-.33-.69-.69 0-.39.32-.67.69-.69a117.76 117.76 0 0 0 4.676-.343c1.062-1.892 2.926-3.183 5-3.58-.075-1.033-.153-2.068-.231-3.102a1558.71 1558.71 0 0 1-.245-3.275l-.12-1.58-.12-1.58-.06-.79-.06-.79c-.01-.15-.023-.3-.035-.45-.013-.15-.025-.3-.035-.45.09-.39-.01-.54-.31-.45-.252-.105-.74-.034-1.143.026-.173.025-.33.048-.447.054-.567.037-1.126.083-1.691.13l-.13.01a71.442 71.442 0 0 0-9.038 1.352c1.656 5.868 1.982 11.979 2.25 18.048a.77.77 0 0 1 .029.17c0 .111.008.214.017.324l.003.026a1.11 1.11 0 0 0 .013.138c.015.067.029.13.037.192.03.16.05.32.06.49.009.09.018.187.02.279l.037.198c.045.24.09.477.153.713.01.049.024.096.037.143.33-.091.69-.091 1.04-.091.1 0 .197 0 .293-.002.54-.01 1.09-.03 1.63-.06a67.764 67.764 0 0 0 2.553-.191Zm3.817 2.61a5.836 5.836 0 0 0 6.55-.38c1.93-1.48 2.69-4.16 2.01-6.37-.68-2.21-2.72-3.86-5.02-4.06-2.59-.22-4.92 1.27-5.95 3.62h-.006c-.987 2.67-.081 5.703 2.416 7.19Zm-9.57-2.215c0-.001.01-.002.029.005-.018 0-.028-.003-.028-.005Z"/>
</svg>
