<svg xmlns="http://www.w3.org/2000/svg" width="40" height="40" fill="none" viewBox="0 0 40 40">
  <path class="display-icon__fill-2" fill="#B6E5FF" d="M.49 37.85c.81-2.15 1.66-4.21 2.33-6.33.4-1.24.99-2.06 2.33-2.21.27-.03.53-.2.79-.32 1.31-.64 1.96-1.59 1.88-2.73-.11-1.5-.91-2.67-2.31-3.01-1.17-.28-2.41-.31-3.62-.45-.15-.02-.29-.01-.53-.02.4-1.08.78-2.09 1.16-3.1.84-2.2 1.7-4.4 2.51-6.61.2-.55.44-.77 1.06-.76 2.15.03 4.27.16 6.33.84 3.09 1.02 5.07 3.14 6.12 6.18 1.18 3.43 1.4 6.84-.31 10.17-1.32 2.57-3.48 4.28-6.02 5.54-3.56 1.76-7.36 2.59-11.3 2.85-.11 0-.21-.01-.43-.03l.01-.01Z"/>
  <path class="display-icon__fill-1" fill="#52B0FF" d="m39.49 25-18.52 2.09s.09-7.85-1.76-10.38c-1.85-2.53-2.41-3.68-6.65-4.15L24.57 1.74s7.88 2.87 11.36 9.39c3.49 6.52 3.56 13.86 3.56 13.86V25Z"/>
  <path class="display-icon__ink" fill="#1C1D1F" d="M17.04 13.943a51.914 51.914 0 0 0-.05-.683c-.08-1.03 1.52-1.02 1.6 0 .02.245.037.491.053.737 1.057.315 1.872 1.19 1.977 2.353v.01c.04.43-.4.8-.8.8-.456 0-.754-.363-.799-.787a.916.916 0 0 1-.04-.165c-.01-.021-.031-.078-.031-.078a.918.918 0 0 0-.212-.292c.022.551.04 1.102.057 1.654.116.097.232.196.345.298.94.85 2.24 2.11 1.88 3.49-.238.912-1.148 1.081-2.027.982l.037.498c.08 1.03-1.52 1.02-1.6 0a53.987 53.987 0 0 1-.067-.968 5.179 5.179 0 0 1-2.273-2.042c-.53-.89.85-1.69 1.38-.81.206.347.482.66.8.923a221.55 221.55 0 0 1-.051-1.569c-.187-.137-.377-.27-.57-.404-.57-.39-1.09-.85-1.31-1.52-.22-.67-.06-1.42.48-1.87.338-.28.772-.464 1.22-.557Zm1.98 2.417.001.013-.001-.013Zm-1.893-.777c-.087.032-.17.07-.257.117.002 0-.003.008-.01.017-.001.03-.012.07-.018.045.01.058.03.131.048.178 0-.01.1.15.1.15.049.062.105.12.164.175a110.53 110.53 0 0 0-.027-.682Zm1.74 4.172c.01.292.022.584.035.876a2.808 2.808 0 0 0 .53.039 1.756 1.756 0 0 0-.082-.26 3.381 3.381 0 0 0-.484-.655Zm.583 1.185c.004.002.009 0 .015-.003-.004.004-.009.005-.015.003Zm.256-.277c.022-.016.041-.02.054-.003l-.054.003Zm4.204-4.133c2.01-.04 4.02-.18 6.02-.35.43-.04.8-.34.8-.8 0-.4-.37-.84-.8-.8-2 .17-4.01.31-6.02.35-1.03.02-1.03 1.62 0 1.6Zm2.992 2.79c-1.007.065-2.013.13-3.022.13-1.03 0-1.03-1.6 0-1.6.996-.005 1.986-.068 2.976-.13 1.028-.065 2.055-.13 3.084-.13 1.03 0 1.03 1.6 0 1.6-1.016 0-2.028.065-3.038.13Zm-3.192 3.05c2.14-.15 4.29-.2 6.43-.17 1.03.02 1.03-1.58 0-1.6-2.15-.03-4.29.02-6.43.17-.43.03-.8.35-.8.8 0 .41.37.83.8.8Z M10.484 9.37c-.936-1.593-2.652-2.913-4.564-2.1-.94.4-1.58 1.35-1.96 2.27-.336.818-.294 1.764-.253 2.664.01.222.02.442.023.656.039 2.623-.05 5.244-.14 7.864-.074 2.179-.148 4.358-.15 6.538-.135 2.014 1.313 4.102 3.2 4.988 1.563.735 3.35.76 5.05.785h.048l.332.005c2.24.04 4.48 0 6.72-.04.422-.01.845-.018 1.268-.027 4.043-.086 8.11-.172 12.112-.733.34-.05.59-.45.59-.77 0-.426.002-.853.005-1.28.003-.696.007-1.393 0-2.09h2.965a.738.738 0 0 0 .566-.234.738.738 0 0 0 .234-.566V10.17c0-.43-.37-.8-.8-.8H10.484ZM9.21 24.93c-1.207-1-2.785-1.45-4.134-.529.03-1.346.075-2.692.12-4.038.053-1.58.106-3.16.134-4.742v-.015c.01-.835.02-1.66.01-2.495 0-.263-.017-.545-.035-.834-.043-.69-.088-1.42.095-2.026.26-.86.94-1.73 1.88-1.62.924.1 1.521.961 1.93 1.727V24.93Zm.002 2.424a.817.817 0 0 0 .798.747h21.156c.006.697.002 1.394-.001 2.09v.005l-.003.586c-5.758.76-11.728.72-17.526.682l-.366-.003c-.28-.002-.573 0-.871.002-2.54.016-5.596.036-7.019-2.362-.61-1.02-.42-2.97.82-3.45 1.31-.503 2.486.59 3.012 1.703Zm25.718-.843H10.81V10.97h24.12v15.54Z"/>
</svg>
