<svg xmlns="http://www.w3.org/2000/svg" width="40" height="40" fill="none" viewBox="0 0 40 40">
  <path class="display-icon__fill-2" fill="#B6E5FF" d="m32.09 4.27-4.1 16.08s-6.45-3.43-9.33-2.98c-2.88.45-4.99 1.65-7.51 2.87L8.59 6.55s5.74-5.27 12.62-5.36c6.87-.1 10.89 3.08 10.89 3.08h-.01Z"/>
  <path class="display-icon__fill-1" fill="#52B0FF" d="M19.61 20.63c4.07-.08 8.15-.05 12.12 1.03 1.57.43 3.05 1.03 4.31 2.11 1.89 1.63 2.37 3.8 2.36 6.16-.02 3.68-1.86 6.04-5.25 7.31-2.73 1.02-5.59 1.39-8.46 1.58-4.68.3-9.36.33-14.01-.33-2.13-.3-4.21-.78-6.1-1.85-2.18-1.23-3.37-3.12-3.54-5.58-.08-1.2-.03-2.45.2-3.62.51-2.54 2.28-4.02 4.57-4.98 2.92-1.23 6.03-1.55 9.14-1.76 1.55-.1 3.12-.04 4.68-.05l-.02-.02Z"/>
  <path class="display-icon__ink" fill="#1C1D1F" d="M23.695 7.868a.89.89 0 0 0 .015-.178 4.305 4.305 0 0 0-2.8-3.99c-1.67-.63-3.6-.09-4.7 1.25s-1.34 3.35-.41 4.91c.93 1.56 2.72 2.31 4.48 2 1.92-.35 3.314-2.081 3.415-3.992ZM20.4 10.17c-1.11.39-2.28.08-3.02-.84-.66-.82-.75-2.07-.19-3.01s1.68-1.45 2.72-1.25a2.673 2.673 0 0 1 2.197 2.517.944.944 0 0 0-.007.103h.01c-.01 1.08-.69 2.13-1.71 2.48Zm2.98 7.63c-2.61-.06-5.23-.05-7.84.03-1.03.03-1.03-1.57 0-1.6 2.61-.08 5.23-.09 7.84-.03 1.03.02 1.03 1.62 0 1.6Zm5.18 1.52a.93.93 0 0 0-.188.059.874.874 0 0 0-.38.193c-.044.032-.086.069-.125.103l-.006.005a1.004 1.004 0 0 0-.233.329l-.007.011c-.06.1-.11.21-.13.32-.04.2-.04.34 0 .54s.17.42.32.56l.007.006c.078.069.166.145.253.184.2.09.3.12.51.14.2.02.46-.05.63-.17l.008-.005.032-.023c.146-.064.283-.158.4-.262.17-.14.31-.37.36-.59.07-.29.04-.59-.12-.84-.11-.18-.28-.36-.47-.45a.82.82 0 0 0-.31-.11 2.313 2.313 0 0 1-.09-.012c-.06-.01-.12-.018-.18-.018-.077 0-.176.015-.247.025l-.033.005Zm-11.103 1.629c-.008-.406.25-.82.773-.82h3.27c.43 0 .8.37.8.8a133.756 133.756 0 0 1-.037 1.966 24.9 24.9 0 0 1 2.227-.065c.42.01.82.36.8.8-.016.42-.024.843-.032 1.266-.013.676-.025 1.354-.068 2.024-.06.95-.67 1.18-1.52 1.16a155.6 155.6 0 0 1-1.08-.02l-.211-.005c.036.762-.012 1.526-.15 2.285-.07.37-.44.56-.77.59-1.1.1-2.2.16-3.3.09-.44-.03-.79-.35-.8-.8a21.61 21.61 0 0 0-.055-1.075 24.853 24.853 0 0 1-.056-1.09l-.35.007c-.257.005-.517.01-.778.018-.66.02-1.34 0-1.74-.62-.262-.409-.256-.931-.251-1.42.001-.109.002-.216 0-.32-.01-.57-.02-1.15-.02-1.72-.01-.45.37-.78.8-.8.246-.01.493-.018.74-.025.248-.008.496-.015.74-.025.134-.003.275 0 .417.002.162.002.327.005.489 0l-.001-.008a2.211 2.211 0 0 1-.024-.264c0-.2.01-.41.02-.61.026-.448.09-.888.167-1.321Zm1.482.82c-.055.42-.083.839-.07 1.27l.002.04c.02.68.042 1.434-.801 1.6-.364.07-.762.072-1.143.074-.163 0-.324 0-.477.007l-.741.029v1.23c0 .028.004.07.009.12l.002.022c.01.115.024.262.011.352.05 0 .108.002.154.005l.065.002c.23-.02.45-.02.67-.02.48-.01.95-.02 1.43-.04.41-.02.83.38.8.8-.054.661-.01 1.331.035 1.999l.015.22a21.65 21.65 0 0 0 1.85-.063 7.509 7.509 0 0 0-.03-1.926c-.07-.49.2-1.02.77-1.01.151.003.301.008.451.012.296.01.59.018.889.018.22.01.43.01.65.01h.129c.03-.52.037-1.043.042-1.566l.007-.484c-.74.014-1.474.064-2.218.13-.43.04-.8-.39-.8-.8.005-.478.015-.953.025-1.426v-.002l.012-.602H18.94Z M11.097 15.544a9.955 9.955 0 0 0-2.244 1.935 2.355 2.355 0 0 1-.406-.44c.383-.501.585-1.15.423-1.789-.17-.67-.88-1.21-1.6-.98-.904.284-.975 1.287-.772 2.183-.273.062-.567.06-.838.007-.77-.15-1.29-.69-1.42-1.44-.07-.43-.6-.67-.98-.56-.45.12-.63.56-.56.98.21 1.19 1.14 2.13 2.26 2.49a3.668 3.668 0 0 0 2.178-.004c.223.314.493.592.795.831-1.412 2.361-1.721 5.267-.773 8.113.372 1.108.988 2.084 1.606 3.063.163.258.326.516.484.777.4.65.79 1.32 1.03 2.05.098.298.14.612.183.925.053.392.106.784.267 1.145.56 1.256 1.886 1.308 3.084 1.355l.126.005c1.09.04 2.15.03 3.24-.02.44-.02.79-.35.8-.8.006-.307.013-.61.037-.914l.195-.004c1.002-.021 2.008-.043 3.014-.05.054.264.099.531.104.798.01.47.36.79.8.8l.642.02c1.286.044 2.704.092 3.918-.13 1.07-.196 1.442-.988 1.834-1.825.128-.273.259-.551.416-.815.46-.76 1.05-1.44 1.74-2 .219-.178.455-.338.69-.498.358-.242.715-.484 1.01-.792.19-.2.37-.44.49-.69.04-.087.06-.207.08-.327.026-.157.052-.314.12-.393.132-.16.714-.204 1.259-.245.368-.028.72-.054.901-.115 1.318-.436 1.315-1.541 1.31-2.738a33.61 33.61 0 0 1 .01-.902c.026-1.244.058-2.729-.63-3.79-.3-.47-.78-.83-1.31-1.01a3.091 3.091 0 0 0-.642-.122 5.978 5.978 0 0 1-.348-.048c-.58-.1-.63-.13-.96-.55l-.026-.034c-.713-.913-1.287-1.648-2.174-2.188l.077-.104c.741-.987 1.621-2.16 1.443-3.274-.19-1.19-1.12-1.82-2.22-2.02-2.089-.36-4.451.313-5.855 1.925l-1.004-.045c-4.078-.191-8.48-.398-11.804 2.254Zm1.066 1.173c2.779-2.238 6.725-2.036 10.193-1.858.437.023.866.044 1.284.061.834.032.993-.128 1.389-.528.098-.099.21-.213.351-.342.59-.54 1.39-.86 2.16-1.02.62-.13 1.75-.29 2.36.04.961.527-.298 2.206-1.013 3.157-.14.188-.26.347-.337.463-.3.46.02 1.01.48 1.18.68.24 1.29.64 1.76 1.2.198.242.326.513.455.785.105.224.211.448.355.655.375.527.952.576 1.523.626.556.048 1.107.095 1.457.584.338.473.334 1.23.33 1.852v.328c.003.198.01.4.019.602.019.513.039 1.034-.019 1.528a3.6 3.6 0 0 0-.022.243c-.014.23-.016.252-.338.417-.245.126-.605.126-.922.125-.11 0-.215 0-.308.005l-.149.006c-.428.014-.843.027-1.21.314-.253.202-.329.461-.412.747a7.838 7.838 0 0 1-.049.163c-.21.67-.48.98-1.05 1.38-.9.63-1.7 1.34-2.36 2.22-.35.46-.65.95-.9 1.46-.38.77-.55 1.11-1.47 1.22-.931.112-1.92.109-2.875.083-.038-.22-.086-.44-.134-.656a23.657 23.657 0 0 1-.08-.377c-.07-.34-.44-.59-.77-.59-1.51 0-3.03.03-4.55.07-.33 0-.71.24-.77.59a9.49 9.49 0 0 0-.137 1.148 25.2 25.2 0 0 1-1.164.032c-.72 0-1.47 0-2.18-.08-.84-.076-.917-.572-1.013-1.197-.017-.11-.034-.226-.057-.343-.267-1.377-1.007-2.527-1.748-3.679-.562-.873-1.124-1.747-1.482-2.72-.907-2.47-.68-5.036.574-7.094.26.09.527.158.796.203.43.07.86-.11.98-.56.11-.38-.13-.91-.56-.98l-.01.01a4.854 4.854 0 0 1-.159-.029c.457-.473.984-.9 1.58-1.27a.87.87 0 0 0 .202-.174Zm-4.85-1.06c.017-.01.042.001.021.062-.05-.022-.04-.053-.022-.062Z"/>
</svg>
