<svg xmlns="http://www.w3.org/2000/svg" width="40" height="40" fill="none" viewBox="0 0 40 40">
  <path class="display-icon__fill-2" fill="#B6E5FF" d="M34.44 4.81 29.6 20.55s-3.69-3.86-9.43-3.73c-5.75.14-7.47 1.48-10.16 4.16L6.17 5.03S12.62-.1 20.2.43c7.58.53 14.24 4.39 14.24 4.39v-.01Z"/>
  <path class="display-icon__fill-1" fill="#52B0FF" d="M32.26 39.39H9.49c-.03-.16-.07-.29-.07-.42 0-3.6-.08-7.2.07-10.79.06-1.55.41-3.15.95-4.61 1.19-3.21 3.73-4.79 7.06-5.12 4.22-.42 8.11.3 11.1 3.64 1.72 1.92 2.57 4.27 3.09 6.74.74 3.46.59 6.97.57 10.56Z"/>
  <path class="display-icon__ink" fill="#1C1D1F" d="M26.19 23.61c.62-.58 1.34-1.29 1.8-1.9.23-.3.59-.46.94-.25.3.17.47.64.25.94-.889 1.174-1.983 2.175-3.072 3.171-.247.226-.494.452-.738.679-.646.606-1.23 1.269-1.815 1.93-.302.343-.605.686-.915 1.02-.6.65-1.57-.32-.97-.97.31-.334.61-.678.912-1.022.565-.645 1.132-1.291 1.758-1.878.362-.345.728-.682 1.095-1.02l.755-.7Zm1.9 5.15c1.38 0 1.38-2.14 0-2.14s-1.38 2.14 0 2.14ZM23 23.67c1.38 0 1.38-2.14 0-2.14s-1.38 2.14 0 2.14Z M7.033 8.735c-.466.058-.954.257-1.283.615-.424.449-.406 1.021-.388 1.598.004.118.008.235.008.352 0 .256-.017.54-.035.837-.064 1.073-.139 2.321.535 3.073.416.461.996.456 1.57.45h.18c.28.003.56.001.839-.004-.01.171-.014.348-.016.525l-.003.179c-.015.525-.025 1.05-.035 1.575l-.02.99a37.62 37.62 0 0 0-1.685.115c-1.202.114-1.16 1.139-1.121 2.083.008.21.017.416.011.607-.006.198-.026.423-.046.663-.079.902-.175 2.011.346 2.627.4.474 1.162.44 1.798.412l.053-.002.001.015.006.067.002.019.01.129c.02.42.03.85.04 1.271v.029c.01.43.01.87 0 1.3 0 .15 0 .31-.01.46a.59.59 0 0 1-.006.067 1.505 1.505 0 0 0-.005.04c-.836.078-1.612.33-1.829 1.323-.125.605-.122 1.282-.12 1.91v.043a61.888 61.888 0 0 1-.001.464c-.005.62-.01 1.3.181 1.873.316.973 1.292.94 2.155.91.121-.005.24-.009.355-.01 2.39 0 4.78-.01 7.18-.02h.03c2.62 0 5.25-.01 7.87-.02.082 0 .158-.01.227-.029.358.356.72.71 1.083 1.059.24.23.68.27.92 0 .515-.585 1.033-1.17 1.55-1.755a812.74 812.74 0 0 0 1.55-1.755c.74-.84 1.49-1.68 2.24-2.52.68-.75 1.32-1.5 1.62-2.49.36-1.21.31-2.53.2-3.78-.11-1.25-.37-2.43-1.02-3.57-.556-.978-1.273-1.68-2.111-2.165a.868.868 0 0 0 0-.185 35.656 35.656 0 0 1-.12-1.668l-.04-.652-.002-.04c-.029-.535-.056-1.05-.427-1.47-.454-.505-1.176-.577-1.884-.563a42.957 42.957 0 0 1-.096-1.667 10.18 10.18 0 0 1 .003-.665c.01-.352.019-.717-.021-1.061.49-.013.956-.09 1.368-.444.93-.807.713-2.51.554-3.757a25.47 25.47 0 0 1-.064-.533c-.15-1.49-1.12-1.91-2.49-1.91-5.41 0-10.83.01-16.24.02-.152 0-.309-.004-.469-.009-.956-.026-2.008-.055-2.59.82-.359.532-.342 1.204-.327 1.836.003.126.006.251.006.373 0 .673 0 1.346.013 2.015Zm1.606-.037A46.36 46.36 0 0 1 8.63 7.03c0-.131-.006-.27-.013-.41-.013-.29-.027-.588.013-.85.085-.487.1-.486.235-.474.056.004.134.01.245-.016.594-.128 1.3-.083 1.977-.04.327.02.647.04.943.04h14.61c.09 0 .17-.004.242-.009.344-.02.518-.03.658.5.062.232.063.516.063.787 0 .126.001.248.007.362.006.109.017.224.028.341.027.294.055.605.012.87.1.29.02.49-.25.61-.23 0-.452-.01-.682-.02h-.028a70.285 70.285 0 0 0-.836-.005c-.525-.11-1.123-.078-1.664-.05-.192.011-.378.02-.55.024-.542.01-1.086.024-1.63.039-1.09.029-2.182.058-3.27.05a48.474 48.474 0 0 1-2.449-.095c-.981-.055-1.963-.11-2.951-.094-.8.015-1.598.035-2.395.055-.768.02-1.536.038-2.306.053Zm9.37 1.672a.8.8 0 0 0 .121.01c1.896.04 3.79 0 5.696-.04h.014c.454-.01.907-.018 1.361-.021.093.037.18.095.259.18.249.272.236.64.223 1.007a4.61 4.61 0 0 0-.003.354c.021.633.058 1.265.107 1.898-2.736-.01-5.471-.016-8.197.022-1.41.02-2.81.05-4.22.1-.33.01-.68.01-1.037.009-.734-.003-1.5-.005-2.2.097-.723.044-1.452.084-2.173.084-.129 0-.241.002-.339.005-.646.015-.66.015-.651-.845V11.3c0-.093-.006-.183-.011-.268-.02-.326-.036-.583.28-.702.365-.13.905-.096 1.388-.065.22.014.428.028.603.025l2.43-.05c1.39-.027 2.773.02 4.154.067.732.024 1.463.05 2.195.063Zm-8.04 8.503c.01-.315.016-.63.023-.945a69.761 69.761 0 0 1 .035-1.301c.012-.236.024-.473.013-.707 0-.01.001-.03.004-.056v-.011a2.09 2.09 0 0 0 .012-.188c.08.002.211-.018.32-.034.063-.01.119-.019.154-.021 2.18-.13 4.36-.19 6.54-.22 2.18-.03 4.47-.04 6.71-.04a354.195 354.195 0 0 1 3.378.01c.653-.003.914-.004.962.79l.003.056c.03.477.059.958.097 1.436a9.391 9.391 0 0 0-2.14-.262h-.01a.726.726 0 0 0-.141.012l-.462.002c-1.207.002-2.404.005-3.527.536-.436.207-.845.48-1.222.8a.873.873 0 0 0-.198-.02c-2.2.03-4.4.06-6.6.11-.647.014-1.299.02-1.953.026-.665.006-1.331.013-1.997.027Zm3.851 1.557a771.57 771.57 0 0 1 5.492-.103 8.95 8.95 0 0 0-.432.713 10.149 10.149 0 0 0-1.008 2.724c-1.906.028-3.813.047-5.72.066h-.031c-.52.006-1.044.01-1.566.018a.84.84 0 0 0-.265-.038v-.01c-1.02 0-2.04.01-3.06.02a.886.886 0 0 1-.067-.004c.005-.111-.01-.32-.022-.47a3.44 3.44 0 0 1-.01-.166c0-.21 0-.42.02-.63.003-.135.01-.272.018-.41.01-.207.021-.415.021-.62 0-.124-.014-.27-.029-.423-.016-.175-.034-.358-.033-.527.288-.034.683-.017 1.025-.003.193.008.368.016.497.013l1.9-.06 3.27-.09Zm-6.667 3.454v.003-.003Zm.646 4.941h.005a.732.732 0 0 1 .086-.215l-.02.02a.992.992 0 0 0-.071.195Zm1.595-.058.005-.195.001-.032c.007-.354.004-.709.002-1.06a81.955 81.955 0 0 1-.002-.52c0-.509-.02-1.007-.048-1.515.293-.005.587-.002.88.001.183.002.366.004.548.004l6.89-.084c-.044 1.172.142 2.344.613 3.424-1.309.01-2.618-.004-3.924-.019-.787-.009-1.574-.018-2.359-.021-.866 0-1.738 0-2.606.017ZM19.1 30.38c.04 0 .08-.004.116-.01.627.845 1.39 1.62 2.12 2.361a77.435 77.435 0 0 1 .957.985c-1.58.006-3.161.01-4.743.014h-.01c-2.012.005-4.025.01-6.04.02h-4c.029-.072 0-.237-.021-.365a1.9 1.9 0 0 1-.019-.125c-.02-.37-.03-.75-.03-1.12 0-.077-.004-.17-.008-.27-.021-.518-.052-1.273.358-1.44.251-.098.64-.078.984-.061.148.007.288.014.406.011 1.03-.02 2.06-.02 3.08-.02.854 0 1.709.008 2.564.017 1.426.014 2.854.028 4.286.003ZM7.455 33.908c-.008.008-.01-.009.013-.077a.115.115 0 0 1-.013.077ZM26.073 18.68c1.13.02 2.228.15 3.227.73 1 .58 1.63 1.64 2.03 2.67.4 1.03.45 2.4.44 3.54 0 1.03-.14 2.04-.77 2.88-.752.996-1.61 1.923-2.464 2.847-.406.44-.812.878-1.206 1.323-.4.455-.802.91-1.205 1.365l-.782.885-.178-.173c-1.754-1.691-3.553-3.426-5.015-5.357-1.47-1.96-1.43-4.62-.55-6.82.5-1.25 1.31-2.47 2.45-3.22 1.061-.69 2.255-.68 3.456-.672.189.002.378.003.567.002Z"/>
</svg>
