<svg xmlns="http://www.w3.org/2000/svg" width="40" height="40" fill="none" viewBox="0 0 40 40">
  <path class="display-icon__fill-2" fill="#B6E5FF" d="m.49 8.65 38.56.06v3.78L.48 12.43V8.65h.01Z"/>
  <path class="display-icon__fill-1" fill="#52B0FF" d="M19.44 12.39c4.34.1 7.96 1.39 10.49 4.92 1.82 2.55 2.42 5.47 2.34 8.54-.09 3.22-.92 6.21-3.16 8.65-3 3.27-6.86 4.21-11.11 3.81-3.96-.37-7.28-2.04-9.24-5.6-2.65-4.82-2.65-9.82 0-14.63 1.91-3.46 5.14-5.11 9.01-5.57.61-.07 1.22-.09 1.66-.12h.01Z"/>
  <path class="display-icon__ink" fill="#1C1D1F" d="M20.52 16.05c-.232.591-.507 1.16-.781 1.73-.246.51-.492 1.021-.71 1.55-.05.12-.1.24-.14.37-.02.05-.04.1-.06.16l-.01.027-.02.043c-.07.166-.145.329-.22.49l-.15.33c-.15.323-.3.645-.445.969l-.074-.129c-.18-.3-.35-.61-.5-.92a10.53 10.53 0 0 1-.215-.44l-.016-.036-.049-.104a2.368 2.368 0 0 0-.065-.145c-.022-.047-.045-.095-.065-.145a.42.42 0 0 0-.011-.023l.004.012c.01.027.019.049.007.021-.02-.05-.04-.1-.06-.14-.08-.2-.17-.36-.37-.48a.832.832 0 0 0-.62-.08c-.38.12-.72.57-.56.98.31.79.68 1.56 1.11 2.29.29.51.57 1.02.83 1.54.19.37.75.51 1.09.29a.951.951 0 0 0 .112-.086c.144-.107.256-.264.328-.444.239-.586.502-1.16.766-1.737l.234-.513c.13-.28.25-.55.37-.83a19.893 19.893 0 0 1 .22-.54c.012-.033.025-.065.04-.1 0-.01.023-.066.038-.102.016-.04.023-.056-.018.032.14-.32.298-.632.456-.944l.134-.266c.36-.71.67-1.45.95-2.2.16-.4-.17-.88-.56-.98-.45-.12-.83.15-.98.56l.01-.01Z M18.396 5.727a73.283 73.283 0 0 0 4.884-.207c1.02-.08 1.03-1.68 0-1.6-3.7.28-7.41.28-11.1 0-1.03-.08-1.02 1.52 0 1.6a73.62 73.62 0 0 0 4.616.204l.198 3.821c-3.467.318-6.82 1.969-9.074 4.735C4.4 18.6 3.95 24.67 6.78 29.4c2.83 4.73 8.37 7.19 13.76 6.22 6.214-1.117 10.668-6.692 10.77-12.922a1.055 1.055 0 0 0 0-.095 13.528 13.528 0 0 0-1.607-6.185l2.36-1.84c.296.302.602.597.917.882.31.28.83.33 1.13 0 .28-.31.33-.83 0-1.13-.87-.79-1.67-1.64-2.4-2.57-.12-.15-.38-.23-.57-.23-.2 0-.43.09-.57.23-.14.14-.24.35-.23.57.01.23.1.39.23.57l.01-.01c.131.168.266.335.404.5l-2.127 1.658a13.142 13.142 0 0 0-6.087-4.738 12.744 12.744 0 0 0-4.178-.816l-.196-3.767Zm11.289 17.56a11.938 11.938 0 0 1-3.075 7.236 12.452 12.452 0 0 0-1.78-1.823c-.14-.12-.29-.2-.48-.2a.69.69 0 0 0-.48.2c-.12.13-.2.3-.2.48 0 .17.06.36.2.48a12.058 12.058 0 0 1 1.75 1.78l.02.029c-1.04.9-2.252 1.62-3.6 2.101a11.527 11.527 0 0 1-3.655.667 12.41 12.41 0 0 0 .015-2.427c-.02-.18-.06-.34-.2-.48a.718.718 0 0 0-.48-.2c-.34.02-.71.3-.67.67.07.792.072 1.59-.011 2.384a11.724 11.724 0 0 1-6.946-3.163 26.333 26.333 0 0 1 1.847-1.91c.26-.24.26-.71 0-.95a.695.695 0 0 0-.95 0 29.66 29.66 0 0 0-1.814 1.878l-.016-.019c-1.52-1.84-2.385-4.088-2.576-6.391.745.053 1.493.032 2.236-.04.35-.03.69-.29.67-.67-.02-.34-.3-.71-.67-.67a13.25 13.25 0 0 1-2.271.037A11.59 11.59 0 0 1 8.16 16.71c.394-.66.85-1.273 1.356-1.83a26.342 26.342 0 0 1 1.734 1.69c.24.26.71.26.95 0s.26-.68 0-.95a29.667 29.667 0 0 0-1.726-1.678 11.756 11.756 0 0 1 6.861-2.856c.054.852.069 1.7.045 2.554 0 .35.32.69.67.67.35-.02.66-.3.67-.67a27.86 27.86 0 0 0-.045-2.57 11.464 11.464 0 0 1 7.012 2.84c-.59.49-1.133 1.023-1.627 1.62-.12.14-.2.29-.2.48 0 .16.07.36.2.48s.3.2.48.2c.17 0 .36-.06.48-.2a12.04 12.04 0 0 1 1.632-1.63 11.85 11.85 0 0 1 3.028 7.087c-.989.077-1.97.101-2.96.073-.35 0-.69.32-.67.67.02.35.3.66.67.67.99.028 1.982.004 2.965-.073Z"/>
</svg>
