<svg xmlns="http://www.w3.org/2000/svg" width="40" height="40" fill="none" viewBox="0 0 40 40">
  <path class="display-icon__fill-2" fill="#B6E5FF" d="M19.16 20.35c-3.33-.08-6.11-1.07-8.05-3.77-1.4-1.96-1.86-4.2-1.79-6.56.07-2.47.71-4.77 2.42-6.64C14.04.87 17 .15 20.27.45c3.04.28 5.59 1.57 7.09 4.3 2.04 3.7 2.03 7.54 0 11.23-1.47 2.66-3.95 3.92-6.92 4.27-.47.06-.94.07-1.28.09v.01Z"/>
  <path class="display-icon__fill-1" fill="#52B0FF" d="M20.32 39.36c-3.94.07-7.89.05-11.73-.99-1.52-.41-2.96-1-4.17-2.04-1.83-1.57-2.29-3.68-2.28-5.96.02-3.56 1.8-5.85 5.08-7.08 2.64-.99 5.41-1.35 8.19-1.53 4.53-.29 9.06-.32 13.56.32 2.06.29 4.07.75 5.91 1.79 2.11 1.19 3.26 3.02 3.42 5.4.08 1.16.03 2.37-.19 3.51-.49 2.46-2.2 3.9-4.42 4.82-2.83 1.19-5.83 1.5-8.85 1.71-1.5.1-3.02.04-4.53.05h.01Z"/>
  <path class="display-icon__ink" fill="#1C1D1F" d="M12.18 10.91c.808.03 1.614.057 2.42.077a51.62 51.62 0 0 0-.074-1.157c-.02-.28-.04-.56-.057-.84a10.94 10.94 0 0 0-.022-.318c-.057-.725-.131-1.667.492-2.092.536-.368 1.407-.323 2.11-.287.138.007.27.014.39.017.81.02 1.62.03 2.44.02l.818-.012c.552-.009 1.104-.018 1.652-.018.139 0 .288-.006.444-.012.612-.023 1.32-.05 1.806.252.654.414.616 1.252.584 1.976a9.912 9.912 0 0 0-.014.434v1.901c1.558-.078 3.117-.11 4.672.009l.304.023c1.534.112 3.494.256 4.656 1.287 1.16 1.04 1.288 2.74 1.397 4.192l.003.038c.122 1.543.1 3.091.077 4.641v.001c-.008.61-.017 1.219-.017 1.828 0 .774.024 1.55.048 2.328.033 1.02.065 2.04.042 3.062-.02 1.21-.07 2.59-.67 3.67-1.131 2.041-3.797 1.977-5.977 1.925-.383-.01-.751-.018-1.093-.015-2.452.018-4.9.047-7.346.076-1.625.019-3.25.038-4.874.054-.69.007-1.38.017-2.07.027-1.38.02-2.76.04-4.14.033-1.26-.01-2.62-.09-3.76-.7-2.388-1.282-2.368-4.36-2.352-6.907.003-.493.006-.967-.008-1.403l-.21-6.368v-.002c-.01-.312-.03-.634-.051-.96-.08-1.273-.165-2.618.32-3.78 1.32-3.18 5.19-3.11 8.06-3Zm10.96.06.43-.027V8.31c0-.045-.005-.096-.01-.148-.006-.08-.013-.162-.005-.236l-.135-.013a2.011 2.011 0 0 0-.15-.013h-1.51l-1.05.012c-.7.01-1.4.018-2.1.018l-.51-.012c-.34-.009-.68-.018-1.02-.018h-.79l-.026.002c-.08.007-.156.013-.235.016v.562c.007.223.023.45.039.676l.021.324c.039.512.077 1.024.102 1.54 2.315.038 4.628.026 6.95-.05Zm-7.46-3.02.074-.014-.015.014h-.06Zm7.46 4.63c-1.393.042-2.786.064-4.18.068l-.05.455c-.033.309-.066.617-.1.917v.006c.112.061.23.115.348.169.14.063.281.127.413.205.38.22.74.53 1 .89.428.602.395 1.4.364 2.133-.006.156-.012.31-.014.457-.01.84-.02 1.68-.02 2.52l.003.218c.009.364.018.756-.173 1.072-.25.41-.72.45-1.15.45h-2.59c-.46 0-.96-.02-1.23-.46-.172-.284-.167-.656-.162-.996l.002-.164c-.01-.445-.018-.89-.025-1.335-.008-.445-.015-.89-.025-1.335a30.374 30.374 0 0 0-.013-.365c-.024-.594-.048-1.196.093-1.785.17-.71.65-1.2 1.35-1.42.03-.01.064-.018.098-.026.035-.009.07-.017.104-.029.03-.097.037-.204.043-.303l.005-.072.128-1.207c-1.338-.01-2.677-.04-4.016-.085.028 6.645.168 13.29.42 19.934 2.796.003 5.597-.063 8.395-.13 1.524-.035 3.046-.071 4.567-.096.018-3.304.034-6.61.05-9.916l.052-10.004c-.902.033-1.8.095-2.676.156l-.838.057a.905.905 0 0 1-.172.02Zm-5.97 1.68a.049.049 0 0 1 .005-.011l-.004.01Zm1.032 1.201c-.216.168-.47.258-.741.349-.2.06-.24.11-.29.32-.06.233-.053.478-.045.716.002.079.005.157.005.234l.012.46c.009.306.018.613.018.92.006.303.008.61.009.915.001.393.003.788.016 1.18.178 0 .357-.004.536-.008.174-.003.347-.007.519-.007.186 0 .374.004.563.009.175.004.35.008.526.009.034-.763.023-1.534.012-2.3a71.045 71.045 0 0 1-.011-1.128c.002-.056.007-.119.013-.186.019-.234.042-.517-.043-.704-.07-.15-.28-.3-.41-.39a5.713 5.713 0 0 0-.65-.37l-.039-.019Zm-6.46-2.966a21.503 21.503 0 0 0-2.048.006c.14 6.649.142 13.29.003 19.93.821.026 1.644.042 2.466.052a588.389 588.389 0 0 1-.42-19.988ZM5.372 16.3c.013 2.21.107 4.43.2 6.645.047 1.103.093 2.205.13 3.305.011.329.007.688.002 1.063-.016 1.29-.034 2.762.578 3.777.405.669 1.084 1 1.82 1.168a489.83 489.83 0 0 0-.003-19.527c-1.57.397-2.742 1.36-2.727 3.569Zm22.954 15.945.526-.005c.342-.003.689.005 1.038.014.212.005.424.01.636.013a543.621 543.621 0 0 1-.133-19.824 20.067 20.067 0 0 0-1.965-.118c-.018 3.34-.035 6.683-.051 10.025-.017 3.298-.033 6.598-.051 9.895Zm4.366-.135c1.47-.31 1.87-1.3 2-2.69.161-1.718.103-3.466.045-5.21-.035-1.068-.07-2.134-.055-3.19l.004-.534v-.003c.01-1.372.022-2.774-.084-4.083l-.011-.134c-.115-1.435-.228-2.851-1.8-3.336a11.467 11.467 0 0 0-.801-.217 543.896 543.896 0 0 0 .134 19.489c.19-.023.38-.053.568-.092Z"/>
</svg>
