<svg xmlns="http://www.w3.org/2000/svg" width="40" height="40" fill="none" viewBox="0 0 40 40">
  <path class="display-icon__fill-2" fill="#B6E5FF" d="m6.47 37.82 4.16-17.32s7.02 2.64 9.9 1.8c2.88-.84 4.09-.96 5.89-4.62l5.8 14.3s-5.15 6.14-12.14 7.15c-6.99 1.01-13.62-1.31-13.62-1.31h.01Z"/>
  <path class="display-icon__fill-1" fill="#52B0FF" d="M9.5 16.5C7.7 13.55 7 10.57 8.28 7.36c.92-2.32 2.62-3.97 4.71-5.24C15.19.8 17.55.07 20.14.52c3.48.6 5.77 2.78 7.33 5.8 1.46 2.81 1.76 5.75.22 8.59-2.09 3.85-5.44 5.99-9.8 6.28-3.14.21-5.63-1.25-7.6-3.64-.31-.38-.59-.78-.8-1.06l.01.01Z"/>
  <path class="display-icon__ink" fill="#1C1D1F" d="M19 9.97c.02-1.88-.09-3.76-.32-5.62-.05-.43.41-.8.8-.8.47 0 .75.37.8.8.23 1.87.34 3.74.32 5.62 0 .43-.37.8-.8.8-.43 0-.8-.37-.8-.8Zm-8.339-.57c.55.45 1.07.93 1.56 1.44.24.25.48.51.7.78.11.13.22.27.33.41.015.02.03.038.045.055.015.018.03.035.045.055.03.035.058.073.085.11.027.038.055.075.085.11.13.17.26.31.48.37.19.05.45.03.62-.08.33-.21.55-.73.29-1.09-.9-1.21-1.92-2.32-3.09-3.27-.17-.14-.34-.23-.57-.23-.2 0-.43.09-.57.23-.27.29-.35.85 0 1.13l-.01-.02ZM4.38 19.56l8.627.006c-.23-1.846.505-3.646 1.663-5.096.74-.93 1.95-1.68 3.1-2 1.4-.38 3.18-.38 4.53.18 1.28.53 2.53 1.58 3.17 2.81.65 1.264.822 2.705.786 4.114l9.654.006c1.03 0 1.03 1.6 0 1.6l-13.3-.008c-.44.319-1.023 1.028-.79 1.568.2.45 1.07.61 1.49.66.66.082 1.294-.072 1.93-.227a9.28 9.28 0 0 1 1.11-.223c.97-.12 2.24.01 2.81.94.57.93.21 2.16-.58 2.83-.554.473-1.214.642-1.879.813-.473.122-.95.244-1.39.477-.79.42-1.19 1.34-.67 2.12.578.87 1.452.655 2.3.446.251-.062.501-.124.74-.156 1.2-.16 2.56-.13 3.71.26 2.06.7 3.71 2.79 3.24 5.03-.21 1-1.75.57-1.54-.43.28-1.29-.85-2.57-1.98-3.01-1.39-.54-2.87-.32-4.28-.02-1.21.26-2.31.08-3.18-.84-.63-.67-.94-1.59-.82-2.51.13-1.02.96-1.94 1.87-2.36.203-.093.54-.174.92-.265.96-.23 2.19-.524 2.22-1.255.027-.868-1.719-.42-2.431-.237l-.028.007a9.31 9.31 0 0 1-.161.04c-1.09.25-2.17.27-3.23-.12-.99-.36-1.77-.99-1.75-2.18a3.16 3.16 0 0 1 .335-1.36l-2.402-.001c.284.503.45 1.067.437 1.681-.03 1.18-.76 2.19-1.82 2.77-1.06.58-2.33.67-3.52.59a5.867 5.867 0 0 1-.506-.067c-.763-.12-1.833-.29-1.984.467-.18.91 1.05 1.17 1.7 1.21 1.09.06 2.08.35 2.83 1.21.67.77.96 1.84.58 2.79s-1.29 1.56-2.23 1.9c-1.204.428-2.535.47-3.8.51h-.02c-.07.003-.17.003-.293.003-.945 0-3.202.002-2.927 1.037.27 1-1.28 1.42-1.54.43-.77-2.877 2.907-3.004 4.999-3.076.22-.007.423-.014.6-.024l.135-.007c1.093-.057 2.391-.125 3.256-.913.9-.82.02-1.97-.94-2.2a4.457 4.457 0 0 0-.817-.084c-.26-.011-.52-.022-.773-.076-.41-.08-.8-.27-1.16-.5-.74-.46-1.22-1.09-1.22-1.99-.01-.8.36-1.63 1.07-2.04.735-.421 1.606-.324 2.428-.232.173.02.345.038.512.052 1.12.09 2.52.09 3.36-.77.82-.84.43-2.004-.39-2.672L4.38 21.16c-1.03 0-1.03-1.6 0-1.6Zm20.275.013c.037-1.403-.115-2.928-1.035-4.023-.91-1.08-2.15-1.65-3.51-1.7-1.36-.05-2.45.24-3.57 1-.7.48-1.22 1.37-1.56 2.13-.356.818-.527 1.71-.352 2.587l10.027.006Z M6.75 15.26h-.01c-.45-.04-.78-.33-.8-.8-.02-.4.38-.84.8-.8 1.79.18 3.52.73 5.05 1.69.38.23.5.7.29 1.09-.19.38-.74.51-1.09.29a9.476 9.476 0 0 0-2.04-.98c-.37-.13-.75-.24-1.13-.32l-.084-.018c-.16-.034-.314-.067-.476-.092-.03-.01-.33-.05-.19-.03l-.32-.03Zm20.4-6.85a45.31 45.31 0 0 1-2.9 2.98c-.31.29-.31.85 0 1.13.33.3.81.31 1.13 0a45.31 45.31 0 0 0 2.9-2.98c.28-.31.33-.83 0-1.13-.3-.28-.83-.33-1.13 0Zm.32 7.01c1.72-.12 3.49-.62 5.03-1.44.38-.2.86-.1 1.09.29.21.36.09.89-.29 1.09-1.81.96-3.79 1.52-5.83 1.66-.43.03-.8-.39-.8-.8 0-.45.37-.77.8-.8Z"/>
</svg>
