<svg xmlns="http://www.w3.org/2000/svg" width="40" height="40" fill="none" viewBox="0 0 40 40">
  <path class="display-icon__fill-2" fill="#B6E5FF" d="M31.01 23.9c-7.89-.45-15.67-.9-23.5-1.35-.02-.16-.06-.3-.05-.44.22-3.71.35-7.43.71-11.13.16-1.6.61-3.23 1.26-4.7 1.42-3.24 4.13-4.73 7.59-4.87 4.39-.18 8.35.8 11.24 4.42 1.66 2.09 2.39 4.56 2.79 7.14.56 3.62.2 7.23-.04 10.93Z"/>
  <path class="display-icon__fill-1" fill="#52B0FF" d="M11.95 24.45c4.92.28 9.76.56 14.64.84.01.1.04.19.03.27-.14 2.31-.22 4.63-.44 6.94-.1 1-.38 2.01-.78 2.93-.88 2.02-2.57 2.94-4.73 3.03-2.73.11-5.2-.5-7-2.75-1.03-1.3-1.49-2.84-1.74-4.45-.35-2.25-.12-4.51.03-6.81h-.01Z"/>
  <path class="display-icon__ink" fill="#1C1D1F" d="M16.91 10.17v.01c-.03 2.045-.033 4.087-.035 6.13-.003 2.042-.006 4.085-.035 6.13 0 .375-.01.754-.018 1.132-.005.186-.01.373-.012.558 0 .111.01.26.021.425.031.439.07.99-.061 1.245-.12.233-.365.36-.61.486-.122.064-.244.127-.35.204-.36.26-.67.58-.91.95-.87 1.29-.93 3-.07 4.31 2.06 3.09 7 1.81 7.36-1.86a3.877 3.877 0 0 0-1.11-3.12c-.138-.138-.309-.258-.48-.379-.287-.202-.576-.407-.72-.701-.162-.322-.151-.8-.142-1.225.004-.155.007-.304.002-.435-.02-.63-.04-1.25-.07-1.88-.05-1.33-.09-2.65-.12-3.98-.04-1.48-.07-2.96-.09-4.44-.004-.444.01-.9.024-1.357.027-.891.055-1.794-.045-2.653-.08-.65-.44-1.31-1.17-1.36-1.03-.07-1.41.98-1.36 1.81Zm.85 17.02c.383-.314.517-.66.57-1.055.06.2.144.395.26.585.216.35.53.582.846.814.369.27.738.542.954 1.006 1.04 2.25-1.83 4.33-3.71 2.86-.79-.62-1.1-1.6-.75-2.54.242-.65.685-.923 1.17-1.22.216-.134.44-.271.66-.45Z M14.3 13.19c.03 3.744.058 7.497.114 11.241-1.993 1.27-2.818 3.55-2.573 5.909.23 2.26 1.65 4.06 3.63 5.14 2.13 1.17 5.34.63 7-1.13 1.86-1.98 2.72-4.69 1.85-7.31-.32-.96-.81-1.93-1.67-2.52a2.34 2.34 0 0 0-.336-.193.382.382 0 0 1-.132-.083c-.047-.056-.048-.15-.051-.412l-.001-.092v-1.4c0-2.43-.06-4.86-.12-7.29-.021-.88.017-1.781.056-2.688.074-1.734.148-3.488-.186-5.142-.51-2.52-2.91-3.86-5.24-2.71-1.25.62-1.81 1.65-2.01 2.98-.28 1.87-.35 3.78-.33 5.67v.03Zm1.72 11.71-.004-.014a.81.81 0 0 0-.006-.046c-.018-1.168-.015-2.337-.013-3.506.003-1.416.006-2.831-.026-4.244l-.024-.953c-.056-2.253-.112-4.45.064-6.677.012-.154.021-.313.03-.474.07-1.174.15-2.494 1.31-3.056 1.32-.64 2.64.13 2.94 1.51.302 1.41.226 2.95.152 4.448-.028.584-.057 1.161-.062 1.722-.04 3.44.02 6.93.15 10.37.02.57.06 1.02.52 1.41.14.122.293.214.445.305.197.118.391.235.555.415.38.41.61.97.77 1.5.67 2.18-.27 5.28-2.45 6.34-2.46 1.2-5.57.12-6.63-2.45-.872-2.13-.213-4.76 1.822-5.889a.708.708 0 0 0 .458-.711ZM27.67 9.61c-1.38.01-2.76.03-4.14.05-.45.01-.78-.36-.8-.8-.02-.44.38-.8.8-.8.69-.01 1.38-.018 2.07-.025.69-.008 1.38-.015 2.07-.025.45-.01.78.36.8.8.02.44-.38.8-.8.8Zm-4.94 1.41c.02.43.35.8.8.8h2.46c.42 0 .82-.37.8-.8-.02-.43-.35-.8-.8-.8h-2.46c-.42 0-.82.37-.8.8Z M26.05 14.05c-.84-.06-1.68-.08-2.52-.06-.45.01-.78-.36-.8-.8-.02-.44.38-.79.8-.8.84-.02 1.68 0 2.52.06.45.03.78.34.8.8.02.41-.38.83-.8.8Zm-3.32 1.36c.02.43.35.8.8.8h4.08c.42 0 .82-.37.8-.8-.02-.43-.35-.8-.8-.8h-4.08c-.42 0-.82.37-.8.8Zm.8 2.96c-.45-.01-.78-.36-.8-.8-.02-.42.38-.81.8-.8.82.03 1.64.05 2.459.07.45.01.78.36.8.8.02.42-.38.81-.8.8-.82-.03-1.64-.05-2.46-.07Zm-.8 1.43c.02.43.35.8.8.8h2.24c.42 0 .82-.37.8-.8-.02-.43-.35-.8-.8-.8h-2.24c-.42 0-.82.37-.8.8Zm5.11 2.92c-1.44.05-2.87.09-4.31.13-.45.01-.78-.36-.8-.8-.02-.44.38-.79.8-.8 1.44-.05 2.87-.09 4.31-.13.45-.01.78.36.8.8.02.44-.38.79-.8.8Z"/>
</svg>
