<svg xmlns="http://www.w3.org/2000/svg" width="40" height="40" fill="none" viewBox="0 0 40 40">
  <path class="display-icon__fill-2" fill="#B6E5FF" d="M38.03 39.31c-2.15-.81-4.21-1.66-6.33-2.33-1.24-.4-2.06-.99-2.21-2.33-.03-.27-.2-.53-.32-.79-.64-1.31-1.59-1.96-2.73-1.88-1.5.11-2.67.91-3.01 2.31-.28 1.17-.31 2.41-.45 3.62-.02.15-.01.29-.02.53-1.08-.4-2.09-.78-3.1-1.16-2.2-.84-4.4-1.7-6.61-2.51-.55-.2-.77-.44-.76-1.06.03-2.15.16-4.27.84-6.33 1.02-3.09 3.14-5.07 6.18-6.12 3.43-1.18 6.84-1.4 10.17.31 2.57 1.32 4.28 3.48 5.54 6.02 1.76 3.56 2.59 7.36 2.85 11.3 0 .11-.01.21-.03.43l-.01-.01Z"/>
  <path class="display-icon__fill-1" fill="#52B0FF" d="m25.18.31 2.09 18.52s-7.85-.09-10.38 1.76c-2.53 1.85-3.68 2.41-4.15 6.65l-10.82-12S4.8 7.36 11.31 3.88C17.83.39 25.18.31 25.18.31Z"/>
  <path class="display-icon__ink" fill="#1C1D1F" d="M18.393 15.275a7.115 7.115 0 0 1-2.684-1.745c-1.42-1.47-2.65-4.01-1.11-5.82.34-.4.77-.76 1.28-.87a3.02 3.02 0 0 1 1.55.07c.454.144.894.39 1.244.716a2.87 2.87 0 0 1 2.028-.796c.68.01 1.41.23 1.89.73.44.46.64 1.14.72 1.76.09.66.01 1.32-.26 1.93-.26.57-.68 1.09-1.08 1.57-.8.96-1.78 1.78-2.85 2.43-.265.162-.524.143-.728.025ZM16.299 8.32c-.31.05-.64.44-.76.72-.16.37-.13.9-.03 1.27.404 1.493 1.707 2.819 3.14 3.413.66-.437 1.266-.942 1.812-1.523l.048-.051c.522-.562 1.175-1.263 1.282-2.05.05-.41-.01-.88-.18-1.25-.13-.3-.38-.43-.7-.48-.7-.119-1.289.244-1.472.88v.001a1.481 1.481 0 0 0-.01.038.825.825 0 0 1-.018.142l.01.01c-.07.41-.58.64-.95.54a.796.796 0 0 1-.108-.039.7.7 0 0 1-.474-.69v-.11c-.106-.606-1.08-.896-1.59-.82ZM27.62 18.924a4.014 4.014 0 0 0-1.65-1.014c-.61-.19-1.27-.22-1.89-.1-.65.13-1.14.58-1.56 1.07-1.91 2.24-.3 5.42 1.44 7.23a9.137 9.137 0 0 0 3.383 2.204.667.667 0 0 0 .416.101c.176 0 .324-.07.437-.18a14.736 14.736 0 0 0 3.554-3.055c.51-.61 1.04-1.26 1.36-1.99.32-.73.41-1.56.31-2.36-.1-.76-.33-1.59-.88-2.15-.58-.61-1.47-.87-2.3-.88a3.494 3.494 0 0 0-2.62 1.124Zm.002 7.85c-1.96-.778-3.75-2.573-4.312-4.614-.15-.54-.17-1.3.06-1.82.19-.42.66-.96 1.12-1.04.85-.15 2.36.39 2.36 1.43 0 .987 1.529.99 1.54.01.23-.977 1.131-1.532 2.15-1.38.52.08.92.3 1.13.79.22.52.31 1.15.23 1.71-.14 1.1-1.06 2.08-1.79 2.85a13.47 13.47 0 0 1-2.488 2.064Zm-14.889 1.744a12.976 12.976 0 0 0 3.138-2.698c.45-.54.93-1.12 1.22-1.78.29-.66.38-1.41.28-2.14-.09-.69-.3-1.44-.8-1.95-.53-.55-1.34-.79-2.09-.8a3.172 3.172 0 0 0-2.327.966 3.633 3.633 0 0 0-1.425-.846c-.55-.18-1.15-.2-1.72-.09-.57.11-1.03.53-1.41.97-1.72 2.01-.3 4.87 1.27 6.5a7.988 7.988 0 0 0 3.1 1.99.671.671 0 0 0 .174.05.63.63 0 0 0 .59-.172Zm.194-6.61c.182-.85.942-1.343 1.824-1.198.41.07.74.24.91.63.19.45.27.99.2 1.47-.117.927-.89 1.749-1.513 2.41l-.047.05a11.736 11.736 0 0 1-2.149 1.792c-1.68-.686-3.22-2.232-3.703-3.992-.12-.45-.15-1.09.04-1.53.15-.35.55-.81.93-.88.69-.12 1.97.32 1.97 1.17v.01c0 .967 1.469.99 1.538.068Z M19.375 3.606a.818.818 0 0 0-.215-.016l-.01.01c-.03 0-.06.002-.09.004C16.143 3.76 13.289 5.228 12.1 8c-1 2.333-.687 5.18.805 7.164l-.063-.002a.873.873 0 0 0-.122-.002v-.01c-3.3.15-6.55 1.79-7.89 4.93-1.34 3.14-.56 7.08 2.06 9.2 2.62 2.12 6.88 2.48 9.72.41 1.388-1.012 2.358-2.317 2.903-3.772.486 1.16 1.23 2.201 2.217 3.002 2.8 2.27 7.36 2.65 10.41.43 3.05-2.22 4.21-5.75 3.43-9.28-.772-3.49-3.811-6.18-7.476-6.278a.868.868 0 0 0-.124-.002.85.85 0 0 0-.187.02 11.328 11.328 0 0 0-3.12.633c1-1.644 1.291-3.619.857-5.593-.634-2.888-3.134-5.11-6.145-5.244Zm-.31 1.53a.907.907 0 0 0 .085.004c2.07.02 3.93 1.31 4.64 3.28.78 2.18.37 4.6-1.26 6.27-1.88 1.93-4.72 2.09-7.02.78-1.97-1.12-2.81-3.79-2.3-5.93.653-2.728 3.17-4.244 5.855-4.405Zm1.237 12.53a7.815 7.815 0 0 0-.967 1.886 7.548 7.548 0 0 0-1.066-1.713 7.471 7.471 0 0 0 2.033-.173Zm.258 3.154c.82-3.44 4.03-5.34 7.41-5.49 2.61.03 4.93 1.64 5.82 4.12.97 2.71.45 5.73-1.58 7.81-2.35 2.41-5.89 2.61-8.77.98-2.47-1.4-3.52-4.73-2.88-7.42Zm-7.84-4.12c2.39.02 4.53 1.51 5.35 3.78.89 2.5.41 5.28-1.46 7.2-2.16 2.21-5.42 2.4-8.07.9-2.27-1.29-3.23-4.35-2.65-6.82.75-3.17 3.71-4.92 6.83-5.06Z M13.61 34.27c-1.26-.22-2.84-.68-3.27-2.04l.01-.01c-.27-.86 1.07-1.22 1.34-.37.18.585 1.07.796 1.624.927l.096.023c.83.203 1.644.202 2.48.2h.21c1.265-.008 2.416.234 3.21 1.066.162-.25.354-.475.61-.636.618-.393 1.386-.34 2.089-.29l.141.01c.95.07 1.89.07 2.83-.01l.041-.003c.37-.03.792-.062 1.14-.207.52-.22.62-.73.69-1.24.11-.88 1.5-.84 1.39 0-.11.84-.28 1.65-.99 2.2-.61.46-1.39.56-2.13.63a18.06 18.06 0 0 1-3.308-.006c-.483-.044-1.006-.092-1.333.306-.15.183-.257.426-.36.66-.05.112-.098.22-.15.32-.22.42-.99.49-1.2 0-.43-1.02-1.12-1.37-2.2-1.4-.294-.009-.585-.009-.875-.01-.696 0-1.386 0-2.085-.12Z"/>
</svg>
