<svg xmlns="http://www.w3.org/2000/svg" width="40" height="40" fill="none" viewBox="0 0 40 40">
  <path class="display-icon__fill-2" fill="#B6E5FF" d="M18.24.28 12.8 16.95s5.71 1.33 7.94 3.26c2.23 1.93 4.23 3.25 3.85 7.25l14.91-9.67s-3.82-7.14-9.16-11.6C24.99 1.75 18.24.28 18.24.28Z"/>
  <path class="display-icon__fill-1" fill="#52B0FF" d="M2.81 25.92c-.91 3.39-.74 6.49 1.42 9.25 1.56 1.99 3.69 3.12 6.08 3.76 2.51.67 5.02.7 7.42-.47 3.22-1.58 4.82-4.35 5.49-7.74.62-3.16.08-6.11-2.23-8.43-3.13-3.16-7-4.29-11.34-3.33-3.12.69-5.13 2.82-6.37 5.71-.19.45-.35.93-.48 1.26l.01-.01Z"/>
  <path class="display-icon__ink" fill="#1C1D1F" d="M28.85 15.535c-.403.387-.807.774-1.216 1.154 1.034-.237 2.082-.374 3.096-.279 1.48.13 3.19.8 3.87 2.2.13.27.13.62-.11.83-1.23 1.1-2.54 2.09-3.86 3.07-.18.14-.5.12-.69 0-1.45-.93-3.09-1.49-4.81-1.57-.81-.04-1.6.04-2.4.19-.57.11-.91.07-1.36-.32-.6-.52-1.13-1.13-1.63-1.75l-.013-.017c-.324-.402-.596-.74-.587-1.283.012-.59.092-1.17.172-1.752.13-.938.259-1.875.098-2.838-.085-.523-.287-.998-.49-1.476a23.32 23.32 0 0 1-.17-.404l-.057-.127c-.14-.302-.285-.62-.163-.953.263-.713 1.042-1.385 1.672-1.93.14-.12.271-.233.388-.34.076-.07.166-.16.266-.26.505-.512 1.275-1.29 1.884-.94.53.309.912 1.202 1.173 1.813l.074.174.012.027.011.026c.534 1.233.577 2.659.278 4.013a140.3 140.3 0 0 0 2.31-2.306L27 10.08c1.88-1.91 3.83-3.74 5.85-5.5.23-.2.56-.28.83-.11 1.18.72 2.15 1.65 2.95 2.77.18.26.07.61-.11.83-1.571 1.893-3.392 3.537-5.213 5.182L30.48 14a86.808 86.808 0 0 0-1.63 1.535Zm-4.287 3.356c-.45-.168-.59-.886-.167-1.208a.795.795 0 0 1 .064-.053c1.286-.95 2.45-2.075 3.61-3.198a75.109 75.109 0 0 1 1.7-1.612l.701-.636c1.631-1.478 3.262-2.955 4.706-4.612a8.591 8.591 0 0 0-1.774-1.648 109.227 109.227 0 0 0-5.423 5.126l-.401.407c-1.527 1.548-3.064 3.106-4.729 4.503-.56.47-1.56-.16-1.08-.83.97-1.34 1.36-2.82 1.28-4.47-.03-.69-.2-1.22-.52-1.83a17.12 17.12 0 0 0-.295-.526 3.968 3.968 0 0 1-.155.156c-.34.29-.67.58-.99.89-.416.4-.817.791-1.168 1.237l.033.084c.486 1.246.923 2.367.895 3.77-.008.724-.102 1.441-.196 2.158l-.064.491-.008.058c-.065.442-.1.677.178 1.022.29.36.6.71.92 1.04.04.042.082.089.125.137.13.146.273.305.415.403.076.05.078.083.065.103.034-.014.099-.035.215-.063.356-.086.73-.127 1.086-.165l.044-.005c.8-.08 1.61-.06 2.41.04 1.493.191 2.92.68 4.211 1.438.97-.725 1.934-1.461 2.854-2.253-.766-.89-2.216-1.136-3.315-1.075-1.52.085-3.077.575-4.528 1.032l-.188.059a.526.526 0 0 1-.51.03ZM12.367 23.69c-1.034.238-2.083.375-3.097.28-1.48-.13-3.19-.8-3.87-2.2-.13-.27-.13-.62.11-.83 1.23-1.1 2.54-2.09 3.86-3.07.18-.14.5-.12.69 0 1.45.93 3.09 1.49 4.81 1.57.81.04 1.6-.04 2.4-.19.57-.11.91-.07 1.36.32.6.52 1.13 1.13 1.63 1.75l.014.017c.324.402.596.74.586 1.283-.011.59-.091 1.171-.172 1.752-.13.938-.258 1.875-.098 2.838.086.523.288.998.491 1.476a8.646 8.646 0 0 0 .227.531c.139.303.285.62.162.953-.262.713-1.041 1.385-1.671 1.93-.14.12-.271.233-.389.34-.076.07-.165.16-.265.261-.505.511-1.275 1.29-1.885.94-.53-.31-.91-1.203-1.172-1.814a20.577 20.577 0 0 0-.098-.227c-.534-1.232-.577-2.659-.278-4.012-.782.757-1.547 1.532-2.31 2.305L13 30.3a104.78 104.78 0 0 1-5.85 5.5c-.23.2-.56.28-.83.11a9.997 9.997 0 0 1-2.95-2.77c-.18-.26-.07-.61.11-.83 1.572-1.893 3.393-3.537 5.214-5.182l.826-.748c.551-.501 1.09-1.018 1.63-1.535.404-.387.808-.773 1.217-1.154Zm2.56-2.17a.526.526 0 0 1 .51-.03c.45.167.59.885.168 1.207a.778.778 0 0 1-.065.053c-1.286.95-2.45 2.075-3.61 3.198a71.373 71.373 0 0 1-1.7 1.612l-.7.636c-1.631 1.478-3.262 2.955-4.706 4.613a8.594 8.594 0 0 0 1.773 1.647 109.206 109.206 0 0 0 5.423-5.126l.402-.407c1.527-1.547 3.064-3.105 4.728-4.503.56-.47 1.56.16 1.08.83-.97 1.34-1.36 2.82-1.28 4.47.03.69.2 1.22.52 1.83.097.177.194.354.295.526a3.98 3.98 0 0 1 .155-.156c.34-.29.67-.58.99-.89.416-.4.818-.791 1.169-1.237l-.033-.084c-.486-1.246-.923-2.367-.896-3.769.008-.724.103-1.442.197-2.159l.063-.49.009-.059c.065-.442.1-.677-.179-1.022-.29-.36-.6-.71-.92-1.04-.04-.042-.081-.089-.124-.137-.13-.146-.273-.305-.416-.403-.075-.049-.078-.083-.064-.102a1.658 1.658 0 0 1-.216.062 8.271 8.271 0 0 1-1.085.165l-.045.005c-.8.08-1.61.06-2.41-.04a11.102 11.102 0 0 1-4.21-1.438c-.97.725-1.934 1.461-2.854 2.254.766.889 2.216 1.135 3.314 1.074 1.521-.084 3.078-.575 4.529-1.031l.188-.06Z"/>
</svg>
