<svg xmlns="http://www.w3.org/2000/svg" width="24" height="24" fill="none" viewBox="0 0 24 24">
  <path fill="currentColor" d="M20.338 2.25H3.72c-.795 0-1.47.629-1.47 1.403v16.693c0 .775.443 1.404 1.238 1.404h16.617c.796 0 1.645-.629 1.645-1.404V3.653c0-.774-.617-1.403-1.412-1.403ZM9.678 9.679h2.626v1.338h.028c.4-.722 1.583-1.454 3.044-1.454 2.806 0 3.588 1.489 3.588 4.248v5.153H16.18V14.32c0-1.235-.493-2.319-1.647-2.319-1.4 0-2.068.948-2.068 2.504v4.46H9.68V9.68Zm-4.642 9.285V9.68H7.82v9.285H5.036ZM8.17 6.43a1.74 1.74 0 1 1-3.481 0 1.74 1.74 0 0 1 3.48 0Z"/>
</svg>
