<svg xmlns="http://www.w3.org/2000/svg" width="24" height="24" fill="none" viewBox="0 0 24 24">
  <path fill="currentColor" d="M8.765 8.365a3.375 3.375 0 1 0-.848 1.237L11.422 12l-3.505 2.398a3.375 3.375 0 1 0 .848 1.238l3.985-2.727 8.576 5.867a.75.75 0 1 0 .847-1.238L8.765 8.365ZM5.625 5.25a1.875 1.875 0 0 1 1.556 2.921l-.008.013-.008.012a1.875 1.875 0 1 1-1.54-2.946Zm0 9.75c.638 0 1.201.319 1.54.805l.008.011.008.012A1.875 1.875 0 1 1 5.625 15Z"/>
  <path fill="currentColor" d="M22.369 5.42a.75.75 0 0 1-.195 1.042l-6.345 4.34a.75.75 0 0 1-.847-1.239l6.345-4.34a.75.75 0 0 1 1.042.196Z"/>
</svg>
