<svg xmlns="http://www.w3.org/2000/svg" width="24" height="24" fill="none" viewBox="0 0 24 24">
  <path fill="currentColor" d="M20.028 7.718a.75.75 0 0 1 .222.532v2.25a.75.75 0 0 1-1.5 0V9h-4.5a.75.75 0 0 1-.75-.75v-4.5H5.25v6.75a.75.75 0 0 1-1.5 0V3.75a1.5 1.5 0 0 1 1.5-1.5h9a.75.75 0 0 1 .532.222l5.246 5.246ZM17.69 7.5 15 4.81V7.5h2.69Zm-5.646 8.591c.42.12.987.284 1.423.588.236.164.465.389.615.7.15.32.202.678.15 1.028-.086.674-.43 1.16-.91 1.46-.444.277-.955.363-1.375.383a5.486 5.486 0 0 1-1.128-.076 6.138 6.138 0 0 1-.465-.097l-.03-.008-.01-.002-.005-.002a.75.75 0 1 1 .4-1.446h.002l.015.005.07.017c.063.015.157.034.27.053.231.039.525.07.811.057.296-.014.516-.073.652-.157.1-.063.187-.155.216-.379.015-.118-.005-.166-.013-.183a.346.346 0 0 0-.122-.122c-.2-.14-.52-.245-.996-.382l-.09-.026c-.399-.114-.92-.263-1.32-.513a1.786 1.786 0 0 1-.636-.645 1.626 1.626 0 0 1-.178-1.007c.085-.671.432-1.153.91-1.448.441-.273.95-.36 1.37-.383.428-.022.835.02 1.126.066.156.024.311.055.465.091l.031.008.01.002.003.001h.002a.75.75 0 0 1-.383 1.451l-.016-.004a4.672 4.672 0 0 0-.342-.067 4.073 4.073 0 0 0-.818-.05c-.3.016-.522.076-.66.16-.102.065-.183.152-.21.361a.274.274 0 0 0 0 .08c0 .005.002.01.004.014s.023.04.114.097c.214.133.543.23 1.033.37l.015.005ZM5.996 15c.362.006.706.16.952.427a.75.75 0 1 0 1.104-1.017 2.823 2.823 0 0 0-2.042-.91H6c-1.762 0-3 1.625-3 3.375 0 1.751 1.238 3.375 3 3.375h.009a2.825 2.825 0 0 0 2.043-.91.75.75 0 0 0-1.104-1.017c-.245.267-.59.421-.952.427-.724-.003-1.496-.729-1.496-1.875 0-1.145.772-1.872 1.496-1.875Zm12.798-1.002a.75.75 0 0 1 1.412.504l-1.875 5.25a.75.75 0 0 1-1.412 0l-1.875-5.25a.75.75 0 0 1 1.412-.504l1.169 3.272 1.169-3.272Z"/>
</svg>
