<svg xmlns="http://www.w3.org/2000/svg" width="24" height="24" fill="none" viewBox="0 0 24 24">
  <path fill="currentColor" d="M20.03 7.72a.752.752 0 0 1 .22.53v2.25a.75.75 0 0 1-1.5 0V9h-4.5a.75.75 0 0 1-.75-.75v-4.5H5.25v6.75a.75.75 0 0 1-1.5 0V3.75c0-.827.673-1.5 1.5-1.5h9a.749.749 0 0 1 .53.22l5.25 5.25Zm-2.34-.22L15 4.81V7.5h2.69Zm-6.44 6a.75.75 0 0 1 .75.75v4.5h1.875a.75.75 0 0 1 0 1.5H11.25a.75.75 0 0 1-.75-.75v-5.25a.75.75 0 0 1 .75-.75Zm6.716 2.568c-.866-.249-1.11-.37-1.088-.544.026-.209.106-.29.19-.346.43-.29 1.437-.162 1.858-.052a.751.751 0 0 0 .383-1.45c-.199-.054-1.97-.492-3.079.258-.474.319-.764.804-.84 1.403-.189 1.496 1.282 1.92 2.16 2.172h.002c1.126.325 1.225.458 1.193.706-.03.226-.118.314-.202.37-.433.287-1.424.146-1.835.035a.75.75 0 0 0-.4 1.445c.11.03.713.19 1.419.19.546 0 1.156-.096 1.643-.42.485-.32.783-.815.863-1.429.21-1.626-1.34-2.072-2.267-2.338ZM7.64 13.815a.75.75 0 0 1 1.22.87l-1.563 2.19 1.563 2.19a.75.75 0 1 1-1.22.87l-1.265-1.77-1.265 1.77a.75.75 0 1 1-1.22-.87l1.563-2.19-1.563-2.19a.75.75 0 1 1 1.22-.87l1.265 1.77 1.265-1.77Z"/>
</svg>
