<svg xmlns="http://www.w3.org/2000/svg" width="24" height="24" fill="none" viewBox="0 0 24 24">
  <path fill="currentColor" d="M12 13.5a.75.75 0 0 0 .75-.75V7.5a.75.75 0 0 0-1.5 0v5.25c0 .414.336.75.75.75Zm1.125 2.625a1.125 1.125 0 1 1-2.25 0 1.125 1.125 0 0 1 2.25 0Z"/>
  <path fill="currentColor" d="m21.31 7.521-4.833-4.834a1.505 1.505 0 0 0-1.056-.437H8.583c-.396 0-.783.161-1.06.44L2.686 7.521c-.282.284-.437.66-.437 1.059v6.835c0 .401.157.778.44 1.06l4.832 4.835c.282.283.659.438 1.06.438h6.835c.4 0 .777-.156 1.06-.44l4.835-4.832c.283-.282.438-.659.438-1.06V8.582c0-.395-.16-.781-.44-1.06ZM15.416 20.25l-6.835.001-4.832-4.834-.001-6.834L8.583 3.75h6.834v-.002l4.832 4.834.001 6.835-4.834 4.832Z"/>
</svg>
