<svg xmlns="http://www.w3.org/2000/svg" width="24" height="24" fill="none" viewBox="0 0 24 24">
  <path fill="currentColor" d="M13.5 3.75a.75.75 0 0 1 .75-.75h5.962a.748.748 0 0 1 .787.787L21 9.75a.75.75 0 0 1-1.5 0V5.561l-6.22 6.22a.75.75 0 1 1-1.06-1.061l6.219-6.22h-4.19a.75.75 0 0 1-.749-.75Z"/>
  <path fill="currentColor" d="M3.44 6.44A1.5 1.5 0 0 1 4.5 6h6.75a.75.75 0 0 1 0 1.5H4.5v12h12v-6.75a.75.75 0 0 1 1.5 0v6.75a1.5 1.5 0 0 1-1.5 1.5h-12A1.5 1.5 0 0 1 3 19.5v-12c0-.398.158-.78.44-1.06Z"/>
</svg>
