<svg xmlns="http://www.w3.org/2000/svg" width="24" height="24" fill="none" viewBox="0 0 24 24">
  <path fill="currentColor" d="M2.529 9.167a.75.75 0 0 1 1.055.112 12.623 12.623 0 0 0 2.088 2.06C7.212 12.527 9.292 13.5 12 13.5s4.79-.974 6.33-2.163a12.617 12.617 0 0 0 2.087-2.059.75.75 0 0 1 1.167.943c-.48.594-1.08 1.246-1.81 1.872l1.877 3.285a.75.75 0 0 1-1.302.744l-1.778-3.111a11.597 11.597 0 0 1-3.381 1.564l.55 3.302a.75.75 0 1 1-1.48.246l-.54-3.242a12.322 12.322 0 0 1-3.44-.001l-.54 3.243a.75.75 0 0 1-1.48-.246l.55-3.302a11.59 11.59 0 0 1-3.38-1.564l-1.78 3.111a.75.75 0 1 1-1.302-.744l1.877-3.285a14.382 14.382 0 0 1-1.81-1.872.75.75 0 0 1 .113-1.054Z"/>
</svg>
