<svg xmlns="http://www.w3.org/2000/svg" width="24" height="24" fill="none" viewBox="0 0 24 24">
  <path fill="currentColor" d="M20.03 5.03a.75.75 0 1 0-1.06-1.06L15 7.94V6a.75.75 0 0 0-1.5 0v3.75a.747.747 0 0 0 .218.529l.002.001.001.002a.749.749 0 0 0 .529.218H18A.75.75 0 0 0 18 9h-1.94l3.97-3.97ZM6 15a.75.75 0 0 1 0-1.5h3.75c.206 0 .393.083.529.218l.001.002.002.001a.749.749 0 0 1 .218.529V18A.75.75 0 0 1 9 18v-1.94l-3.97 3.97a.75.75 0 0 1-1.06-1.06L7.94 15H6Zm7.963-1.443a.747.747 0 0 1 .287-.057H18a.75.75 0 0 1 0 1.5h-1.94l3.97 3.97a.75.75 0 1 1-1.06 1.06L15 16.06V18a.75.75 0 0 1-1.5 0v-3.75c0-.205.082-.39.215-.525l.01-.01a.747.747 0 0 1 .238-.158ZM9.75 5.25a.75.75 0 0 1 .75.75v3.75a.75.75 0 0 1-.75.75H6A.75.75 0 0 1 6 9h1.94L3.97 5.03a.75.75 0 1 1 1.06-1.06L9 7.94V6a.75.75 0 0 1 .75-.75Z"/>
</svg>
