<svg xmlns="http://www.w3.org/2000/svg" width="24" height="24" fill="none" viewBox="0 0 24 24">
  <path fill="currentColor" d="M10.5 11.25a.75.75 0 0 1 .75-.75 1.5 1.5 0 0 1 1.5 1.5v3.75a.75.75 0 0 1 0 1.5 1.5 1.5 0 0 1-1.5-1.5V12a.75.75 0 0 1-.75-.75Zm2.25-3.375a1.125 1.125 0 1 1-2.25 0 1.125 1.125 0 0 1 2.25 0Z"/>
  <path fill="currentColor" d="M2.25 12c0-5.385 4.365-9.75 9.75-9.75s9.75 4.365 9.75 9.75-4.365 9.75-9.75 9.75S2.25 17.385 2.25 12ZM12 3.75a8.25 8.25 0 1 0 0 16.5 8.25 8.25 0 0 0 0-16.5Z"/>
</svg>
