<svg xmlns="http://www.w3.org/2000/svg" width="24" height="24" fill="none" viewBox="0 0 24 24">
  <path fill="currentColor" d="M12.75 15.641a2.626 2.626 0 1 0-1.5 0v1.609a.75.75 0 0 0 1.5 0v-1.609ZM12 12a1.125 1.125 0 1 1 0 2.25A1.125 1.125 0 0 1 12 12Z"/>
  <path fill="currentColor" d="M9.879 3.129A3 3 0 0 1 12 2.25c1.468 0 2.74 1.048 3.015 2.4a.75.75 0 0 0 1.47-.3C16.064 2.28 14.16.75 12 .75a4.5 4.5 0 0 0-4.5 4.5V7.5h-3A1.5 1.5 0 0 0 3 9v10.5A1.5 1.5 0 0 0 4.5 21h15a1.5 1.5 0 0 0 1.5-1.5V9a1.5 1.5 0 0 0-1.5-1.5H9V5.25a3 3 0 0 1 .879-2.121ZM4.5 9h15v10.5h-15V9Z"/>
</svg>
