<svg xmlns="http://www.w3.org/2000/svg" width="24" height="24" fill="none" viewBox="0 0 24 24">
  <path fill="currentColor" d="M12.75 15.641a2.626 2.626 0 1 0-1.5 0v1.609a.75.75 0 0 0 1.5 0v-1.609Zm-1.875-2.516a1.125 1.125 0 1 1 2.25 0 1.125 1.125 0 0 1-2.25 0Z"/>
  <path fill="currentColor" d="M3 9a1.5 1.5 0 0 1 1.5-1.5h3V5.25a4.5 4.5 0 0 1 9 0V7.5h3A1.5 1.5 0 0 1 21 9v10.5a1.5 1.5 0 0 1-1.5 1.5h-15A1.5 1.5 0 0 1 3 19.5V9Zm6.879-5.871A3 3 0 0 0 9 5.25V7.5h6V5.25a3 3 0 0 0-5.121-2.121ZM19.5 9h-15v10.5h15V9Z"/>
</svg>
