<svg xmlns="http://www.w3.org/2000/svg" width="24" height="24" fill="none" viewBox="0 0 24 24">
  <path fill="currentColor" d="M12 8.25a3.75 3.75 0 1 0 0 7.5 3.75 3.75 0 0 0 0-7.5ZM9.75 12a2.25 2.25 0 1 1 4.5 0 2.25 2.25 0 0 1-4.5 0Z"/>
  <path fill="currentColor" d="M5.263 5.25a.76.76 0 0 0-.027 0H1.5A.75.75 0 0 0 .75 6v12c0 .414.336.75.75.75h17.238a.59.59 0 0 0 .026 0H22.5a.75.75 0 0 0 .75-.75V6a.75.75 0 0 0-.75-.75h-3.735a.76.76 0 0 0-.027 0H5.263Zm-.76 3.753A5.33 5.33 0 0 0 5.845 6.75h12.31a5.33 5.33 0 0 0 3.595 3.594v3.312a5.33 5.33 0 0 0-3.594 3.594H5.845a5.33 5.33 0 0 0-3.595-3.595v-3.31a5.33 5.33 0 0 0 2.253-1.342Zm-1.06-1.06a3.83 3.83 0 0 1-1.193.809V6.75h2.002a3.83 3.83 0 0 1-.81 1.193Zm0 8.114c.345.345.618.75.809 1.193H2.25v-2.002c.443.19.848.465 1.193.81Zm17.114 0c.345-.344.75-.618 1.193-.809v2.002h-2.002c.191-.443.465-.848.81-1.193Zm0-8.114a3.83 3.83 0 0 1-.809-1.193h2.002v2.002a3.83 3.83 0 0 1-1.193-.81Z"/>
</svg>
