<svg xmlns="http://www.w3.org/2000/svg" width="24" height="24" fill="none" viewBox="0 0 24 24">
  <path fill="currentColor" d="M4.755 14.806a5.625 5.625 0 1 1 6.24 0 9 9 0 0 1 4.425 3.535.75.75 0 0 1-1.258.818 7.5 7.5 0 0 0-12.574 0A.75.75 0 1 1 .33 18.34a9 9 0 0 1 4.425-3.535ZM3.75 10.125a4.125 4.125 0 1 0 8.25 0 4.125 4.125 0 0 0-8.25 0Zm15.952 6.531a7.493 7.493 0 0 0-3.577-.906.75.75 0 1 1 0-1.5 4.123 4.123 0 0 0 4.046-4.905 4.126 4.126 0 0 0-5.579-3.051.75.75 0 0 1-.555-1.394 5.625 5.625 0 0 1 5.204 9.905 9 9 0 0 1 4.429 3.536.75.75 0 0 1-1.258.818 7.493 7.493 0 0 0-2.71-2.503Z"/>
</svg>
