<svg xmlns="http://www.w3.org/2000/svg" width="24" height="24" fill="none" viewBox="0 0 24 24">
  <path fill="currentColor" d="m16.419 12.871 4.431 1.985c.596.254.966.895.89 1.552C21.387 19.031 19.137 21 16.503 21h-.005c-7.443 0-13.5-6.056-13.5-13.5A5.296 5.296 0 0 1 7.58 2.263a1.514 1.514 0 0 1 1.566.898l1.977 4.412a1.499 1.499 0 0 1-.12 1.424L8.95 11.451c.75 1.355 2.255 2.848 3.709 3.549l2.27-1.946a1.492 1.492 0 0 1 1.491-.183ZM4.499 7.499c0 6.618 5.384 12 12 12h.004a3.793 3.793 0 0 0 3.748-3.278l-4.418-1.968-2.281 1.938c-.503.344-1.069.386-1.54.162-1.763-.85-3.514-2.587-4.361-4.324a1.504 1.504 0 0 1 .098-1.474l2.055-2.452-2.03-4.34C5.907 3.999 4.497 5.61 4.5 7.499Z"/>
</svg>
