<svg xmlns="http://www.w3.org/2000/svg" width="24" height="24" fill="none" viewBox="0 0 24 24">
  <path fill="currentColor" d="M12 9a.75.75 0 0 1 .75.75v3.75a.75.75 0 0 1-1.5 0V9.75A.75.75 0 0 1 12 9Zm1.125 7.875a1.125 1.125 0 1 1-2.25 0 1.125 1.125 0 0 1 2.25 0Z"/>
  <path fill="currentColor" d="M14.001 3.397c-.878-1.53-3.122-1.53-4.002 0L1.8 17.633v.002C.921 19.166 2.073 21 3.8 21h16.4c1.726 0 2.878-1.833 2.001-3.364l-8.2-14.24Zm-1.3.747 8.2 14.238c.27.475-.062 1.118-.701 1.118H3.8c-.638 0-.97-.644-.7-1.119l8.2-14.237c.302-.525 1.099-.525 1.4 0Z"/>
</svg>
